M48
;DRILL file {KiCad (6.0.0-rc1-dev-689-g9e828e0d9)} date 01/24/19 19:25:56
;FORMAT={-:-/ absolute / inch / decimal}
FMAT,2
INCH
T1C0.0157
T2C0.0197
T3C0.0295
T4C0.0394
%
G90
G05
M72
T1
X5.355Y-2.315
X5.45Y-2.32
X6.53Y-2.5
X6.54Y-3.0
X6.86Y-2.9
X7.52Y-2.86
T2
X7.2426Y-2.2536
X7.3174Y-2.2536
T3
X6.585Y-2.285
X6.635Y-2.335
X6.685Y-2.285
X6.805Y-2.3125
X6.855Y-2.2625
X6.905Y-2.3125
T4
X6.775Y-2.09
X6.875Y-2.09
X6.975Y-2.09
X7.075Y-2.09
X7.175Y-2.09
X3.6Y-2.3
X3.6Y-2.4
X3.6Y-2.5
X3.6Y-2.6
X3.6Y-2.7
X3.6Y-2.8
X3.6Y-2.9
X3.6Y-3.0
X3.6Y-3.1
X3.6Y-3.2
X3.6Y-3.3
X7.78Y-2.12
X2.5Y-2.3
X2.5Y-2.4
X2.5Y-2.5
X2.5Y-2.6
X2.5Y-2.7
X2.5Y-2.8
X2.5Y-2.9
X2.5Y-3.0
X2.5Y-3.1
X2.5Y-3.2
X2.5Y-3.3
T0
M30
