G04 #@! TF.GenerationSoftware,KiCad,Pcbnew,(6.0.0-rc1-dev-689-g9e828e0d9)*
G04 #@! TF.CreationDate,2019-01-24T19:25:52+01:00*
G04 #@! TF.ProjectId,Mainboard_3.0,4D61696E626F6172645F332E302E6B69,rev?*
G04 #@! TF.SameCoordinates,Original*
G04 #@! TF.FileFunction,Copper,L1,Top,Signal*
G04 #@! TF.FilePolarity,Positive*
%FSLAX46Y46*%
G04 Gerber Fmt 4.6, Leading zero omitted, Abs format (unit mm)*
G04 Created by KiCad (PCBNEW (6.0.0-rc1-dev-689-g9e828e0d9)) date 01/24/19 19:25:52*
%MOMM*%
%LPD*%
G01*
G04 APERTURE LIST*
G04 #@! TA.AperFunction,SMDPad,CuDef*
%ADD10R,2.159000X3.302000*%
G04 #@! TD*
G04 #@! TA.AperFunction,SMDPad,CuDef*
%ADD11R,1.270000X2.540000*%
G04 #@! TD*
G04 #@! TA.AperFunction,SMDPad,CuDef*
%ADD12R,0.762000X2.540000*%
G04 #@! TD*
G04 #@! TA.AperFunction,ComponentPad*
%ADD13R,1.300000X1.300000*%
G04 #@! TD*
G04 #@! TA.AperFunction,ComponentPad*
%ADD14C,1.300000*%
G04 #@! TD*
G04 #@! TA.AperFunction,SMDPad,CuDef*
%ADD15R,1.070000X1.800000*%
G04 #@! TD*
G04 #@! TA.AperFunction,ComponentPad*
%ADD16O,1.700000X1.700000*%
G04 #@! TD*
G04 #@! TA.AperFunction,ComponentPad*
%ADD17R,1.700000X1.700000*%
G04 #@! TD*
G04 #@! TA.AperFunction,SMDPad,CuDef*
%ADD18R,2.500000X1.000000*%
G04 #@! TD*
G04 #@! TA.AperFunction,SMDPad,CuDef*
%ADD19R,1.000000X1.800000*%
G04 #@! TD*
G04 #@! TA.AperFunction,SMDPad,CuDef*
%ADD20R,1.800000X1.070000*%
G04 #@! TD*
G04 #@! TA.AperFunction,ComponentPad*
%ADD21C,2.540000*%
G04 #@! TD*
G04 #@! TA.AperFunction,SMDPad,CuDef*
%ADD22R,1.900000X1.000000*%
G04 #@! TD*
G04 #@! TA.AperFunction,SMDPad,CuDef*
%ADD23R,1.700000X1.300000*%
G04 #@! TD*
G04 #@! TA.AperFunction,SMDPad,CuDef*
%ADD24R,0.600000X1.550000*%
G04 #@! TD*
G04 #@! TA.AperFunction,ComponentPad*
%ADD25C,1.000000*%
G04 #@! TD*
G04 #@! TA.AperFunction,ViaPad*
%ADD26C,0.800000*%
G04 #@! TD*
G04 #@! TA.AperFunction,Conductor*
%ADD27C,1.000000*%
G04 #@! TD*
G04 #@! TA.AperFunction,Conductor*
%ADD28C,0.550000*%
G04 #@! TD*
G04 #@! TA.AperFunction,Conductor*
%ADD29C,0.750000*%
G04 #@! TD*
G04 #@! TA.AperFunction,Conductor*
%ADD30C,0.254000*%
G04 #@! TD*
G04 APERTURE END LIST*
D10*
G04 #@! TO.P,J9,13*
G04 #@! TO.N,GND*
X149860000Y-88900000D03*
D11*
G04 #@! TO.P,J9,9*
G04 #@! TO.N,Net-(J9-Pad9)*
X146050000Y-62230000D03*
G04 #@! TO.P,J9,1*
G04 #@! TO.N,GPIO16*
X143256000Y-62230000D03*
G04 #@! TO.P,J9,2*
G04 #@! TO.N,GPIO13*
X140970000Y-62230000D03*
G04 #@! TO.P,J9,3*
G04 #@! TO.N,GND*
X138430000Y-62230000D03*
G04 #@! TO.P,J9,4*
G04 #@! TO.N,3v3*
X135890000Y-62230000D03*
G04 #@! TO.P,J9,5*
G04 #@! TO.N,Net-(J9-Pad5)*
X133350000Y-62230000D03*
G04 #@! TO.P,J9,6*
G04 #@! TO.N,GND*
X130810000Y-62230000D03*
D12*
G04 #@! TO.P,J9,10*
G04 #@! TO.N,ADC*
X125222000Y-62230000D03*
D11*
G04 #@! TO.P,J9,8*
G04 #@! TO.N,Net-(J9-Pad8)*
X126746000Y-62230000D03*
G04 #@! TO.P,J9,11*
G04 #@! TO.N,Net-(J9-Pad11)*
X123698000Y-62230000D03*
G04 #@! TO.P,J9,7*
G04 #@! TO.N,Net-(J9-Pad7)*
X128524000Y-62230000D03*
D10*
G04 #@! TO.P,J9,12*
G04 #@! TO.N,GND*
X123190000Y-88900000D03*
G04 #@! TD*
D13*
G04 #@! TO.P,Q2,1*
G04 #@! TO.N,Net-(J8-Pad2)*
X172847000Y-58737500D03*
D14*
G04 #@! TO.P,Q2,3*
G04 #@! TO.N,GPIO0*
X175387000Y-58737500D03*
G04 #@! TO.P,Q2,2*
G04 #@! TO.N,Net-(Q2-Pad2)*
X174117000Y-57467500D03*
G04 #@! TD*
D13*
G04 #@! TO.P,Q1,1*
G04 #@! TO.N,Net-(J8-Pad1)*
X169799000Y-58039000D03*
D14*
G04 #@! TO.P,Q1,3*
G04 #@! TO.N,Net-(Q1-Pad3)*
X167259000Y-58039000D03*
G04 #@! TO.P,Q1,2*
G04 #@! TO.N,Net-(Q1-Pad2)*
X168529000Y-59309000D03*
G04 #@! TD*
D15*
G04 #@! TO.P,R5,2*
G04 #@! TO.N,GPIO0*
X178816000Y-71120000D03*
G04 #@! TO.P,R5,1*
G04 #@! TO.N,3v3*
X175806000Y-71120000D03*
G04 #@! TD*
G04 #@! TO.P,R4,2*
G04 #@! TO.N,GPIO4*
X178816000Y-68580000D03*
G04 #@! TO.P,R4,1*
G04 #@! TO.N,3v3*
X175806000Y-68580000D03*
G04 #@! TD*
G04 #@! TO.P,R3,2*
G04 #@! TO.N,GPIO5*
X178816000Y-66040000D03*
G04 #@! TO.P,R3,1*
G04 #@! TO.N,3v3*
X175806000Y-66040000D03*
G04 #@! TD*
G04 #@! TO.P,R7,2*
G04 #@! TO.N,Net-(J5-Pad7)*
X178816000Y-76200000D03*
G04 #@! TO.P,R7,1*
G04 #@! TO.N,GND*
X175806000Y-76200000D03*
G04 #@! TD*
G04 #@! TO.P,R6,2*
G04 #@! TO.N,GPIO2*
X178816000Y-73660000D03*
G04 #@! TO.P,R6,1*
G04 #@! TO.N,3v3*
X175806000Y-73660000D03*
G04 #@! TD*
D16*
G04 #@! TO.P,J4,11*
G04 #@! TO.N,Net-(J4-Pad11)*
X91440000Y-58420000D03*
G04 #@! TO.P,J4,10*
G04 #@! TO.N,Net-(J4-Pad10)*
X91440000Y-60960000D03*
G04 #@! TO.P,J4,9*
G04 #@! TO.N,Net-(J4-Pad9)*
X91440000Y-63500000D03*
G04 #@! TO.P,J4,8*
G04 #@! TO.N,Net-(J4-Pad8)*
X91440000Y-66040000D03*
G04 #@! TO.P,J4,7*
G04 #@! TO.N,Net-(J4-Pad7)*
X91440000Y-68580000D03*
G04 #@! TO.P,J4,6*
G04 #@! TO.N,Net-(J4-Pad6)*
X91440000Y-71120000D03*
G04 #@! TO.P,J4,5*
G04 #@! TO.N,Net-(J4-Pad5)*
X91440000Y-73660000D03*
G04 #@! TO.P,J4,4*
G04 #@! TO.N,Net-(J4-Pad4)*
X91440000Y-76200000D03*
G04 #@! TO.P,J4,3*
G04 #@! TO.N,Net-(J4-Pad3)*
X91440000Y-78740000D03*
G04 #@! TO.P,J4,2*
G04 #@! TO.N,Net-(J4-Pad2)*
X91440000Y-81280000D03*
D17*
G04 #@! TO.P,J4,1*
G04 #@! TO.N,Net-(J4-Pad1)*
X91440000Y-83820000D03*
G04 #@! TD*
D18*
G04 #@! TO.P,U1,22*
G04 #@! TO.N,Net-(J4-Pad11)*
X85070000Y-58730000D03*
G04 #@! TO.P,U1,21*
G04 #@! TO.N,Net-(J4-Pad10)*
X85070000Y-60730000D03*
G04 #@! TO.P,U1,20*
G04 #@! TO.N,Net-(J4-Pad9)*
X85070000Y-62730000D03*
G04 #@! TO.P,U1,19*
G04 #@! TO.N,Net-(J4-Pad8)*
X85070000Y-64730000D03*
G04 #@! TO.P,U1,18*
G04 #@! TO.N,Net-(J4-Pad7)*
X85070000Y-66730000D03*
G04 #@! TO.P,U1,17*
G04 #@! TO.N,Net-(J4-Pad6)*
X85070000Y-68730000D03*
G04 #@! TO.P,U1,16*
G04 #@! TO.N,Net-(J4-Pad5)*
X85070000Y-70730000D03*
G04 #@! TO.P,U1,15*
G04 #@! TO.N,Net-(J4-Pad4)*
X85070000Y-72730000D03*
D19*
G04 #@! TO.P,U1,14*
G04 #@! TO.N,Net-(J4-Pad3)*
X82470000Y-74230000D03*
G04 #@! TO.P,U1,13*
G04 #@! TO.N,Net-(J4-Pad2)*
X80470000Y-74230000D03*
G04 #@! TO.P,U1,12*
G04 #@! TO.N,Net-(J4-Pad1)*
X78470000Y-74230000D03*
G04 #@! TO.P,U1,11*
G04 #@! TO.N,Net-(J1-Pad1)*
X76470000Y-74230000D03*
G04 #@! TO.P,U1,10*
G04 #@! TO.N,Net-(J1-Pad2)*
X74470000Y-74230000D03*
G04 #@! TO.P,U1,9*
G04 #@! TO.N,Net-(J1-Pad3)*
X72470000Y-74230000D03*
D18*
G04 #@! TO.P,U1,8*
G04 #@! TO.N,Net-(J1-Pad4)*
X69870000Y-72730000D03*
G04 #@! TO.P,U1,7*
G04 #@! TO.N,Net-(J1-Pad5)*
X69870000Y-70730000D03*
G04 #@! TO.P,U1,6*
G04 #@! TO.N,Net-(J1-Pad6)*
X69870000Y-68730000D03*
G04 #@! TO.P,U1,5*
G04 #@! TO.N,Net-(J1-Pad7)*
X69870000Y-66730000D03*
G04 #@! TO.P,U1,4*
G04 #@! TO.N,Net-(J1-Pad8)*
X69870000Y-64730000D03*
G04 #@! TO.P,U1,3*
G04 #@! TO.N,Net-(J1-Pad9)*
X69870000Y-62730000D03*
G04 #@! TO.P,U1,2*
G04 #@! TO.N,Net-(J1-Pad10)*
X69870000Y-60730000D03*
G04 #@! TO.P,U1,1*
G04 #@! TO.N,Net-(J1-Pad11)*
X69870000Y-58730000D03*
G04 #@! TD*
D20*
G04 #@! TO.P,RJ3,2*
G04 #@! TO.N,GPIO12*
X128524000Y-55245000D03*
G04 #@! TO.P,RJ3,1*
G04 #@! TO.N,Net-(J9-Pad7)*
X128524000Y-58255000D03*
G04 #@! TD*
D21*
G04 #@! TO.P,BT1,1*
G04 #@! TO.N,Net-(BT1-Pad1)*
X197612000Y-53848000D03*
G04 #@! TD*
D20*
G04 #@! TO.P,RJ2,2*
G04 #@! TO.N,RST*
X156464000Y-57131000D03*
G04 #@! TO.P,RJ2,1*
G04 #@! TO.N,Net-(Q1-Pad3)*
X156464000Y-54121000D03*
G04 #@! TD*
D15*
G04 #@! TO.P,RJ1,2*
G04 #@! TO.N,GPIO14*
X151765000Y-58166000D03*
G04 #@! TO.P,RJ1,1*
G04 #@! TO.N,Net-(J9-Pad5)*
X148755000Y-58166000D03*
G04 #@! TD*
D22*
G04 #@! TO.P,J10,2*
G04 #@! TO.N,GPIO5*
X197230000Y-66040000D03*
G04 #@! TO.P,J10,3*
G04 #@! TO.N,GPIO4*
X193930000Y-68580000D03*
G04 #@! TO.P,J10,1*
G04 #@! TO.N,GND*
X193930000Y-63500000D03*
G04 #@! TD*
D15*
G04 #@! TO.P,C1,2*
G04 #@! TO.N,GND*
X164065000Y-60960000D03*
G04 #@! TO.P,C1,1*
G04 #@! TO.N,RST*
X161055000Y-60960000D03*
G04 #@! TD*
G04 #@! TO.P,C2,2*
G04 #@! TO.N,GND*
X164084000Y-81280000D03*
G04 #@! TO.P,C2,1*
G04 #@! TO.N,3v3*
X161074000Y-81280000D03*
G04 #@! TD*
D20*
G04 #@! TO.P,C7,2*
G04 #@! TO.N,GND*
X200660000Y-59309000D03*
G04 #@! TO.P,C7,1*
G04 #@! TO.N,3v3*
X200660000Y-62319000D03*
G04 #@! TD*
D16*
G04 #@! TO.P,J8,5*
G04 #@! TO.N,GND*
X182245000Y-53086000D03*
G04 #@! TO.P,J8,4*
G04 #@! TO.N,TX*
X179705000Y-53086000D03*
G04 #@! TO.P,J8,3*
G04 #@! TO.N,RX*
X177165000Y-53086000D03*
G04 #@! TO.P,J8,2*
G04 #@! TO.N,Net-(J8-Pad2)*
X174625000Y-53086000D03*
D17*
G04 #@! TO.P,J8,1*
G04 #@! TO.N,Net-(J8-Pad1)*
X172085000Y-53086000D03*
G04 #@! TD*
D16*
G04 #@! TO.P,J1,11*
G04 #@! TO.N,Net-(J1-Pad11)*
X63500000Y-58420000D03*
G04 #@! TO.P,J1,10*
G04 #@! TO.N,Net-(J1-Pad10)*
X63500000Y-60960000D03*
G04 #@! TO.P,J1,9*
G04 #@! TO.N,Net-(J1-Pad9)*
X63500000Y-63500000D03*
G04 #@! TO.P,J1,8*
G04 #@! TO.N,Net-(J1-Pad8)*
X63500000Y-66040000D03*
G04 #@! TO.P,J1,7*
G04 #@! TO.N,Net-(J1-Pad7)*
X63500000Y-68580000D03*
G04 #@! TO.P,J1,6*
G04 #@! TO.N,Net-(J1-Pad6)*
X63500000Y-71120000D03*
G04 #@! TO.P,J1,5*
G04 #@! TO.N,Net-(J1-Pad5)*
X63500000Y-73660000D03*
G04 #@! TO.P,J1,4*
G04 #@! TO.N,Net-(J1-Pad4)*
X63500000Y-76200000D03*
G04 #@! TO.P,J1,3*
G04 #@! TO.N,Net-(J1-Pad3)*
X63500000Y-78740000D03*
G04 #@! TO.P,J1,2*
G04 #@! TO.N,Net-(J1-Pad2)*
X63500000Y-81280000D03*
D17*
G04 #@! TO.P,J1,1*
G04 #@! TO.N,Net-(J1-Pad1)*
X63500000Y-83820000D03*
G04 #@! TD*
D22*
G04 #@! TO.P,J6,2*
G04 #@! TO.N,GPIO2*
X203580000Y-74930000D03*
G04 #@! TO.P,J6,3*
G04 #@! TO.N,GND*
X200280000Y-77470000D03*
G04 #@! TO.P,J6,1*
G04 #@! TO.N,3v3*
X200280000Y-72390000D03*
G04 #@! TD*
G04 #@! TO.P,J7,2*
G04 #@! TO.N,GPIO2*
X197230000Y-74930000D03*
G04 #@! TO.P,J7,3*
G04 #@! TO.N,GND*
X193930000Y-77470000D03*
G04 #@! TO.P,J7,1*
G04 #@! TO.N,3v3*
X193930000Y-72390000D03*
G04 #@! TD*
G04 #@! TO.P,J2,10*
G04 #@! TO.N,Net-(J2-Pad10)*
X156590000Y-83820000D03*
G04 #@! TO.P,J2,8*
G04 #@! TO.N,3v3*
X156590000Y-78740000D03*
G04 #@! TO.P,J2,6*
G04 #@! TO.N,GPIO12*
X156590000Y-73660000D03*
G04 #@! TO.P,J2,4*
G04 #@! TO.N,GPIO16*
X156590000Y-68580000D03*
G04 #@! TO.P,J2,2*
G04 #@! TO.N,ADC*
X156590000Y-63500000D03*
G04 #@! TO.P,J2,11*
G04 #@! TO.N,Net-(J2-Pad11)*
X153290000Y-86360000D03*
G04 #@! TO.P,J2,9*
G04 #@! TO.N,Net-(J2-Pad9)*
X153290000Y-81280000D03*
G04 #@! TO.P,J2,7*
G04 #@! TO.N,GPIO13*
X153290000Y-76200000D03*
G04 #@! TO.P,J2,5*
G04 #@! TO.N,GPIO14*
X153290000Y-71120000D03*
G04 #@! TO.P,J2,3*
G04 #@! TO.N,Net-(J2-Pad3)*
X153290000Y-66040000D03*
G04 #@! TO.P,J2,1*
G04 #@! TO.N,RST*
X153290000Y-60960000D03*
G04 #@! TD*
G04 #@! TO.P,J5,11*
G04 #@! TO.N,Net-(J5-Pad11)*
X184530000Y-86360000D03*
G04 #@! TO.P,J5,9*
G04 #@! TO.N,Net-(J5-Pad9)*
X184530000Y-81280000D03*
G04 #@! TO.P,J5,7*
G04 #@! TO.N,Net-(J5-Pad7)*
X184530000Y-76200000D03*
G04 #@! TO.P,J5,5*
G04 #@! TO.N,GPIO0*
X184530000Y-71120000D03*
G04 #@! TO.P,J5,3*
G04 #@! TO.N,GPIO5*
X184530000Y-66040000D03*
G04 #@! TO.P,J5,1*
G04 #@! TO.N,TX*
X184530000Y-60960000D03*
G04 #@! TO.P,J5,10*
G04 #@! TO.N,Net-(J5-Pad10)*
X181230000Y-83820000D03*
G04 #@! TO.P,J5,8*
G04 #@! TO.N,GND*
X181230000Y-78740000D03*
G04 #@! TO.P,J5,6*
G04 #@! TO.N,GPIO2*
X181230000Y-73660000D03*
G04 #@! TO.P,J5,4*
G04 #@! TO.N,GPIO4*
X181230000Y-68580000D03*
G04 #@! TO.P,J5,2*
G04 #@! TO.N,RX*
X181230000Y-63500000D03*
G04 #@! TD*
D23*
G04 #@! TO.P,D4,2*
G04 #@! TO.N,Net-(BT1-Pad1)*
X200660000Y-53848000D03*
G04 #@! TO.P,D4,1*
G04 #@! TO.N,Net-(D4-Pad1)*
X200660000Y-57348000D03*
G04 #@! TD*
G04 #@! TO.P,D5,2*
G04 #@! TO.N,3v3*
X203073000Y-60848000D03*
G04 #@! TO.P,D5,1*
G04 #@! TO.N,Net-(D4-Pad1)*
X203073000Y-57348000D03*
G04 #@! TD*
D24*
G04 #@! TO.P,U3,8*
G04 #@! TO.N,Net-(D4-Pad1)*
X193929000Y-58834000D03*
G04 #@! TO.P,U3,7*
G04 #@! TO.N,Net-(U3-Pad7)*
X192659000Y-58834000D03*
G04 #@! TO.P,U3,6*
G04 #@! TO.N,GPIO4*
X191389000Y-58834000D03*
G04 #@! TO.P,U3,5*
G04 #@! TO.N,GPIO5*
X190119000Y-58834000D03*
G04 #@! TO.P,U3,4*
G04 #@! TO.N,GND*
X190119000Y-53434000D03*
G04 #@! TO.P,U3,3*
G04 #@! TO.N,Net-(U3-Pad3)*
X191389000Y-53434000D03*
G04 #@! TO.P,U3,2*
G04 #@! TO.N,Net-(U3-Pad2)*
X192659000Y-53434000D03*
G04 #@! TO.P,U3,1*
G04 #@! TO.N,Net-(U3-Pad1)*
X193929000Y-53434000D03*
G04 #@! TD*
D15*
G04 #@! TO.P,R10,2*
G04 #@! TO.N,GPIO13*
X161055000Y-78740000D03*
G04 #@! TO.P,R10,1*
G04 #@! TO.N,3v3*
X164065000Y-78740000D03*
G04 #@! TD*
G04 #@! TO.P,R15,2*
G04 #@! TO.N,GND*
X164065000Y-63500000D03*
G04 #@! TO.P,R15,1*
G04 #@! TO.N,ADC*
X161055000Y-63500000D03*
G04 #@! TD*
G04 #@! TO.P,R14,2*
G04 #@! TO.N,ADC*
X161055000Y-66040000D03*
G04 #@! TO.P,R14,1*
G04 #@! TO.N,3v3*
X164065000Y-66040000D03*
G04 #@! TD*
G04 #@! TO.P,R13,2*
G04 #@! TO.N,Net-(J8-Pad1)*
X170726000Y-61976000D03*
G04 #@! TO.P,R13,1*
G04 #@! TO.N,Net-(Q2-Pad2)*
X173736000Y-61976000D03*
G04 #@! TD*
G04 #@! TO.P,R12,2*
G04 #@! TO.N,Net-(J8-Pad2)*
X173736000Y-64516000D03*
G04 #@! TO.P,R12,1*
G04 #@! TO.N,Net-(Q1-Pad2)*
X170726000Y-64516000D03*
G04 #@! TD*
G04 #@! TO.P,R9,2*
G04 #@! TO.N,GPIO14*
X161055000Y-73660000D03*
G04 #@! TO.P,R9,1*
G04 #@! TO.N,3v3*
X164065000Y-73660000D03*
G04 #@! TD*
G04 #@! TO.P,R8,2*
G04 #@! TO.N,GPIO12*
X161055000Y-76200000D03*
G04 #@! TO.P,R8,1*
G04 #@! TO.N,3v3*
X164065000Y-76200000D03*
G04 #@! TD*
G04 #@! TO.P,R1,2*
G04 #@! TO.N,RST*
X161055000Y-58420000D03*
G04 #@! TO.P,R1,1*
G04 #@! TO.N,GND*
X164065000Y-58420000D03*
G04 #@! TD*
G04 #@! TO.P,R11,2*
G04 #@! TO.N,GPIO16*
X161055000Y-71120000D03*
G04 #@! TO.P,R11,1*
G04 #@! TO.N,3v3*
X164065000Y-71120000D03*
G04 #@! TD*
G04 #@! TO.P,R2,2*
G04 #@! TO.N,Net-(J2-Pad3)*
X161055000Y-68580000D03*
G04 #@! TO.P,R2,1*
G04 #@! TO.N,3v3*
X164065000Y-68580000D03*
G04 #@! TD*
D25*
G04 #@! TO.P,Y1,2*
G04 #@! TO.N,Net-(U3-Pad2)*
X183962000Y-57242000D03*
G04 #@! TO.P,Y1,1*
G04 #@! TO.N,Net-(U3-Pad1)*
X185862000Y-57242000D03*
G04 #@! TD*
D26*
G04 #@! TO.N,GND*
X138430000Y-58928000D03*
X165862000Y-63500000D03*
G04 #@! TO.N,3v3*
X191008000Y-72644000D03*
X174244000Y-73660000D03*
X166116000Y-76200000D03*
X136017000Y-58801000D03*
G04 #@! TD*
D27*
G04 #@! TO.N,Net-(J1-Pad1)*
X71755000Y-83820000D02*
X76470000Y-79105000D01*
X76470000Y-79105000D02*
X76470000Y-74230000D01*
X63500000Y-83820000D02*
X71755000Y-83820000D01*
G04 #@! TO.N,Net-(J1-Pad2)*
X71120000Y-81280000D02*
X74470000Y-77930000D01*
X74470000Y-77930000D02*
X74470000Y-74230000D01*
X71120000Y-81280000D02*
X63500000Y-81280000D01*
G04 #@! TO.N,Net-(J1-Pad3)*
X72470000Y-74230000D02*
X70970000Y-74230000D01*
X70970000Y-74230000D02*
X66460000Y-78740000D01*
X66460000Y-78740000D02*
X64702081Y-78740000D01*
X64702081Y-78740000D02*
X63500000Y-78740000D01*
G04 #@! TO.N,Net-(J1-Pad4)*
X69870000Y-72730000D02*
X66400000Y-76200000D01*
X66400000Y-76200000D02*
X63500000Y-76200000D01*
G04 #@! TO.N,Net-(J1-Pad5)*
X65405000Y-73025000D02*
X64770000Y-73660000D01*
X64770000Y-73660000D02*
X63500000Y-73660000D01*
X65405000Y-72945000D02*
X65405000Y-73025000D01*
X69870000Y-70730000D02*
X67620000Y-70730000D01*
X67620000Y-70730000D02*
X65405000Y-72945000D01*
G04 #@! TO.N,Net-(J1-Pad6)*
X69870000Y-68730000D02*
X67620000Y-68730000D01*
X67620000Y-68730000D02*
X65230000Y-71120000D01*
X65230000Y-71120000D02*
X64702081Y-71120000D01*
X64702081Y-71120000D02*
X63500000Y-71120000D01*
G04 #@! TO.N,Net-(J1-Pad7)*
X69870000Y-66730000D02*
X67620000Y-66730000D01*
X67620000Y-66730000D02*
X65770000Y-68580000D01*
X65770000Y-68580000D02*
X64702081Y-68580000D01*
X64702081Y-68580000D02*
X63500000Y-68580000D01*
G04 #@! TO.N,Net-(J1-Pad8)*
X66310000Y-66040000D02*
X63500000Y-66040000D01*
X69870000Y-64730000D02*
X67620000Y-64730000D01*
X67620000Y-64730000D02*
X66310000Y-66040000D01*
D28*
G04 #@! TO.N,GND*
X193930000Y-77470000D02*
X200280000Y-77470000D01*
X138430000Y-60410000D02*
X138430000Y-58928000D01*
X138430000Y-62230000D02*
X138430000Y-60410000D01*
X164065000Y-63500000D02*
X165862000Y-63500000D01*
X130810000Y-88900000D02*
X149860000Y-88900000D01*
X124819500Y-88900000D02*
X130810000Y-88900000D01*
X123190000Y-88900000D02*
X124819500Y-88900000D01*
X164065000Y-58420000D02*
X164065000Y-60960000D01*
X164065000Y-63500000D02*
X164065000Y-60960000D01*
G04 #@! TO.N,Net-(J2-Pad3)*
X161055000Y-68580000D02*
X159970000Y-68580000D01*
X159970000Y-68580000D02*
X157430000Y-66040000D01*
X157430000Y-66040000D02*
X154790000Y-66040000D01*
X154790000Y-66040000D02*
X153290000Y-66040000D01*
G04 #@! TO.N,GPIO16*
X143256000Y-64516000D02*
X147320000Y-68580000D01*
X147320000Y-68580000D02*
X156590000Y-68580000D01*
X143256000Y-62230000D02*
X143256000Y-64516000D01*
X161055000Y-71120000D02*
X159130000Y-71120000D01*
X159130000Y-71120000D02*
X158090000Y-70080000D01*
X158090000Y-70080000D02*
X158090000Y-69630000D01*
X158090000Y-69630000D02*
X157040000Y-68580000D01*
X157040000Y-68580000D02*
X156590000Y-68580000D01*
G04 #@! TO.N,GPIO13*
X140970000Y-64330000D02*
X152840000Y-76200000D01*
X152840000Y-76200000D02*
X153290000Y-76200000D01*
X140970000Y-62230000D02*
X140970000Y-64330000D01*
X161055000Y-78740000D02*
X159970000Y-78740000D01*
X159970000Y-78740000D02*
X157430000Y-76200000D01*
X157430000Y-76200000D02*
X154790000Y-76200000D01*
X154790000Y-76200000D02*
X153290000Y-76200000D01*
D29*
G04 #@! TO.N,3v3*
X162560000Y-78740000D02*
X164065000Y-78740000D01*
X162560000Y-81280000D02*
X162560000Y-78740000D01*
X161074000Y-81280000D02*
X162560000Y-81280000D01*
X159580000Y-81280000D02*
X161074000Y-81280000D01*
X156590000Y-78740000D02*
X157040000Y-78740000D01*
X157040000Y-78740000D02*
X159580000Y-81280000D01*
X164065000Y-78828998D02*
X164065000Y-77850000D01*
X164065000Y-77850000D02*
X164065000Y-76200000D01*
X191008000Y-72644000D02*
X193676000Y-72644000D01*
X193676000Y-72644000D02*
X193930000Y-72390000D01*
X174244000Y-73660000D02*
X175806000Y-73660000D01*
X164065000Y-76200000D02*
X166116000Y-76200000D01*
X175806000Y-73660000D02*
X175806000Y-71120000D01*
X175806000Y-71120000D02*
X175806000Y-68580000D01*
X175806000Y-66040000D02*
X175806000Y-68580000D01*
X202348000Y-62357000D02*
X202964000Y-62357000D01*
X202964000Y-62357000D02*
X203073000Y-62248000D01*
X203073000Y-62248000D02*
X203073000Y-60848000D01*
X200660000Y-62319000D02*
X202310000Y-62319000D01*
X202310000Y-62319000D02*
X202348000Y-62357000D01*
X200660000Y-70612000D02*
X200280000Y-70992000D01*
X200280000Y-70992000D02*
X200280000Y-72390000D01*
X200660000Y-69342000D02*
X200660000Y-70612000D01*
X193930000Y-72390000D02*
X200280000Y-72390000D01*
X200660000Y-62319000D02*
X200660000Y-69342000D01*
D28*
X200660000Y-72010000D02*
X200280000Y-72390000D01*
X136017000Y-58801000D02*
X136017000Y-62103000D01*
X136017000Y-62103000D02*
X135890000Y-62230000D01*
X164065000Y-73660000D02*
X164065000Y-76200000D01*
X164065000Y-71120000D02*
X164065000Y-73660000D01*
X164065000Y-68580000D02*
X164065000Y-71120000D01*
X164065000Y-66040000D02*
X164065000Y-68580000D01*
G04 #@! TO.N,GPIO14*
X162179000Y-73621000D02*
X162140000Y-73660000D01*
X162140000Y-73660000D02*
X161055000Y-73660000D01*
X162179000Y-57253998D02*
X162179000Y-73621000D01*
X160932002Y-56007000D02*
X162179000Y-57253998D01*
X155009000Y-56007000D02*
X160932002Y-56007000D01*
X152850000Y-58166000D02*
X155009000Y-56007000D01*
X151765000Y-58166000D02*
X152850000Y-58166000D01*
X161055000Y-73660000D02*
X159970000Y-73660000D01*
X159970000Y-73660000D02*
X157430000Y-71120000D01*
X157430000Y-71120000D02*
X154790000Y-71120000D01*
X154790000Y-71120000D02*
X153290000Y-71120000D01*
G04 #@! TO.N,ADC*
X146558000Y-56642000D02*
X146939000Y-56261000D01*
X146939000Y-56261000D02*
X149860000Y-56261000D01*
X127000000Y-56642000D02*
X146558000Y-56642000D01*
X125222000Y-62230000D02*
X125222000Y-58420000D01*
X125222000Y-58420000D02*
X127000000Y-56642000D01*
X150368000Y-56769000D02*
X150368000Y-61976000D01*
X149860000Y-56261000D02*
X150368000Y-56769000D01*
X150368000Y-61976000D02*
X151892000Y-63500000D01*
X151892000Y-63500000D02*
X156590000Y-63500000D01*
X156590000Y-63500000D02*
X161055000Y-63500000D01*
X161055000Y-66040000D02*
X161055000Y-63500000D01*
G04 #@! TO.N,GPIO12*
X161544000Y-55245000D02*
X162941000Y-56642000D01*
X128524000Y-55245000D02*
X161544000Y-55245000D01*
X162941000Y-56642000D02*
X162941000Y-75692000D01*
X162941000Y-75692000D02*
X162433000Y-76200000D01*
X162433000Y-76200000D02*
X161055000Y-76200000D01*
X161055000Y-76200000D02*
X159130000Y-76200000D01*
X159130000Y-76200000D02*
X158090000Y-75160000D01*
X158090000Y-75160000D02*
X158090000Y-74710000D01*
X158090000Y-74710000D02*
X157040000Y-73660000D01*
X157040000Y-73660000D02*
X156590000Y-73660000D01*
D29*
G04 #@! TO.N,GPIO4*
X195630000Y-68580000D02*
X193930000Y-68580000D01*
X197042990Y-60390990D02*
X198628000Y-61976000D01*
X191389000Y-58834000D02*
X191389000Y-60359000D01*
X196392000Y-67818000D02*
X195630000Y-68580000D01*
X191420990Y-60390990D02*
X197042990Y-60390990D01*
X198374000Y-67818000D02*
X196392000Y-67818000D01*
X199263000Y-64643000D02*
X199263000Y-66929000D01*
X198628000Y-61976000D02*
X198628000Y-64008000D01*
X199263000Y-66929000D02*
X198374000Y-67818000D01*
X198628000Y-64008000D02*
X199263000Y-64643000D01*
X191389000Y-60359000D02*
X191420990Y-60390990D01*
X181230000Y-68580000D02*
X193930000Y-68580000D01*
X178816000Y-68580000D02*
X181230000Y-68580000D01*
G04 #@! TO.N,GPIO5*
X190119000Y-61087000D02*
X190373000Y-61341000D01*
X190373000Y-61341000D02*
X196469000Y-61341000D01*
X197230000Y-64314998D02*
X197230000Y-66040000D01*
X190119000Y-58834000D02*
X190119000Y-61087000D01*
X197230000Y-62102000D02*
X197230000Y-64314998D01*
X196469000Y-61341000D02*
X197230000Y-62102000D01*
X184530000Y-66040000D02*
X197230000Y-66040000D01*
X178816000Y-66040000D02*
X184530000Y-66040000D01*
G04 #@! TO.N,RST*
X156464000Y-58416000D02*
X159966000Y-58416000D01*
X159966000Y-58416000D02*
X159970000Y-58420000D01*
X159970000Y-58420000D02*
X161036000Y-58420000D01*
X161036000Y-58420000D02*
X161055000Y-58420000D01*
X156464000Y-57131000D02*
X156464000Y-58416000D01*
X156464000Y-58416000D02*
X156468000Y-58420000D01*
X153290000Y-60960000D02*
X161055000Y-60960000D01*
D28*
X161055000Y-58420000D02*
X161055000Y-60960000D01*
D29*
G04 #@! TO.N,GPIO2*
X178816000Y-73660000D02*
X181230000Y-73660000D01*
X188976000Y-73660000D02*
X181230000Y-73660000D01*
X190246000Y-74930000D02*
X188976000Y-73660000D01*
X197230000Y-74930000D02*
X190246000Y-74930000D01*
D28*
X197230000Y-74930000D02*
X198730000Y-74930000D01*
X198730000Y-74930000D02*
X203580000Y-74930000D01*
D29*
G04 #@! TO.N,Net-(J5-Pad7)*
X178816000Y-76200000D02*
X184530000Y-76200000D01*
G04 #@! TO.N,Net-(Q1-Pad2)*
X168529000Y-59309000D02*
X168529000Y-63604000D01*
X168529000Y-63604000D02*
X169441000Y-64516000D01*
X169441000Y-64516000D02*
X170726000Y-64516000D01*
G04 #@! TO.N,Net-(J8-Pad2)*
X172847000Y-56769000D02*
X174625000Y-54991000D01*
X174625000Y-54991000D02*
X174625000Y-53086000D01*
X172847000Y-58737500D02*
X172847000Y-56769000D01*
X172451000Y-64516000D02*
X172212000Y-64277000D01*
X173736000Y-64516000D02*
X172451000Y-64516000D01*
X172212000Y-64277000D02*
X172212000Y-59372500D01*
X172212000Y-59372500D02*
X172847000Y-58737500D01*
G04 #@! TO.N,Net-(Q2-Pad2)*
X174117000Y-57467500D02*
X174117000Y-61595000D01*
X174117000Y-61595000D02*
X173736000Y-61976000D01*
D27*
G04 #@! TO.N,Net-(J1-Pad9)*
X66810000Y-62730000D02*
X66040000Y-63500000D01*
X66040000Y-63500000D02*
X63500000Y-63500000D01*
X69870000Y-62730000D02*
X66810000Y-62730000D01*
G04 #@! TO.N,Net-(J1-Pad10)*
X63500000Y-60960000D02*
X69640000Y-60960000D01*
X69640000Y-60960000D02*
X69870000Y-60730000D01*
G04 #@! TO.N,Net-(J1-Pad11)*
X69870000Y-58730000D02*
X63810000Y-58730000D01*
X63810000Y-58730000D02*
X63500000Y-58420000D01*
G04 #@! TO.N,Net-(J4-Pad11)*
X85076376Y-58698003D02*
X91136376Y-58698003D01*
X91136376Y-58698003D02*
X91446376Y-58388003D01*
G04 #@! TO.N,Net-(J4-Pad10)*
X91446376Y-60928003D02*
X85306376Y-60928003D01*
X85306376Y-60928003D02*
X85076376Y-60698003D01*
G04 #@! TO.N,Net-(J4-Pad9)*
X88136376Y-62698003D02*
X88906376Y-63468003D01*
X88906376Y-63468003D02*
X91446376Y-63468003D01*
X85076376Y-62698003D02*
X88136376Y-62698003D01*
G04 #@! TO.N,Net-(J4-Pad8)*
X88636376Y-66008003D02*
X91446376Y-66008003D01*
X85076376Y-64698003D02*
X87326376Y-64698003D01*
X87326376Y-64698003D02*
X88636376Y-66008003D01*
G04 #@! TO.N,Net-(J4-Pad7)*
X87326376Y-66698003D02*
X89176376Y-68548003D01*
X85076376Y-66698003D02*
X87326376Y-66698003D01*
X90244295Y-68548003D02*
X91446376Y-68548003D01*
X89176376Y-68548003D02*
X90244295Y-68548003D01*
G04 #@! TO.N,Net-(J4-Pad6)*
X85076376Y-68698003D02*
X87326376Y-68698003D01*
X90244295Y-71088003D02*
X91446376Y-71088003D01*
X89716376Y-71088003D02*
X90244295Y-71088003D01*
X87326376Y-68698003D02*
X89716376Y-71088003D01*
G04 #@! TO.N,Net-(J4-Pad5)*
X85076376Y-70698003D02*
X87326376Y-70698003D01*
X87326376Y-70698003D02*
X89541376Y-72913003D01*
X89541376Y-72913003D02*
X89541376Y-72993003D01*
X89541376Y-72993003D02*
X90176376Y-73628003D01*
X90176376Y-73628003D02*
X91446376Y-73628003D01*
G04 #@! TO.N,Net-(J4-Pad4)*
X85076376Y-72698003D02*
X88546376Y-76168003D01*
X88546376Y-76168003D02*
X91446376Y-76168003D01*
G04 #@! TO.N,Net-(J4-Pad3)*
X90244295Y-78708003D02*
X91446376Y-78708003D01*
X82476376Y-74198003D02*
X83976376Y-74198003D01*
X83976376Y-74198003D02*
X88486376Y-78708003D01*
X88486376Y-78708003D02*
X90244295Y-78708003D01*
G04 #@! TO.N,Net-(J4-Pad2)*
X83826376Y-81248003D02*
X91446376Y-81248003D01*
X83826376Y-81248003D02*
X80476376Y-77898003D01*
X80476376Y-77898003D02*
X80476376Y-74198003D01*
G04 #@! TO.N,Net-(J4-Pad1)*
X78476376Y-79073003D02*
X78476376Y-74198003D01*
X83191376Y-83788003D02*
X78476376Y-79073003D01*
X91446376Y-83788003D02*
X83191376Y-83788003D01*
D29*
G04 #@! TO.N,GPIO0*
X178816000Y-71120000D02*
X184530000Y-71120000D01*
X175387000Y-58737500D02*
X175387000Y-59656738D01*
X175387000Y-59656738D02*
X177292000Y-61561738D01*
X177292000Y-61561738D02*
X177292000Y-70881000D01*
X177292000Y-70881000D02*
X177531000Y-71120000D01*
X177531000Y-71120000D02*
X178816000Y-71120000D01*
G04 #@! TO.N,Net-(U3-Pad1)*
X192532000Y-56896000D02*
X193929000Y-55499000D01*
X193929000Y-55499000D02*
X193929000Y-53434000D01*
X187452000Y-56896000D02*
X192532000Y-56896000D01*
X187106000Y-57242000D02*
X187452000Y-56896000D01*
X185862000Y-57242000D02*
X187106000Y-57242000D01*
G04 #@! TO.N,Net-(U3-Pad2)*
X183962000Y-55814000D02*
X183962000Y-57242000D01*
X192246000Y-55372000D02*
X184404000Y-55372000D01*
X184404000Y-55372000D02*
X183962000Y-55814000D01*
X192659000Y-53434000D02*
X192659000Y-54959000D01*
X192659000Y-54959000D02*
X192246000Y-55372000D01*
G04 #@! TO.N,Net-(D4-Pad1)*
X193929000Y-57658000D02*
X193929000Y-58834000D01*
X200660000Y-57348000D02*
X194239000Y-57348000D01*
X194239000Y-57348000D02*
X193929000Y-57658000D01*
X200660000Y-57348000D02*
X203073000Y-57348000D01*
G04 #@! TO.N,Net-(BT1-Pad1)*
X197612000Y-53848000D02*
X200660000Y-53848000D01*
G04 #@! TO.N,RX*
X178816000Y-62992000D02*
X179324000Y-63500000D01*
X179324000Y-63500000D02*
X181230000Y-63500000D01*
X178816000Y-55939081D02*
X178816000Y-62992000D01*
X177165000Y-53086000D02*
X177165000Y-54288081D01*
X177165000Y-54288081D02*
X178816000Y-55939081D01*
G04 #@! TO.N,TX*
X180340000Y-59944000D02*
X181356000Y-60960000D01*
X181356000Y-60960000D02*
X184530000Y-60960000D01*
X180340000Y-54923081D02*
X180340000Y-59944000D01*
X179705000Y-53086000D02*
X179705000Y-54288081D01*
X179705000Y-54288081D02*
X180340000Y-54923081D01*
D28*
G04 #@! TO.N,Net-(J9-Pad5)*
X133350000Y-58166000D02*
X133858000Y-57658000D01*
X133350000Y-62230000D02*
X133350000Y-58166000D01*
X133858000Y-57658000D02*
X146812000Y-57658000D01*
X146812000Y-57658000D02*
X147320000Y-58166000D01*
X147320000Y-58166000D02*
X148755000Y-58166000D01*
D29*
G04 #@! TO.N,Net-(Q1-Pad3)*
X156464000Y-54121000D02*
X163341000Y-54121000D01*
X163341000Y-54121000D02*
X167259000Y-58039000D01*
G04 #@! TO.N,Net-(J8-Pad1)*
X169799000Y-58039000D02*
X170726000Y-58966000D01*
X170726000Y-58966000D02*
X170726000Y-61976000D01*
X169799000Y-58039000D02*
X169799000Y-53772000D01*
X169799000Y-53772000D02*
X170485000Y-53086000D01*
X170485000Y-53086000D02*
X172085000Y-53086000D01*
D28*
G04 #@! TO.N,Net-(J9-Pad7)*
X128524000Y-58255000D02*
X128524000Y-62230000D01*
G04 #@! TO.N,Net-(J2-Pad9)*
X162052000Y-86106000D02*
X162052000Y-88519000D01*
X157226000Y-81280000D02*
X162052000Y-86106000D01*
X154790000Y-81280000D02*
X157226000Y-81280000D01*
X153290000Y-81280000D02*
X154790000Y-81280000D01*
G04 #@! TO.N,Net-(J2-Pad11)*
X159258000Y-87122000D02*
X159258000Y-88519000D01*
X158496000Y-86360000D02*
X159258000Y-87122000D01*
X153290000Y-86360000D02*
X158496000Y-86360000D01*
G04 #@! TO.N,Net-(J2-Pad10)*
X160655000Y-86385000D02*
X160655000Y-88519000D01*
X156590000Y-83820000D02*
X158090000Y-83820000D01*
X158090000Y-83820000D02*
X160655000Y-86385000D01*
G04 #@! TO.N,Net-(J5-Pad11)*
X179381862Y-86358999D02*
X178619862Y-87120999D01*
X184587862Y-86358999D02*
X179381862Y-86358999D01*
X178619862Y-87120999D02*
X178619862Y-88517999D01*
G04 #@! TO.N,Net-(J5-Pad9)*
X184587862Y-81278999D02*
X183087862Y-81278999D01*
X183087862Y-81278999D02*
X180651862Y-81278999D01*
X175825862Y-86104999D02*
X175825862Y-88517999D01*
X180651862Y-81278999D02*
X175825862Y-86104999D01*
G04 #@! TO.N,Net-(J5-Pad10)*
X181287862Y-83818999D02*
X179787862Y-83818999D01*
X177222862Y-86383999D02*
X177222862Y-88517999D01*
X179787862Y-83818999D02*
X177222862Y-86383999D01*
G04 #@! TD*
D30*
G04 #@! TO.N,GND*
G36*
X209931000Y-91313000D02*
X119507000Y-91313000D01*
X119507000Y-89185750D01*
X121475500Y-89185750D01*
X121475500Y-90613542D01*
X121499903Y-90736223D01*
X121547770Y-90851785D01*
X121617263Y-90955789D01*
X121705711Y-91044237D01*
X121809715Y-91113730D01*
X121925277Y-91161597D01*
X122047958Y-91186000D01*
X122904250Y-91186000D01*
X123063000Y-91027250D01*
X123063000Y-89027000D01*
X123317000Y-89027000D01*
X123317000Y-91027250D01*
X123475750Y-91186000D01*
X124332042Y-91186000D01*
X124454723Y-91161597D01*
X124570285Y-91113730D01*
X124674289Y-91044237D01*
X124762737Y-90955789D01*
X124832230Y-90851785D01*
X124880097Y-90736223D01*
X124904500Y-90613542D01*
X124904500Y-89185750D01*
X148145500Y-89185750D01*
X148145500Y-90613542D01*
X148169903Y-90736223D01*
X148217770Y-90851785D01*
X148287263Y-90955789D01*
X148375711Y-91044237D01*
X148479715Y-91113730D01*
X148595277Y-91161597D01*
X148717958Y-91186000D01*
X149574250Y-91186000D01*
X149733000Y-91027250D01*
X149733000Y-89027000D01*
X149987000Y-89027000D01*
X149987000Y-91027250D01*
X150145750Y-91186000D01*
X151002042Y-91186000D01*
X151124723Y-91161597D01*
X151240285Y-91113730D01*
X151344289Y-91044237D01*
X151432737Y-90955789D01*
X151502230Y-90851785D01*
X151550097Y-90736223D01*
X151574500Y-90613542D01*
X151574500Y-89185750D01*
X151415750Y-89027000D01*
X149987000Y-89027000D01*
X149733000Y-89027000D01*
X148304250Y-89027000D01*
X148145500Y-89185750D01*
X124904500Y-89185750D01*
X124745750Y-89027000D01*
X123317000Y-89027000D01*
X123063000Y-89027000D01*
X121634250Y-89027000D01*
X121475500Y-89185750D01*
X119507000Y-89185750D01*
X119507000Y-87186458D01*
X121475500Y-87186458D01*
X121475500Y-88614250D01*
X121634250Y-88773000D01*
X123063000Y-88773000D01*
X123063000Y-86772750D01*
X123317000Y-86772750D01*
X123317000Y-88773000D01*
X124745750Y-88773000D01*
X124904500Y-88614250D01*
X124904500Y-87186458D01*
X148145500Y-87186458D01*
X148145500Y-88614250D01*
X148304250Y-88773000D01*
X149733000Y-88773000D01*
X149733000Y-86772750D01*
X149987000Y-86772750D01*
X149987000Y-88773000D01*
X151415750Y-88773000D01*
X151574500Y-88614250D01*
X151574500Y-87186458D01*
X151550097Y-87063777D01*
X151502230Y-86948215D01*
X151432737Y-86844211D01*
X151344289Y-86755763D01*
X151240285Y-86686270D01*
X151124723Y-86638403D01*
X151002042Y-86614000D01*
X150145750Y-86614000D01*
X149987000Y-86772750D01*
X149733000Y-86772750D01*
X149574250Y-86614000D01*
X148717958Y-86614000D01*
X148595277Y-86638403D01*
X148479715Y-86686270D01*
X148375711Y-86755763D01*
X148287263Y-86844211D01*
X148217770Y-86948215D01*
X148169903Y-87063777D01*
X148145500Y-87186458D01*
X124904500Y-87186458D01*
X124880097Y-87063777D01*
X124832230Y-86948215D01*
X124762737Y-86844211D01*
X124674289Y-86755763D01*
X124570285Y-86686270D01*
X124454723Y-86638403D01*
X124332042Y-86614000D01*
X123475750Y-86614000D01*
X123317000Y-86772750D01*
X123063000Y-86772750D01*
X122904250Y-86614000D01*
X122047958Y-86614000D01*
X121925277Y-86638403D01*
X121809715Y-86686270D01*
X121705711Y-86755763D01*
X121617263Y-86844211D01*
X121547770Y-86948215D01*
X121499903Y-87063777D01*
X121475500Y-87186458D01*
X119507000Y-87186458D01*
X119507000Y-68418967D01*
X120879483Y-68418967D01*
X120879483Y-68741033D01*
X120942315Y-69056912D01*
X121065565Y-69354463D01*
X121244496Y-69622252D01*
X121472231Y-69849987D01*
X121740020Y-70028918D01*
X122037571Y-70152168D01*
X122353450Y-70215000D01*
X122675516Y-70215000D01*
X122991395Y-70152168D01*
X123288946Y-70028918D01*
X123556735Y-69849987D01*
X123784470Y-69622252D01*
X123963401Y-69354463D01*
X124086651Y-69056912D01*
X124149483Y-68741033D01*
X124149483Y-68418967D01*
X124086651Y-68103088D01*
X123963401Y-67805537D01*
X123784470Y-67537748D01*
X123556735Y-67310013D01*
X123288946Y-67131082D01*
X122991395Y-67007832D01*
X122675516Y-66945000D01*
X122353450Y-66945000D01*
X122037571Y-67007832D01*
X121740020Y-67131082D01*
X121472231Y-67310013D01*
X121244496Y-67537748D01*
X121065565Y-67805537D01*
X120942315Y-68103088D01*
X120879483Y-68418967D01*
X119507000Y-68418967D01*
X119507000Y-60960000D01*
X122424928Y-60960000D01*
X122424928Y-63500000D01*
X122437188Y-63624482D01*
X122473498Y-63744180D01*
X122532463Y-63854494D01*
X122611815Y-63951185D01*
X122708506Y-64030537D01*
X122818820Y-64089502D01*
X122938518Y-64125812D01*
X123063000Y-64138072D01*
X124333000Y-64138072D01*
X124457482Y-64125812D01*
X124577180Y-64089502D01*
X124587000Y-64084253D01*
X124596820Y-64089502D01*
X124716518Y-64125812D01*
X124841000Y-64138072D01*
X125603000Y-64138072D01*
X125727482Y-64125812D01*
X125847180Y-64089502D01*
X125857000Y-64084253D01*
X125866820Y-64089502D01*
X125986518Y-64125812D01*
X126111000Y-64138072D01*
X127381000Y-64138072D01*
X127505482Y-64125812D01*
X127625180Y-64089502D01*
X127635000Y-64084253D01*
X127644820Y-64089502D01*
X127764518Y-64125812D01*
X127889000Y-64138072D01*
X129159000Y-64138072D01*
X129283482Y-64125812D01*
X129403180Y-64089502D01*
X129513494Y-64030537D01*
X129610185Y-63951185D01*
X129666728Y-63882287D01*
X129681763Y-63904789D01*
X129770211Y-63993237D01*
X129874215Y-64062730D01*
X129989777Y-64110597D01*
X130112458Y-64135000D01*
X130524250Y-64135000D01*
X130683000Y-63976250D01*
X130683000Y-62357000D01*
X130663000Y-62357000D01*
X130663000Y-62103000D01*
X130683000Y-62103000D01*
X130683000Y-60483750D01*
X130524250Y-60325000D01*
X130112458Y-60325000D01*
X129989777Y-60349403D01*
X129874215Y-60397270D01*
X129770211Y-60466763D01*
X129681763Y-60555211D01*
X129666728Y-60577713D01*
X129610185Y-60508815D01*
X129513494Y-60429463D01*
X129434000Y-60386972D01*
X129434000Y-59427087D01*
X129548482Y-59415812D01*
X129668180Y-59379502D01*
X129778494Y-59320537D01*
X129875185Y-59241185D01*
X129954537Y-59144494D01*
X130013502Y-59034180D01*
X130049812Y-58914482D01*
X130062072Y-58790000D01*
X130062072Y-57720000D01*
X130049812Y-57595518D01*
X130036611Y-57552000D01*
X132676682Y-57552000D01*
X132672609Y-57556963D01*
X132589702Y-57657985D01*
X132505202Y-57816074D01*
X132453168Y-57987609D01*
X132435597Y-58166000D01*
X132440001Y-58210712D01*
X132440000Y-60386972D01*
X132360506Y-60429463D01*
X132263815Y-60508815D01*
X132184463Y-60605506D01*
X132125498Y-60715820D01*
X132089188Y-60835518D01*
X132080000Y-60928808D01*
X132080000Y-60897458D01*
X132055597Y-60774777D01*
X132007730Y-60659215D01*
X131938237Y-60555211D01*
X131849789Y-60466763D01*
X131745785Y-60397270D01*
X131630223Y-60349403D01*
X131507542Y-60325000D01*
X131095750Y-60325000D01*
X130937000Y-60483750D01*
X130937000Y-62103000D01*
X130957000Y-62103000D01*
X130957000Y-62357000D01*
X130937000Y-62357000D01*
X130937000Y-63976250D01*
X131095750Y-64135000D01*
X131507542Y-64135000D01*
X131630223Y-64110597D01*
X131745785Y-64062730D01*
X131849789Y-63993237D01*
X131938237Y-63904789D01*
X132007730Y-63800785D01*
X132055597Y-63685223D01*
X132080000Y-63562542D01*
X132080000Y-63531192D01*
X132089188Y-63624482D01*
X132125498Y-63744180D01*
X132184463Y-63854494D01*
X132263815Y-63951185D01*
X132360506Y-64030537D01*
X132470820Y-64089502D01*
X132590518Y-64125812D01*
X132715000Y-64138072D01*
X133985000Y-64138072D01*
X134109482Y-64125812D01*
X134229180Y-64089502D01*
X134339494Y-64030537D01*
X134436185Y-63951185D01*
X134515537Y-63854494D01*
X134574502Y-63744180D01*
X134610812Y-63624482D01*
X134620000Y-63531192D01*
X134629188Y-63624482D01*
X134665498Y-63744180D01*
X134724463Y-63854494D01*
X134803815Y-63951185D01*
X134900506Y-64030537D01*
X135010820Y-64089502D01*
X135130518Y-64125812D01*
X135255000Y-64138072D01*
X136525000Y-64138072D01*
X136649482Y-64125812D01*
X136769180Y-64089502D01*
X136879494Y-64030537D01*
X136976185Y-63951185D01*
X137055537Y-63854494D01*
X137114502Y-63744180D01*
X137150812Y-63624482D01*
X137160000Y-63531192D01*
X137160000Y-63562542D01*
X137184403Y-63685223D01*
X137232270Y-63800785D01*
X137301763Y-63904789D01*
X137390211Y-63993237D01*
X137494215Y-64062730D01*
X137609777Y-64110597D01*
X137732458Y-64135000D01*
X138144250Y-64135000D01*
X138303000Y-63976250D01*
X138303000Y-62357000D01*
X138283000Y-62357000D01*
X138283000Y-62103000D01*
X138303000Y-62103000D01*
X138303000Y-60483750D01*
X138144250Y-60325000D01*
X137732458Y-60325000D01*
X137609777Y-60349403D01*
X137494215Y-60397270D01*
X137390211Y-60466763D01*
X137301763Y-60555211D01*
X137232270Y-60659215D01*
X137184403Y-60774777D01*
X137160000Y-60897458D01*
X137160000Y-60928808D01*
X137150812Y-60835518D01*
X137114502Y-60715820D01*
X137055537Y-60605506D01*
X136976185Y-60508815D01*
X136927000Y-60468450D01*
X136927000Y-59302039D01*
X136934205Y-59291256D01*
X137012226Y-59102898D01*
X137052000Y-58902939D01*
X137052000Y-58699061D01*
X137025931Y-58568000D01*
X146435066Y-58568000D01*
X146644917Y-58777851D01*
X146673419Y-58812581D01*
X146811985Y-58926298D01*
X146970073Y-59010798D01*
X147141609Y-59062833D01*
X147275296Y-59076000D01*
X147275297Y-59076000D01*
X147319999Y-59080403D01*
X147364701Y-59076000D01*
X147582913Y-59076000D01*
X147594188Y-59190482D01*
X147630498Y-59310180D01*
X147689463Y-59420494D01*
X147768815Y-59517185D01*
X147865506Y-59596537D01*
X147975820Y-59655502D01*
X148095518Y-59691812D01*
X148220000Y-59704072D01*
X149290000Y-59704072D01*
X149414482Y-59691812D01*
X149458001Y-59678611D01*
X149458001Y-61931288D01*
X149453597Y-61976000D01*
X149471168Y-62154391D01*
X149523202Y-62325926D01*
X149607702Y-62484015D01*
X149651562Y-62537458D01*
X149721420Y-62622581D01*
X149756149Y-62651082D01*
X151216922Y-64111857D01*
X151245419Y-64146581D01*
X151383985Y-64260298D01*
X151542073Y-64344798D01*
X151713609Y-64396833D01*
X151847296Y-64410000D01*
X151847297Y-64410000D01*
X151891999Y-64414403D01*
X151936701Y-64410000D01*
X155155015Y-64410000D01*
X155188815Y-64451185D01*
X155285506Y-64530537D01*
X155395820Y-64589502D01*
X155515518Y-64625812D01*
X155640000Y-64638072D01*
X157540000Y-64638072D01*
X157664482Y-64625812D01*
X157784180Y-64589502D01*
X157894494Y-64530537D01*
X157991185Y-64451185D01*
X158024985Y-64410000D01*
X159882913Y-64410000D01*
X159894188Y-64524482D01*
X159930498Y-64644180D01*
X159989463Y-64754494D01*
X160002188Y-64770000D01*
X159989463Y-64785506D01*
X159930498Y-64895820D01*
X159894188Y-65015518D01*
X159881928Y-65140000D01*
X159881928Y-66940000D01*
X159894188Y-67064482D01*
X159930498Y-67184180D01*
X159989463Y-67294494D01*
X160002188Y-67310000D01*
X159995312Y-67318379D01*
X158105087Y-65428154D01*
X158076581Y-65393419D01*
X157938015Y-65279702D01*
X157779927Y-65195202D01*
X157608391Y-65143167D01*
X157474704Y-65130000D01*
X157474702Y-65130000D01*
X157430000Y-65125597D01*
X157385298Y-65130000D01*
X154724985Y-65130000D01*
X154691185Y-65088815D01*
X154594494Y-65009463D01*
X154484180Y-64950498D01*
X154364482Y-64914188D01*
X154240000Y-64901928D01*
X152340000Y-64901928D01*
X152215518Y-64914188D01*
X152095820Y-64950498D01*
X151985506Y-65009463D01*
X151888815Y-65088815D01*
X151809463Y-65185506D01*
X151750498Y-65295820D01*
X151714188Y-65415518D01*
X151701928Y-65540000D01*
X151701928Y-66540000D01*
X151714188Y-66664482D01*
X151750498Y-66784180D01*
X151809463Y-66894494D01*
X151888815Y-66991185D01*
X151985506Y-67070537D01*
X152095820Y-67129502D01*
X152215518Y-67165812D01*
X152340000Y-67178072D01*
X154240000Y-67178072D01*
X154364482Y-67165812D01*
X154484180Y-67129502D01*
X154594494Y-67070537D01*
X154691185Y-66991185D01*
X154724985Y-66950000D01*
X157053067Y-66950000D01*
X157545540Y-67442474D01*
X157540000Y-67441928D01*
X155640000Y-67441928D01*
X155515518Y-67454188D01*
X155395820Y-67490498D01*
X155285506Y-67549463D01*
X155188815Y-67628815D01*
X155155015Y-67670000D01*
X147696934Y-67670000D01*
X144166000Y-64139067D01*
X144166000Y-64073028D01*
X144245494Y-64030537D01*
X144342185Y-63951185D01*
X144421537Y-63854494D01*
X144480502Y-63744180D01*
X144516812Y-63624482D01*
X144529072Y-63500000D01*
X144529072Y-60960000D01*
X144776928Y-60960000D01*
X144776928Y-63500000D01*
X144789188Y-63624482D01*
X144825498Y-63744180D01*
X144884463Y-63854494D01*
X144963815Y-63951185D01*
X145060506Y-64030537D01*
X145170820Y-64089502D01*
X145290518Y-64125812D01*
X145415000Y-64138072D01*
X146685000Y-64138072D01*
X146809482Y-64125812D01*
X146929180Y-64089502D01*
X147039494Y-64030537D01*
X147136185Y-63951185D01*
X147215537Y-63854494D01*
X147274502Y-63744180D01*
X147310812Y-63624482D01*
X147323072Y-63500000D01*
X147323072Y-60960000D01*
X147310812Y-60835518D01*
X147274502Y-60715820D01*
X147215537Y-60605506D01*
X147136185Y-60508815D01*
X147039494Y-60429463D01*
X146929180Y-60370498D01*
X146809482Y-60334188D01*
X146685000Y-60321928D01*
X145415000Y-60321928D01*
X145290518Y-60334188D01*
X145170820Y-60370498D01*
X145060506Y-60429463D01*
X144963815Y-60508815D01*
X144884463Y-60605506D01*
X144825498Y-60715820D01*
X144789188Y-60835518D01*
X144776928Y-60960000D01*
X144529072Y-60960000D01*
X144516812Y-60835518D01*
X144480502Y-60715820D01*
X144421537Y-60605506D01*
X144342185Y-60508815D01*
X144245494Y-60429463D01*
X144135180Y-60370498D01*
X144015482Y-60334188D01*
X143891000Y-60321928D01*
X142621000Y-60321928D01*
X142496518Y-60334188D01*
X142376820Y-60370498D01*
X142266506Y-60429463D01*
X142169815Y-60508815D01*
X142113000Y-60578044D01*
X142056185Y-60508815D01*
X141959494Y-60429463D01*
X141849180Y-60370498D01*
X141729482Y-60334188D01*
X141605000Y-60321928D01*
X140335000Y-60321928D01*
X140210518Y-60334188D01*
X140090820Y-60370498D01*
X139980506Y-60429463D01*
X139883815Y-60508815D01*
X139804463Y-60605506D01*
X139745498Y-60715820D01*
X139709188Y-60835518D01*
X139700000Y-60928808D01*
X139700000Y-60897458D01*
X139675597Y-60774777D01*
X139627730Y-60659215D01*
X139558237Y-60555211D01*
X139469789Y-60466763D01*
X139365785Y-60397270D01*
X139250223Y-60349403D01*
X139127542Y-60325000D01*
X138715750Y-60325000D01*
X138557000Y-60483750D01*
X138557000Y-62103000D01*
X138577000Y-62103000D01*
X138577000Y-62357000D01*
X138557000Y-62357000D01*
X138557000Y-63976250D01*
X138715750Y-64135000D01*
X139127542Y-64135000D01*
X139250223Y-64110597D01*
X139365785Y-64062730D01*
X139469789Y-63993237D01*
X139558237Y-63904789D01*
X139627730Y-63800785D01*
X139675597Y-63685223D01*
X139700000Y-63562542D01*
X139700000Y-63531192D01*
X139709188Y-63624482D01*
X139745498Y-63744180D01*
X139804463Y-63854494D01*
X139883815Y-63951185D01*
X139980506Y-64030537D01*
X140060001Y-64073029D01*
X140060001Y-64285288D01*
X140055597Y-64330000D01*
X140073168Y-64508391D01*
X140125202Y-64679926D01*
X140209702Y-64838015D01*
X140241081Y-64876250D01*
X140323420Y-64976581D01*
X140358149Y-65005082D01*
X151701928Y-76348862D01*
X151701928Y-76700000D01*
X151714188Y-76824482D01*
X151750498Y-76944180D01*
X151809463Y-77054494D01*
X151888815Y-77151185D01*
X151985506Y-77230537D01*
X152095820Y-77289502D01*
X152215518Y-77325812D01*
X152340000Y-77338072D01*
X154240000Y-77338072D01*
X154364482Y-77325812D01*
X154484180Y-77289502D01*
X154594494Y-77230537D01*
X154691185Y-77151185D01*
X154724985Y-77110000D01*
X157053067Y-77110000D01*
X157545540Y-77602474D01*
X157540000Y-77601928D01*
X155640000Y-77601928D01*
X155515518Y-77614188D01*
X155395820Y-77650498D01*
X155285506Y-77709463D01*
X155188815Y-77788815D01*
X155109463Y-77885506D01*
X155050498Y-77995820D01*
X155014188Y-78115518D01*
X155001928Y-78240000D01*
X155001928Y-79240000D01*
X155014188Y-79364482D01*
X155050498Y-79484180D01*
X155109463Y-79594494D01*
X155188815Y-79691185D01*
X155285506Y-79770537D01*
X155395820Y-79829502D01*
X155515518Y-79865812D01*
X155640000Y-79878072D01*
X156749717Y-79878072D01*
X157238470Y-80366825D01*
X157226000Y-80365597D01*
X157181298Y-80370000D01*
X154724985Y-80370000D01*
X154691185Y-80328815D01*
X154594494Y-80249463D01*
X154484180Y-80190498D01*
X154364482Y-80154188D01*
X154240000Y-80141928D01*
X152340000Y-80141928D01*
X152215518Y-80154188D01*
X152095820Y-80190498D01*
X151985506Y-80249463D01*
X151888815Y-80328815D01*
X151809463Y-80425506D01*
X151750498Y-80535820D01*
X151714188Y-80655518D01*
X151701928Y-80780000D01*
X151701928Y-81780000D01*
X151714188Y-81904482D01*
X151750498Y-82024180D01*
X151809463Y-82134494D01*
X151888815Y-82231185D01*
X151985506Y-82310537D01*
X152095820Y-82369502D01*
X152215518Y-82405812D01*
X152340000Y-82418072D01*
X154240000Y-82418072D01*
X154364482Y-82405812D01*
X154484180Y-82369502D01*
X154594494Y-82310537D01*
X154691185Y-82231185D01*
X154724985Y-82190000D01*
X156849067Y-82190000D01*
X157340995Y-82681928D01*
X155640000Y-82681928D01*
X155515518Y-82694188D01*
X155395820Y-82730498D01*
X155285506Y-82789463D01*
X155188815Y-82868815D01*
X155109463Y-82965506D01*
X155050498Y-83075820D01*
X155014188Y-83195518D01*
X155001928Y-83320000D01*
X155001928Y-84320000D01*
X155014188Y-84444482D01*
X155050498Y-84564180D01*
X155109463Y-84674494D01*
X155188815Y-84771185D01*
X155285506Y-84850537D01*
X155395820Y-84909502D01*
X155515518Y-84945812D01*
X155640000Y-84958072D01*
X157540000Y-84958072D01*
X157664482Y-84945812D01*
X157784180Y-84909502D01*
X157854814Y-84871747D01*
X158433067Y-85450000D01*
X154724985Y-85450000D01*
X154691185Y-85408815D01*
X154594494Y-85329463D01*
X154484180Y-85270498D01*
X154364482Y-85234188D01*
X154240000Y-85221928D01*
X152340000Y-85221928D01*
X152215518Y-85234188D01*
X152095820Y-85270498D01*
X151985506Y-85329463D01*
X151888815Y-85408815D01*
X151809463Y-85505506D01*
X151750498Y-85615820D01*
X151714188Y-85735518D01*
X151701928Y-85860000D01*
X151701928Y-86860000D01*
X151714188Y-86984482D01*
X151750498Y-87104180D01*
X151809463Y-87214494D01*
X151888815Y-87311185D01*
X151985506Y-87390537D01*
X152095820Y-87449502D01*
X152215518Y-87485812D01*
X152340000Y-87498072D01*
X154240000Y-87498072D01*
X154364482Y-87485812D01*
X154484180Y-87449502D01*
X154594494Y-87390537D01*
X154691185Y-87311185D01*
X154724985Y-87270000D01*
X158119067Y-87270000D01*
X158348000Y-87498934D01*
X158348001Y-88563704D01*
X158361168Y-88697391D01*
X158413203Y-88868927D01*
X158497703Y-89027015D01*
X158611420Y-89165581D01*
X158749986Y-89279298D01*
X158908074Y-89363798D01*
X159079610Y-89415833D01*
X159258000Y-89433403D01*
X159436391Y-89415833D01*
X159607927Y-89363798D01*
X159766015Y-89279298D01*
X159904581Y-89165581D01*
X159956501Y-89102316D01*
X160008420Y-89165581D01*
X160146986Y-89279298D01*
X160305074Y-89363798D01*
X160476610Y-89415833D01*
X160655000Y-89433403D01*
X160833391Y-89415833D01*
X161004927Y-89363798D01*
X161163015Y-89279298D01*
X161301581Y-89165581D01*
X161353501Y-89102316D01*
X161405420Y-89165581D01*
X161543986Y-89279298D01*
X161702074Y-89363798D01*
X161873610Y-89415833D01*
X162052000Y-89433403D01*
X162230391Y-89415833D01*
X162401927Y-89363798D01*
X162560015Y-89279298D01*
X162698581Y-89165581D01*
X162812298Y-89027015D01*
X162896798Y-88868927D01*
X162948833Y-88697391D01*
X162962000Y-88563704D01*
X162962000Y-86150702D01*
X162966403Y-86106000D01*
X162966305Y-86104999D01*
X174911459Y-86104999D01*
X174915862Y-86149701D01*
X174915863Y-88562703D01*
X174929030Y-88696390D01*
X174981065Y-88867926D01*
X175065565Y-89026014D01*
X175179282Y-89164580D01*
X175317848Y-89278297D01*
X175475936Y-89362797D01*
X175647472Y-89414832D01*
X175825862Y-89432402D01*
X176004253Y-89414832D01*
X176175789Y-89362797D01*
X176333877Y-89278297D01*
X176472443Y-89164580D01*
X176524363Y-89101315D01*
X176576282Y-89164580D01*
X176714848Y-89278297D01*
X176872936Y-89362797D01*
X177044472Y-89414832D01*
X177222862Y-89432402D01*
X177401253Y-89414832D01*
X177572789Y-89362797D01*
X177730877Y-89278297D01*
X177869443Y-89164580D01*
X177921363Y-89101315D01*
X177973282Y-89164580D01*
X178111848Y-89278297D01*
X178269936Y-89362797D01*
X178441472Y-89414832D01*
X178619862Y-89432402D01*
X178798253Y-89414832D01*
X178969789Y-89362797D01*
X179127877Y-89278297D01*
X179266443Y-89164580D01*
X179380160Y-89026014D01*
X179464660Y-88867926D01*
X179516695Y-88696390D01*
X179529862Y-88562703D01*
X179529862Y-87497932D01*
X179758796Y-87268999D01*
X183094194Y-87268999D01*
X183128815Y-87311185D01*
X183225506Y-87390537D01*
X183335820Y-87449502D01*
X183455518Y-87485812D01*
X183580000Y-87498072D01*
X185480000Y-87498072D01*
X185604482Y-87485812D01*
X185724180Y-87449502D01*
X185834494Y-87390537D01*
X185931185Y-87311185D01*
X186010537Y-87214494D01*
X186069502Y-87104180D01*
X186105812Y-86984482D01*
X186118072Y-86860000D01*
X186118072Y-85860000D01*
X186105812Y-85735518D01*
X186069502Y-85615820D01*
X186010537Y-85505506D01*
X185931185Y-85408815D01*
X185834494Y-85329463D01*
X185724180Y-85270498D01*
X185604482Y-85234188D01*
X185480000Y-85221928D01*
X183580000Y-85221928D01*
X183455518Y-85234188D01*
X183335820Y-85270498D01*
X183225506Y-85329463D01*
X183128815Y-85408815D01*
X183095837Y-85448999D01*
X179444796Y-85448999D01*
X180002241Y-84891554D01*
X180035820Y-84909502D01*
X180155518Y-84945812D01*
X180280000Y-84958072D01*
X182180000Y-84958072D01*
X182304482Y-84945812D01*
X182424180Y-84909502D01*
X182534494Y-84850537D01*
X182631185Y-84771185D01*
X182710537Y-84674494D01*
X182769502Y-84564180D01*
X182805812Y-84444482D01*
X182818072Y-84320000D01*
X182818072Y-83320000D01*
X182805812Y-83195518D01*
X182769502Y-83075820D01*
X182710537Y-82965506D01*
X182631185Y-82868815D01*
X182534494Y-82789463D01*
X182424180Y-82730498D01*
X182304482Y-82694188D01*
X182180000Y-82681928D01*
X180535867Y-82681928D01*
X181028796Y-82188999D01*
X183094194Y-82188999D01*
X183128815Y-82231185D01*
X183225506Y-82310537D01*
X183335820Y-82369502D01*
X183455518Y-82405812D01*
X183580000Y-82418072D01*
X185480000Y-82418072D01*
X185604482Y-82405812D01*
X185724180Y-82369502D01*
X185834494Y-82310537D01*
X185931185Y-82231185D01*
X186010537Y-82134494D01*
X186069502Y-82024180D01*
X186105812Y-81904482D01*
X186118072Y-81780000D01*
X186118072Y-80780000D01*
X186105812Y-80655518D01*
X186069502Y-80535820D01*
X186010537Y-80425506D01*
X185931185Y-80328815D01*
X185834494Y-80249463D01*
X185724180Y-80190498D01*
X185604482Y-80154188D01*
X185480000Y-80141928D01*
X183580000Y-80141928D01*
X183455518Y-80154188D01*
X183335820Y-80190498D01*
X183225506Y-80249463D01*
X183128815Y-80328815D01*
X183095837Y-80368999D01*
X180696564Y-80368999D01*
X180651862Y-80364596D01*
X180607160Y-80368999D01*
X180607158Y-80368999D01*
X180473471Y-80382166D01*
X180301935Y-80434201D01*
X180143847Y-80518701D01*
X180005281Y-80632418D01*
X179976780Y-80667147D01*
X175214016Y-85429912D01*
X175179281Y-85458418D01*
X175112164Y-85540202D01*
X175065564Y-85596984D01*
X175003328Y-85713420D01*
X174981064Y-85755073D01*
X174929029Y-85926609D01*
X174918346Y-86035074D01*
X174911459Y-86104999D01*
X162966305Y-86104999D01*
X162962000Y-86061296D01*
X162948833Y-85927609D01*
X162896798Y-85756073D01*
X162812298Y-85597985D01*
X162698581Y-85459419D01*
X162663853Y-85430919D01*
X159522118Y-82289185D01*
X159530392Y-82290000D01*
X159530394Y-82290000D01*
X159579999Y-82294886D01*
X159629604Y-82290000D01*
X159911762Y-82290000D01*
X159913188Y-82304482D01*
X159949498Y-82424180D01*
X160008463Y-82534494D01*
X160087815Y-82631185D01*
X160184506Y-82710537D01*
X160294820Y-82769502D01*
X160414518Y-82805812D01*
X160539000Y-82818072D01*
X161609000Y-82818072D01*
X161733482Y-82805812D01*
X161853180Y-82769502D01*
X161963494Y-82710537D01*
X162060185Y-82631185D01*
X162139537Y-82534494D01*
X162198502Y-82424180D01*
X162234812Y-82304482D01*
X162236238Y-82290000D01*
X162510392Y-82290000D01*
X162560000Y-82294886D01*
X162609607Y-82290000D01*
X162609608Y-82290000D01*
X162757994Y-82275385D01*
X162914000Y-82228061D01*
X162914000Y-82242542D01*
X162938403Y-82365223D01*
X162986270Y-82480785D01*
X163055763Y-82584789D01*
X163144211Y-82673237D01*
X163248215Y-82742730D01*
X163363777Y-82790597D01*
X163486458Y-82815000D01*
X163798250Y-82815000D01*
X163957000Y-82656250D01*
X163957000Y-81407000D01*
X164211000Y-81407000D01*
X164211000Y-82656250D01*
X164369750Y-82815000D01*
X164681542Y-82815000D01*
X164804223Y-82790597D01*
X164919785Y-82742730D01*
X165023789Y-82673237D01*
X165112237Y-82584789D01*
X165181730Y-82480785D01*
X165229597Y-82365223D01*
X165254000Y-82242542D01*
X165254000Y-81565750D01*
X165095250Y-81407000D01*
X164211000Y-81407000D01*
X163957000Y-81407000D01*
X163937000Y-81407000D01*
X163937000Y-81153000D01*
X163957000Y-81153000D01*
X163957000Y-81133000D01*
X164211000Y-81133000D01*
X164211000Y-81153000D01*
X165095250Y-81153000D01*
X165254000Y-80994250D01*
X165254000Y-80317458D01*
X165229597Y-80194777D01*
X165181730Y-80079215D01*
X165127552Y-79998131D01*
X165130537Y-79994494D01*
X165189502Y-79884180D01*
X165225812Y-79764482D01*
X165238072Y-79640000D01*
X165238072Y-79025750D01*
X179645000Y-79025750D01*
X179645000Y-79302542D01*
X179669403Y-79425223D01*
X179717270Y-79540785D01*
X179786763Y-79644789D01*
X179875211Y-79733237D01*
X179979215Y-79802730D01*
X180094777Y-79850597D01*
X180217458Y-79875000D01*
X180944250Y-79875000D01*
X181103000Y-79716250D01*
X181103000Y-78867000D01*
X181357000Y-78867000D01*
X181357000Y-79716250D01*
X181515750Y-79875000D01*
X182242542Y-79875000D01*
X182365223Y-79850597D01*
X182480785Y-79802730D01*
X182584789Y-79733237D01*
X182673237Y-79644789D01*
X182742730Y-79540785D01*
X182790597Y-79425223D01*
X182815000Y-79302542D01*
X182815000Y-79025750D01*
X182656250Y-78867000D01*
X181357000Y-78867000D01*
X181103000Y-78867000D01*
X179803750Y-78867000D01*
X179645000Y-79025750D01*
X165238072Y-79025750D01*
X165238072Y-78177458D01*
X179645000Y-78177458D01*
X179645000Y-78454250D01*
X179803750Y-78613000D01*
X181103000Y-78613000D01*
X181103000Y-77763750D01*
X181357000Y-77763750D01*
X181357000Y-78613000D01*
X182656250Y-78613000D01*
X182815000Y-78454250D01*
X182815000Y-78177458D01*
X182790597Y-78054777D01*
X182742730Y-77939215D01*
X182673237Y-77835211D01*
X182593776Y-77755750D01*
X192345000Y-77755750D01*
X192345000Y-78032542D01*
X192369403Y-78155223D01*
X192417270Y-78270785D01*
X192486763Y-78374789D01*
X192575211Y-78463237D01*
X192679215Y-78532730D01*
X192794777Y-78580597D01*
X192917458Y-78605000D01*
X193644250Y-78605000D01*
X193803000Y-78446250D01*
X193803000Y-77597000D01*
X194057000Y-77597000D01*
X194057000Y-78446250D01*
X194215750Y-78605000D01*
X194942542Y-78605000D01*
X195065223Y-78580597D01*
X195180785Y-78532730D01*
X195284789Y-78463237D01*
X195373237Y-78374789D01*
X195442730Y-78270785D01*
X195490597Y-78155223D01*
X195515000Y-78032542D01*
X195515000Y-77755750D01*
X198695000Y-77755750D01*
X198695000Y-78032542D01*
X198719403Y-78155223D01*
X198767270Y-78270785D01*
X198836763Y-78374789D01*
X198925211Y-78463237D01*
X199029215Y-78532730D01*
X199144777Y-78580597D01*
X199267458Y-78605000D01*
X199994250Y-78605000D01*
X200153000Y-78446250D01*
X200153000Y-77597000D01*
X200407000Y-77597000D01*
X200407000Y-78446250D01*
X200565750Y-78605000D01*
X201292542Y-78605000D01*
X201415223Y-78580597D01*
X201530785Y-78532730D01*
X201634789Y-78463237D01*
X201723237Y-78374789D01*
X201792730Y-78270785D01*
X201840597Y-78155223D01*
X201865000Y-78032542D01*
X201865000Y-77755750D01*
X201706250Y-77597000D01*
X200407000Y-77597000D01*
X200153000Y-77597000D01*
X198853750Y-77597000D01*
X198695000Y-77755750D01*
X195515000Y-77755750D01*
X195356250Y-77597000D01*
X194057000Y-77597000D01*
X193803000Y-77597000D01*
X192503750Y-77597000D01*
X192345000Y-77755750D01*
X182593776Y-77755750D01*
X182584789Y-77746763D01*
X182480785Y-77677270D01*
X182365223Y-77629403D01*
X182242542Y-77605000D01*
X181515750Y-77605000D01*
X181357000Y-77763750D01*
X181103000Y-77763750D01*
X180944250Y-77605000D01*
X180217458Y-77605000D01*
X180094777Y-77629403D01*
X179979215Y-77677270D01*
X179875211Y-77746763D01*
X179786763Y-77835211D01*
X179717270Y-77939215D01*
X179669403Y-78054777D01*
X179645000Y-78177458D01*
X165238072Y-78177458D01*
X165238072Y-77840000D01*
X165225812Y-77715518D01*
X165189502Y-77595820D01*
X165130537Y-77485506D01*
X165117812Y-77470000D01*
X165130537Y-77454494D01*
X165189502Y-77344180D01*
X165225812Y-77224482D01*
X165227238Y-77210000D01*
X165888377Y-77210000D01*
X166014061Y-77235000D01*
X166217939Y-77235000D01*
X166417898Y-77195226D01*
X166606256Y-77117205D01*
X166775774Y-77003937D01*
X166919937Y-76859774D01*
X167033205Y-76690256D01*
X167111226Y-76501898D01*
X167114438Y-76485750D01*
X174636000Y-76485750D01*
X174636000Y-77162542D01*
X174660403Y-77285223D01*
X174708270Y-77400785D01*
X174777763Y-77504789D01*
X174866211Y-77593237D01*
X174970215Y-77662730D01*
X175085777Y-77710597D01*
X175208458Y-77735000D01*
X175520250Y-77735000D01*
X175679000Y-77576250D01*
X175679000Y-76327000D01*
X175933000Y-76327000D01*
X175933000Y-77576250D01*
X176091750Y-77735000D01*
X176403542Y-77735000D01*
X176526223Y-77710597D01*
X176641785Y-77662730D01*
X176745789Y-77593237D01*
X176834237Y-77504789D01*
X176903730Y-77400785D01*
X176951597Y-77285223D01*
X176976000Y-77162542D01*
X176976000Y-76485750D01*
X176817250Y-76327000D01*
X175933000Y-76327000D01*
X175679000Y-76327000D01*
X174794750Y-76327000D01*
X174636000Y-76485750D01*
X167114438Y-76485750D01*
X167151000Y-76301939D01*
X167151000Y-76098061D01*
X167111226Y-75898102D01*
X167033205Y-75709744D01*
X166919937Y-75540226D01*
X166775774Y-75396063D01*
X166606256Y-75282795D01*
X166417898Y-75204774D01*
X166217939Y-75165000D01*
X166014061Y-75165000D01*
X165888377Y-75190000D01*
X165227238Y-75190000D01*
X165225812Y-75175518D01*
X165189502Y-75055820D01*
X165130537Y-74945506D01*
X165117812Y-74930000D01*
X165130537Y-74914494D01*
X165189502Y-74804180D01*
X165225812Y-74684482D01*
X165238072Y-74560000D01*
X165238072Y-72760000D01*
X165225812Y-72635518D01*
X165189502Y-72515820D01*
X165130537Y-72405506D01*
X165117812Y-72390000D01*
X165130537Y-72374494D01*
X165189502Y-72264180D01*
X165225812Y-72144482D01*
X165238072Y-72020000D01*
X165238072Y-70220000D01*
X165225812Y-70095518D01*
X165189502Y-69975820D01*
X165130537Y-69865506D01*
X165117812Y-69850000D01*
X165130537Y-69834494D01*
X165189502Y-69724180D01*
X165225812Y-69604482D01*
X165238072Y-69480000D01*
X165238072Y-67680000D01*
X165225812Y-67555518D01*
X165189502Y-67435820D01*
X165130537Y-67325506D01*
X165117812Y-67310000D01*
X165130537Y-67294494D01*
X165189502Y-67184180D01*
X165225812Y-67064482D01*
X165238072Y-66940000D01*
X165238072Y-65140000D01*
X165225812Y-65015518D01*
X165189502Y-64895820D01*
X165130537Y-64785506D01*
X165117079Y-64769107D01*
X165162730Y-64700785D01*
X165210597Y-64585223D01*
X165235000Y-64462542D01*
X165235000Y-63785750D01*
X165076250Y-63627000D01*
X164192000Y-63627000D01*
X164192000Y-63647000D01*
X163938000Y-63647000D01*
X163938000Y-63627000D01*
X163918000Y-63627000D01*
X163918000Y-63373000D01*
X163938000Y-63373000D01*
X163938000Y-61087000D01*
X164192000Y-61087000D01*
X164192000Y-63373000D01*
X165076250Y-63373000D01*
X165235000Y-63214250D01*
X165235000Y-62537458D01*
X165210597Y-62414777D01*
X165162730Y-62299215D01*
X165116482Y-62230000D01*
X165162730Y-62160785D01*
X165210597Y-62045223D01*
X165235000Y-61922542D01*
X165235000Y-61245750D01*
X165076250Y-61087000D01*
X164192000Y-61087000D01*
X163938000Y-61087000D01*
X163918000Y-61087000D01*
X163918000Y-60833000D01*
X163938000Y-60833000D01*
X163938000Y-58547000D01*
X164192000Y-58547000D01*
X164192000Y-60833000D01*
X165076250Y-60833000D01*
X165235000Y-60674250D01*
X165235000Y-59997458D01*
X165210597Y-59874777D01*
X165162730Y-59759215D01*
X165116482Y-59690000D01*
X165162730Y-59620785D01*
X165210597Y-59505223D01*
X165235000Y-59382542D01*
X165235000Y-58705750D01*
X165076250Y-58547000D01*
X164192000Y-58547000D01*
X163938000Y-58547000D01*
X163918000Y-58547000D01*
X163918000Y-58293000D01*
X163938000Y-58293000D01*
X163938000Y-57043750D01*
X163851000Y-56956750D01*
X163851000Y-56686701D01*
X163855403Y-56641999D01*
X163848658Y-56573518D01*
X163837833Y-56463609D01*
X163785798Y-56292073D01*
X163701298Y-56133985D01*
X163587581Y-55995419D01*
X163552853Y-55966919D01*
X162716933Y-55131000D01*
X162922645Y-55131000D01*
X164680146Y-56888502D01*
X164662542Y-56885000D01*
X164350750Y-56885000D01*
X164192000Y-57043750D01*
X164192000Y-58293000D01*
X165076250Y-58293000D01*
X165235000Y-58134250D01*
X165235000Y-57457458D01*
X165231498Y-57439854D01*
X165978170Y-58186526D01*
X166023381Y-58413821D01*
X166120247Y-58647676D01*
X166260875Y-58858140D01*
X166439860Y-59037125D01*
X166650324Y-59177753D01*
X166884179Y-59274619D01*
X167132439Y-59324000D01*
X167244000Y-59324000D01*
X167244000Y-59435561D01*
X167293381Y-59683821D01*
X167390247Y-59917676D01*
X167519000Y-60110368D01*
X167519001Y-63554382D01*
X167514114Y-63604000D01*
X167533615Y-63801994D01*
X167591368Y-63992379D01*
X167667601Y-64135000D01*
X167685154Y-64167840D01*
X167811368Y-64321633D01*
X167849901Y-64353256D01*
X168691743Y-65195099D01*
X168723367Y-65233633D01*
X168877160Y-65359847D01*
X169052620Y-65453632D01*
X169243005Y-65511385D01*
X169441000Y-65530886D01*
X169490608Y-65526000D01*
X169563762Y-65526000D01*
X169565188Y-65540482D01*
X169601498Y-65660180D01*
X169660463Y-65770494D01*
X169739815Y-65867185D01*
X169836506Y-65946537D01*
X169946820Y-66005502D01*
X170066518Y-66041812D01*
X170191000Y-66054072D01*
X171261000Y-66054072D01*
X171385482Y-66041812D01*
X171505180Y-66005502D01*
X171615494Y-65946537D01*
X171712185Y-65867185D01*
X171791537Y-65770494D01*
X171850502Y-65660180D01*
X171886812Y-65540482D01*
X171899072Y-65416000D01*
X171899072Y-65366214D01*
X172062620Y-65453632D01*
X172253006Y-65511385D01*
X172401392Y-65526000D01*
X172401394Y-65526000D01*
X172450999Y-65530886D01*
X172500604Y-65526000D01*
X172573762Y-65526000D01*
X172575188Y-65540482D01*
X172611498Y-65660180D01*
X172670463Y-65770494D01*
X172749815Y-65867185D01*
X172846506Y-65946537D01*
X172956820Y-66005502D01*
X173076518Y-66041812D01*
X173201000Y-66054072D01*
X174271000Y-66054072D01*
X174395482Y-66041812D01*
X174515180Y-66005502D01*
X174625494Y-65946537D01*
X174632928Y-65940436D01*
X174632928Y-66940000D01*
X174645188Y-67064482D01*
X174681498Y-67184180D01*
X174740463Y-67294494D01*
X174753188Y-67310000D01*
X174740463Y-67325506D01*
X174681498Y-67435820D01*
X174645188Y-67555518D01*
X174632928Y-67680000D01*
X174632928Y-69480000D01*
X174645188Y-69604482D01*
X174681498Y-69724180D01*
X174740463Y-69834494D01*
X174753188Y-69850000D01*
X174740463Y-69865506D01*
X174681498Y-69975820D01*
X174645188Y-70095518D01*
X174632928Y-70220000D01*
X174632928Y-72020000D01*
X174645188Y-72144482D01*
X174681498Y-72264180D01*
X174740463Y-72374494D01*
X174753188Y-72390000D01*
X174740463Y-72405506D01*
X174681498Y-72515820D01*
X174645188Y-72635518D01*
X174643762Y-72650000D01*
X174471623Y-72650000D01*
X174345939Y-72625000D01*
X174142061Y-72625000D01*
X173942102Y-72664774D01*
X173753744Y-72742795D01*
X173584226Y-72856063D01*
X173440063Y-73000226D01*
X173326795Y-73169744D01*
X173248774Y-73358102D01*
X173209000Y-73558061D01*
X173209000Y-73761939D01*
X173248774Y-73961898D01*
X173326795Y-74150256D01*
X173440063Y-74319774D01*
X173584226Y-74463937D01*
X173753744Y-74577205D01*
X173942102Y-74655226D01*
X174142061Y-74695000D01*
X174345939Y-74695000D01*
X174471623Y-74670000D01*
X174643762Y-74670000D01*
X174645188Y-74684482D01*
X174681498Y-74804180D01*
X174740463Y-74914494D01*
X174753921Y-74930893D01*
X174708270Y-74999215D01*
X174660403Y-75114777D01*
X174636000Y-75237458D01*
X174636000Y-75914250D01*
X174794750Y-76073000D01*
X175679000Y-76073000D01*
X175679000Y-76053000D01*
X175933000Y-76053000D01*
X175933000Y-76073000D01*
X176817250Y-76073000D01*
X176976000Y-75914250D01*
X176976000Y-75237458D01*
X176951597Y-75114777D01*
X176903730Y-74999215D01*
X176858079Y-74930893D01*
X176871537Y-74914494D01*
X176930502Y-74804180D01*
X176966812Y-74684482D01*
X176979072Y-74560000D01*
X176979072Y-72760000D01*
X176966812Y-72635518D01*
X176930502Y-72515820D01*
X176871537Y-72405506D01*
X176858812Y-72390000D01*
X176871537Y-72374494D01*
X176930502Y-72264180D01*
X176966812Y-72144482D01*
X176979072Y-72020000D01*
X176979072Y-71970214D01*
X177142620Y-72057632D01*
X177333006Y-72115385D01*
X177481392Y-72130000D01*
X177481394Y-72130000D01*
X177530999Y-72134886D01*
X177580604Y-72130000D01*
X177653762Y-72130000D01*
X177655188Y-72144482D01*
X177691498Y-72264180D01*
X177750463Y-72374494D01*
X177763188Y-72390000D01*
X177750463Y-72405506D01*
X177691498Y-72515820D01*
X177655188Y-72635518D01*
X177642928Y-72760000D01*
X177642928Y-74560000D01*
X177655188Y-74684482D01*
X177691498Y-74804180D01*
X177750463Y-74914494D01*
X177763188Y-74930000D01*
X177750463Y-74945506D01*
X177691498Y-75055820D01*
X177655188Y-75175518D01*
X177642928Y-75300000D01*
X177642928Y-77100000D01*
X177655188Y-77224482D01*
X177691498Y-77344180D01*
X177750463Y-77454494D01*
X177829815Y-77551185D01*
X177926506Y-77630537D01*
X178036820Y-77689502D01*
X178156518Y-77725812D01*
X178281000Y-77738072D01*
X179351000Y-77738072D01*
X179475482Y-77725812D01*
X179595180Y-77689502D01*
X179705494Y-77630537D01*
X179802185Y-77551185D01*
X179881537Y-77454494D01*
X179940502Y-77344180D01*
X179976812Y-77224482D01*
X179978238Y-77210000D01*
X183200482Y-77210000D01*
X183225506Y-77230537D01*
X183335820Y-77289502D01*
X183455518Y-77325812D01*
X183580000Y-77338072D01*
X185480000Y-77338072D01*
X185604482Y-77325812D01*
X185724180Y-77289502D01*
X185834494Y-77230537D01*
X185931185Y-77151185D01*
X186010537Y-77054494D01*
X186069502Y-76944180D01*
X186080641Y-76907458D01*
X192345000Y-76907458D01*
X192345000Y-77184250D01*
X192503750Y-77343000D01*
X193803000Y-77343000D01*
X193803000Y-76493750D01*
X194057000Y-76493750D01*
X194057000Y-77343000D01*
X195356250Y-77343000D01*
X195515000Y-77184250D01*
X195515000Y-76907458D01*
X198695000Y-76907458D01*
X198695000Y-77184250D01*
X198853750Y-77343000D01*
X200153000Y-77343000D01*
X200153000Y-76493750D01*
X200407000Y-76493750D01*
X200407000Y-77343000D01*
X201706250Y-77343000D01*
X201865000Y-77184250D01*
X201865000Y-76907458D01*
X201840597Y-76784777D01*
X201792730Y-76669215D01*
X201723237Y-76565211D01*
X201634789Y-76476763D01*
X201530785Y-76407270D01*
X201415223Y-76359403D01*
X201292542Y-76335000D01*
X200565750Y-76335000D01*
X200407000Y-76493750D01*
X200153000Y-76493750D01*
X199994250Y-76335000D01*
X199267458Y-76335000D01*
X199144777Y-76359403D01*
X199029215Y-76407270D01*
X198925211Y-76476763D01*
X198836763Y-76565211D01*
X198767270Y-76669215D01*
X198719403Y-76784777D01*
X198695000Y-76907458D01*
X195515000Y-76907458D01*
X195490597Y-76784777D01*
X195442730Y-76669215D01*
X195373237Y-76565211D01*
X195284789Y-76476763D01*
X195180785Y-76407270D01*
X195065223Y-76359403D01*
X194942542Y-76335000D01*
X194215750Y-76335000D01*
X194057000Y-76493750D01*
X193803000Y-76493750D01*
X193644250Y-76335000D01*
X192917458Y-76335000D01*
X192794777Y-76359403D01*
X192679215Y-76407270D01*
X192575211Y-76476763D01*
X192486763Y-76565211D01*
X192417270Y-76669215D01*
X192369403Y-76784777D01*
X192345000Y-76907458D01*
X186080641Y-76907458D01*
X186105812Y-76824482D01*
X186118072Y-76700000D01*
X186118072Y-75700000D01*
X186105812Y-75575518D01*
X186069502Y-75455820D01*
X186010537Y-75345506D01*
X185931185Y-75248815D01*
X185834494Y-75169463D01*
X185724180Y-75110498D01*
X185604482Y-75074188D01*
X185480000Y-75061928D01*
X183580000Y-75061928D01*
X183455518Y-75074188D01*
X183335820Y-75110498D01*
X183225506Y-75169463D01*
X183200482Y-75190000D01*
X179978238Y-75190000D01*
X179976812Y-75175518D01*
X179940502Y-75055820D01*
X179881537Y-74945506D01*
X179868812Y-74930000D01*
X179881537Y-74914494D01*
X179940502Y-74804180D01*
X179968073Y-74713290D01*
X180035820Y-74749502D01*
X180155518Y-74785812D01*
X180280000Y-74798072D01*
X182180000Y-74798072D01*
X182304482Y-74785812D01*
X182424180Y-74749502D01*
X182534494Y-74690537D01*
X182559518Y-74670000D01*
X188557645Y-74670000D01*
X189496739Y-75609094D01*
X189528367Y-75647633D01*
X189682160Y-75773847D01*
X189857620Y-75867632D01*
X190048006Y-75925385D01*
X190196392Y-75940000D01*
X190196394Y-75940000D01*
X190245999Y-75944886D01*
X190295604Y-75940000D01*
X195900482Y-75940000D01*
X195925506Y-75960537D01*
X196035820Y-76019502D01*
X196155518Y-76055812D01*
X196280000Y-76068072D01*
X198180000Y-76068072D01*
X198304482Y-76055812D01*
X198424180Y-76019502D01*
X198534494Y-75960537D01*
X198631185Y-75881185D01*
X198664985Y-75840000D01*
X202145015Y-75840000D01*
X202178815Y-75881185D01*
X202275506Y-75960537D01*
X202385820Y-76019502D01*
X202505518Y-76055812D01*
X202630000Y-76068072D01*
X204530000Y-76068072D01*
X204654482Y-76055812D01*
X204774180Y-76019502D01*
X204884494Y-75960537D01*
X204981185Y-75881185D01*
X205060537Y-75784494D01*
X205119502Y-75674180D01*
X205155812Y-75554482D01*
X205168072Y-75430000D01*
X205168072Y-74430000D01*
X205155812Y-74305518D01*
X205119502Y-74185820D01*
X205060537Y-74075506D01*
X204981185Y-73978815D01*
X204884494Y-73899463D01*
X204774180Y-73840498D01*
X204654482Y-73804188D01*
X204530000Y-73791928D01*
X202630000Y-73791928D01*
X202505518Y-73804188D01*
X202385820Y-73840498D01*
X202275506Y-73899463D01*
X202178815Y-73978815D01*
X202145015Y-74020000D01*
X198664985Y-74020000D01*
X198631185Y-73978815D01*
X198534494Y-73899463D01*
X198424180Y-73840498D01*
X198304482Y-73804188D01*
X198180000Y-73791928D01*
X196280000Y-73791928D01*
X196155518Y-73804188D01*
X196035820Y-73840498D01*
X195925506Y-73899463D01*
X195900482Y-73920000D01*
X190664355Y-73920000D01*
X189725261Y-72980906D01*
X189693633Y-72942367D01*
X189539840Y-72816153D01*
X189364380Y-72722368D01*
X189173994Y-72664615D01*
X189025608Y-72650000D01*
X188976000Y-72645114D01*
X188926392Y-72650000D01*
X182559518Y-72650000D01*
X182534494Y-72629463D01*
X182424180Y-72570498D01*
X182304482Y-72534188D01*
X182180000Y-72521928D01*
X180280000Y-72521928D01*
X180155518Y-72534188D01*
X180035820Y-72570498D01*
X179968073Y-72606710D01*
X179940502Y-72515820D01*
X179881537Y-72405506D01*
X179868812Y-72390000D01*
X179881537Y-72374494D01*
X179940502Y-72264180D01*
X179976812Y-72144482D01*
X179978238Y-72130000D01*
X183200482Y-72130000D01*
X183225506Y-72150537D01*
X183335820Y-72209502D01*
X183455518Y-72245812D01*
X183580000Y-72258072D01*
X185480000Y-72258072D01*
X185604482Y-72245812D01*
X185724180Y-72209502D01*
X185834494Y-72150537D01*
X185931185Y-72071185D01*
X186010537Y-71974494D01*
X186069502Y-71864180D01*
X186105812Y-71744482D01*
X186118072Y-71620000D01*
X186118072Y-70620000D01*
X186105812Y-70495518D01*
X186069502Y-70375820D01*
X186010537Y-70265506D01*
X185931185Y-70168815D01*
X185834494Y-70089463D01*
X185724180Y-70030498D01*
X185604482Y-69994188D01*
X185480000Y-69981928D01*
X183580000Y-69981928D01*
X183455518Y-69994188D01*
X183335820Y-70030498D01*
X183225506Y-70089463D01*
X183200482Y-70110000D01*
X179978238Y-70110000D01*
X179976812Y-70095518D01*
X179940502Y-69975820D01*
X179881537Y-69865506D01*
X179868812Y-69850000D01*
X179881537Y-69834494D01*
X179940502Y-69724180D01*
X179968073Y-69633290D01*
X180035820Y-69669502D01*
X180155518Y-69705812D01*
X180280000Y-69718072D01*
X182180000Y-69718072D01*
X182304482Y-69705812D01*
X182424180Y-69669502D01*
X182534494Y-69610537D01*
X182559518Y-69590000D01*
X192600482Y-69590000D01*
X192625506Y-69610537D01*
X192735820Y-69669502D01*
X192855518Y-69705812D01*
X192980000Y-69718072D01*
X194880000Y-69718072D01*
X195004482Y-69705812D01*
X195124180Y-69669502D01*
X195234494Y-69610537D01*
X195259518Y-69590000D01*
X195580392Y-69590000D01*
X195630000Y-69594886D01*
X195727358Y-69585297D01*
X195827994Y-69575385D01*
X196018380Y-69517632D01*
X196193840Y-69423847D01*
X196347633Y-69297633D01*
X196379260Y-69259095D01*
X196810356Y-68828000D01*
X198324392Y-68828000D01*
X198374000Y-68832886D01*
X198571994Y-68813385D01*
X198762380Y-68755632D01*
X198937840Y-68661847D01*
X199091633Y-68535633D01*
X199123261Y-68497095D01*
X199650001Y-67970355D01*
X199650001Y-69292383D01*
X199650000Y-69292393D01*
X199650001Y-70193645D01*
X199600907Y-70242738D01*
X199562367Y-70274367D01*
X199436153Y-70428160D01*
X199367736Y-70556160D01*
X199342368Y-70603621D01*
X199284615Y-70794006D01*
X199265114Y-70992000D01*
X199270000Y-71041608D01*
X199270000Y-71257837D01*
X199205518Y-71264188D01*
X199085820Y-71300498D01*
X198975506Y-71359463D01*
X198950482Y-71380000D01*
X195259518Y-71380000D01*
X195234494Y-71359463D01*
X195124180Y-71300498D01*
X195004482Y-71264188D01*
X194880000Y-71251928D01*
X192980000Y-71251928D01*
X192855518Y-71264188D01*
X192735820Y-71300498D01*
X192625506Y-71359463D01*
X192528815Y-71438815D01*
X192449463Y-71535506D01*
X192396816Y-71634000D01*
X191235623Y-71634000D01*
X191109939Y-71609000D01*
X190906061Y-71609000D01*
X190706102Y-71648774D01*
X190517744Y-71726795D01*
X190348226Y-71840063D01*
X190204063Y-71984226D01*
X190090795Y-72153744D01*
X190012774Y-72342102D01*
X189973000Y-72542061D01*
X189973000Y-72745939D01*
X190012774Y-72945898D01*
X190090795Y-73134256D01*
X190204063Y-73303774D01*
X190348226Y-73447937D01*
X190517744Y-73561205D01*
X190706102Y-73639226D01*
X190906061Y-73679000D01*
X191109939Y-73679000D01*
X191235623Y-73654000D01*
X193626392Y-73654000D01*
X193676000Y-73658886D01*
X193873994Y-73639385D01*
X193953401Y-73615297D01*
X194064380Y-73581632D01*
X194164584Y-73528072D01*
X194880000Y-73528072D01*
X195004482Y-73515812D01*
X195124180Y-73479502D01*
X195234494Y-73420537D01*
X195259518Y-73400000D01*
X198950482Y-73400000D01*
X198975506Y-73420537D01*
X199085820Y-73479502D01*
X199205518Y-73515812D01*
X199330000Y-73528072D01*
X201230000Y-73528072D01*
X201354482Y-73515812D01*
X201474180Y-73479502D01*
X201584494Y-73420537D01*
X201681185Y-73341185D01*
X201760537Y-73244494D01*
X201819502Y-73134180D01*
X201855812Y-73014482D01*
X201868072Y-72890000D01*
X201868072Y-71890000D01*
X201855812Y-71765518D01*
X201819502Y-71645820D01*
X201760537Y-71535506D01*
X201681185Y-71438815D01*
X201584494Y-71359463D01*
X201474180Y-71300498D01*
X201416022Y-71282856D01*
X201503847Y-71175840D01*
X201597632Y-71000380D01*
X201655385Y-70809994D01*
X201670000Y-70661608D01*
X201670000Y-70661606D01*
X201674886Y-70612001D01*
X201670000Y-70562396D01*
X201670000Y-63481238D01*
X201684482Y-63479812D01*
X201804180Y-63443502D01*
X201914494Y-63384537D01*
X201982166Y-63329000D01*
X202072916Y-63329000D01*
X202150006Y-63352385D01*
X202298392Y-63367000D01*
X202298394Y-63367000D01*
X202347999Y-63371886D01*
X202397604Y-63367000D01*
X202914392Y-63367000D01*
X202964000Y-63371886D01*
X203161994Y-63352385D01*
X203245067Y-63327185D01*
X203352380Y-63294632D01*
X203527840Y-63200847D01*
X203681633Y-63074633D01*
X203713263Y-63036092D01*
X203752091Y-62997264D01*
X203790633Y-62965633D01*
X203916847Y-62811840D01*
X204010632Y-62636380D01*
X204068385Y-62445994D01*
X204083000Y-62297608D01*
X204083000Y-62297606D01*
X204087886Y-62248001D01*
X204083000Y-62198396D01*
X204083000Y-62113038D01*
X204167180Y-62087502D01*
X204277494Y-62028537D01*
X204374185Y-61949185D01*
X204453537Y-61852494D01*
X204512502Y-61742180D01*
X204548812Y-61622482D01*
X204561072Y-61498000D01*
X204561072Y-60198000D01*
X204548812Y-60073518D01*
X204512502Y-59953820D01*
X204453537Y-59843506D01*
X204374185Y-59746815D01*
X204277494Y-59667463D01*
X204167180Y-59608498D01*
X204047482Y-59572188D01*
X203923000Y-59559928D01*
X202223000Y-59559928D01*
X202165810Y-59565560D01*
X202036250Y-59436000D01*
X200787000Y-59436000D01*
X200787000Y-60320250D01*
X200945750Y-60479000D01*
X201584928Y-60479000D01*
X201584928Y-61148383D01*
X201560000Y-61145928D01*
X199760000Y-61145928D01*
X199635518Y-61158188D01*
X199515820Y-61194498D01*
X199405506Y-61253463D01*
X199367324Y-61284798D01*
X199345633Y-61258367D01*
X199307099Y-61226744D01*
X197792251Y-59711896D01*
X197760623Y-59673357D01*
X197664840Y-59594750D01*
X199125000Y-59594750D01*
X199125000Y-59906542D01*
X199149403Y-60029223D01*
X199197270Y-60144785D01*
X199266763Y-60248789D01*
X199355211Y-60337237D01*
X199459215Y-60406730D01*
X199574777Y-60454597D01*
X199697458Y-60479000D01*
X200374250Y-60479000D01*
X200533000Y-60320250D01*
X200533000Y-59436000D01*
X199283750Y-59436000D01*
X199125000Y-59594750D01*
X197664840Y-59594750D01*
X197606830Y-59547143D01*
X197431370Y-59453358D01*
X197240984Y-59395605D01*
X197092598Y-59380990D01*
X197042990Y-59376104D01*
X196993382Y-59380990D01*
X194867072Y-59380990D01*
X194867072Y-59220930D01*
X194924385Y-59031994D01*
X194939000Y-58883608D01*
X194939000Y-58358000D01*
X199277974Y-58358000D01*
X199266763Y-58369211D01*
X199197270Y-58473215D01*
X199149403Y-58588777D01*
X199125000Y-58711458D01*
X199125000Y-59023250D01*
X199283750Y-59182000D01*
X200533000Y-59182000D01*
X200533000Y-59162000D01*
X200787000Y-59162000D01*
X200787000Y-59182000D01*
X202036250Y-59182000D01*
X202195000Y-59023250D01*
X202195000Y-58711458D01*
X202179146Y-58631753D01*
X202223000Y-58636072D01*
X203923000Y-58636072D01*
X204047482Y-58623812D01*
X204167180Y-58587502D01*
X204277494Y-58528537D01*
X204374185Y-58449185D01*
X204453537Y-58352494D01*
X204512502Y-58242180D01*
X204548812Y-58122482D01*
X204561072Y-57998000D01*
X204561072Y-56698000D01*
X204548812Y-56573518D01*
X204512502Y-56453820D01*
X204453537Y-56343506D01*
X204374185Y-56246815D01*
X204277494Y-56167463D01*
X204167180Y-56108498D01*
X204047482Y-56072188D01*
X203923000Y-56059928D01*
X202223000Y-56059928D01*
X202098518Y-56072188D01*
X201978820Y-56108498D01*
X201868506Y-56167463D01*
X201866500Y-56169109D01*
X201864494Y-56167463D01*
X201754180Y-56108498D01*
X201634482Y-56072188D01*
X201510000Y-56059928D01*
X199810000Y-56059928D01*
X199685518Y-56072188D01*
X199565820Y-56108498D01*
X199455506Y-56167463D01*
X199358815Y-56246815D01*
X199283982Y-56338000D01*
X194518355Y-56338000D01*
X194608094Y-56248261D01*
X194646633Y-56216633D01*
X194772847Y-56062840D01*
X194866632Y-55887380D01*
X194924385Y-55696994D01*
X194939000Y-55548608D01*
X194939000Y-55548606D01*
X194943886Y-55499001D01*
X194939000Y-55449396D01*
X194939000Y-53660374D01*
X195707000Y-53660374D01*
X195707000Y-54035626D01*
X195780209Y-54403668D01*
X195923811Y-54750356D01*
X196132290Y-55062366D01*
X196397634Y-55327710D01*
X196709644Y-55536189D01*
X197056332Y-55679791D01*
X197424374Y-55753000D01*
X197799626Y-55753000D01*
X198167668Y-55679791D01*
X198514356Y-55536189D01*
X198826366Y-55327710D01*
X199091710Y-55062366D01*
X199228263Y-54858000D01*
X199283982Y-54858000D01*
X199358815Y-54949185D01*
X199455506Y-55028537D01*
X199565820Y-55087502D01*
X199685518Y-55123812D01*
X199810000Y-55136072D01*
X201510000Y-55136072D01*
X201634482Y-55123812D01*
X201754180Y-55087502D01*
X201864494Y-55028537D01*
X201961185Y-54949185D01*
X202040537Y-54852494D01*
X202099502Y-54742180D01*
X202135812Y-54622482D01*
X202148072Y-54498000D01*
X202148072Y-53198000D01*
X202135812Y-53073518D01*
X202099502Y-52953820D01*
X202040537Y-52843506D01*
X201961185Y-52746815D01*
X201864494Y-52667463D01*
X201754180Y-52608498D01*
X201634482Y-52572188D01*
X201510000Y-52559928D01*
X199810000Y-52559928D01*
X199685518Y-52572188D01*
X199565820Y-52608498D01*
X199455506Y-52667463D01*
X199358815Y-52746815D01*
X199283982Y-52838000D01*
X199228263Y-52838000D01*
X199091710Y-52633634D01*
X198826366Y-52368290D01*
X198514356Y-52159811D01*
X198167668Y-52016209D01*
X197799626Y-51943000D01*
X197424374Y-51943000D01*
X197056332Y-52016209D01*
X196709644Y-52159811D01*
X196397634Y-52368290D01*
X196132290Y-52633634D01*
X195923811Y-52945644D01*
X195780209Y-53292332D01*
X195707000Y-53660374D01*
X194939000Y-53660374D01*
X194939000Y-53384392D01*
X194924385Y-53236006D01*
X194867072Y-53047070D01*
X194867072Y-52659000D01*
X194854812Y-52534518D01*
X194818502Y-52414820D01*
X194759537Y-52304506D01*
X194680185Y-52207815D01*
X194583494Y-52128463D01*
X194473180Y-52069498D01*
X194353482Y-52033188D01*
X194229000Y-52020928D01*
X193629000Y-52020928D01*
X193504518Y-52033188D01*
X193384820Y-52069498D01*
X193294000Y-52118043D01*
X193203180Y-52069498D01*
X193083482Y-52033188D01*
X192959000Y-52020928D01*
X192359000Y-52020928D01*
X192234518Y-52033188D01*
X192114820Y-52069498D01*
X192024000Y-52118043D01*
X191933180Y-52069498D01*
X191813482Y-52033188D01*
X191689000Y-52020928D01*
X191089000Y-52020928D01*
X190964518Y-52033188D01*
X190844820Y-52069498D01*
X190753095Y-52118527D01*
X190719785Y-52096270D01*
X190604223Y-52048403D01*
X190481542Y-52024000D01*
X190404750Y-52024000D01*
X190246000Y-52182750D01*
X190246000Y-53307000D01*
X190266000Y-53307000D01*
X190266000Y-53561000D01*
X190246000Y-53561000D01*
X190246000Y-53581000D01*
X189992000Y-53581000D01*
X189992000Y-53561000D01*
X189342750Y-53561000D01*
X189184000Y-53719750D01*
X189184000Y-54271542D01*
X189201993Y-54362000D01*
X184453604Y-54362000D01*
X184403999Y-54357114D01*
X184354394Y-54362000D01*
X184354392Y-54362000D01*
X184206006Y-54376615D01*
X184015620Y-54434368D01*
X183840160Y-54528153D01*
X183686367Y-54654367D01*
X183654735Y-54692911D01*
X183282907Y-55064739D01*
X183244367Y-55096367D01*
X183118153Y-55250160D01*
X183049085Y-55379379D01*
X183024368Y-55425621D01*
X182966615Y-55616006D01*
X182947114Y-55814000D01*
X182952000Y-55863608D01*
X182952001Y-56714456D01*
X182870617Y-56910933D01*
X182827000Y-57130212D01*
X182827000Y-57353788D01*
X182870617Y-57573067D01*
X182956176Y-57779624D01*
X183080388Y-57965520D01*
X183238480Y-58123612D01*
X183424376Y-58247824D01*
X183630933Y-58333383D01*
X183850212Y-58377000D01*
X184073788Y-58377000D01*
X184293067Y-58333383D01*
X184499624Y-58247824D01*
X184685520Y-58123612D01*
X184843612Y-57965520D01*
X184912000Y-57863170D01*
X184980388Y-57965520D01*
X185138480Y-58123612D01*
X185324376Y-58247824D01*
X185530933Y-58333383D01*
X185750212Y-58377000D01*
X185973788Y-58377000D01*
X186193067Y-58333383D01*
X186389542Y-58252000D01*
X187056392Y-58252000D01*
X187106000Y-58256886D01*
X187261098Y-58241610D01*
X187303994Y-58237385D01*
X187494380Y-58179632D01*
X187669840Y-58085847D01*
X187823633Y-57959633D01*
X187855261Y-57921094D01*
X187870355Y-57906000D01*
X189201839Y-57906000D01*
X189193188Y-57934518D01*
X189180928Y-58059000D01*
X189180928Y-58447071D01*
X189123615Y-58636007D01*
X189109000Y-58784393D01*
X189109001Y-61037383D01*
X189104114Y-61087000D01*
X189123615Y-61284994D01*
X189181368Y-61475379D01*
X189275154Y-61650840D01*
X189323095Y-61709256D01*
X189401368Y-61804633D01*
X189439902Y-61836257D01*
X189623736Y-62020090D01*
X189655367Y-62058633D01*
X189809160Y-62184847D01*
X189984620Y-62278632D01*
X190175006Y-62336385D01*
X190323392Y-62351000D01*
X190323394Y-62351000D01*
X190372999Y-62355886D01*
X190422604Y-62351000D01*
X196050645Y-62351000D01*
X196220000Y-62520356D01*
X196220001Y-64265381D01*
X196220000Y-64265391D01*
X196220000Y-64907837D01*
X196155518Y-64914188D01*
X196035820Y-64950498D01*
X195925506Y-65009463D01*
X195900482Y-65030000D01*
X185859518Y-65030000D01*
X185834494Y-65009463D01*
X185724180Y-64950498D01*
X185604482Y-64914188D01*
X185480000Y-64901928D01*
X183580000Y-64901928D01*
X183455518Y-64914188D01*
X183335820Y-64950498D01*
X183225506Y-65009463D01*
X183200482Y-65030000D01*
X179978238Y-65030000D01*
X179976812Y-65015518D01*
X179940502Y-64895820D01*
X179881537Y-64785506D01*
X179802185Y-64688815D01*
X179705494Y-64609463D01*
X179595180Y-64550498D01*
X179475482Y-64514188D01*
X179432959Y-64510000D01*
X179900482Y-64510000D01*
X179925506Y-64530537D01*
X180035820Y-64589502D01*
X180155518Y-64625812D01*
X180280000Y-64638072D01*
X182180000Y-64638072D01*
X182304482Y-64625812D01*
X182424180Y-64589502D01*
X182534494Y-64530537D01*
X182631185Y-64451185D01*
X182710537Y-64354494D01*
X182769502Y-64244180D01*
X182805812Y-64124482D01*
X182818072Y-64000000D01*
X182818072Y-63785750D01*
X192345000Y-63785750D01*
X192345000Y-64062542D01*
X192369403Y-64185223D01*
X192417270Y-64300785D01*
X192486763Y-64404789D01*
X192575211Y-64493237D01*
X192679215Y-64562730D01*
X192794777Y-64610597D01*
X192917458Y-64635000D01*
X193644250Y-64635000D01*
X193803000Y-64476250D01*
X193803000Y-63627000D01*
X194057000Y-63627000D01*
X194057000Y-64476250D01*
X194215750Y-64635000D01*
X194942542Y-64635000D01*
X195065223Y-64610597D01*
X195180785Y-64562730D01*
X195284789Y-64493237D01*
X195373237Y-64404789D01*
X195442730Y-64300785D01*
X195490597Y-64185223D01*
X195515000Y-64062542D01*
X195515000Y-63785750D01*
X195356250Y-63627000D01*
X194057000Y-63627000D01*
X193803000Y-63627000D01*
X192503750Y-63627000D01*
X192345000Y-63785750D01*
X182818072Y-63785750D01*
X182818072Y-63000000D01*
X182811913Y-62937458D01*
X192345000Y-62937458D01*
X192345000Y-63214250D01*
X192503750Y-63373000D01*
X193803000Y-63373000D01*
X193803000Y-62523750D01*
X194057000Y-62523750D01*
X194057000Y-63373000D01*
X195356250Y-63373000D01*
X195515000Y-63214250D01*
X195515000Y-62937458D01*
X195490597Y-62814777D01*
X195442730Y-62699215D01*
X195373237Y-62595211D01*
X195284789Y-62506763D01*
X195180785Y-62437270D01*
X195065223Y-62389403D01*
X194942542Y-62365000D01*
X194215750Y-62365000D01*
X194057000Y-62523750D01*
X193803000Y-62523750D01*
X193644250Y-62365000D01*
X192917458Y-62365000D01*
X192794777Y-62389403D01*
X192679215Y-62437270D01*
X192575211Y-62506763D01*
X192486763Y-62595211D01*
X192417270Y-62699215D01*
X192369403Y-62814777D01*
X192345000Y-62937458D01*
X182811913Y-62937458D01*
X182805812Y-62875518D01*
X182769502Y-62755820D01*
X182710537Y-62645506D01*
X182631185Y-62548815D01*
X182534494Y-62469463D01*
X182424180Y-62410498D01*
X182304482Y-62374188D01*
X182180000Y-62361928D01*
X180280000Y-62361928D01*
X180155518Y-62374188D01*
X180035820Y-62410498D01*
X179925506Y-62469463D01*
X179900482Y-62490000D01*
X179826000Y-62490000D01*
X179826000Y-60858355D01*
X180606743Y-61639099D01*
X180638367Y-61677633D01*
X180792160Y-61803847D01*
X180934769Y-61880073D01*
X180967620Y-61897632D01*
X181158005Y-61955385D01*
X181356000Y-61974886D01*
X181405608Y-61970000D01*
X183200482Y-61970000D01*
X183225506Y-61990537D01*
X183335820Y-62049502D01*
X183455518Y-62085812D01*
X183580000Y-62098072D01*
X185480000Y-62098072D01*
X185604482Y-62085812D01*
X185724180Y-62049502D01*
X185834494Y-61990537D01*
X185931185Y-61911185D01*
X186010537Y-61814494D01*
X186069502Y-61704180D01*
X186105812Y-61584482D01*
X186118072Y-61460000D01*
X186118072Y-60460000D01*
X186105812Y-60335518D01*
X186069502Y-60215820D01*
X186010537Y-60105506D01*
X185931185Y-60008815D01*
X185834494Y-59929463D01*
X185724180Y-59870498D01*
X185604482Y-59834188D01*
X185480000Y-59821928D01*
X183580000Y-59821928D01*
X183455518Y-59834188D01*
X183335820Y-59870498D01*
X183225506Y-59929463D01*
X183200482Y-59950000D01*
X181774356Y-59950000D01*
X181350000Y-59525645D01*
X181350000Y-54972689D01*
X181354886Y-54923081D01*
X181335385Y-54725086D01*
X181277632Y-54534701D01*
X181272715Y-54525502D01*
X181183847Y-54359241D01*
X181057633Y-54205448D01*
X181019094Y-54173820D01*
X180862128Y-54016854D01*
X180945706Y-53915014D01*
X180980201Y-53850477D01*
X181049822Y-53967355D01*
X181244731Y-54183588D01*
X181478080Y-54357641D01*
X181740901Y-54482825D01*
X181888110Y-54527476D01*
X182118000Y-54406155D01*
X182118000Y-53213000D01*
X182372000Y-53213000D01*
X182372000Y-54406155D01*
X182601890Y-54527476D01*
X182749099Y-54482825D01*
X183011920Y-54357641D01*
X183245269Y-54183588D01*
X183440178Y-53967355D01*
X183589157Y-53717252D01*
X183686481Y-53442891D01*
X183565814Y-53213000D01*
X182372000Y-53213000D01*
X182118000Y-53213000D01*
X182098000Y-53213000D01*
X182098000Y-52959000D01*
X182118000Y-52959000D01*
X182118000Y-51765845D01*
X182372000Y-51765845D01*
X182372000Y-52959000D01*
X183565814Y-52959000D01*
X183686481Y-52729109D01*
X183639426Y-52596458D01*
X189184000Y-52596458D01*
X189184000Y-53148250D01*
X189342750Y-53307000D01*
X189992000Y-53307000D01*
X189992000Y-52182750D01*
X189833250Y-52024000D01*
X189756458Y-52024000D01*
X189633777Y-52048403D01*
X189518215Y-52096270D01*
X189414211Y-52165763D01*
X189325763Y-52254211D01*
X189256270Y-52358215D01*
X189208403Y-52473777D01*
X189184000Y-52596458D01*
X183639426Y-52596458D01*
X183589157Y-52454748D01*
X183440178Y-52204645D01*
X183245269Y-51988412D01*
X183011920Y-51814359D01*
X182749099Y-51689175D01*
X182601890Y-51644524D01*
X182372000Y-51765845D01*
X182118000Y-51765845D01*
X181888110Y-51644524D01*
X181740901Y-51689175D01*
X181478080Y-51814359D01*
X181244731Y-51988412D01*
X181049822Y-52204645D01*
X180980201Y-52321523D01*
X180945706Y-52256986D01*
X180760134Y-52030866D01*
X180534014Y-51845294D01*
X180276034Y-51707401D01*
X179996111Y-51622487D01*
X179777950Y-51601000D01*
X179632050Y-51601000D01*
X179413889Y-51622487D01*
X179133966Y-51707401D01*
X178875986Y-51845294D01*
X178649866Y-52030866D01*
X178464294Y-52256986D01*
X178435000Y-52311791D01*
X178405706Y-52256986D01*
X178220134Y-52030866D01*
X177994014Y-51845294D01*
X177736034Y-51707401D01*
X177456111Y-51622487D01*
X177237950Y-51601000D01*
X177092050Y-51601000D01*
X176873889Y-51622487D01*
X176593966Y-51707401D01*
X176335986Y-51845294D01*
X176109866Y-52030866D01*
X175924294Y-52256986D01*
X175895000Y-52311791D01*
X175865706Y-52256986D01*
X175680134Y-52030866D01*
X175454014Y-51845294D01*
X175196034Y-51707401D01*
X174916111Y-51622487D01*
X174697950Y-51601000D01*
X174552050Y-51601000D01*
X174333889Y-51622487D01*
X174053966Y-51707401D01*
X173795986Y-51845294D01*
X173569866Y-52030866D01*
X173545393Y-52060687D01*
X173524502Y-51991820D01*
X173465537Y-51881506D01*
X173386185Y-51784815D01*
X173289494Y-51705463D01*
X173179180Y-51646498D01*
X173059482Y-51610188D01*
X172935000Y-51597928D01*
X171235000Y-51597928D01*
X171110518Y-51610188D01*
X170990820Y-51646498D01*
X170880506Y-51705463D01*
X170783815Y-51784815D01*
X170704463Y-51881506D01*
X170645498Y-51991820D01*
X170619962Y-52076000D01*
X170534608Y-52076000D01*
X170485000Y-52071114D01*
X170287005Y-52090615D01*
X170162238Y-52128463D01*
X170096620Y-52148368D01*
X169921160Y-52242153D01*
X169767367Y-52368367D01*
X169735743Y-52406901D01*
X169119901Y-53022744D01*
X169081368Y-53054367D01*
X169049745Y-53092900D01*
X169049744Y-53092901D01*
X168955154Y-53208160D01*
X168861368Y-53383621D01*
X168803615Y-53574006D01*
X168784114Y-53772000D01*
X168789001Y-53821618D01*
X168789000Y-56862981D01*
X168697815Y-56937815D01*
X168618463Y-57034506D01*
X168559498Y-57144820D01*
X168523188Y-57264518D01*
X168510928Y-57389000D01*
X168510928Y-57746172D01*
X168494619Y-57664179D01*
X168397753Y-57430324D01*
X168257125Y-57219860D01*
X168078140Y-57040875D01*
X167867676Y-56900247D01*
X167633821Y-56803381D01*
X167406526Y-56758170D01*
X164090261Y-53441906D01*
X164058633Y-53403367D01*
X163904840Y-53277153D01*
X163729380Y-53183368D01*
X163538994Y-53125615D01*
X163390608Y-53111000D01*
X163341000Y-53106114D01*
X163291392Y-53111000D01*
X157786166Y-53111000D01*
X157718494Y-53055463D01*
X157608180Y-52996498D01*
X157488482Y-52960188D01*
X157364000Y-52947928D01*
X155564000Y-52947928D01*
X155439518Y-52960188D01*
X155319820Y-52996498D01*
X155209506Y-53055463D01*
X155112815Y-53134815D01*
X155033463Y-53231506D01*
X154974498Y-53341820D01*
X154938188Y-53461518D01*
X154925928Y-53586000D01*
X154925928Y-54335000D01*
X129937708Y-54335000D01*
X129875185Y-54258815D01*
X129778494Y-54179463D01*
X129668180Y-54120498D01*
X129548482Y-54084188D01*
X129424000Y-54071928D01*
X127624000Y-54071928D01*
X127499518Y-54084188D01*
X127379820Y-54120498D01*
X127269506Y-54179463D01*
X127172815Y-54258815D01*
X127093463Y-54355506D01*
X127034498Y-54465820D01*
X126998188Y-54585518D01*
X126985928Y-54710000D01*
X126985928Y-55728983D01*
X126955298Y-55732000D01*
X126955296Y-55732000D01*
X126821609Y-55745167D01*
X126650073Y-55797202D01*
X126491984Y-55881702D01*
X126447187Y-55918466D01*
X126353419Y-55995419D01*
X126324918Y-56030149D01*
X124610149Y-57744918D01*
X124575420Y-57773419D01*
X124510800Y-57852160D01*
X124461702Y-57911985D01*
X124377202Y-58070074D01*
X124325168Y-58241609D01*
X124307597Y-58420000D01*
X124312001Y-58464712D01*
X124312001Y-60321928D01*
X123063000Y-60321928D01*
X122938518Y-60334188D01*
X122818820Y-60370498D01*
X122708506Y-60429463D01*
X122611815Y-60508815D01*
X122532463Y-60605506D01*
X122473498Y-60715820D01*
X122437188Y-60835518D01*
X122424928Y-60960000D01*
X119507000Y-60960000D01*
X119507000Y-49149000D01*
X209931000Y-49149000D01*
X209931000Y-91313000D01*
X209931000Y-91313000D01*
G37*
X209931000Y-91313000D02*
X119507000Y-91313000D01*
X119507000Y-89185750D01*
X121475500Y-89185750D01*
X121475500Y-90613542D01*
X121499903Y-90736223D01*
X121547770Y-90851785D01*
X121617263Y-90955789D01*
X121705711Y-91044237D01*
X121809715Y-91113730D01*
X121925277Y-91161597D01*
X122047958Y-91186000D01*
X122904250Y-91186000D01*
X123063000Y-91027250D01*
X123063000Y-89027000D01*
X123317000Y-89027000D01*
X123317000Y-91027250D01*
X123475750Y-91186000D01*
X124332042Y-91186000D01*
X124454723Y-91161597D01*
X124570285Y-91113730D01*
X124674289Y-91044237D01*
X124762737Y-90955789D01*
X124832230Y-90851785D01*
X124880097Y-90736223D01*
X124904500Y-90613542D01*
X124904500Y-89185750D01*
X148145500Y-89185750D01*
X148145500Y-90613542D01*
X148169903Y-90736223D01*
X148217770Y-90851785D01*
X148287263Y-90955789D01*
X148375711Y-91044237D01*
X148479715Y-91113730D01*
X148595277Y-91161597D01*
X148717958Y-91186000D01*
X149574250Y-91186000D01*
X149733000Y-91027250D01*
X149733000Y-89027000D01*
X149987000Y-89027000D01*
X149987000Y-91027250D01*
X150145750Y-91186000D01*
X151002042Y-91186000D01*
X151124723Y-91161597D01*
X151240285Y-91113730D01*
X151344289Y-91044237D01*
X151432737Y-90955789D01*
X151502230Y-90851785D01*
X151550097Y-90736223D01*
X151574500Y-90613542D01*
X151574500Y-89185750D01*
X151415750Y-89027000D01*
X149987000Y-89027000D01*
X149733000Y-89027000D01*
X148304250Y-89027000D01*
X148145500Y-89185750D01*
X124904500Y-89185750D01*
X124745750Y-89027000D01*
X123317000Y-89027000D01*
X123063000Y-89027000D01*
X121634250Y-89027000D01*
X121475500Y-89185750D01*
X119507000Y-89185750D01*
X119507000Y-87186458D01*
X121475500Y-87186458D01*
X121475500Y-88614250D01*
X121634250Y-88773000D01*
X123063000Y-88773000D01*
X123063000Y-86772750D01*
X123317000Y-86772750D01*
X123317000Y-88773000D01*
X124745750Y-88773000D01*
X124904500Y-88614250D01*
X124904500Y-87186458D01*
X148145500Y-87186458D01*
X148145500Y-88614250D01*
X148304250Y-88773000D01*
X149733000Y-88773000D01*
X149733000Y-86772750D01*
X149987000Y-86772750D01*
X149987000Y-88773000D01*
X151415750Y-88773000D01*
X151574500Y-88614250D01*
X151574500Y-87186458D01*
X151550097Y-87063777D01*
X151502230Y-86948215D01*
X151432737Y-86844211D01*
X151344289Y-86755763D01*
X151240285Y-86686270D01*
X151124723Y-86638403D01*
X151002042Y-86614000D01*
X150145750Y-86614000D01*
X149987000Y-86772750D01*
X149733000Y-86772750D01*
X149574250Y-86614000D01*
X148717958Y-86614000D01*
X148595277Y-86638403D01*
X148479715Y-86686270D01*
X148375711Y-86755763D01*
X148287263Y-86844211D01*
X148217770Y-86948215D01*
X148169903Y-87063777D01*
X148145500Y-87186458D01*
X124904500Y-87186458D01*
X124880097Y-87063777D01*
X124832230Y-86948215D01*
X124762737Y-86844211D01*
X124674289Y-86755763D01*
X124570285Y-86686270D01*
X124454723Y-86638403D01*
X124332042Y-86614000D01*
X123475750Y-86614000D01*
X123317000Y-86772750D01*
X123063000Y-86772750D01*
X122904250Y-86614000D01*
X122047958Y-86614000D01*
X121925277Y-86638403D01*
X121809715Y-86686270D01*
X121705711Y-86755763D01*
X121617263Y-86844211D01*
X121547770Y-86948215D01*
X121499903Y-87063777D01*
X121475500Y-87186458D01*
X119507000Y-87186458D01*
X119507000Y-68418967D01*
X120879483Y-68418967D01*
X120879483Y-68741033D01*
X120942315Y-69056912D01*
X121065565Y-69354463D01*
X121244496Y-69622252D01*
X121472231Y-69849987D01*
X121740020Y-70028918D01*
X122037571Y-70152168D01*
X122353450Y-70215000D01*
X122675516Y-70215000D01*
X122991395Y-70152168D01*
X123288946Y-70028918D01*
X123556735Y-69849987D01*
X123784470Y-69622252D01*
X123963401Y-69354463D01*
X124086651Y-69056912D01*
X124149483Y-68741033D01*
X124149483Y-68418967D01*
X124086651Y-68103088D01*
X123963401Y-67805537D01*
X123784470Y-67537748D01*
X123556735Y-67310013D01*
X123288946Y-67131082D01*
X122991395Y-67007832D01*
X122675516Y-66945000D01*
X122353450Y-66945000D01*
X122037571Y-67007832D01*
X121740020Y-67131082D01*
X121472231Y-67310013D01*
X121244496Y-67537748D01*
X121065565Y-67805537D01*
X120942315Y-68103088D01*
X120879483Y-68418967D01*
X119507000Y-68418967D01*
X119507000Y-60960000D01*
X122424928Y-60960000D01*
X122424928Y-63500000D01*
X122437188Y-63624482D01*
X122473498Y-63744180D01*
X122532463Y-63854494D01*
X122611815Y-63951185D01*
X122708506Y-64030537D01*
X122818820Y-64089502D01*
X122938518Y-64125812D01*
X123063000Y-64138072D01*
X124333000Y-64138072D01*
X124457482Y-64125812D01*
X124577180Y-64089502D01*
X124587000Y-64084253D01*
X124596820Y-64089502D01*
X124716518Y-64125812D01*
X124841000Y-64138072D01*
X125603000Y-64138072D01*
X125727482Y-64125812D01*
X125847180Y-64089502D01*
X125857000Y-64084253D01*
X125866820Y-64089502D01*
X125986518Y-64125812D01*
X126111000Y-64138072D01*
X127381000Y-64138072D01*
X127505482Y-64125812D01*
X127625180Y-64089502D01*
X127635000Y-64084253D01*
X127644820Y-64089502D01*
X127764518Y-64125812D01*
X127889000Y-64138072D01*
X129159000Y-64138072D01*
X129283482Y-64125812D01*
X129403180Y-64089502D01*
X129513494Y-64030537D01*
X129610185Y-63951185D01*
X129666728Y-63882287D01*
X129681763Y-63904789D01*
X129770211Y-63993237D01*
X129874215Y-64062730D01*
X129989777Y-64110597D01*
X130112458Y-64135000D01*
X130524250Y-64135000D01*
X130683000Y-63976250D01*
X130683000Y-62357000D01*
X130663000Y-62357000D01*
X130663000Y-62103000D01*
X130683000Y-62103000D01*
X130683000Y-60483750D01*
X130524250Y-60325000D01*
X130112458Y-60325000D01*
X129989777Y-60349403D01*
X129874215Y-60397270D01*
X129770211Y-60466763D01*
X129681763Y-60555211D01*
X129666728Y-60577713D01*
X129610185Y-60508815D01*
X129513494Y-60429463D01*
X129434000Y-60386972D01*
X129434000Y-59427087D01*
X129548482Y-59415812D01*
X129668180Y-59379502D01*
X129778494Y-59320537D01*
X129875185Y-59241185D01*
X129954537Y-59144494D01*
X130013502Y-59034180D01*
X130049812Y-58914482D01*
X130062072Y-58790000D01*
X130062072Y-57720000D01*
X130049812Y-57595518D01*
X130036611Y-57552000D01*
X132676682Y-57552000D01*
X132672609Y-57556963D01*
X132589702Y-57657985D01*
X132505202Y-57816074D01*
X132453168Y-57987609D01*
X132435597Y-58166000D01*
X132440001Y-58210712D01*
X132440000Y-60386972D01*
X132360506Y-60429463D01*
X132263815Y-60508815D01*
X132184463Y-60605506D01*
X132125498Y-60715820D01*
X132089188Y-60835518D01*
X132080000Y-60928808D01*
X132080000Y-60897458D01*
X132055597Y-60774777D01*
X132007730Y-60659215D01*
X131938237Y-60555211D01*
X131849789Y-60466763D01*
X131745785Y-60397270D01*
X131630223Y-60349403D01*
X131507542Y-60325000D01*
X131095750Y-60325000D01*
X130937000Y-60483750D01*
X130937000Y-62103000D01*
X130957000Y-62103000D01*
X130957000Y-62357000D01*
X130937000Y-62357000D01*
X130937000Y-63976250D01*
X131095750Y-64135000D01*
X131507542Y-64135000D01*
X131630223Y-64110597D01*
X131745785Y-64062730D01*
X131849789Y-63993237D01*
X131938237Y-63904789D01*
X132007730Y-63800785D01*
X132055597Y-63685223D01*
X132080000Y-63562542D01*
X132080000Y-63531192D01*
X132089188Y-63624482D01*
X132125498Y-63744180D01*
X132184463Y-63854494D01*
X132263815Y-63951185D01*
X132360506Y-64030537D01*
X132470820Y-64089502D01*
X132590518Y-64125812D01*
X132715000Y-64138072D01*
X133985000Y-64138072D01*
X134109482Y-64125812D01*
X134229180Y-64089502D01*
X134339494Y-64030537D01*
X134436185Y-63951185D01*
X134515537Y-63854494D01*
X134574502Y-63744180D01*
X134610812Y-63624482D01*
X134620000Y-63531192D01*
X134629188Y-63624482D01*
X134665498Y-63744180D01*
X134724463Y-63854494D01*
X134803815Y-63951185D01*
X134900506Y-64030537D01*
X135010820Y-64089502D01*
X135130518Y-64125812D01*
X135255000Y-64138072D01*
X136525000Y-64138072D01*
X136649482Y-64125812D01*
X136769180Y-64089502D01*
X136879494Y-64030537D01*
X136976185Y-63951185D01*
X137055537Y-63854494D01*
X137114502Y-63744180D01*
X137150812Y-63624482D01*
X137160000Y-63531192D01*
X137160000Y-63562542D01*
X137184403Y-63685223D01*
X137232270Y-63800785D01*
X137301763Y-63904789D01*
X137390211Y-63993237D01*
X137494215Y-64062730D01*
X137609777Y-64110597D01*
X137732458Y-64135000D01*
X138144250Y-64135000D01*
X138303000Y-63976250D01*
X138303000Y-62357000D01*
X138283000Y-62357000D01*
X138283000Y-62103000D01*
X138303000Y-62103000D01*
X138303000Y-60483750D01*
X138144250Y-60325000D01*
X137732458Y-60325000D01*
X137609777Y-60349403D01*
X137494215Y-60397270D01*
X137390211Y-60466763D01*
X137301763Y-60555211D01*
X137232270Y-60659215D01*
X137184403Y-60774777D01*
X137160000Y-60897458D01*
X137160000Y-60928808D01*
X137150812Y-60835518D01*
X137114502Y-60715820D01*
X137055537Y-60605506D01*
X136976185Y-60508815D01*
X136927000Y-60468450D01*
X136927000Y-59302039D01*
X136934205Y-59291256D01*
X137012226Y-59102898D01*
X137052000Y-58902939D01*
X137052000Y-58699061D01*
X137025931Y-58568000D01*
X146435066Y-58568000D01*
X146644917Y-58777851D01*
X146673419Y-58812581D01*
X146811985Y-58926298D01*
X146970073Y-59010798D01*
X147141609Y-59062833D01*
X147275296Y-59076000D01*
X147275297Y-59076000D01*
X147319999Y-59080403D01*
X147364701Y-59076000D01*
X147582913Y-59076000D01*
X147594188Y-59190482D01*
X147630498Y-59310180D01*
X147689463Y-59420494D01*
X147768815Y-59517185D01*
X147865506Y-59596537D01*
X147975820Y-59655502D01*
X148095518Y-59691812D01*
X148220000Y-59704072D01*
X149290000Y-59704072D01*
X149414482Y-59691812D01*
X149458001Y-59678611D01*
X149458001Y-61931288D01*
X149453597Y-61976000D01*
X149471168Y-62154391D01*
X149523202Y-62325926D01*
X149607702Y-62484015D01*
X149651562Y-62537458D01*
X149721420Y-62622581D01*
X149756149Y-62651082D01*
X151216922Y-64111857D01*
X151245419Y-64146581D01*
X151383985Y-64260298D01*
X151542073Y-64344798D01*
X151713609Y-64396833D01*
X151847296Y-64410000D01*
X151847297Y-64410000D01*
X151891999Y-64414403D01*
X151936701Y-64410000D01*
X155155015Y-64410000D01*
X155188815Y-64451185D01*
X155285506Y-64530537D01*
X155395820Y-64589502D01*
X155515518Y-64625812D01*
X155640000Y-64638072D01*
X157540000Y-64638072D01*
X157664482Y-64625812D01*
X157784180Y-64589502D01*
X157894494Y-64530537D01*
X157991185Y-64451185D01*
X158024985Y-64410000D01*
X159882913Y-64410000D01*
X159894188Y-64524482D01*
X159930498Y-64644180D01*
X159989463Y-64754494D01*
X160002188Y-64770000D01*
X159989463Y-64785506D01*
X159930498Y-64895820D01*
X159894188Y-65015518D01*
X159881928Y-65140000D01*
X159881928Y-66940000D01*
X159894188Y-67064482D01*
X159930498Y-67184180D01*
X159989463Y-67294494D01*
X160002188Y-67310000D01*
X159995312Y-67318379D01*
X158105087Y-65428154D01*
X158076581Y-65393419D01*
X157938015Y-65279702D01*
X157779927Y-65195202D01*
X157608391Y-65143167D01*
X157474704Y-65130000D01*
X157474702Y-65130000D01*
X157430000Y-65125597D01*
X157385298Y-65130000D01*
X154724985Y-65130000D01*
X154691185Y-65088815D01*
X154594494Y-65009463D01*
X154484180Y-64950498D01*
X154364482Y-64914188D01*
X154240000Y-64901928D01*
X152340000Y-64901928D01*
X152215518Y-64914188D01*
X152095820Y-64950498D01*
X151985506Y-65009463D01*
X151888815Y-65088815D01*
X151809463Y-65185506D01*
X151750498Y-65295820D01*
X151714188Y-65415518D01*
X151701928Y-65540000D01*
X151701928Y-66540000D01*
X151714188Y-66664482D01*
X151750498Y-66784180D01*
X151809463Y-66894494D01*
X151888815Y-66991185D01*
X151985506Y-67070537D01*
X152095820Y-67129502D01*
X152215518Y-67165812D01*
X152340000Y-67178072D01*
X154240000Y-67178072D01*
X154364482Y-67165812D01*
X154484180Y-67129502D01*
X154594494Y-67070537D01*
X154691185Y-66991185D01*
X154724985Y-66950000D01*
X157053067Y-66950000D01*
X157545540Y-67442474D01*
X157540000Y-67441928D01*
X155640000Y-67441928D01*
X155515518Y-67454188D01*
X155395820Y-67490498D01*
X155285506Y-67549463D01*
X155188815Y-67628815D01*
X155155015Y-67670000D01*
X147696934Y-67670000D01*
X144166000Y-64139067D01*
X144166000Y-64073028D01*
X144245494Y-64030537D01*
X144342185Y-63951185D01*
X144421537Y-63854494D01*
X144480502Y-63744180D01*
X144516812Y-63624482D01*
X144529072Y-63500000D01*
X144529072Y-60960000D01*
X144776928Y-60960000D01*
X144776928Y-63500000D01*
X144789188Y-63624482D01*
X144825498Y-63744180D01*
X144884463Y-63854494D01*
X144963815Y-63951185D01*
X145060506Y-64030537D01*
X145170820Y-64089502D01*
X145290518Y-64125812D01*
X145415000Y-64138072D01*
X146685000Y-64138072D01*
X146809482Y-64125812D01*
X146929180Y-64089502D01*
X147039494Y-64030537D01*
X147136185Y-63951185D01*
X147215537Y-63854494D01*
X147274502Y-63744180D01*
X147310812Y-63624482D01*
X147323072Y-63500000D01*
X147323072Y-60960000D01*
X147310812Y-60835518D01*
X147274502Y-60715820D01*
X147215537Y-60605506D01*
X147136185Y-60508815D01*
X147039494Y-60429463D01*
X146929180Y-60370498D01*
X146809482Y-60334188D01*
X146685000Y-60321928D01*
X145415000Y-60321928D01*
X145290518Y-60334188D01*
X145170820Y-60370498D01*
X145060506Y-60429463D01*
X144963815Y-60508815D01*
X144884463Y-60605506D01*
X144825498Y-60715820D01*
X144789188Y-60835518D01*
X144776928Y-60960000D01*
X144529072Y-60960000D01*
X144516812Y-60835518D01*
X144480502Y-60715820D01*
X144421537Y-60605506D01*
X144342185Y-60508815D01*
X144245494Y-60429463D01*
X144135180Y-60370498D01*
X144015482Y-60334188D01*
X143891000Y-60321928D01*
X142621000Y-60321928D01*
X142496518Y-60334188D01*
X142376820Y-60370498D01*
X142266506Y-60429463D01*
X142169815Y-60508815D01*
X142113000Y-60578044D01*
X142056185Y-60508815D01*
X141959494Y-60429463D01*
X141849180Y-60370498D01*
X141729482Y-60334188D01*
X141605000Y-60321928D01*
X140335000Y-60321928D01*
X140210518Y-60334188D01*
X140090820Y-60370498D01*
X139980506Y-60429463D01*
X139883815Y-60508815D01*
X139804463Y-60605506D01*
X139745498Y-60715820D01*
X139709188Y-60835518D01*
X139700000Y-60928808D01*
X139700000Y-60897458D01*
X139675597Y-60774777D01*
X139627730Y-60659215D01*
X139558237Y-60555211D01*
X139469789Y-60466763D01*
X139365785Y-60397270D01*
X139250223Y-60349403D01*
X139127542Y-60325000D01*
X138715750Y-60325000D01*
X138557000Y-60483750D01*
X138557000Y-62103000D01*
X138577000Y-62103000D01*
X138577000Y-62357000D01*
X138557000Y-62357000D01*
X138557000Y-63976250D01*
X138715750Y-64135000D01*
X139127542Y-64135000D01*
X139250223Y-64110597D01*
X139365785Y-64062730D01*
X139469789Y-63993237D01*
X139558237Y-63904789D01*
X139627730Y-63800785D01*
X139675597Y-63685223D01*
X139700000Y-63562542D01*
X139700000Y-63531192D01*
X139709188Y-63624482D01*
X139745498Y-63744180D01*
X139804463Y-63854494D01*
X139883815Y-63951185D01*
X139980506Y-64030537D01*
X140060001Y-64073029D01*
X140060001Y-64285288D01*
X140055597Y-64330000D01*
X140073168Y-64508391D01*
X140125202Y-64679926D01*
X140209702Y-64838015D01*
X140241081Y-64876250D01*
X140323420Y-64976581D01*
X140358149Y-65005082D01*
X151701928Y-76348862D01*
X151701928Y-76700000D01*
X151714188Y-76824482D01*
X151750498Y-76944180D01*
X151809463Y-77054494D01*
X151888815Y-77151185D01*
X151985506Y-77230537D01*
X152095820Y-77289502D01*
X152215518Y-77325812D01*
X152340000Y-77338072D01*
X154240000Y-77338072D01*
X154364482Y-77325812D01*
X154484180Y-77289502D01*
X154594494Y-77230537D01*
X154691185Y-77151185D01*
X154724985Y-77110000D01*
X157053067Y-77110000D01*
X157545540Y-77602474D01*
X157540000Y-77601928D01*
X155640000Y-77601928D01*
X155515518Y-77614188D01*
X155395820Y-77650498D01*
X155285506Y-77709463D01*
X155188815Y-77788815D01*
X155109463Y-77885506D01*
X155050498Y-77995820D01*
X155014188Y-78115518D01*
X155001928Y-78240000D01*
X155001928Y-79240000D01*
X155014188Y-79364482D01*
X155050498Y-79484180D01*
X155109463Y-79594494D01*
X155188815Y-79691185D01*
X155285506Y-79770537D01*
X155395820Y-79829502D01*
X155515518Y-79865812D01*
X155640000Y-79878072D01*
X156749717Y-79878072D01*
X157238470Y-80366825D01*
X157226000Y-80365597D01*
X157181298Y-80370000D01*
X154724985Y-80370000D01*
X154691185Y-80328815D01*
X154594494Y-80249463D01*
X154484180Y-80190498D01*
X154364482Y-80154188D01*
X154240000Y-80141928D01*
X152340000Y-80141928D01*
X152215518Y-80154188D01*
X152095820Y-80190498D01*
X151985506Y-80249463D01*
X151888815Y-80328815D01*
X151809463Y-80425506D01*
X151750498Y-80535820D01*
X151714188Y-80655518D01*
X151701928Y-80780000D01*
X151701928Y-81780000D01*
X151714188Y-81904482D01*
X151750498Y-82024180D01*
X151809463Y-82134494D01*
X151888815Y-82231185D01*
X151985506Y-82310537D01*
X152095820Y-82369502D01*
X152215518Y-82405812D01*
X152340000Y-82418072D01*
X154240000Y-82418072D01*
X154364482Y-82405812D01*
X154484180Y-82369502D01*
X154594494Y-82310537D01*
X154691185Y-82231185D01*
X154724985Y-82190000D01*
X156849067Y-82190000D01*
X157340995Y-82681928D01*
X155640000Y-82681928D01*
X155515518Y-82694188D01*
X155395820Y-82730498D01*
X155285506Y-82789463D01*
X155188815Y-82868815D01*
X155109463Y-82965506D01*
X155050498Y-83075820D01*
X155014188Y-83195518D01*
X155001928Y-83320000D01*
X155001928Y-84320000D01*
X155014188Y-84444482D01*
X155050498Y-84564180D01*
X155109463Y-84674494D01*
X155188815Y-84771185D01*
X155285506Y-84850537D01*
X155395820Y-84909502D01*
X155515518Y-84945812D01*
X155640000Y-84958072D01*
X157540000Y-84958072D01*
X157664482Y-84945812D01*
X157784180Y-84909502D01*
X157854814Y-84871747D01*
X158433067Y-85450000D01*
X154724985Y-85450000D01*
X154691185Y-85408815D01*
X154594494Y-85329463D01*
X154484180Y-85270498D01*
X154364482Y-85234188D01*
X154240000Y-85221928D01*
X152340000Y-85221928D01*
X152215518Y-85234188D01*
X152095820Y-85270498D01*
X151985506Y-85329463D01*
X151888815Y-85408815D01*
X151809463Y-85505506D01*
X151750498Y-85615820D01*
X151714188Y-85735518D01*
X151701928Y-85860000D01*
X151701928Y-86860000D01*
X151714188Y-86984482D01*
X151750498Y-87104180D01*
X151809463Y-87214494D01*
X151888815Y-87311185D01*
X151985506Y-87390537D01*
X152095820Y-87449502D01*
X152215518Y-87485812D01*
X152340000Y-87498072D01*
X154240000Y-87498072D01*
X154364482Y-87485812D01*
X154484180Y-87449502D01*
X154594494Y-87390537D01*
X154691185Y-87311185D01*
X154724985Y-87270000D01*
X158119067Y-87270000D01*
X158348000Y-87498934D01*
X158348001Y-88563704D01*
X158361168Y-88697391D01*
X158413203Y-88868927D01*
X158497703Y-89027015D01*
X158611420Y-89165581D01*
X158749986Y-89279298D01*
X158908074Y-89363798D01*
X159079610Y-89415833D01*
X159258000Y-89433403D01*
X159436391Y-89415833D01*
X159607927Y-89363798D01*
X159766015Y-89279298D01*
X159904581Y-89165581D01*
X159956501Y-89102316D01*
X160008420Y-89165581D01*
X160146986Y-89279298D01*
X160305074Y-89363798D01*
X160476610Y-89415833D01*
X160655000Y-89433403D01*
X160833391Y-89415833D01*
X161004927Y-89363798D01*
X161163015Y-89279298D01*
X161301581Y-89165581D01*
X161353501Y-89102316D01*
X161405420Y-89165581D01*
X161543986Y-89279298D01*
X161702074Y-89363798D01*
X161873610Y-89415833D01*
X162052000Y-89433403D01*
X162230391Y-89415833D01*
X162401927Y-89363798D01*
X162560015Y-89279298D01*
X162698581Y-89165581D01*
X162812298Y-89027015D01*
X162896798Y-88868927D01*
X162948833Y-88697391D01*
X162962000Y-88563704D01*
X162962000Y-86150702D01*
X162966403Y-86106000D01*
X162966305Y-86104999D01*
X174911459Y-86104999D01*
X174915862Y-86149701D01*
X174915863Y-88562703D01*
X174929030Y-88696390D01*
X174981065Y-88867926D01*
X175065565Y-89026014D01*
X175179282Y-89164580D01*
X175317848Y-89278297D01*
X175475936Y-89362797D01*
X175647472Y-89414832D01*
X175825862Y-89432402D01*
X176004253Y-89414832D01*
X176175789Y-89362797D01*
X176333877Y-89278297D01*
X176472443Y-89164580D01*
X176524363Y-89101315D01*
X176576282Y-89164580D01*
X176714848Y-89278297D01*
X176872936Y-89362797D01*
X177044472Y-89414832D01*
X177222862Y-89432402D01*
X177401253Y-89414832D01*
X177572789Y-89362797D01*
X177730877Y-89278297D01*
X177869443Y-89164580D01*
X177921363Y-89101315D01*
X177973282Y-89164580D01*
X178111848Y-89278297D01*
X178269936Y-89362797D01*
X178441472Y-89414832D01*
X178619862Y-89432402D01*
X178798253Y-89414832D01*
X178969789Y-89362797D01*
X179127877Y-89278297D01*
X179266443Y-89164580D01*
X179380160Y-89026014D01*
X179464660Y-88867926D01*
X179516695Y-88696390D01*
X179529862Y-88562703D01*
X179529862Y-87497932D01*
X179758796Y-87268999D01*
X183094194Y-87268999D01*
X183128815Y-87311185D01*
X183225506Y-87390537D01*
X183335820Y-87449502D01*
X183455518Y-87485812D01*
X183580000Y-87498072D01*
X185480000Y-87498072D01*
X185604482Y-87485812D01*
X185724180Y-87449502D01*
X185834494Y-87390537D01*
X185931185Y-87311185D01*
X186010537Y-87214494D01*
X186069502Y-87104180D01*
X186105812Y-86984482D01*
X186118072Y-86860000D01*
X186118072Y-85860000D01*
X186105812Y-85735518D01*
X186069502Y-85615820D01*
X186010537Y-85505506D01*
X185931185Y-85408815D01*
X185834494Y-85329463D01*
X185724180Y-85270498D01*
X185604482Y-85234188D01*
X185480000Y-85221928D01*
X183580000Y-85221928D01*
X183455518Y-85234188D01*
X183335820Y-85270498D01*
X183225506Y-85329463D01*
X183128815Y-85408815D01*
X183095837Y-85448999D01*
X179444796Y-85448999D01*
X180002241Y-84891554D01*
X180035820Y-84909502D01*
X180155518Y-84945812D01*
X180280000Y-84958072D01*
X182180000Y-84958072D01*
X182304482Y-84945812D01*
X182424180Y-84909502D01*
X182534494Y-84850537D01*
X182631185Y-84771185D01*
X182710537Y-84674494D01*
X182769502Y-84564180D01*
X182805812Y-84444482D01*
X182818072Y-84320000D01*
X182818072Y-83320000D01*
X182805812Y-83195518D01*
X182769502Y-83075820D01*
X182710537Y-82965506D01*
X182631185Y-82868815D01*
X182534494Y-82789463D01*
X182424180Y-82730498D01*
X182304482Y-82694188D01*
X182180000Y-82681928D01*
X180535867Y-82681928D01*
X181028796Y-82188999D01*
X183094194Y-82188999D01*
X183128815Y-82231185D01*
X183225506Y-82310537D01*
X183335820Y-82369502D01*
X183455518Y-82405812D01*
X183580000Y-82418072D01*
X185480000Y-82418072D01*
X185604482Y-82405812D01*
X185724180Y-82369502D01*
X185834494Y-82310537D01*
X185931185Y-82231185D01*
X186010537Y-82134494D01*
X186069502Y-82024180D01*
X186105812Y-81904482D01*
X186118072Y-81780000D01*
X186118072Y-80780000D01*
X186105812Y-80655518D01*
X186069502Y-80535820D01*
X186010537Y-80425506D01*
X185931185Y-80328815D01*
X185834494Y-80249463D01*
X185724180Y-80190498D01*
X185604482Y-80154188D01*
X185480000Y-80141928D01*
X183580000Y-80141928D01*
X183455518Y-80154188D01*
X183335820Y-80190498D01*
X183225506Y-80249463D01*
X183128815Y-80328815D01*
X183095837Y-80368999D01*
X180696564Y-80368999D01*
X180651862Y-80364596D01*
X180607160Y-80368999D01*
X180607158Y-80368999D01*
X180473471Y-80382166D01*
X180301935Y-80434201D01*
X180143847Y-80518701D01*
X180005281Y-80632418D01*
X179976780Y-80667147D01*
X175214016Y-85429912D01*
X175179281Y-85458418D01*
X175112164Y-85540202D01*
X175065564Y-85596984D01*
X175003328Y-85713420D01*
X174981064Y-85755073D01*
X174929029Y-85926609D01*
X174918346Y-86035074D01*
X174911459Y-86104999D01*
X162966305Y-86104999D01*
X162962000Y-86061296D01*
X162948833Y-85927609D01*
X162896798Y-85756073D01*
X162812298Y-85597985D01*
X162698581Y-85459419D01*
X162663853Y-85430919D01*
X159522118Y-82289185D01*
X159530392Y-82290000D01*
X159530394Y-82290000D01*
X159579999Y-82294886D01*
X159629604Y-82290000D01*
X159911762Y-82290000D01*
X159913188Y-82304482D01*
X159949498Y-82424180D01*
X160008463Y-82534494D01*
X160087815Y-82631185D01*
X160184506Y-82710537D01*
X160294820Y-82769502D01*
X160414518Y-82805812D01*
X160539000Y-82818072D01*
X161609000Y-82818072D01*
X161733482Y-82805812D01*
X161853180Y-82769502D01*
X161963494Y-82710537D01*
X162060185Y-82631185D01*
X162139537Y-82534494D01*
X162198502Y-82424180D01*
X162234812Y-82304482D01*
X162236238Y-82290000D01*
X162510392Y-82290000D01*
X162560000Y-82294886D01*
X162609607Y-82290000D01*
X162609608Y-82290000D01*
X162757994Y-82275385D01*
X162914000Y-82228061D01*
X162914000Y-82242542D01*
X162938403Y-82365223D01*
X162986270Y-82480785D01*
X163055763Y-82584789D01*
X163144211Y-82673237D01*
X163248215Y-82742730D01*
X163363777Y-82790597D01*
X163486458Y-82815000D01*
X163798250Y-82815000D01*
X163957000Y-82656250D01*
X163957000Y-81407000D01*
X164211000Y-81407000D01*
X164211000Y-82656250D01*
X164369750Y-82815000D01*
X164681542Y-82815000D01*
X164804223Y-82790597D01*
X164919785Y-82742730D01*
X165023789Y-82673237D01*
X165112237Y-82584789D01*
X165181730Y-82480785D01*
X165229597Y-82365223D01*
X165254000Y-82242542D01*
X165254000Y-81565750D01*
X165095250Y-81407000D01*
X164211000Y-81407000D01*
X163957000Y-81407000D01*
X163937000Y-81407000D01*
X163937000Y-81153000D01*
X163957000Y-81153000D01*
X163957000Y-81133000D01*
X164211000Y-81133000D01*
X164211000Y-81153000D01*
X165095250Y-81153000D01*
X165254000Y-80994250D01*
X165254000Y-80317458D01*
X165229597Y-80194777D01*
X165181730Y-80079215D01*
X165127552Y-79998131D01*
X165130537Y-79994494D01*
X165189502Y-79884180D01*
X165225812Y-79764482D01*
X165238072Y-79640000D01*
X165238072Y-79025750D01*
X179645000Y-79025750D01*
X179645000Y-79302542D01*
X179669403Y-79425223D01*
X179717270Y-79540785D01*
X179786763Y-79644789D01*
X179875211Y-79733237D01*
X179979215Y-79802730D01*
X180094777Y-79850597D01*
X180217458Y-79875000D01*
X180944250Y-79875000D01*
X181103000Y-79716250D01*
X181103000Y-78867000D01*
X181357000Y-78867000D01*
X181357000Y-79716250D01*
X181515750Y-79875000D01*
X182242542Y-79875000D01*
X182365223Y-79850597D01*
X182480785Y-79802730D01*
X182584789Y-79733237D01*
X182673237Y-79644789D01*
X182742730Y-79540785D01*
X182790597Y-79425223D01*
X182815000Y-79302542D01*
X182815000Y-79025750D01*
X182656250Y-78867000D01*
X181357000Y-78867000D01*
X181103000Y-78867000D01*
X179803750Y-78867000D01*
X179645000Y-79025750D01*
X165238072Y-79025750D01*
X165238072Y-78177458D01*
X179645000Y-78177458D01*
X179645000Y-78454250D01*
X179803750Y-78613000D01*
X181103000Y-78613000D01*
X181103000Y-77763750D01*
X181357000Y-77763750D01*
X181357000Y-78613000D01*
X182656250Y-78613000D01*
X182815000Y-78454250D01*
X182815000Y-78177458D01*
X182790597Y-78054777D01*
X182742730Y-77939215D01*
X182673237Y-77835211D01*
X182593776Y-77755750D01*
X192345000Y-77755750D01*
X192345000Y-78032542D01*
X192369403Y-78155223D01*
X192417270Y-78270785D01*
X192486763Y-78374789D01*
X192575211Y-78463237D01*
X192679215Y-78532730D01*
X192794777Y-78580597D01*
X192917458Y-78605000D01*
X193644250Y-78605000D01*
X193803000Y-78446250D01*
X193803000Y-77597000D01*
X194057000Y-77597000D01*
X194057000Y-78446250D01*
X194215750Y-78605000D01*
X194942542Y-78605000D01*
X195065223Y-78580597D01*
X195180785Y-78532730D01*
X195284789Y-78463237D01*
X195373237Y-78374789D01*
X195442730Y-78270785D01*
X195490597Y-78155223D01*
X195515000Y-78032542D01*
X195515000Y-77755750D01*
X198695000Y-77755750D01*
X198695000Y-78032542D01*
X198719403Y-78155223D01*
X198767270Y-78270785D01*
X198836763Y-78374789D01*
X198925211Y-78463237D01*
X199029215Y-78532730D01*
X199144777Y-78580597D01*
X199267458Y-78605000D01*
X199994250Y-78605000D01*
X200153000Y-78446250D01*
X200153000Y-77597000D01*
X200407000Y-77597000D01*
X200407000Y-78446250D01*
X200565750Y-78605000D01*
X201292542Y-78605000D01*
X201415223Y-78580597D01*
X201530785Y-78532730D01*
X201634789Y-78463237D01*
X201723237Y-78374789D01*
X201792730Y-78270785D01*
X201840597Y-78155223D01*
X201865000Y-78032542D01*
X201865000Y-77755750D01*
X201706250Y-77597000D01*
X200407000Y-77597000D01*
X200153000Y-77597000D01*
X198853750Y-77597000D01*
X198695000Y-77755750D01*
X195515000Y-77755750D01*
X195356250Y-77597000D01*
X194057000Y-77597000D01*
X193803000Y-77597000D01*
X192503750Y-77597000D01*
X192345000Y-77755750D01*
X182593776Y-77755750D01*
X182584789Y-77746763D01*
X182480785Y-77677270D01*
X182365223Y-77629403D01*
X182242542Y-77605000D01*
X181515750Y-77605000D01*
X181357000Y-77763750D01*
X181103000Y-77763750D01*
X180944250Y-77605000D01*
X180217458Y-77605000D01*
X180094777Y-77629403D01*
X179979215Y-77677270D01*
X179875211Y-77746763D01*
X179786763Y-77835211D01*
X179717270Y-77939215D01*
X179669403Y-78054777D01*
X179645000Y-78177458D01*
X165238072Y-78177458D01*
X165238072Y-77840000D01*
X165225812Y-77715518D01*
X165189502Y-77595820D01*
X165130537Y-77485506D01*
X165117812Y-77470000D01*
X165130537Y-77454494D01*
X165189502Y-77344180D01*
X165225812Y-77224482D01*
X165227238Y-77210000D01*
X165888377Y-77210000D01*
X166014061Y-77235000D01*
X166217939Y-77235000D01*
X166417898Y-77195226D01*
X166606256Y-77117205D01*
X166775774Y-77003937D01*
X166919937Y-76859774D01*
X167033205Y-76690256D01*
X167111226Y-76501898D01*
X167114438Y-76485750D01*
X174636000Y-76485750D01*
X174636000Y-77162542D01*
X174660403Y-77285223D01*
X174708270Y-77400785D01*
X174777763Y-77504789D01*
X174866211Y-77593237D01*
X174970215Y-77662730D01*
X175085777Y-77710597D01*
X175208458Y-77735000D01*
X175520250Y-77735000D01*
X175679000Y-77576250D01*
X175679000Y-76327000D01*
X175933000Y-76327000D01*
X175933000Y-77576250D01*
X176091750Y-77735000D01*
X176403542Y-77735000D01*
X176526223Y-77710597D01*
X176641785Y-77662730D01*
X176745789Y-77593237D01*
X176834237Y-77504789D01*
X176903730Y-77400785D01*
X176951597Y-77285223D01*
X176976000Y-77162542D01*
X176976000Y-76485750D01*
X176817250Y-76327000D01*
X175933000Y-76327000D01*
X175679000Y-76327000D01*
X174794750Y-76327000D01*
X174636000Y-76485750D01*
X167114438Y-76485750D01*
X167151000Y-76301939D01*
X167151000Y-76098061D01*
X167111226Y-75898102D01*
X167033205Y-75709744D01*
X166919937Y-75540226D01*
X166775774Y-75396063D01*
X166606256Y-75282795D01*
X166417898Y-75204774D01*
X166217939Y-75165000D01*
X166014061Y-75165000D01*
X165888377Y-75190000D01*
X165227238Y-75190000D01*
X165225812Y-75175518D01*
X165189502Y-75055820D01*
X165130537Y-74945506D01*
X165117812Y-74930000D01*
X165130537Y-74914494D01*
X165189502Y-74804180D01*
X165225812Y-74684482D01*
X165238072Y-74560000D01*
X165238072Y-72760000D01*
X165225812Y-72635518D01*
X165189502Y-72515820D01*
X165130537Y-72405506D01*
X165117812Y-72390000D01*
X165130537Y-72374494D01*
X165189502Y-72264180D01*
X165225812Y-72144482D01*
X165238072Y-72020000D01*
X165238072Y-70220000D01*
X165225812Y-70095518D01*
X165189502Y-69975820D01*
X165130537Y-69865506D01*
X165117812Y-69850000D01*
X165130537Y-69834494D01*
X165189502Y-69724180D01*
X165225812Y-69604482D01*
X165238072Y-69480000D01*
X165238072Y-67680000D01*
X165225812Y-67555518D01*
X165189502Y-67435820D01*
X165130537Y-67325506D01*
X165117812Y-67310000D01*
X165130537Y-67294494D01*
X165189502Y-67184180D01*
X165225812Y-67064482D01*
X165238072Y-66940000D01*
X165238072Y-65140000D01*
X165225812Y-65015518D01*
X165189502Y-64895820D01*
X165130537Y-64785506D01*
X165117079Y-64769107D01*
X165162730Y-64700785D01*
X165210597Y-64585223D01*
X165235000Y-64462542D01*
X165235000Y-63785750D01*
X165076250Y-63627000D01*
X164192000Y-63627000D01*
X164192000Y-63647000D01*
X163938000Y-63647000D01*
X163938000Y-63627000D01*
X163918000Y-63627000D01*
X163918000Y-63373000D01*
X163938000Y-63373000D01*
X163938000Y-61087000D01*
X164192000Y-61087000D01*
X164192000Y-63373000D01*
X165076250Y-63373000D01*
X165235000Y-63214250D01*
X165235000Y-62537458D01*
X165210597Y-62414777D01*
X165162730Y-62299215D01*
X165116482Y-62230000D01*
X165162730Y-62160785D01*
X165210597Y-62045223D01*
X165235000Y-61922542D01*
X165235000Y-61245750D01*
X165076250Y-61087000D01*
X164192000Y-61087000D01*
X163938000Y-61087000D01*
X163918000Y-61087000D01*
X163918000Y-60833000D01*
X163938000Y-60833000D01*
X163938000Y-58547000D01*
X164192000Y-58547000D01*
X164192000Y-60833000D01*
X165076250Y-60833000D01*
X165235000Y-60674250D01*
X165235000Y-59997458D01*
X165210597Y-59874777D01*
X165162730Y-59759215D01*
X165116482Y-59690000D01*
X165162730Y-59620785D01*
X165210597Y-59505223D01*
X165235000Y-59382542D01*
X165235000Y-58705750D01*
X165076250Y-58547000D01*
X164192000Y-58547000D01*
X163938000Y-58547000D01*
X163918000Y-58547000D01*
X163918000Y-58293000D01*
X163938000Y-58293000D01*
X163938000Y-57043750D01*
X163851000Y-56956750D01*
X163851000Y-56686701D01*
X163855403Y-56641999D01*
X163848658Y-56573518D01*
X163837833Y-56463609D01*
X163785798Y-56292073D01*
X163701298Y-56133985D01*
X163587581Y-55995419D01*
X163552853Y-55966919D01*
X162716933Y-55131000D01*
X162922645Y-55131000D01*
X164680146Y-56888502D01*
X164662542Y-56885000D01*
X164350750Y-56885000D01*
X164192000Y-57043750D01*
X164192000Y-58293000D01*
X165076250Y-58293000D01*
X165235000Y-58134250D01*
X165235000Y-57457458D01*
X165231498Y-57439854D01*
X165978170Y-58186526D01*
X166023381Y-58413821D01*
X166120247Y-58647676D01*
X166260875Y-58858140D01*
X166439860Y-59037125D01*
X166650324Y-59177753D01*
X166884179Y-59274619D01*
X167132439Y-59324000D01*
X167244000Y-59324000D01*
X167244000Y-59435561D01*
X167293381Y-59683821D01*
X167390247Y-59917676D01*
X167519000Y-60110368D01*
X167519001Y-63554382D01*
X167514114Y-63604000D01*
X167533615Y-63801994D01*
X167591368Y-63992379D01*
X167667601Y-64135000D01*
X167685154Y-64167840D01*
X167811368Y-64321633D01*
X167849901Y-64353256D01*
X168691743Y-65195099D01*
X168723367Y-65233633D01*
X168877160Y-65359847D01*
X169052620Y-65453632D01*
X169243005Y-65511385D01*
X169441000Y-65530886D01*
X169490608Y-65526000D01*
X169563762Y-65526000D01*
X169565188Y-65540482D01*
X169601498Y-65660180D01*
X169660463Y-65770494D01*
X169739815Y-65867185D01*
X169836506Y-65946537D01*
X169946820Y-66005502D01*
X170066518Y-66041812D01*
X170191000Y-66054072D01*
X171261000Y-66054072D01*
X171385482Y-66041812D01*
X171505180Y-66005502D01*
X171615494Y-65946537D01*
X171712185Y-65867185D01*
X171791537Y-65770494D01*
X171850502Y-65660180D01*
X171886812Y-65540482D01*
X171899072Y-65416000D01*
X171899072Y-65366214D01*
X172062620Y-65453632D01*
X172253006Y-65511385D01*
X172401392Y-65526000D01*
X172401394Y-65526000D01*
X172450999Y-65530886D01*
X172500604Y-65526000D01*
X172573762Y-65526000D01*
X172575188Y-65540482D01*
X172611498Y-65660180D01*
X172670463Y-65770494D01*
X172749815Y-65867185D01*
X172846506Y-65946537D01*
X172956820Y-66005502D01*
X173076518Y-66041812D01*
X173201000Y-66054072D01*
X174271000Y-66054072D01*
X174395482Y-66041812D01*
X174515180Y-66005502D01*
X174625494Y-65946537D01*
X174632928Y-65940436D01*
X174632928Y-66940000D01*
X174645188Y-67064482D01*
X174681498Y-67184180D01*
X174740463Y-67294494D01*
X174753188Y-67310000D01*
X174740463Y-67325506D01*
X174681498Y-67435820D01*
X174645188Y-67555518D01*
X174632928Y-67680000D01*
X174632928Y-69480000D01*
X174645188Y-69604482D01*
X174681498Y-69724180D01*
X174740463Y-69834494D01*
X174753188Y-69850000D01*
X174740463Y-69865506D01*
X174681498Y-69975820D01*
X174645188Y-70095518D01*
X174632928Y-70220000D01*
X174632928Y-72020000D01*
X174645188Y-72144482D01*
X174681498Y-72264180D01*
X174740463Y-72374494D01*
X174753188Y-72390000D01*
X174740463Y-72405506D01*
X174681498Y-72515820D01*
X174645188Y-72635518D01*
X174643762Y-72650000D01*
X174471623Y-72650000D01*
X174345939Y-72625000D01*
X174142061Y-72625000D01*
X173942102Y-72664774D01*
X173753744Y-72742795D01*
X173584226Y-72856063D01*
X173440063Y-73000226D01*
X173326795Y-73169744D01*
X173248774Y-73358102D01*
X173209000Y-73558061D01*
X173209000Y-73761939D01*
X173248774Y-73961898D01*
X173326795Y-74150256D01*
X173440063Y-74319774D01*
X173584226Y-74463937D01*
X173753744Y-74577205D01*
X173942102Y-74655226D01*
X174142061Y-74695000D01*
X174345939Y-74695000D01*
X174471623Y-74670000D01*
X174643762Y-74670000D01*
X174645188Y-74684482D01*
X174681498Y-74804180D01*
X174740463Y-74914494D01*
X174753921Y-74930893D01*
X174708270Y-74999215D01*
X174660403Y-75114777D01*
X174636000Y-75237458D01*
X174636000Y-75914250D01*
X174794750Y-76073000D01*
X175679000Y-76073000D01*
X175679000Y-76053000D01*
X175933000Y-76053000D01*
X175933000Y-76073000D01*
X176817250Y-76073000D01*
X176976000Y-75914250D01*
X176976000Y-75237458D01*
X176951597Y-75114777D01*
X176903730Y-74999215D01*
X176858079Y-74930893D01*
X176871537Y-74914494D01*
X176930502Y-74804180D01*
X176966812Y-74684482D01*
X176979072Y-74560000D01*
X176979072Y-72760000D01*
X176966812Y-72635518D01*
X176930502Y-72515820D01*
X176871537Y-72405506D01*
X176858812Y-72390000D01*
X176871537Y-72374494D01*
X176930502Y-72264180D01*
X176966812Y-72144482D01*
X176979072Y-72020000D01*
X176979072Y-71970214D01*
X177142620Y-72057632D01*
X177333006Y-72115385D01*
X177481392Y-72130000D01*
X177481394Y-72130000D01*
X177530999Y-72134886D01*
X177580604Y-72130000D01*
X177653762Y-72130000D01*
X177655188Y-72144482D01*
X177691498Y-72264180D01*
X177750463Y-72374494D01*
X177763188Y-72390000D01*
X177750463Y-72405506D01*
X177691498Y-72515820D01*
X177655188Y-72635518D01*
X177642928Y-72760000D01*
X177642928Y-74560000D01*
X177655188Y-74684482D01*
X177691498Y-74804180D01*
X177750463Y-74914494D01*
X177763188Y-74930000D01*
X177750463Y-74945506D01*
X177691498Y-75055820D01*
X177655188Y-75175518D01*
X177642928Y-75300000D01*
X177642928Y-77100000D01*
X177655188Y-77224482D01*
X177691498Y-77344180D01*
X177750463Y-77454494D01*
X177829815Y-77551185D01*
X177926506Y-77630537D01*
X178036820Y-77689502D01*
X178156518Y-77725812D01*
X178281000Y-77738072D01*
X179351000Y-77738072D01*
X179475482Y-77725812D01*
X179595180Y-77689502D01*
X179705494Y-77630537D01*
X179802185Y-77551185D01*
X179881537Y-77454494D01*
X179940502Y-77344180D01*
X179976812Y-77224482D01*
X179978238Y-77210000D01*
X183200482Y-77210000D01*
X183225506Y-77230537D01*
X183335820Y-77289502D01*
X183455518Y-77325812D01*
X183580000Y-77338072D01*
X185480000Y-77338072D01*
X185604482Y-77325812D01*
X185724180Y-77289502D01*
X185834494Y-77230537D01*
X185931185Y-77151185D01*
X186010537Y-77054494D01*
X186069502Y-76944180D01*
X186080641Y-76907458D01*
X192345000Y-76907458D01*
X192345000Y-77184250D01*
X192503750Y-77343000D01*
X193803000Y-77343000D01*
X193803000Y-76493750D01*
X194057000Y-76493750D01*
X194057000Y-77343000D01*
X195356250Y-77343000D01*
X195515000Y-77184250D01*
X195515000Y-76907458D01*
X198695000Y-76907458D01*
X198695000Y-77184250D01*
X198853750Y-77343000D01*
X200153000Y-77343000D01*
X200153000Y-76493750D01*
X200407000Y-76493750D01*
X200407000Y-77343000D01*
X201706250Y-77343000D01*
X201865000Y-77184250D01*
X201865000Y-76907458D01*
X201840597Y-76784777D01*
X201792730Y-76669215D01*
X201723237Y-76565211D01*
X201634789Y-76476763D01*
X201530785Y-76407270D01*
X201415223Y-76359403D01*
X201292542Y-76335000D01*
X200565750Y-76335000D01*
X200407000Y-76493750D01*
X200153000Y-76493750D01*
X199994250Y-76335000D01*
X199267458Y-76335000D01*
X199144777Y-76359403D01*
X199029215Y-76407270D01*
X198925211Y-76476763D01*
X198836763Y-76565211D01*
X198767270Y-76669215D01*
X198719403Y-76784777D01*
X198695000Y-76907458D01*
X195515000Y-76907458D01*
X195490597Y-76784777D01*
X195442730Y-76669215D01*
X195373237Y-76565211D01*
X195284789Y-76476763D01*
X195180785Y-76407270D01*
X195065223Y-76359403D01*
X194942542Y-76335000D01*
X194215750Y-76335000D01*
X194057000Y-76493750D01*
X193803000Y-76493750D01*
X193644250Y-76335000D01*
X192917458Y-76335000D01*
X192794777Y-76359403D01*
X192679215Y-76407270D01*
X192575211Y-76476763D01*
X192486763Y-76565211D01*
X192417270Y-76669215D01*
X192369403Y-76784777D01*
X192345000Y-76907458D01*
X186080641Y-76907458D01*
X186105812Y-76824482D01*
X186118072Y-76700000D01*
X186118072Y-75700000D01*
X186105812Y-75575518D01*
X186069502Y-75455820D01*
X186010537Y-75345506D01*
X185931185Y-75248815D01*
X185834494Y-75169463D01*
X185724180Y-75110498D01*
X185604482Y-75074188D01*
X185480000Y-75061928D01*
X183580000Y-75061928D01*
X183455518Y-75074188D01*
X183335820Y-75110498D01*
X183225506Y-75169463D01*
X183200482Y-75190000D01*
X179978238Y-75190000D01*
X179976812Y-75175518D01*
X179940502Y-75055820D01*
X179881537Y-74945506D01*
X179868812Y-74930000D01*
X179881537Y-74914494D01*
X179940502Y-74804180D01*
X179968073Y-74713290D01*
X180035820Y-74749502D01*
X180155518Y-74785812D01*
X180280000Y-74798072D01*
X182180000Y-74798072D01*
X182304482Y-74785812D01*
X182424180Y-74749502D01*
X182534494Y-74690537D01*
X182559518Y-74670000D01*
X188557645Y-74670000D01*
X189496739Y-75609094D01*
X189528367Y-75647633D01*
X189682160Y-75773847D01*
X189857620Y-75867632D01*
X190048006Y-75925385D01*
X190196392Y-75940000D01*
X190196394Y-75940000D01*
X190245999Y-75944886D01*
X190295604Y-75940000D01*
X195900482Y-75940000D01*
X195925506Y-75960537D01*
X196035820Y-76019502D01*
X196155518Y-76055812D01*
X196280000Y-76068072D01*
X198180000Y-76068072D01*
X198304482Y-76055812D01*
X198424180Y-76019502D01*
X198534494Y-75960537D01*
X198631185Y-75881185D01*
X198664985Y-75840000D01*
X202145015Y-75840000D01*
X202178815Y-75881185D01*
X202275506Y-75960537D01*
X202385820Y-76019502D01*
X202505518Y-76055812D01*
X202630000Y-76068072D01*
X204530000Y-76068072D01*
X204654482Y-76055812D01*
X204774180Y-76019502D01*
X204884494Y-75960537D01*
X204981185Y-75881185D01*
X205060537Y-75784494D01*
X205119502Y-75674180D01*
X205155812Y-75554482D01*
X205168072Y-75430000D01*
X205168072Y-74430000D01*
X205155812Y-74305518D01*
X205119502Y-74185820D01*
X205060537Y-74075506D01*
X204981185Y-73978815D01*
X204884494Y-73899463D01*
X204774180Y-73840498D01*
X204654482Y-73804188D01*
X204530000Y-73791928D01*
X202630000Y-73791928D01*
X202505518Y-73804188D01*
X202385820Y-73840498D01*
X202275506Y-73899463D01*
X202178815Y-73978815D01*
X202145015Y-74020000D01*
X198664985Y-74020000D01*
X198631185Y-73978815D01*
X198534494Y-73899463D01*
X198424180Y-73840498D01*
X198304482Y-73804188D01*
X198180000Y-73791928D01*
X196280000Y-73791928D01*
X196155518Y-73804188D01*
X196035820Y-73840498D01*
X195925506Y-73899463D01*
X195900482Y-73920000D01*
X190664355Y-73920000D01*
X189725261Y-72980906D01*
X189693633Y-72942367D01*
X189539840Y-72816153D01*
X189364380Y-72722368D01*
X189173994Y-72664615D01*
X189025608Y-72650000D01*
X188976000Y-72645114D01*
X188926392Y-72650000D01*
X182559518Y-72650000D01*
X182534494Y-72629463D01*
X182424180Y-72570498D01*
X182304482Y-72534188D01*
X182180000Y-72521928D01*
X180280000Y-72521928D01*
X180155518Y-72534188D01*
X180035820Y-72570498D01*
X179968073Y-72606710D01*
X179940502Y-72515820D01*
X179881537Y-72405506D01*
X179868812Y-72390000D01*
X179881537Y-72374494D01*
X179940502Y-72264180D01*
X179976812Y-72144482D01*
X179978238Y-72130000D01*
X183200482Y-72130000D01*
X183225506Y-72150537D01*
X183335820Y-72209502D01*
X183455518Y-72245812D01*
X183580000Y-72258072D01*
X185480000Y-72258072D01*
X185604482Y-72245812D01*
X185724180Y-72209502D01*
X185834494Y-72150537D01*
X185931185Y-72071185D01*
X186010537Y-71974494D01*
X186069502Y-71864180D01*
X186105812Y-71744482D01*
X186118072Y-71620000D01*
X186118072Y-70620000D01*
X186105812Y-70495518D01*
X186069502Y-70375820D01*
X186010537Y-70265506D01*
X185931185Y-70168815D01*
X185834494Y-70089463D01*
X185724180Y-70030498D01*
X185604482Y-69994188D01*
X185480000Y-69981928D01*
X183580000Y-69981928D01*
X183455518Y-69994188D01*
X183335820Y-70030498D01*
X183225506Y-70089463D01*
X183200482Y-70110000D01*
X179978238Y-70110000D01*
X179976812Y-70095518D01*
X179940502Y-69975820D01*
X179881537Y-69865506D01*
X179868812Y-69850000D01*
X179881537Y-69834494D01*
X179940502Y-69724180D01*
X179968073Y-69633290D01*
X180035820Y-69669502D01*
X180155518Y-69705812D01*
X180280000Y-69718072D01*
X182180000Y-69718072D01*
X182304482Y-69705812D01*
X182424180Y-69669502D01*
X182534494Y-69610537D01*
X182559518Y-69590000D01*
X192600482Y-69590000D01*
X192625506Y-69610537D01*
X192735820Y-69669502D01*
X192855518Y-69705812D01*
X192980000Y-69718072D01*
X194880000Y-69718072D01*
X195004482Y-69705812D01*
X195124180Y-69669502D01*
X195234494Y-69610537D01*
X195259518Y-69590000D01*
X195580392Y-69590000D01*
X195630000Y-69594886D01*
X195727358Y-69585297D01*
X195827994Y-69575385D01*
X196018380Y-69517632D01*
X196193840Y-69423847D01*
X196347633Y-69297633D01*
X196379260Y-69259095D01*
X196810356Y-68828000D01*
X198324392Y-68828000D01*
X198374000Y-68832886D01*
X198571994Y-68813385D01*
X198762380Y-68755632D01*
X198937840Y-68661847D01*
X199091633Y-68535633D01*
X199123261Y-68497095D01*
X199650001Y-67970355D01*
X199650001Y-69292383D01*
X199650000Y-69292393D01*
X199650001Y-70193645D01*
X199600907Y-70242738D01*
X199562367Y-70274367D01*
X199436153Y-70428160D01*
X199367736Y-70556160D01*
X199342368Y-70603621D01*
X199284615Y-70794006D01*
X199265114Y-70992000D01*
X199270000Y-71041608D01*
X199270000Y-71257837D01*
X199205518Y-71264188D01*
X199085820Y-71300498D01*
X198975506Y-71359463D01*
X198950482Y-71380000D01*
X195259518Y-71380000D01*
X195234494Y-71359463D01*
X195124180Y-71300498D01*
X195004482Y-71264188D01*
X194880000Y-71251928D01*
X192980000Y-71251928D01*
X192855518Y-71264188D01*
X192735820Y-71300498D01*
X192625506Y-71359463D01*
X192528815Y-71438815D01*
X192449463Y-71535506D01*
X192396816Y-71634000D01*
X191235623Y-71634000D01*
X191109939Y-71609000D01*
X190906061Y-71609000D01*
X190706102Y-71648774D01*
X190517744Y-71726795D01*
X190348226Y-71840063D01*
X190204063Y-71984226D01*
X190090795Y-72153744D01*
X190012774Y-72342102D01*
X189973000Y-72542061D01*
X189973000Y-72745939D01*
X190012774Y-72945898D01*
X190090795Y-73134256D01*
X190204063Y-73303774D01*
X190348226Y-73447937D01*
X190517744Y-73561205D01*
X190706102Y-73639226D01*
X190906061Y-73679000D01*
X191109939Y-73679000D01*
X191235623Y-73654000D01*
X193626392Y-73654000D01*
X193676000Y-73658886D01*
X193873994Y-73639385D01*
X193953401Y-73615297D01*
X194064380Y-73581632D01*
X194164584Y-73528072D01*
X194880000Y-73528072D01*
X195004482Y-73515812D01*
X195124180Y-73479502D01*
X195234494Y-73420537D01*
X195259518Y-73400000D01*
X198950482Y-73400000D01*
X198975506Y-73420537D01*
X199085820Y-73479502D01*
X199205518Y-73515812D01*
X199330000Y-73528072D01*
X201230000Y-73528072D01*
X201354482Y-73515812D01*
X201474180Y-73479502D01*
X201584494Y-73420537D01*
X201681185Y-73341185D01*
X201760537Y-73244494D01*
X201819502Y-73134180D01*
X201855812Y-73014482D01*
X201868072Y-72890000D01*
X201868072Y-71890000D01*
X201855812Y-71765518D01*
X201819502Y-71645820D01*
X201760537Y-71535506D01*
X201681185Y-71438815D01*
X201584494Y-71359463D01*
X201474180Y-71300498D01*
X201416022Y-71282856D01*
X201503847Y-71175840D01*
X201597632Y-71000380D01*
X201655385Y-70809994D01*
X201670000Y-70661608D01*
X201670000Y-70661606D01*
X201674886Y-70612001D01*
X201670000Y-70562396D01*
X201670000Y-63481238D01*
X201684482Y-63479812D01*
X201804180Y-63443502D01*
X201914494Y-63384537D01*
X201982166Y-63329000D01*
X202072916Y-63329000D01*
X202150006Y-63352385D01*
X202298392Y-63367000D01*
X202298394Y-63367000D01*
X202347999Y-63371886D01*
X202397604Y-63367000D01*
X202914392Y-63367000D01*
X202964000Y-63371886D01*
X203161994Y-63352385D01*
X203245067Y-63327185D01*
X203352380Y-63294632D01*
X203527840Y-63200847D01*
X203681633Y-63074633D01*
X203713263Y-63036092D01*
X203752091Y-62997264D01*
X203790633Y-62965633D01*
X203916847Y-62811840D01*
X204010632Y-62636380D01*
X204068385Y-62445994D01*
X204083000Y-62297608D01*
X204083000Y-62297606D01*
X204087886Y-62248001D01*
X204083000Y-62198396D01*
X204083000Y-62113038D01*
X204167180Y-62087502D01*
X204277494Y-62028537D01*
X204374185Y-61949185D01*
X204453537Y-61852494D01*
X204512502Y-61742180D01*
X204548812Y-61622482D01*
X204561072Y-61498000D01*
X204561072Y-60198000D01*
X204548812Y-60073518D01*
X204512502Y-59953820D01*
X204453537Y-59843506D01*
X204374185Y-59746815D01*
X204277494Y-59667463D01*
X204167180Y-59608498D01*
X204047482Y-59572188D01*
X203923000Y-59559928D01*
X202223000Y-59559928D01*
X202165810Y-59565560D01*
X202036250Y-59436000D01*
X200787000Y-59436000D01*
X200787000Y-60320250D01*
X200945750Y-60479000D01*
X201584928Y-60479000D01*
X201584928Y-61148383D01*
X201560000Y-61145928D01*
X199760000Y-61145928D01*
X199635518Y-61158188D01*
X199515820Y-61194498D01*
X199405506Y-61253463D01*
X199367324Y-61284798D01*
X199345633Y-61258367D01*
X199307099Y-61226744D01*
X197792251Y-59711896D01*
X197760623Y-59673357D01*
X197664840Y-59594750D01*
X199125000Y-59594750D01*
X199125000Y-59906542D01*
X199149403Y-60029223D01*
X199197270Y-60144785D01*
X199266763Y-60248789D01*
X199355211Y-60337237D01*
X199459215Y-60406730D01*
X199574777Y-60454597D01*
X199697458Y-60479000D01*
X200374250Y-60479000D01*
X200533000Y-60320250D01*
X200533000Y-59436000D01*
X199283750Y-59436000D01*
X199125000Y-59594750D01*
X197664840Y-59594750D01*
X197606830Y-59547143D01*
X197431370Y-59453358D01*
X197240984Y-59395605D01*
X197092598Y-59380990D01*
X197042990Y-59376104D01*
X196993382Y-59380990D01*
X194867072Y-59380990D01*
X194867072Y-59220930D01*
X194924385Y-59031994D01*
X194939000Y-58883608D01*
X194939000Y-58358000D01*
X199277974Y-58358000D01*
X199266763Y-58369211D01*
X199197270Y-58473215D01*
X199149403Y-58588777D01*
X199125000Y-58711458D01*
X199125000Y-59023250D01*
X199283750Y-59182000D01*
X200533000Y-59182000D01*
X200533000Y-59162000D01*
X200787000Y-59162000D01*
X200787000Y-59182000D01*
X202036250Y-59182000D01*
X202195000Y-59023250D01*
X202195000Y-58711458D01*
X202179146Y-58631753D01*
X202223000Y-58636072D01*
X203923000Y-58636072D01*
X204047482Y-58623812D01*
X204167180Y-58587502D01*
X204277494Y-58528537D01*
X204374185Y-58449185D01*
X204453537Y-58352494D01*
X204512502Y-58242180D01*
X204548812Y-58122482D01*
X204561072Y-57998000D01*
X204561072Y-56698000D01*
X204548812Y-56573518D01*
X204512502Y-56453820D01*
X204453537Y-56343506D01*
X204374185Y-56246815D01*
X204277494Y-56167463D01*
X204167180Y-56108498D01*
X204047482Y-56072188D01*
X203923000Y-56059928D01*
X202223000Y-56059928D01*
X202098518Y-56072188D01*
X201978820Y-56108498D01*
X201868506Y-56167463D01*
X201866500Y-56169109D01*
X201864494Y-56167463D01*
X201754180Y-56108498D01*
X201634482Y-56072188D01*
X201510000Y-56059928D01*
X199810000Y-56059928D01*
X199685518Y-56072188D01*
X199565820Y-56108498D01*
X199455506Y-56167463D01*
X199358815Y-56246815D01*
X199283982Y-56338000D01*
X194518355Y-56338000D01*
X194608094Y-56248261D01*
X194646633Y-56216633D01*
X194772847Y-56062840D01*
X194866632Y-55887380D01*
X194924385Y-55696994D01*
X194939000Y-55548608D01*
X194939000Y-55548606D01*
X194943886Y-55499001D01*
X194939000Y-55449396D01*
X194939000Y-53660374D01*
X195707000Y-53660374D01*
X195707000Y-54035626D01*
X195780209Y-54403668D01*
X195923811Y-54750356D01*
X196132290Y-55062366D01*
X196397634Y-55327710D01*
X196709644Y-55536189D01*
X197056332Y-55679791D01*
X197424374Y-55753000D01*
X197799626Y-55753000D01*
X198167668Y-55679791D01*
X198514356Y-55536189D01*
X198826366Y-55327710D01*
X199091710Y-55062366D01*
X199228263Y-54858000D01*
X199283982Y-54858000D01*
X199358815Y-54949185D01*
X199455506Y-55028537D01*
X199565820Y-55087502D01*
X199685518Y-55123812D01*
X199810000Y-55136072D01*
X201510000Y-55136072D01*
X201634482Y-55123812D01*
X201754180Y-55087502D01*
X201864494Y-55028537D01*
X201961185Y-54949185D01*
X202040537Y-54852494D01*
X202099502Y-54742180D01*
X202135812Y-54622482D01*
X202148072Y-54498000D01*
X202148072Y-53198000D01*
X202135812Y-53073518D01*
X202099502Y-52953820D01*
X202040537Y-52843506D01*
X201961185Y-52746815D01*
X201864494Y-52667463D01*
X201754180Y-52608498D01*
X201634482Y-52572188D01*
X201510000Y-52559928D01*
X199810000Y-52559928D01*
X199685518Y-52572188D01*
X199565820Y-52608498D01*
X199455506Y-52667463D01*
X199358815Y-52746815D01*
X199283982Y-52838000D01*
X199228263Y-52838000D01*
X199091710Y-52633634D01*
X198826366Y-52368290D01*
X198514356Y-52159811D01*
X198167668Y-52016209D01*
X197799626Y-51943000D01*
X197424374Y-51943000D01*
X197056332Y-52016209D01*
X196709644Y-52159811D01*
X196397634Y-52368290D01*
X196132290Y-52633634D01*
X195923811Y-52945644D01*
X195780209Y-53292332D01*
X195707000Y-53660374D01*
X194939000Y-53660374D01*
X194939000Y-53384392D01*
X194924385Y-53236006D01*
X194867072Y-53047070D01*
X194867072Y-52659000D01*
X194854812Y-52534518D01*
X194818502Y-52414820D01*
X194759537Y-52304506D01*
X194680185Y-52207815D01*
X194583494Y-52128463D01*
X194473180Y-52069498D01*
X194353482Y-52033188D01*
X194229000Y-52020928D01*
X193629000Y-52020928D01*
X193504518Y-52033188D01*
X193384820Y-52069498D01*
X193294000Y-52118043D01*
X193203180Y-52069498D01*
X193083482Y-52033188D01*
X192959000Y-52020928D01*
X192359000Y-52020928D01*
X192234518Y-52033188D01*
X192114820Y-52069498D01*
X192024000Y-52118043D01*
X191933180Y-52069498D01*
X191813482Y-52033188D01*
X191689000Y-52020928D01*
X191089000Y-52020928D01*
X190964518Y-52033188D01*
X190844820Y-52069498D01*
X190753095Y-52118527D01*
X190719785Y-52096270D01*
X190604223Y-52048403D01*
X190481542Y-52024000D01*
X190404750Y-52024000D01*
X190246000Y-52182750D01*
X190246000Y-53307000D01*
X190266000Y-53307000D01*
X190266000Y-53561000D01*
X190246000Y-53561000D01*
X190246000Y-53581000D01*
X189992000Y-53581000D01*
X189992000Y-53561000D01*
X189342750Y-53561000D01*
X189184000Y-53719750D01*
X189184000Y-54271542D01*
X189201993Y-54362000D01*
X184453604Y-54362000D01*
X184403999Y-54357114D01*
X184354394Y-54362000D01*
X184354392Y-54362000D01*
X184206006Y-54376615D01*
X184015620Y-54434368D01*
X183840160Y-54528153D01*
X183686367Y-54654367D01*
X183654735Y-54692911D01*
X183282907Y-55064739D01*
X183244367Y-55096367D01*
X183118153Y-55250160D01*
X183049085Y-55379379D01*
X183024368Y-55425621D01*
X182966615Y-55616006D01*
X182947114Y-55814000D01*
X182952000Y-55863608D01*
X182952001Y-56714456D01*
X182870617Y-56910933D01*
X182827000Y-57130212D01*
X182827000Y-57353788D01*
X182870617Y-57573067D01*
X182956176Y-57779624D01*
X183080388Y-57965520D01*
X183238480Y-58123612D01*
X183424376Y-58247824D01*
X183630933Y-58333383D01*
X183850212Y-58377000D01*
X184073788Y-58377000D01*
X184293067Y-58333383D01*
X184499624Y-58247824D01*
X184685520Y-58123612D01*
X184843612Y-57965520D01*
X184912000Y-57863170D01*
X184980388Y-57965520D01*
X185138480Y-58123612D01*
X185324376Y-58247824D01*
X185530933Y-58333383D01*
X185750212Y-58377000D01*
X185973788Y-58377000D01*
X186193067Y-58333383D01*
X186389542Y-58252000D01*
X187056392Y-58252000D01*
X187106000Y-58256886D01*
X187261098Y-58241610D01*
X187303994Y-58237385D01*
X187494380Y-58179632D01*
X187669840Y-58085847D01*
X187823633Y-57959633D01*
X187855261Y-57921094D01*
X187870355Y-57906000D01*
X189201839Y-57906000D01*
X189193188Y-57934518D01*
X189180928Y-58059000D01*
X189180928Y-58447071D01*
X189123615Y-58636007D01*
X189109000Y-58784393D01*
X189109001Y-61037383D01*
X189104114Y-61087000D01*
X189123615Y-61284994D01*
X189181368Y-61475379D01*
X189275154Y-61650840D01*
X189323095Y-61709256D01*
X189401368Y-61804633D01*
X189439902Y-61836257D01*
X189623736Y-62020090D01*
X189655367Y-62058633D01*
X189809160Y-62184847D01*
X189984620Y-62278632D01*
X190175006Y-62336385D01*
X190323392Y-62351000D01*
X190323394Y-62351000D01*
X190372999Y-62355886D01*
X190422604Y-62351000D01*
X196050645Y-62351000D01*
X196220000Y-62520356D01*
X196220001Y-64265381D01*
X196220000Y-64265391D01*
X196220000Y-64907837D01*
X196155518Y-64914188D01*
X196035820Y-64950498D01*
X195925506Y-65009463D01*
X195900482Y-65030000D01*
X185859518Y-65030000D01*
X185834494Y-65009463D01*
X185724180Y-64950498D01*
X185604482Y-64914188D01*
X185480000Y-64901928D01*
X183580000Y-64901928D01*
X183455518Y-64914188D01*
X183335820Y-64950498D01*
X183225506Y-65009463D01*
X183200482Y-65030000D01*
X179978238Y-65030000D01*
X179976812Y-65015518D01*
X179940502Y-64895820D01*
X179881537Y-64785506D01*
X179802185Y-64688815D01*
X179705494Y-64609463D01*
X179595180Y-64550498D01*
X179475482Y-64514188D01*
X179432959Y-64510000D01*
X179900482Y-64510000D01*
X179925506Y-64530537D01*
X180035820Y-64589502D01*
X180155518Y-64625812D01*
X180280000Y-64638072D01*
X182180000Y-64638072D01*
X182304482Y-64625812D01*
X182424180Y-64589502D01*
X182534494Y-64530537D01*
X182631185Y-64451185D01*
X182710537Y-64354494D01*
X182769502Y-64244180D01*
X182805812Y-64124482D01*
X182818072Y-64000000D01*
X182818072Y-63785750D01*
X192345000Y-63785750D01*
X192345000Y-64062542D01*
X192369403Y-64185223D01*
X192417270Y-64300785D01*
X192486763Y-64404789D01*
X192575211Y-64493237D01*
X192679215Y-64562730D01*
X192794777Y-64610597D01*
X192917458Y-64635000D01*
X193644250Y-64635000D01*
X193803000Y-64476250D01*
X193803000Y-63627000D01*
X194057000Y-63627000D01*
X194057000Y-64476250D01*
X194215750Y-64635000D01*
X194942542Y-64635000D01*
X195065223Y-64610597D01*
X195180785Y-64562730D01*
X195284789Y-64493237D01*
X195373237Y-64404789D01*
X195442730Y-64300785D01*
X195490597Y-64185223D01*
X195515000Y-64062542D01*
X195515000Y-63785750D01*
X195356250Y-63627000D01*
X194057000Y-63627000D01*
X193803000Y-63627000D01*
X192503750Y-63627000D01*
X192345000Y-63785750D01*
X182818072Y-63785750D01*
X182818072Y-63000000D01*
X182811913Y-62937458D01*
X192345000Y-62937458D01*
X192345000Y-63214250D01*
X192503750Y-63373000D01*
X193803000Y-63373000D01*
X193803000Y-62523750D01*
X194057000Y-62523750D01*
X194057000Y-63373000D01*
X195356250Y-63373000D01*
X195515000Y-63214250D01*
X195515000Y-62937458D01*
X195490597Y-62814777D01*
X195442730Y-62699215D01*
X195373237Y-62595211D01*
X195284789Y-62506763D01*
X195180785Y-62437270D01*
X195065223Y-62389403D01*
X194942542Y-62365000D01*
X194215750Y-62365000D01*
X194057000Y-62523750D01*
X193803000Y-62523750D01*
X193644250Y-62365000D01*
X192917458Y-62365000D01*
X192794777Y-62389403D01*
X192679215Y-62437270D01*
X192575211Y-62506763D01*
X192486763Y-62595211D01*
X192417270Y-62699215D01*
X192369403Y-62814777D01*
X192345000Y-62937458D01*
X182811913Y-62937458D01*
X182805812Y-62875518D01*
X182769502Y-62755820D01*
X182710537Y-62645506D01*
X182631185Y-62548815D01*
X182534494Y-62469463D01*
X182424180Y-62410498D01*
X182304482Y-62374188D01*
X182180000Y-62361928D01*
X180280000Y-62361928D01*
X180155518Y-62374188D01*
X180035820Y-62410498D01*
X179925506Y-62469463D01*
X179900482Y-62490000D01*
X179826000Y-62490000D01*
X179826000Y-60858355D01*
X180606743Y-61639099D01*
X180638367Y-61677633D01*
X180792160Y-61803847D01*
X180934769Y-61880073D01*
X180967620Y-61897632D01*
X181158005Y-61955385D01*
X181356000Y-61974886D01*
X181405608Y-61970000D01*
X183200482Y-61970000D01*
X183225506Y-61990537D01*
X183335820Y-62049502D01*
X183455518Y-62085812D01*
X183580000Y-62098072D01*
X185480000Y-62098072D01*
X185604482Y-62085812D01*
X185724180Y-62049502D01*
X185834494Y-61990537D01*
X185931185Y-61911185D01*
X186010537Y-61814494D01*
X186069502Y-61704180D01*
X186105812Y-61584482D01*
X186118072Y-61460000D01*
X186118072Y-60460000D01*
X186105812Y-60335518D01*
X186069502Y-60215820D01*
X186010537Y-60105506D01*
X185931185Y-60008815D01*
X185834494Y-59929463D01*
X185724180Y-59870498D01*
X185604482Y-59834188D01*
X185480000Y-59821928D01*
X183580000Y-59821928D01*
X183455518Y-59834188D01*
X183335820Y-59870498D01*
X183225506Y-59929463D01*
X183200482Y-59950000D01*
X181774356Y-59950000D01*
X181350000Y-59525645D01*
X181350000Y-54972689D01*
X181354886Y-54923081D01*
X181335385Y-54725086D01*
X181277632Y-54534701D01*
X181272715Y-54525502D01*
X181183847Y-54359241D01*
X181057633Y-54205448D01*
X181019094Y-54173820D01*
X180862128Y-54016854D01*
X180945706Y-53915014D01*
X180980201Y-53850477D01*
X181049822Y-53967355D01*
X181244731Y-54183588D01*
X181478080Y-54357641D01*
X181740901Y-54482825D01*
X181888110Y-54527476D01*
X182118000Y-54406155D01*
X182118000Y-53213000D01*
X182372000Y-53213000D01*
X182372000Y-54406155D01*
X182601890Y-54527476D01*
X182749099Y-54482825D01*
X183011920Y-54357641D01*
X183245269Y-54183588D01*
X183440178Y-53967355D01*
X183589157Y-53717252D01*
X183686481Y-53442891D01*
X183565814Y-53213000D01*
X182372000Y-53213000D01*
X182118000Y-53213000D01*
X182098000Y-53213000D01*
X182098000Y-52959000D01*
X182118000Y-52959000D01*
X182118000Y-51765845D01*
X182372000Y-51765845D01*
X182372000Y-52959000D01*
X183565814Y-52959000D01*
X183686481Y-52729109D01*
X183639426Y-52596458D01*
X189184000Y-52596458D01*
X189184000Y-53148250D01*
X189342750Y-53307000D01*
X189992000Y-53307000D01*
X189992000Y-52182750D01*
X189833250Y-52024000D01*
X189756458Y-52024000D01*
X189633777Y-52048403D01*
X189518215Y-52096270D01*
X189414211Y-52165763D01*
X189325763Y-52254211D01*
X189256270Y-52358215D01*
X189208403Y-52473777D01*
X189184000Y-52596458D01*
X183639426Y-52596458D01*
X183589157Y-52454748D01*
X183440178Y-52204645D01*
X183245269Y-51988412D01*
X183011920Y-51814359D01*
X182749099Y-51689175D01*
X182601890Y-51644524D01*
X182372000Y-51765845D01*
X182118000Y-51765845D01*
X181888110Y-51644524D01*
X181740901Y-51689175D01*
X181478080Y-51814359D01*
X181244731Y-51988412D01*
X181049822Y-52204645D01*
X180980201Y-52321523D01*
X180945706Y-52256986D01*
X180760134Y-52030866D01*
X180534014Y-51845294D01*
X180276034Y-51707401D01*
X179996111Y-51622487D01*
X179777950Y-51601000D01*
X179632050Y-51601000D01*
X179413889Y-51622487D01*
X179133966Y-51707401D01*
X178875986Y-51845294D01*
X178649866Y-52030866D01*
X178464294Y-52256986D01*
X178435000Y-52311791D01*
X178405706Y-52256986D01*
X178220134Y-52030866D01*
X177994014Y-51845294D01*
X177736034Y-51707401D01*
X177456111Y-51622487D01*
X177237950Y-51601000D01*
X177092050Y-51601000D01*
X176873889Y-51622487D01*
X176593966Y-51707401D01*
X176335986Y-51845294D01*
X176109866Y-52030866D01*
X175924294Y-52256986D01*
X175895000Y-52311791D01*
X175865706Y-52256986D01*
X175680134Y-52030866D01*
X175454014Y-51845294D01*
X175196034Y-51707401D01*
X174916111Y-51622487D01*
X174697950Y-51601000D01*
X174552050Y-51601000D01*
X174333889Y-51622487D01*
X174053966Y-51707401D01*
X173795986Y-51845294D01*
X173569866Y-52030866D01*
X173545393Y-52060687D01*
X173524502Y-51991820D01*
X173465537Y-51881506D01*
X173386185Y-51784815D01*
X173289494Y-51705463D01*
X173179180Y-51646498D01*
X173059482Y-51610188D01*
X172935000Y-51597928D01*
X171235000Y-51597928D01*
X171110518Y-51610188D01*
X170990820Y-51646498D01*
X170880506Y-51705463D01*
X170783815Y-51784815D01*
X170704463Y-51881506D01*
X170645498Y-51991820D01*
X170619962Y-52076000D01*
X170534608Y-52076000D01*
X170485000Y-52071114D01*
X170287005Y-52090615D01*
X170162238Y-52128463D01*
X170096620Y-52148368D01*
X169921160Y-52242153D01*
X169767367Y-52368367D01*
X169735743Y-52406901D01*
X169119901Y-53022744D01*
X169081368Y-53054367D01*
X169049745Y-53092900D01*
X169049744Y-53092901D01*
X168955154Y-53208160D01*
X168861368Y-53383621D01*
X168803615Y-53574006D01*
X168784114Y-53772000D01*
X168789001Y-53821618D01*
X168789000Y-56862981D01*
X168697815Y-56937815D01*
X168618463Y-57034506D01*
X168559498Y-57144820D01*
X168523188Y-57264518D01*
X168510928Y-57389000D01*
X168510928Y-57746172D01*
X168494619Y-57664179D01*
X168397753Y-57430324D01*
X168257125Y-57219860D01*
X168078140Y-57040875D01*
X167867676Y-56900247D01*
X167633821Y-56803381D01*
X167406526Y-56758170D01*
X164090261Y-53441906D01*
X164058633Y-53403367D01*
X163904840Y-53277153D01*
X163729380Y-53183368D01*
X163538994Y-53125615D01*
X163390608Y-53111000D01*
X163341000Y-53106114D01*
X163291392Y-53111000D01*
X157786166Y-53111000D01*
X157718494Y-53055463D01*
X157608180Y-52996498D01*
X157488482Y-52960188D01*
X157364000Y-52947928D01*
X155564000Y-52947928D01*
X155439518Y-52960188D01*
X155319820Y-52996498D01*
X155209506Y-53055463D01*
X155112815Y-53134815D01*
X155033463Y-53231506D01*
X154974498Y-53341820D01*
X154938188Y-53461518D01*
X154925928Y-53586000D01*
X154925928Y-54335000D01*
X129937708Y-54335000D01*
X129875185Y-54258815D01*
X129778494Y-54179463D01*
X129668180Y-54120498D01*
X129548482Y-54084188D01*
X129424000Y-54071928D01*
X127624000Y-54071928D01*
X127499518Y-54084188D01*
X127379820Y-54120498D01*
X127269506Y-54179463D01*
X127172815Y-54258815D01*
X127093463Y-54355506D01*
X127034498Y-54465820D01*
X126998188Y-54585518D01*
X126985928Y-54710000D01*
X126985928Y-55728983D01*
X126955298Y-55732000D01*
X126955296Y-55732000D01*
X126821609Y-55745167D01*
X126650073Y-55797202D01*
X126491984Y-55881702D01*
X126447187Y-55918466D01*
X126353419Y-55995419D01*
X126324918Y-56030149D01*
X124610149Y-57744918D01*
X124575420Y-57773419D01*
X124510800Y-57852160D01*
X124461702Y-57911985D01*
X124377202Y-58070074D01*
X124325168Y-58241609D01*
X124307597Y-58420000D01*
X124312001Y-58464712D01*
X124312001Y-60321928D01*
X123063000Y-60321928D01*
X122938518Y-60334188D01*
X122818820Y-60370498D01*
X122708506Y-60429463D01*
X122611815Y-60508815D01*
X122532463Y-60605506D01*
X122473498Y-60715820D01*
X122437188Y-60835518D01*
X122424928Y-60960000D01*
X119507000Y-60960000D01*
X119507000Y-49149000D01*
X209931000Y-49149000D01*
X209931000Y-91313000D01*
G04 #@! TD*
M02*
