G04 #@! TF.GenerationSoftware,KiCad,Pcbnew,(6.0.0-rc1-dev-689-g9e828e0d9)*
G04 #@! TF.CreationDate,2019-01-24T19:25:53+01:00*
G04 #@! TF.ProjectId,Mainboard_3.0,4D61696E626F6172645F332E302E6B69,rev?*
G04 #@! TF.SameCoordinates,Original*
G04 #@! TF.FileFunction,Copper,L2,Bot,Signal*
G04 #@! TF.FilePolarity,Positive*
%FSLAX46Y46*%
G04 Gerber Fmt 4.6, Leading zero omitted, Abs format (unit mm)*
G04 Created by KiCad (PCBNEW (6.0.0-rc1-dev-689-g9e828e0d9)) date 01/24/19 19:25:53*
%MOMM*%
%LPD*%
G01*
G04 APERTURE LIST*
G04 #@! TA.AperFunction,SMDPad,CuDef*
%ADD10R,4.400000X3.300000*%
G04 #@! TD*
G04 #@! TA.AperFunction,SMDPad,CuDef*
%ADD11R,6.200000X3.900000*%
G04 #@! TD*
G04 #@! TA.AperFunction,ComponentPad*
%ADD12R,1.300000X1.300000*%
G04 #@! TD*
G04 #@! TA.AperFunction,ComponentPad*
%ADD13C,1.300000*%
G04 #@! TD*
G04 #@! TA.AperFunction,ComponentPad*
%ADD14O,1.700000X1.700000*%
G04 #@! TD*
G04 #@! TA.AperFunction,ComponentPad*
%ADD15R,1.700000X1.700000*%
G04 #@! TD*
G04 #@! TA.AperFunction,SMDPad,CuDef*
%ADD16R,3.510000X2.540000*%
G04 #@! TD*
G04 #@! TA.AperFunction,ComponentPad*
%ADD17C,2.540000*%
G04 #@! TD*
G04 #@! TA.AperFunction,SMDPad,CuDef*
%ADD18R,1.800000X1.070000*%
G04 #@! TD*
G04 #@! TA.AperFunction,SMDPad,CuDef*
%ADD19R,2.400000X2.060000*%
G04 #@! TD*
G04 #@! TA.AperFunction,SMDPad,CuDef*
%ADD20R,2.500000X1.800000*%
G04 #@! TD*
G04 #@! TA.AperFunction,SMDPad,CuDef*
%ADD21R,1.800000X2.500000*%
G04 #@! TD*
G04 #@! TA.AperFunction,SMDPad,CuDef*
%ADD22R,1.500000X2.000000*%
G04 #@! TD*
G04 #@! TA.AperFunction,SMDPad,CuDef*
%ADD23R,3.800000X2.000000*%
G04 #@! TD*
G04 #@! TA.AperFunction,SMDPad,CuDef*
%ADD24R,2.200000X6.500000*%
G04 #@! TD*
G04 #@! TA.AperFunction,ComponentPad*
%ADD25C,1.000000*%
G04 #@! TD*
G04 #@! TA.AperFunction,ViaPad*
%ADD26C,0.800000*%
G04 #@! TD*
G04 #@! TA.AperFunction,Conductor*
%ADD27C,0.550000*%
G04 #@! TD*
G04 #@! TA.AperFunction,Conductor*
%ADD28C,0.750000*%
G04 #@! TD*
G04 #@! TA.AperFunction,Conductor*
%ADD29C,0.254000*%
G04 #@! TD*
G04 APERTURE END LIST*
D10*
G04 #@! TO.P,J3,1*
G04 #@! TO.N,Net-(D1-Pad1)*
X135314483Y-67880000D03*
D11*
G04 #@! TO.P,J3,2*
G04 #@! TO.N,GND*
X126314483Y-75030000D03*
G04 #@! TO.P,J3,3*
X126314483Y-62130000D03*
G04 #@! TD*
D12*
G04 #@! TO.P,Q2,1*
G04 #@! TO.N,Net-(J8-Pad2)*
X172847000Y-58737500D03*
D13*
G04 #@! TO.P,Q2,3*
G04 #@! TO.N,GPIO0*
X175387000Y-58737500D03*
G04 #@! TO.P,Q2,2*
G04 #@! TO.N,Net-(Q2-Pad2)*
X174117000Y-57467500D03*
G04 #@! TD*
D12*
G04 #@! TO.P,Q1,1*
G04 #@! TO.N,Net-(J8-Pad1)*
X169799000Y-58039000D03*
D13*
G04 #@! TO.P,Q1,3*
G04 #@! TO.N,Net-(Q1-Pad3)*
X167259000Y-58039000D03*
G04 #@! TO.P,Q1,2*
G04 #@! TO.N,Net-(Q1-Pad2)*
X168529000Y-59309000D03*
G04 #@! TD*
D14*
G04 #@! TO.P,J4,11*
G04 #@! TO.N,Net-(J4-Pad11)*
X91440000Y-58420000D03*
G04 #@! TO.P,J4,10*
G04 #@! TO.N,Net-(J4-Pad10)*
X91440000Y-60960000D03*
G04 #@! TO.P,J4,9*
G04 #@! TO.N,Net-(J4-Pad9)*
X91440000Y-63500000D03*
G04 #@! TO.P,J4,8*
G04 #@! TO.N,Net-(J4-Pad8)*
X91440000Y-66040000D03*
G04 #@! TO.P,J4,7*
G04 #@! TO.N,Net-(J4-Pad7)*
X91440000Y-68580000D03*
G04 #@! TO.P,J4,6*
G04 #@! TO.N,Net-(J4-Pad6)*
X91440000Y-71120000D03*
G04 #@! TO.P,J4,5*
G04 #@! TO.N,Net-(J4-Pad5)*
X91440000Y-73660000D03*
G04 #@! TO.P,J4,4*
G04 #@! TO.N,Net-(J4-Pad4)*
X91440000Y-76200000D03*
G04 #@! TO.P,J4,3*
G04 #@! TO.N,Net-(J4-Pad3)*
X91440000Y-78740000D03*
G04 #@! TO.P,J4,2*
G04 #@! TO.N,Net-(J4-Pad2)*
X91440000Y-81280000D03*
D15*
G04 #@! TO.P,J4,1*
G04 #@! TO.N,Net-(J4-Pad1)*
X91440000Y-83820000D03*
G04 #@! TD*
D16*
G04 #@! TO.P,BT1,2*
G04 #@! TO.N,GND*
X197612000Y-83208000D03*
D17*
G04 #@! TO.P,BT1,1*
G04 #@! TO.N,Net-(BT1-Pad1)*
X197612000Y-53848000D03*
G04 #@! TD*
D18*
G04 #@! TO.P,C3,2*
G04 #@! TO.N,GND*
X149580483Y-71214932D03*
G04 #@! TO.P,C3,1*
G04 #@! TO.N,Net-(C3-Pad1)*
X149580483Y-68204932D03*
G04 #@! TD*
G04 #@! TO.P,C6,2*
G04 #@! TO.N,GND*
X165328483Y-70471932D03*
G04 #@! TO.P,C6,1*
G04 #@! TO.N,3v3*
X165328483Y-67461932D03*
G04 #@! TD*
D19*
G04 #@! TO.P,C4,2*
G04 #@! TO.N,GND*
X146024483Y-72208932D03*
G04 #@! TO.P,C4,1*
G04 #@! TO.N,Net-(C3-Pad1)*
X146024483Y-67248932D03*
G04 #@! TD*
G04 #@! TO.P,C5,2*
G04 #@! TO.N,GND*
X162026483Y-72462932D03*
G04 #@! TO.P,C5,1*
G04 #@! TO.N,3v3*
X162026483Y-67502932D03*
G04 #@! TD*
D14*
G04 #@! TO.P,J8,5*
G04 #@! TO.N,GND*
X182245000Y-53086000D03*
G04 #@! TO.P,J8,4*
G04 #@! TO.N,TX*
X179705000Y-53086000D03*
G04 #@! TO.P,J8,3*
G04 #@! TO.N,RX*
X177165000Y-53086000D03*
G04 #@! TO.P,J8,2*
G04 #@! TO.N,Net-(J8-Pad2)*
X174625000Y-53086000D03*
D15*
G04 #@! TO.P,J8,1*
G04 #@! TO.N,Net-(J8-Pad1)*
X172085000Y-53086000D03*
G04 #@! TD*
D14*
G04 #@! TO.P,J1,11*
G04 #@! TO.N,Net-(J1-Pad11)*
X63500000Y-58420000D03*
G04 #@! TO.P,J1,10*
G04 #@! TO.N,Net-(J1-Pad10)*
X63500000Y-60960000D03*
G04 #@! TO.P,J1,9*
G04 #@! TO.N,Net-(J1-Pad9)*
X63500000Y-63500000D03*
G04 #@! TO.P,J1,8*
G04 #@! TO.N,Net-(J1-Pad8)*
X63500000Y-66040000D03*
G04 #@! TO.P,J1,7*
G04 #@! TO.N,Net-(J1-Pad7)*
X63500000Y-68580000D03*
G04 #@! TO.P,J1,6*
G04 #@! TO.N,Net-(J1-Pad6)*
X63500000Y-71120000D03*
G04 #@! TO.P,J1,5*
G04 #@! TO.N,Net-(J1-Pad5)*
X63500000Y-73660000D03*
G04 #@! TO.P,J1,4*
G04 #@! TO.N,Net-(J1-Pad4)*
X63500000Y-76200000D03*
G04 #@! TO.P,J1,3*
G04 #@! TO.N,Net-(J1-Pad3)*
X63500000Y-78740000D03*
G04 #@! TO.P,J1,2*
G04 #@! TO.N,Net-(J1-Pad2)*
X63500000Y-81280000D03*
D15*
G04 #@! TO.P,J1,1*
G04 #@! TO.N,Net-(J1-Pad1)*
X63500000Y-83820000D03*
G04 #@! TD*
D20*
G04 #@! TO.P,D2,2*
G04 #@! TO.N,Net-(D1-Pad1)*
X139928483Y-61346932D03*
G04 #@! TO.P,D2,1*
G04 #@! TO.N,Net-(C3-Pad1)*
X143928483Y-61346932D03*
G04 #@! TD*
G04 #@! TO.P,D3,2*
G04 #@! TO.N,3v3*
X151866483Y-61346932D03*
G04 #@! TO.P,D3,1*
G04 #@! TO.N,Net-(C3-Pad1)*
X147866483Y-61346932D03*
G04 #@! TD*
D21*
G04 #@! TO.P,D1,2*
G04 #@! TO.N,GND*
X140436483Y-71760932D03*
G04 #@! TO.P,D1,1*
G04 #@! TO.N,Net-(D1-Pad1)*
X140436483Y-67760932D03*
G04 #@! TD*
D22*
G04 #@! TO.P,U2,1*
G04 #@! TO.N,GND*
X157976483Y-72878932D03*
G04 #@! TO.P,U2,3*
G04 #@! TO.N,Net-(C3-Pad1)*
X153376483Y-72878932D03*
G04 #@! TO.P,U2,2*
G04 #@! TO.N,3v3*
X155676483Y-72878932D03*
D23*
X155676483Y-66578932D03*
G04 #@! TD*
D24*
G04 #@! TO.P,Y1,3*
G04 #@! TO.N,N/C*
X184912000Y-62992000D03*
D25*
G04 #@! TO.P,Y1,2*
G04 #@! TO.N,Net-(U3-Pad2)*
X183962000Y-57242000D03*
G04 #@! TO.P,Y1,1*
G04 #@! TO.N,Net-(U3-Pad1)*
X185862000Y-57242000D03*
G04 #@! TD*
D26*
G04 #@! TO.N,GND*
X138430000Y-58928000D03*
X165862000Y-63500000D03*
G04 #@! TO.N,3v3*
X191008000Y-72644000D03*
X174244000Y-73660000D03*
X166116000Y-76200000D03*
X136017000Y-58801000D03*
G04 #@! TD*
D27*
G04 #@! TO.N,GND*
X140436483Y-71760932D02*
X145576483Y-71760932D01*
X145576483Y-71760932D02*
X146024483Y-72208932D01*
D28*
G04 #@! TO.N,3v3*
X174244000Y-76200000D02*
X174244000Y-74676000D01*
X174244000Y-74676000D02*
X174244000Y-73660000D01*
X174244000Y-74676000D02*
X188976000Y-74676000D01*
X188976000Y-74676000D02*
X191008000Y-72644000D01*
X172720000Y-77724000D02*
X174244000Y-76200000D01*
X166116000Y-77724000D02*
X172720000Y-77724000D01*
X166116000Y-77724000D02*
X166116000Y-76200000D01*
X158771551Y-77724000D02*
X166116000Y-77724000D01*
X155676483Y-72878932D02*
X155676483Y-74628932D01*
X155676483Y-74628932D02*
X158771551Y-77724000D01*
D27*
X136017000Y-58293000D02*
X136017000Y-58801000D01*
X136652000Y-57658000D02*
X136017000Y-58293000D01*
X149627551Y-57658000D02*
X136652000Y-57658000D01*
X151866483Y-61346932D02*
X151866483Y-59896932D01*
X151866483Y-59896932D02*
X149627551Y-57658000D01*
X162026483Y-67502932D02*
X165287483Y-67502932D01*
X165287483Y-67502932D02*
X165328483Y-67461932D01*
X155676483Y-66578932D02*
X161102483Y-66578932D01*
X161102483Y-66578932D02*
X162026483Y-67502932D01*
X152882483Y-61346932D02*
X155676483Y-64140932D01*
X151866483Y-61346932D02*
X152882483Y-61346932D01*
X155676483Y-64140932D02*
X155676483Y-66578932D01*
X155676483Y-72878932D02*
X155676483Y-71328932D01*
X155676483Y-71328932D02*
X155676483Y-66578932D01*
G04 #@! TO.N,Net-(C3-Pad1)*
X146050000Y-64918449D02*
X146024483Y-64943966D01*
X146024483Y-64943966D02*
X146024483Y-67248932D01*
X143928483Y-61346932D02*
X143928483Y-62796932D01*
X143928483Y-62796932D02*
X146050000Y-64918449D01*
X149580483Y-68204932D02*
X151030483Y-68204932D01*
X151030483Y-68204932D02*
X153376483Y-70550932D01*
X153376483Y-70550932D02*
X153376483Y-71328932D01*
X153376483Y-71328932D02*
X153376483Y-72878932D01*
X146024483Y-67248932D02*
X148624483Y-67248932D01*
X148624483Y-67248932D02*
X149580483Y-68204932D01*
X147866483Y-61346932D02*
X143928483Y-61346932D01*
G04 #@! TO.N,Net-(D1-Pad1)*
X135314483Y-67758932D02*
X140434483Y-67758932D01*
X140434483Y-67758932D02*
X140436483Y-67760932D01*
X139928483Y-61346932D02*
X139928483Y-67252932D01*
X139928483Y-67252932D02*
X140436483Y-67760932D01*
G04 #@! TD*
D29*
G04 #@! TO.N,GND*
G36*
X209931000Y-91313000D02*
X119507000Y-91313000D01*
X119507000Y-83493750D01*
X195222000Y-83493750D01*
X195222000Y-84540542D01*
X195246403Y-84663223D01*
X195294270Y-84778785D01*
X195363763Y-84882789D01*
X195452211Y-84971237D01*
X195556215Y-85040730D01*
X195671777Y-85088597D01*
X195794458Y-85113000D01*
X197326250Y-85113000D01*
X197485000Y-84954250D01*
X197485000Y-83335000D01*
X197739000Y-83335000D01*
X197739000Y-84954250D01*
X197897750Y-85113000D01*
X199429542Y-85113000D01*
X199552223Y-85088597D01*
X199667785Y-85040730D01*
X199771789Y-84971237D01*
X199860237Y-84882789D01*
X199929730Y-84778785D01*
X199977597Y-84663223D01*
X200002000Y-84540542D01*
X200002000Y-83493750D01*
X199843250Y-83335000D01*
X197739000Y-83335000D01*
X197485000Y-83335000D01*
X195380750Y-83335000D01*
X195222000Y-83493750D01*
X119507000Y-83493750D01*
X119507000Y-81875458D01*
X195222000Y-81875458D01*
X195222000Y-82922250D01*
X195380750Y-83081000D01*
X197485000Y-83081000D01*
X197485000Y-81461750D01*
X197739000Y-81461750D01*
X197739000Y-83081000D01*
X199843250Y-83081000D01*
X200002000Y-82922250D01*
X200002000Y-81875458D01*
X199977597Y-81752777D01*
X199929730Y-81637215D01*
X199860237Y-81533211D01*
X199771789Y-81444763D01*
X199667785Y-81375270D01*
X199552223Y-81327403D01*
X199429542Y-81303000D01*
X197897750Y-81303000D01*
X197739000Y-81461750D01*
X197485000Y-81461750D01*
X197326250Y-81303000D01*
X195794458Y-81303000D01*
X195671777Y-81327403D01*
X195556215Y-81375270D01*
X195452211Y-81444763D01*
X195363763Y-81533211D01*
X195294270Y-81637215D01*
X195246403Y-81752777D01*
X195222000Y-81875458D01*
X119507000Y-81875458D01*
X119507000Y-75315750D01*
X122579483Y-75315750D01*
X122579483Y-77042542D01*
X122603886Y-77165223D01*
X122651753Y-77280785D01*
X122721246Y-77384789D01*
X122809694Y-77473237D01*
X122913698Y-77542730D01*
X123029260Y-77590597D01*
X123151941Y-77615000D01*
X126028733Y-77615000D01*
X126187483Y-77456250D01*
X126187483Y-75157000D01*
X126441483Y-75157000D01*
X126441483Y-77456250D01*
X126600233Y-77615000D01*
X129477025Y-77615000D01*
X129599706Y-77590597D01*
X129715268Y-77542730D01*
X129819272Y-77473237D01*
X129907720Y-77384789D01*
X129977213Y-77280785D01*
X130025080Y-77165223D01*
X130049483Y-77042542D01*
X130049483Y-75315750D01*
X129890733Y-75157000D01*
X126441483Y-75157000D01*
X126187483Y-75157000D01*
X122738233Y-75157000D01*
X122579483Y-75315750D01*
X119507000Y-75315750D01*
X119507000Y-73017458D01*
X122579483Y-73017458D01*
X122579483Y-74744250D01*
X122738233Y-74903000D01*
X126187483Y-74903000D01*
X126187483Y-72603750D01*
X126441483Y-72603750D01*
X126441483Y-74903000D01*
X129890733Y-74903000D01*
X130049483Y-74744250D01*
X130049483Y-73017458D01*
X130025080Y-72894777D01*
X129977213Y-72779215D01*
X129907720Y-72675211D01*
X129819272Y-72586763D01*
X129715268Y-72517270D01*
X129599706Y-72469403D01*
X129477025Y-72445000D01*
X126600233Y-72445000D01*
X126441483Y-72603750D01*
X126187483Y-72603750D01*
X126028733Y-72445000D01*
X123151941Y-72445000D01*
X123029260Y-72469403D01*
X122913698Y-72517270D01*
X122809694Y-72586763D01*
X122721246Y-72675211D01*
X122651753Y-72779215D01*
X122603886Y-72894777D01*
X122579483Y-73017458D01*
X119507000Y-73017458D01*
X119507000Y-72046682D01*
X138901483Y-72046682D01*
X138901483Y-73073474D01*
X138925886Y-73196155D01*
X138973753Y-73311717D01*
X139043246Y-73415721D01*
X139131694Y-73504169D01*
X139235698Y-73573662D01*
X139351260Y-73621529D01*
X139473941Y-73645932D01*
X140150733Y-73645932D01*
X140309483Y-73487182D01*
X140309483Y-71887932D01*
X140563483Y-71887932D01*
X140563483Y-73487182D01*
X140722233Y-73645932D01*
X141399025Y-73645932D01*
X141521706Y-73621529D01*
X141637268Y-73573662D01*
X141741272Y-73504169D01*
X141829720Y-73415721D01*
X141899213Y-73311717D01*
X141947080Y-73196155D01*
X141971483Y-73073474D01*
X141971483Y-72494682D01*
X144189483Y-72494682D01*
X144189483Y-73301474D01*
X144213886Y-73424155D01*
X144261753Y-73539717D01*
X144331246Y-73643721D01*
X144419694Y-73732169D01*
X144523698Y-73801662D01*
X144639260Y-73849529D01*
X144761941Y-73873932D01*
X145738733Y-73873932D01*
X145897483Y-73715182D01*
X145897483Y-72335932D01*
X146151483Y-72335932D01*
X146151483Y-73715182D01*
X146310233Y-73873932D01*
X147287025Y-73873932D01*
X147409706Y-73849529D01*
X147525268Y-73801662D01*
X147629272Y-73732169D01*
X147717720Y-73643721D01*
X147787213Y-73539717D01*
X147835080Y-73424155D01*
X147859483Y-73301474D01*
X147859483Y-72494682D01*
X147700733Y-72335932D01*
X146151483Y-72335932D01*
X145897483Y-72335932D01*
X144348233Y-72335932D01*
X144189483Y-72494682D01*
X141971483Y-72494682D01*
X141971483Y-72046682D01*
X141812733Y-71887932D01*
X140563483Y-71887932D01*
X140309483Y-71887932D01*
X139060233Y-71887932D01*
X138901483Y-72046682D01*
X119507000Y-72046682D01*
X119507000Y-70448390D01*
X138901483Y-70448390D01*
X138901483Y-71475182D01*
X139060233Y-71633932D01*
X140309483Y-71633932D01*
X140309483Y-70034682D01*
X140563483Y-70034682D01*
X140563483Y-71633932D01*
X141812733Y-71633932D01*
X141971483Y-71475182D01*
X141971483Y-71116390D01*
X144189483Y-71116390D01*
X144189483Y-71923182D01*
X144348233Y-72081932D01*
X145897483Y-72081932D01*
X145897483Y-70702682D01*
X146151483Y-70702682D01*
X146151483Y-72081932D01*
X147700733Y-72081932D01*
X147859483Y-71923182D01*
X147859483Y-71500682D01*
X148045483Y-71500682D01*
X148045483Y-71812474D01*
X148069886Y-71935155D01*
X148117753Y-72050717D01*
X148187246Y-72154721D01*
X148275694Y-72243169D01*
X148379698Y-72312662D01*
X148495260Y-72360529D01*
X148617941Y-72384932D01*
X149294733Y-72384932D01*
X149453483Y-72226182D01*
X149453483Y-71341932D01*
X149707483Y-71341932D01*
X149707483Y-72226182D01*
X149866233Y-72384932D01*
X150543025Y-72384932D01*
X150665706Y-72360529D01*
X150781268Y-72312662D01*
X150885272Y-72243169D01*
X150973720Y-72154721D01*
X151043213Y-72050717D01*
X151091080Y-71935155D01*
X151115483Y-71812474D01*
X151115483Y-71500682D01*
X150956733Y-71341932D01*
X149707483Y-71341932D01*
X149453483Y-71341932D01*
X148204233Y-71341932D01*
X148045483Y-71500682D01*
X147859483Y-71500682D01*
X147859483Y-71116390D01*
X147835080Y-70993709D01*
X147787213Y-70878147D01*
X147717720Y-70774143D01*
X147629272Y-70685695D01*
X147527046Y-70617390D01*
X148045483Y-70617390D01*
X148045483Y-70929182D01*
X148204233Y-71087932D01*
X149453483Y-71087932D01*
X149453483Y-70203682D01*
X149707483Y-70203682D01*
X149707483Y-71087932D01*
X150956733Y-71087932D01*
X151115483Y-70929182D01*
X151115483Y-70617390D01*
X151091080Y-70494709D01*
X151043213Y-70379147D01*
X150973720Y-70275143D01*
X150885272Y-70186695D01*
X150781268Y-70117202D01*
X150665706Y-70069335D01*
X150543025Y-70044932D01*
X149866233Y-70044932D01*
X149707483Y-70203682D01*
X149453483Y-70203682D01*
X149294733Y-70044932D01*
X148617941Y-70044932D01*
X148495260Y-70069335D01*
X148379698Y-70117202D01*
X148275694Y-70186695D01*
X148187246Y-70275143D01*
X148117753Y-70379147D01*
X148069886Y-70494709D01*
X148045483Y-70617390D01*
X147527046Y-70617390D01*
X147525268Y-70616202D01*
X147409706Y-70568335D01*
X147287025Y-70543932D01*
X146310233Y-70543932D01*
X146151483Y-70702682D01*
X145897483Y-70702682D01*
X145738733Y-70543932D01*
X144761941Y-70543932D01*
X144639260Y-70568335D01*
X144523698Y-70616202D01*
X144419694Y-70685695D01*
X144331246Y-70774143D01*
X144261753Y-70878147D01*
X144213886Y-70993709D01*
X144189483Y-71116390D01*
X141971483Y-71116390D01*
X141971483Y-70448390D01*
X141947080Y-70325709D01*
X141899213Y-70210147D01*
X141829720Y-70106143D01*
X141741272Y-70017695D01*
X141637268Y-69948202D01*
X141521706Y-69900335D01*
X141399025Y-69875932D01*
X140722233Y-69875932D01*
X140563483Y-70034682D01*
X140309483Y-70034682D01*
X140150733Y-69875932D01*
X139473941Y-69875932D01*
X139351260Y-69900335D01*
X139235698Y-69948202D01*
X139131694Y-70017695D01*
X139043246Y-70106143D01*
X138973753Y-70210147D01*
X138925886Y-70325709D01*
X138901483Y-70448390D01*
X119507000Y-70448390D01*
X119507000Y-68418967D01*
X120879483Y-68418967D01*
X120879483Y-68741033D01*
X120942315Y-69056912D01*
X121065565Y-69354463D01*
X121244496Y-69622252D01*
X121472231Y-69849987D01*
X121740020Y-70028918D01*
X122037571Y-70152168D01*
X122353450Y-70215000D01*
X122675516Y-70215000D01*
X122991395Y-70152168D01*
X123288946Y-70028918D01*
X123556735Y-69849987D01*
X123784470Y-69622252D01*
X123963401Y-69354463D01*
X124086651Y-69056912D01*
X124149483Y-68741033D01*
X124149483Y-68418967D01*
X124086651Y-68103088D01*
X123963401Y-67805537D01*
X123784470Y-67537748D01*
X123556735Y-67310013D01*
X123288946Y-67131082D01*
X122991395Y-67007832D01*
X122675516Y-66945000D01*
X122353450Y-66945000D01*
X122037571Y-67007832D01*
X121740020Y-67131082D01*
X121472231Y-67310013D01*
X121244496Y-67537748D01*
X121065565Y-67805537D01*
X120942315Y-68103088D01*
X120879483Y-68418967D01*
X119507000Y-68418967D01*
X119507000Y-66230000D01*
X132476411Y-66230000D01*
X132476411Y-69530000D01*
X132488671Y-69654482D01*
X132524981Y-69774180D01*
X132583946Y-69884494D01*
X132663298Y-69981185D01*
X132759989Y-70060537D01*
X132870303Y-70119502D01*
X132990001Y-70155812D01*
X133114483Y-70168072D01*
X137514483Y-70168072D01*
X137638965Y-70155812D01*
X137758663Y-70119502D01*
X137868977Y-70060537D01*
X137965668Y-69981185D01*
X138045020Y-69884494D01*
X138103985Y-69774180D01*
X138140295Y-69654482D01*
X138152555Y-69530000D01*
X138152555Y-68668932D01*
X138898411Y-68668932D01*
X138898411Y-69010932D01*
X138910671Y-69135414D01*
X138946981Y-69255112D01*
X139005946Y-69365426D01*
X139085298Y-69462117D01*
X139181989Y-69541469D01*
X139292303Y-69600434D01*
X139412001Y-69636744D01*
X139536483Y-69649004D01*
X141336483Y-69649004D01*
X141460965Y-69636744D01*
X141580663Y-69600434D01*
X141690977Y-69541469D01*
X141787668Y-69462117D01*
X141867020Y-69365426D01*
X141925985Y-69255112D01*
X141962295Y-69135414D01*
X141974555Y-69010932D01*
X141974555Y-66510932D01*
X141962295Y-66386450D01*
X141925985Y-66266752D01*
X141867020Y-66156438D01*
X141787668Y-66059747D01*
X141690977Y-65980395D01*
X141580663Y-65921430D01*
X141460965Y-65885120D01*
X141336483Y-65872860D01*
X140838483Y-65872860D01*
X140838483Y-62885004D01*
X141178483Y-62885004D01*
X141302965Y-62872744D01*
X141422663Y-62836434D01*
X141532977Y-62777469D01*
X141629668Y-62698117D01*
X141709020Y-62601426D01*
X141767985Y-62491112D01*
X141804295Y-62371414D01*
X141816555Y-62246932D01*
X141816555Y-60446932D01*
X141804295Y-60322450D01*
X141767985Y-60202752D01*
X141709020Y-60092438D01*
X141629668Y-59995747D01*
X141532977Y-59916395D01*
X141422663Y-59857430D01*
X141302965Y-59821120D01*
X141178483Y-59808860D01*
X138678483Y-59808860D01*
X138554001Y-59821120D01*
X138434303Y-59857430D01*
X138323989Y-59916395D01*
X138227298Y-59995747D01*
X138147946Y-60092438D01*
X138088981Y-60202752D01*
X138052671Y-60322450D01*
X138040411Y-60446932D01*
X138040411Y-62246932D01*
X138052671Y-62371414D01*
X138088981Y-62491112D01*
X138147946Y-62601426D01*
X138227298Y-62698117D01*
X138323989Y-62777469D01*
X138434303Y-62836434D01*
X138554001Y-62872744D01*
X138678483Y-62885004D01*
X139018483Y-62885004D01*
X139018484Y-66141161D01*
X139005946Y-66156438D01*
X138946981Y-66266752D01*
X138910671Y-66386450D01*
X138898411Y-66510932D01*
X138898411Y-66848932D01*
X138152555Y-66848932D01*
X138152555Y-66230000D01*
X138140295Y-66105518D01*
X138103985Y-65985820D01*
X138045020Y-65875506D01*
X137965668Y-65778815D01*
X137868977Y-65699463D01*
X137758663Y-65640498D01*
X137638965Y-65604188D01*
X137514483Y-65591928D01*
X133114483Y-65591928D01*
X132990001Y-65604188D01*
X132870303Y-65640498D01*
X132759989Y-65699463D01*
X132663298Y-65778815D01*
X132583946Y-65875506D01*
X132524981Y-65985820D01*
X132488671Y-66105518D01*
X132476411Y-66230000D01*
X119507000Y-66230000D01*
X119507000Y-62415750D01*
X122579483Y-62415750D01*
X122579483Y-64142542D01*
X122603886Y-64265223D01*
X122651753Y-64380785D01*
X122721246Y-64484789D01*
X122809694Y-64573237D01*
X122913698Y-64642730D01*
X123029260Y-64690597D01*
X123151941Y-64715000D01*
X126028733Y-64715000D01*
X126187483Y-64556250D01*
X126187483Y-62257000D01*
X126441483Y-62257000D01*
X126441483Y-64556250D01*
X126600233Y-64715000D01*
X129477025Y-64715000D01*
X129599706Y-64690597D01*
X129715268Y-64642730D01*
X129819272Y-64573237D01*
X129907720Y-64484789D01*
X129977213Y-64380785D01*
X130025080Y-64265223D01*
X130049483Y-64142542D01*
X130049483Y-62415750D01*
X129890733Y-62257000D01*
X126441483Y-62257000D01*
X126187483Y-62257000D01*
X122738233Y-62257000D01*
X122579483Y-62415750D01*
X119507000Y-62415750D01*
X119507000Y-60117458D01*
X122579483Y-60117458D01*
X122579483Y-61844250D01*
X122738233Y-62003000D01*
X126187483Y-62003000D01*
X126187483Y-59703750D01*
X126441483Y-59703750D01*
X126441483Y-62003000D01*
X129890733Y-62003000D01*
X130049483Y-61844250D01*
X130049483Y-60117458D01*
X130025080Y-59994777D01*
X129977213Y-59879215D01*
X129907720Y-59775211D01*
X129819272Y-59686763D01*
X129715268Y-59617270D01*
X129599706Y-59569403D01*
X129477025Y-59545000D01*
X126600233Y-59545000D01*
X126441483Y-59703750D01*
X126187483Y-59703750D01*
X126028733Y-59545000D01*
X123151941Y-59545000D01*
X123029260Y-59569403D01*
X122913698Y-59617270D01*
X122809694Y-59686763D01*
X122721246Y-59775211D01*
X122651753Y-59879215D01*
X122603886Y-59994777D01*
X122579483Y-60117458D01*
X119507000Y-60117458D01*
X119507000Y-58699061D01*
X134982000Y-58699061D01*
X134982000Y-58902939D01*
X135021774Y-59102898D01*
X135099795Y-59291256D01*
X135213063Y-59460774D01*
X135357226Y-59604937D01*
X135526744Y-59718205D01*
X135715102Y-59796226D01*
X135915061Y-59836000D01*
X136118939Y-59836000D01*
X136318898Y-59796226D01*
X136507256Y-59718205D01*
X136676774Y-59604937D01*
X136820937Y-59460774D01*
X136934205Y-59291256D01*
X137012226Y-59102898D01*
X137052000Y-58902939D01*
X137052000Y-58699061D01*
X137026429Y-58570505D01*
X137028934Y-58568000D01*
X149250618Y-58568000D01*
X150502685Y-59820068D01*
X150492001Y-59821120D01*
X150372303Y-59857430D01*
X150261989Y-59916395D01*
X150165298Y-59995747D01*
X150085946Y-60092438D01*
X150026981Y-60202752D01*
X149990671Y-60322450D01*
X149978411Y-60446932D01*
X149978411Y-62246932D01*
X149990671Y-62371414D01*
X150026981Y-62491112D01*
X150085946Y-62601426D01*
X150165298Y-62698117D01*
X150261989Y-62777469D01*
X150372303Y-62836434D01*
X150492001Y-62872744D01*
X150616483Y-62885004D01*
X153116483Y-62885004D01*
X153132085Y-62883467D01*
X154766483Y-64517866D01*
X154766483Y-64940860D01*
X153776483Y-64940860D01*
X153652001Y-64953120D01*
X153532303Y-64989430D01*
X153421989Y-65048395D01*
X153325298Y-65127747D01*
X153245946Y-65224438D01*
X153186981Y-65334752D01*
X153150671Y-65454450D01*
X153138411Y-65578932D01*
X153138411Y-67578932D01*
X153150671Y-67703414D01*
X153186981Y-67823112D01*
X153245946Y-67933426D01*
X153325298Y-68030117D01*
X153421989Y-68109469D01*
X153532303Y-68168434D01*
X153652001Y-68204744D01*
X153776483Y-68217004D01*
X154766484Y-68217004D01*
X154766483Y-71263894D01*
X154682303Y-71289430D01*
X154571989Y-71348395D01*
X154526483Y-71385741D01*
X154480977Y-71348395D01*
X154370663Y-71289430D01*
X154286483Y-71263894D01*
X154286483Y-70595633D01*
X154290886Y-70550931D01*
X154280786Y-70448390D01*
X154273316Y-70372541D01*
X154221281Y-70201005D01*
X154177717Y-70119502D01*
X154136781Y-70042916D01*
X154086119Y-69981185D01*
X154023064Y-69904351D01*
X153988336Y-69875851D01*
X151705570Y-67593086D01*
X151677064Y-67558351D01*
X151538498Y-67444634D01*
X151380410Y-67360134D01*
X151208874Y-67308099D01*
X151075187Y-67294932D01*
X151075185Y-67294932D01*
X151030483Y-67290529D01*
X150993562Y-67294166D01*
X150931668Y-67218747D01*
X150834977Y-67139395D01*
X150724663Y-67080430D01*
X150604965Y-67044120D01*
X150480483Y-67031860D01*
X149694344Y-67031860D01*
X149299570Y-66637086D01*
X149271064Y-66602351D01*
X149132498Y-66488634D01*
X148974410Y-66404134D01*
X148802874Y-66352099D01*
X148669187Y-66338932D01*
X148669185Y-66338932D01*
X148624483Y-66334529D01*
X148579781Y-66338932D01*
X147862555Y-66338932D01*
X147862555Y-66218932D01*
X147850295Y-66094450D01*
X147813985Y-65974752D01*
X147755020Y-65864438D01*
X147675668Y-65767747D01*
X147578977Y-65688395D01*
X147468663Y-65629430D01*
X147348965Y-65593120D01*
X147224483Y-65580860D01*
X146934483Y-65580860D01*
X146934483Y-65137549D01*
X146946832Y-65096839D01*
X146952651Y-65037764D01*
X146964403Y-64918450D01*
X146951506Y-64787512D01*
X146946832Y-64740057D01*
X146894798Y-64568522D01*
X146810298Y-64410433D01*
X146725077Y-64306592D01*
X146725072Y-64306587D01*
X146696580Y-64271869D01*
X146661862Y-64243377D01*
X145292281Y-62873796D01*
X145302965Y-62872744D01*
X145422663Y-62836434D01*
X145532977Y-62777469D01*
X145629668Y-62698117D01*
X145709020Y-62601426D01*
X145767985Y-62491112D01*
X145804295Y-62371414D01*
X145815570Y-62256932D01*
X145979396Y-62256932D01*
X145990671Y-62371414D01*
X146026981Y-62491112D01*
X146085946Y-62601426D01*
X146165298Y-62698117D01*
X146261989Y-62777469D01*
X146372303Y-62836434D01*
X146492001Y-62872744D01*
X146616483Y-62885004D01*
X149116483Y-62885004D01*
X149240965Y-62872744D01*
X149360663Y-62836434D01*
X149470977Y-62777469D01*
X149567668Y-62698117D01*
X149647020Y-62601426D01*
X149705985Y-62491112D01*
X149742295Y-62371414D01*
X149754555Y-62246932D01*
X149754555Y-60446932D01*
X149742295Y-60322450D01*
X149705985Y-60202752D01*
X149647020Y-60092438D01*
X149567668Y-59995747D01*
X149470977Y-59916395D01*
X149360663Y-59857430D01*
X149240965Y-59821120D01*
X149116483Y-59808860D01*
X146616483Y-59808860D01*
X146492001Y-59821120D01*
X146372303Y-59857430D01*
X146261989Y-59916395D01*
X146165298Y-59995747D01*
X146085946Y-60092438D01*
X146026981Y-60202752D01*
X145990671Y-60322450D01*
X145979396Y-60436932D01*
X145815570Y-60436932D01*
X145804295Y-60322450D01*
X145767985Y-60202752D01*
X145709020Y-60092438D01*
X145629668Y-59995747D01*
X145532977Y-59916395D01*
X145422663Y-59857430D01*
X145302965Y-59821120D01*
X145178483Y-59808860D01*
X142678483Y-59808860D01*
X142554001Y-59821120D01*
X142434303Y-59857430D01*
X142323989Y-59916395D01*
X142227298Y-59995747D01*
X142147946Y-60092438D01*
X142088981Y-60202752D01*
X142052671Y-60322450D01*
X142040411Y-60446932D01*
X142040411Y-62246932D01*
X142052671Y-62371414D01*
X142088981Y-62491112D01*
X142147946Y-62601426D01*
X142227298Y-62698117D01*
X142323989Y-62777469D01*
X142434303Y-62836434D01*
X142554001Y-62872744D01*
X142678483Y-62885004D01*
X143022755Y-62885004D01*
X143031651Y-62975323D01*
X143083685Y-63146858D01*
X143168185Y-63304947D01*
X143216171Y-63363417D01*
X143281903Y-63443513D01*
X143316632Y-63472014D01*
X145114483Y-65269866D01*
X145114483Y-65580860D01*
X144824483Y-65580860D01*
X144700001Y-65593120D01*
X144580303Y-65629430D01*
X144469989Y-65688395D01*
X144373298Y-65767747D01*
X144293946Y-65864438D01*
X144234981Y-65974752D01*
X144198671Y-66094450D01*
X144186411Y-66218932D01*
X144186411Y-68278932D01*
X144198671Y-68403414D01*
X144234981Y-68523112D01*
X144293946Y-68633426D01*
X144373298Y-68730117D01*
X144469989Y-68809469D01*
X144580303Y-68868434D01*
X144700001Y-68904744D01*
X144824483Y-68917004D01*
X147224483Y-68917004D01*
X147348965Y-68904744D01*
X147468663Y-68868434D01*
X147578977Y-68809469D01*
X147675668Y-68730117D01*
X147755020Y-68633426D01*
X147813985Y-68523112D01*
X147850295Y-68403414D01*
X147862555Y-68278932D01*
X147862555Y-68158932D01*
X148042411Y-68158932D01*
X148042411Y-68739932D01*
X148054671Y-68864414D01*
X148090981Y-68984112D01*
X148149946Y-69094426D01*
X148229298Y-69191117D01*
X148325989Y-69270469D01*
X148436303Y-69329434D01*
X148556001Y-69365744D01*
X148680483Y-69378004D01*
X150480483Y-69378004D01*
X150604965Y-69365744D01*
X150724663Y-69329434D01*
X150818105Y-69279487D01*
X152466483Y-70927866D01*
X152466483Y-71263894D01*
X152382303Y-71289430D01*
X152271989Y-71348395D01*
X152175298Y-71427747D01*
X152095946Y-71524438D01*
X152036981Y-71634752D01*
X152000671Y-71754450D01*
X151988411Y-71878932D01*
X151988411Y-73878932D01*
X152000671Y-74003414D01*
X152036981Y-74123112D01*
X152095946Y-74233426D01*
X152175298Y-74330117D01*
X152271989Y-74409469D01*
X152382303Y-74468434D01*
X152502001Y-74504744D01*
X152626483Y-74517004D01*
X154126483Y-74517004D01*
X154250965Y-74504744D01*
X154370663Y-74468434D01*
X154480977Y-74409469D01*
X154526483Y-74372123D01*
X154571989Y-74409469D01*
X154666484Y-74459978D01*
X154666484Y-74579315D01*
X154661597Y-74628932D01*
X154681098Y-74826926D01*
X154738851Y-75017311D01*
X154832637Y-75192772D01*
X154906517Y-75282795D01*
X154958851Y-75346565D01*
X154997384Y-75378188D01*
X158022290Y-78403094D01*
X158053918Y-78441633D01*
X158207711Y-78567847D01*
X158383171Y-78661632D01*
X158573557Y-78719385D01*
X158721943Y-78734000D01*
X158721945Y-78734000D01*
X158771550Y-78738886D01*
X158821155Y-78734000D01*
X166066392Y-78734000D01*
X166116000Y-78738886D01*
X166165607Y-78734000D01*
X172670392Y-78734000D01*
X172720000Y-78738886D01*
X172917994Y-78719385D01*
X172917997Y-78719384D01*
X173108380Y-78661632D01*
X173283840Y-78567847D01*
X173437633Y-78441633D01*
X173469261Y-78403094D01*
X174923099Y-76949256D01*
X174961633Y-76917633D01*
X175087847Y-76763840D01*
X175181632Y-76588380D01*
X175239385Y-76397994D01*
X175254000Y-76249608D01*
X175254000Y-76249599D01*
X175258885Y-76200001D01*
X175254000Y-76150403D01*
X175254000Y-75686000D01*
X188926392Y-75686000D01*
X188976000Y-75690886D01*
X189173994Y-75671385D01*
X189290115Y-75636160D01*
X189364380Y-75613632D01*
X189539840Y-75519847D01*
X189693633Y-75393633D01*
X189725261Y-75355094D01*
X191561226Y-73519130D01*
X191667774Y-73447937D01*
X191811937Y-73303774D01*
X191925205Y-73134256D01*
X192003226Y-72945898D01*
X192043000Y-72745939D01*
X192043000Y-72542061D01*
X192003226Y-72342102D01*
X191925205Y-72153744D01*
X191811937Y-71984226D01*
X191667774Y-71840063D01*
X191498256Y-71726795D01*
X191309898Y-71648774D01*
X191109939Y-71609000D01*
X190906061Y-71609000D01*
X190706102Y-71648774D01*
X190517744Y-71726795D01*
X190348226Y-71840063D01*
X190204063Y-71984226D01*
X190132870Y-72090774D01*
X188557645Y-73666000D01*
X175279000Y-73666000D01*
X175279000Y-73558061D01*
X175239226Y-73358102D01*
X175161205Y-73169744D01*
X175047937Y-73000226D01*
X174903774Y-72856063D01*
X174734256Y-72742795D01*
X174545898Y-72664774D01*
X174345939Y-72625000D01*
X174142061Y-72625000D01*
X173942102Y-72664774D01*
X173753744Y-72742795D01*
X173584226Y-72856063D01*
X173440063Y-73000226D01*
X173326795Y-73169744D01*
X173248774Y-73358102D01*
X173209000Y-73558061D01*
X173209000Y-73761939D01*
X173234001Y-73887627D01*
X173234000Y-74626391D01*
X173229114Y-74676000D01*
X173234001Y-74725617D01*
X173234000Y-75781644D01*
X172301645Y-76714000D01*
X167126000Y-76714000D01*
X167126000Y-76427623D01*
X167151000Y-76301939D01*
X167151000Y-76098061D01*
X167111226Y-75898102D01*
X167033205Y-75709744D01*
X166919937Y-75540226D01*
X166775774Y-75396063D01*
X166606256Y-75282795D01*
X166417898Y-75204774D01*
X166217939Y-75165000D01*
X166014061Y-75165000D01*
X165814102Y-75204774D01*
X165625744Y-75282795D01*
X165456226Y-75396063D01*
X165312063Y-75540226D01*
X165198795Y-75709744D01*
X165120774Y-75898102D01*
X165081000Y-76098061D01*
X165081000Y-76301939D01*
X165106001Y-76427628D01*
X165106001Y-76714000D01*
X159189906Y-76714000D01*
X156901197Y-74425291D01*
X156925698Y-74441662D01*
X157041260Y-74489529D01*
X157163941Y-74513932D01*
X157690733Y-74513932D01*
X157849483Y-74355182D01*
X157849483Y-73005932D01*
X158103483Y-73005932D01*
X158103483Y-74355182D01*
X158262233Y-74513932D01*
X158789025Y-74513932D01*
X158911706Y-74489529D01*
X159027268Y-74441662D01*
X159131272Y-74372169D01*
X159219720Y-74283721D01*
X159289213Y-74179717D01*
X159337080Y-74064155D01*
X159361483Y-73941474D01*
X159361483Y-73164682D01*
X159202733Y-73005932D01*
X158103483Y-73005932D01*
X157849483Y-73005932D01*
X157829483Y-73005932D01*
X157829483Y-72751932D01*
X157849483Y-72751932D01*
X157849483Y-71402682D01*
X158103483Y-71402682D01*
X158103483Y-72751932D01*
X159202733Y-72751932D01*
X159205983Y-72748682D01*
X160191483Y-72748682D01*
X160191483Y-73555474D01*
X160215886Y-73678155D01*
X160263753Y-73793717D01*
X160333246Y-73897721D01*
X160421694Y-73986169D01*
X160525698Y-74055662D01*
X160641260Y-74103529D01*
X160763941Y-74127932D01*
X161740733Y-74127932D01*
X161899483Y-73969182D01*
X161899483Y-72589932D01*
X162153483Y-72589932D01*
X162153483Y-73969182D01*
X162312233Y-74127932D01*
X163289025Y-74127932D01*
X163411706Y-74103529D01*
X163527268Y-74055662D01*
X163631272Y-73986169D01*
X163719720Y-73897721D01*
X163789213Y-73793717D01*
X163837080Y-73678155D01*
X163861483Y-73555474D01*
X163861483Y-72748682D01*
X163702733Y-72589932D01*
X162153483Y-72589932D01*
X161899483Y-72589932D01*
X160350233Y-72589932D01*
X160191483Y-72748682D01*
X159205983Y-72748682D01*
X159361483Y-72593182D01*
X159361483Y-71816390D01*
X159337080Y-71693709D01*
X159289213Y-71578147D01*
X159219720Y-71474143D01*
X159131272Y-71385695D01*
X159108367Y-71370390D01*
X160191483Y-71370390D01*
X160191483Y-72177182D01*
X160350233Y-72335932D01*
X161899483Y-72335932D01*
X161899483Y-70956682D01*
X162153483Y-70956682D01*
X162153483Y-72335932D01*
X163702733Y-72335932D01*
X163861483Y-72177182D01*
X163861483Y-71370390D01*
X163837080Y-71247709D01*
X163789213Y-71132147D01*
X163719720Y-71028143D01*
X163631272Y-70939695D01*
X163527268Y-70870202D01*
X163411706Y-70822335D01*
X163289025Y-70797932D01*
X162312233Y-70797932D01*
X162153483Y-70956682D01*
X161899483Y-70956682D01*
X161740733Y-70797932D01*
X160763941Y-70797932D01*
X160641260Y-70822335D01*
X160525698Y-70870202D01*
X160421694Y-70939695D01*
X160333246Y-71028143D01*
X160263753Y-71132147D01*
X160215886Y-71247709D01*
X160191483Y-71370390D01*
X159108367Y-71370390D01*
X159027268Y-71316202D01*
X158911706Y-71268335D01*
X158789025Y-71243932D01*
X158262233Y-71243932D01*
X158103483Y-71402682D01*
X157849483Y-71402682D01*
X157690733Y-71243932D01*
X157163941Y-71243932D01*
X157041260Y-71268335D01*
X156925698Y-71316202D01*
X156824303Y-71383952D01*
X156780977Y-71348395D01*
X156670663Y-71289430D01*
X156586483Y-71263894D01*
X156586483Y-70757682D01*
X163793483Y-70757682D01*
X163793483Y-71069474D01*
X163817886Y-71192155D01*
X163865753Y-71307717D01*
X163935246Y-71411721D01*
X164023694Y-71500169D01*
X164127698Y-71569662D01*
X164243260Y-71617529D01*
X164365941Y-71641932D01*
X165042733Y-71641932D01*
X165201483Y-71483182D01*
X165201483Y-70598932D01*
X165455483Y-70598932D01*
X165455483Y-71483182D01*
X165614233Y-71641932D01*
X166291025Y-71641932D01*
X166413706Y-71617529D01*
X166529268Y-71569662D01*
X166633272Y-71500169D01*
X166721720Y-71411721D01*
X166791213Y-71307717D01*
X166839080Y-71192155D01*
X166863483Y-71069474D01*
X166863483Y-70757682D01*
X166704733Y-70598932D01*
X165455483Y-70598932D01*
X165201483Y-70598932D01*
X163952233Y-70598932D01*
X163793483Y-70757682D01*
X156586483Y-70757682D01*
X156586483Y-69874390D01*
X163793483Y-69874390D01*
X163793483Y-70186182D01*
X163952233Y-70344932D01*
X165201483Y-70344932D01*
X165201483Y-69460682D01*
X165455483Y-69460682D01*
X165455483Y-70344932D01*
X166704733Y-70344932D01*
X166863483Y-70186182D01*
X166863483Y-69874390D01*
X166839080Y-69751709D01*
X166791213Y-69636147D01*
X166721720Y-69532143D01*
X166633272Y-69443695D01*
X166529268Y-69374202D01*
X166413706Y-69326335D01*
X166291025Y-69301932D01*
X165614233Y-69301932D01*
X165455483Y-69460682D01*
X165201483Y-69460682D01*
X165042733Y-69301932D01*
X164365941Y-69301932D01*
X164243260Y-69326335D01*
X164127698Y-69374202D01*
X164023694Y-69443695D01*
X163935246Y-69532143D01*
X163865753Y-69636147D01*
X163817886Y-69751709D01*
X163793483Y-69874390D01*
X156586483Y-69874390D01*
X156586483Y-68217004D01*
X157576483Y-68217004D01*
X157700965Y-68204744D01*
X157820663Y-68168434D01*
X157930977Y-68109469D01*
X158027668Y-68030117D01*
X158107020Y-67933426D01*
X158165985Y-67823112D01*
X158202295Y-67703414D01*
X158214555Y-67578932D01*
X158214555Y-67488932D01*
X160188411Y-67488932D01*
X160188411Y-68532932D01*
X160200671Y-68657414D01*
X160236981Y-68777112D01*
X160295946Y-68887426D01*
X160375298Y-68984117D01*
X160471989Y-69063469D01*
X160582303Y-69122434D01*
X160702001Y-69158744D01*
X160826483Y-69171004D01*
X163226483Y-69171004D01*
X163350965Y-69158744D01*
X163470663Y-69122434D01*
X163580977Y-69063469D01*
X163677668Y-68984117D01*
X163757020Y-68887426D01*
X163815985Y-68777112D01*
X163852295Y-68657414D01*
X163864555Y-68532932D01*
X163864555Y-68412932D01*
X163948423Y-68412932D01*
X163977298Y-68448117D01*
X164073989Y-68527469D01*
X164184303Y-68586434D01*
X164304001Y-68622744D01*
X164428483Y-68635004D01*
X166228483Y-68635004D01*
X166352965Y-68622744D01*
X166472663Y-68586434D01*
X166582977Y-68527469D01*
X166679668Y-68448117D01*
X166759020Y-68351426D01*
X166817985Y-68241112D01*
X166854295Y-68121414D01*
X166866555Y-67996932D01*
X166866555Y-66926932D01*
X166854295Y-66802450D01*
X166817985Y-66682752D01*
X166759020Y-66572438D01*
X166679668Y-66475747D01*
X166582977Y-66396395D01*
X166472663Y-66337430D01*
X166352965Y-66301120D01*
X166228483Y-66288860D01*
X164428483Y-66288860D01*
X164304001Y-66301120D01*
X164184303Y-66337430D01*
X164073989Y-66396395D01*
X163977298Y-66475747D01*
X163897946Y-66572438D01*
X163886992Y-66592932D01*
X163864555Y-66592932D01*
X163864555Y-66472932D01*
X163852295Y-66348450D01*
X163815985Y-66228752D01*
X163757020Y-66118438D01*
X163677668Y-66021747D01*
X163580977Y-65942395D01*
X163470663Y-65883430D01*
X163350965Y-65847120D01*
X163226483Y-65834860D01*
X161630270Y-65834860D01*
X161610498Y-65818634D01*
X161452410Y-65734134D01*
X161280874Y-65682099D01*
X161147187Y-65668932D01*
X161147185Y-65668932D01*
X161102483Y-65664529D01*
X161057781Y-65668932D01*
X158214555Y-65668932D01*
X158214555Y-65578932D01*
X158202295Y-65454450D01*
X158165985Y-65334752D01*
X158107020Y-65224438D01*
X158027668Y-65127747D01*
X157930977Y-65048395D01*
X157820663Y-64989430D01*
X157700965Y-64953120D01*
X157576483Y-64940860D01*
X156586483Y-64940860D01*
X156586483Y-64185634D01*
X156590886Y-64140932D01*
X156584259Y-64073652D01*
X156573316Y-63962541D01*
X156521281Y-63791005D01*
X156436781Y-63632917D01*
X156323064Y-63494351D01*
X156288336Y-63465851D01*
X153754555Y-60932071D01*
X153754555Y-60446932D01*
X153742295Y-60322450D01*
X153705985Y-60202752D01*
X153647020Y-60092438D01*
X153567668Y-59995747D01*
X153470977Y-59916395D01*
X153360663Y-59857430D01*
X153240965Y-59821120D01*
X153116483Y-59808860D01*
X152772212Y-59808860D01*
X152763316Y-59718541D01*
X152711281Y-59547005D01*
X152684991Y-59497820D01*
X152626781Y-59388916D01*
X152587401Y-59340931D01*
X152513064Y-59250351D01*
X152478335Y-59221850D01*
X151168924Y-57912439D01*
X165974000Y-57912439D01*
X165974000Y-58165561D01*
X166023381Y-58413821D01*
X166120247Y-58647676D01*
X166260875Y-58858140D01*
X166439860Y-59037125D01*
X166650324Y-59177753D01*
X166884179Y-59274619D01*
X167132439Y-59324000D01*
X167244000Y-59324000D01*
X167244000Y-59435561D01*
X167293381Y-59683821D01*
X167390247Y-59917676D01*
X167530875Y-60128140D01*
X167709860Y-60307125D01*
X167920324Y-60447753D01*
X168154179Y-60544619D01*
X168402439Y-60594000D01*
X168655561Y-60594000D01*
X168903821Y-60544619D01*
X169137676Y-60447753D01*
X169348140Y-60307125D01*
X169527125Y-60128140D01*
X169667753Y-59917676D01*
X169764619Y-59683821D01*
X169814000Y-59435561D01*
X169814000Y-59327072D01*
X170449000Y-59327072D01*
X170573482Y-59314812D01*
X170693180Y-59278502D01*
X170803494Y-59219537D01*
X170900185Y-59140185D01*
X170979537Y-59043494D01*
X171038502Y-58933180D01*
X171074812Y-58813482D01*
X171087072Y-58689000D01*
X171087072Y-58087500D01*
X171558928Y-58087500D01*
X171558928Y-59387500D01*
X171571188Y-59511982D01*
X171607498Y-59631680D01*
X171666463Y-59741994D01*
X171745815Y-59838685D01*
X171842506Y-59918037D01*
X171952820Y-59977002D01*
X172072518Y-60013312D01*
X172197000Y-60025572D01*
X173497000Y-60025572D01*
X173621482Y-60013312D01*
X173741180Y-59977002D01*
X173851494Y-59918037D01*
X173948185Y-59838685D01*
X174027537Y-59741994D01*
X174086502Y-59631680D01*
X174122812Y-59511982D01*
X174135072Y-59387500D01*
X174135072Y-59030328D01*
X174151381Y-59112321D01*
X174248247Y-59346176D01*
X174388875Y-59556640D01*
X174567860Y-59735625D01*
X174778324Y-59876253D01*
X175012179Y-59973119D01*
X175260439Y-60022500D01*
X175513561Y-60022500D01*
X175761821Y-59973119D01*
X175995676Y-59876253D01*
X176196599Y-59742000D01*
X183173928Y-59742000D01*
X183173928Y-66242000D01*
X183186188Y-66366482D01*
X183222498Y-66486180D01*
X183281463Y-66596494D01*
X183360815Y-66693185D01*
X183457506Y-66772537D01*
X183567820Y-66831502D01*
X183687518Y-66867812D01*
X183812000Y-66880072D01*
X186012000Y-66880072D01*
X186136482Y-66867812D01*
X186256180Y-66831502D01*
X186366494Y-66772537D01*
X186463185Y-66693185D01*
X186542537Y-66596494D01*
X186601502Y-66486180D01*
X186637812Y-66366482D01*
X186650072Y-66242000D01*
X186650072Y-59742000D01*
X186637812Y-59617518D01*
X186601502Y-59497820D01*
X186542537Y-59387506D01*
X186463185Y-59290815D01*
X186366494Y-59211463D01*
X186256180Y-59152498D01*
X186136482Y-59116188D01*
X186012000Y-59103928D01*
X183812000Y-59103928D01*
X183687518Y-59116188D01*
X183567820Y-59152498D01*
X183457506Y-59211463D01*
X183360815Y-59290815D01*
X183281463Y-59387506D01*
X183222498Y-59497820D01*
X183186188Y-59617518D01*
X183173928Y-59742000D01*
X176196599Y-59742000D01*
X176206140Y-59735625D01*
X176385125Y-59556640D01*
X176525753Y-59346176D01*
X176622619Y-59112321D01*
X176672000Y-58864061D01*
X176672000Y-58610939D01*
X176622619Y-58362679D01*
X176525753Y-58128824D01*
X176385125Y-57918360D01*
X176206140Y-57739375D01*
X175995676Y-57598747D01*
X175761821Y-57501881D01*
X175513561Y-57452500D01*
X175402000Y-57452500D01*
X175402000Y-57340939D01*
X175360085Y-57130212D01*
X182827000Y-57130212D01*
X182827000Y-57353788D01*
X182870617Y-57573067D01*
X182956176Y-57779624D01*
X183080388Y-57965520D01*
X183238480Y-58123612D01*
X183424376Y-58247824D01*
X183630933Y-58333383D01*
X183850212Y-58377000D01*
X184073788Y-58377000D01*
X184293067Y-58333383D01*
X184499624Y-58247824D01*
X184685520Y-58123612D01*
X184843612Y-57965520D01*
X184912000Y-57863170D01*
X184980388Y-57965520D01*
X185138480Y-58123612D01*
X185324376Y-58247824D01*
X185530933Y-58333383D01*
X185750212Y-58377000D01*
X185973788Y-58377000D01*
X186193067Y-58333383D01*
X186399624Y-58247824D01*
X186585520Y-58123612D01*
X186743612Y-57965520D01*
X186867824Y-57779624D01*
X186953383Y-57573067D01*
X186997000Y-57353788D01*
X186997000Y-57130212D01*
X186953383Y-56910933D01*
X186867824Y-56704376D01*
X186743612Y-56518480D01*
X186585520Y-56360388D01*
X186399624Y-56236176D01*
X186193067Y-56150617D01*
X185973788Y-56107000D01*
X185750212Y-56107000D01*
X185530933Y-56150617D01*
X185324376Y-56236176D01*
X185138480Y-56360388D01*
X184980388Y-56518480D01*
X184912000Y-56620830D01*
X184843612Y-56518480D01*
X184685520Y-56360388D01*
X184499624Y-56236176D01*
X184293067Y-56150617D01*
X184073788Y-56107000D01*
X183850212Y-56107000D01*
X183630933Y-56150617D01*
X183424376Y-56236176D01*
X183238480Y-56360388D01*
X183080388Y-56518480D01*
X182956176Y-56704376D01*
X182870617Y-56910933D01*
X182827000Y-57130212D01*
X175360085Y-57130212D01*
X175352619Y-57092679D01*
X175255753Y-56858824D01*
X175115125Y-56648360D01*
X174936140Y-56469375D01*
X174725676Y-56328747D01*
X174491821Y-56231881D01*
X174243561Y-56182500D01*
X173990439Y-56182500D01*
X173742179Y-56231881D01*
X173508324Y-56328747D01*
X173297860Y-56469375D01*
X173118875Y-56648360D01*
X172978247Y-56858824D01*
X172881381Y-57092679D01*
X172832000Y-57340939D01*
X172832000Y-57449428D01*
X172197000Y-57449428D01*
X172072518Y-57461688D01*
X171952820Y-57497998D01*
X171842506Y-57556963D01*
X171745815Y-57636315D01*
X171666463Y-57733006D01*
X171607498Y-57843320D01*
X171571188Y-57963018D01*
X171558928Y-58087500D01*
X171087072Y-58087500D01*
X171087072Y-57389000D01*
X171074812Y-57264518D01*
X171038502Y-57144820D01*
X170979537Y-57034506D01*
X170900185Y-56937815D01*
X170803494Y-56858463D01*
X170693180Y-56799498D01*
X170573482Y-56763188D01*
X170449000Y-56750928D01*
X169149000Y-56750928D01*
X169024518Y-56763188D01*
X168904820Y-56799498D01*
X168794506Y-56858463D01*
X168697815Y-56937815D01*
X168618463Y-57034506D01*
X168559498Y-57144820D01*
X168523188Y-57264518D01*
X168510928Y-57389000D01*
X168510928Y-57746172D01*
X168494619Y-57664179D01*
X168397753Y-57430324D01*
X168257125Y-57219860D01*
X168078140Y-57040875D01*
X167867676Y-56900247D01*
X167633821Y-56803381D01*
X167385561Y-56754000D01*
X167132439Y-56754000D01*
X166884179Y-56803381D01*
X166650324Y-56900247D01*
X166439860Y-57040875D01*
X166260875Y-57219860D01*
X166120247Y-57430324D01*
X166023381Y-57664179D01*
X165974000Y-57912439D01*
X151168924Y-57912439D01*
X150302638Y-57046154D01*
X150274132Y-57011419D01*
X150135566Y-56897702D01*
X149977478Y-56813202D01*
X149805942Y-56761167D01*
X149672255Y-56748000D01*
X149672253Y-56748000D01*
X149627551Y-56743597D01*
X149582849Y-56748000D01*
X136696702Y-56748000D01*
X136652000Y-56743597D01*
X136607298Y-56748000D01*
X136607296Y-56748000D01*
X136473609Y-56761167D01*
X136302073Y-56813202D01*
X136143985Y-56897702D01*
X136005419Y-57011419D01*
X135976917Y-57046149D01*
X135405153Y-57617914D01*
X135370419Y-57646419D01*
X135285953Y-57749343D01*
X135256702Y-57784985D01*
X135203887Y-57883795D01*
X135172202Y-57943074D01*
X135120167Y-58114610D01*
X135107047Y-58247824D01*
X135102597Y-58293000D01*
X135103760Y-58304810D01*
X135099795Y-58310744D01*
X135021774Y-58499102D01*
X134982000Y-58699061D01*
X119507000Y-58699061D01*
X119507000Y-52236000D01*
X170596928Y-52236000D01*
X170596928Y-53936000D01*
X170609188Y-54060482D01*
X170645498Y-54180180D01*
X170704463Y-54290494D01*
X170783815Y-54387185D01*
X170880506Y-54466537D01*
X170990820Y-54525502D01*
X171110518Y-54561812D01*
X171235000Y-54574072D01*
X172935000Y-54574072D01*
X173059482Y-54561812D01*
X173179180Y-54525502D01*
X173289494Y-54466537D01*
X173386185Y-54387185D01*
X173465537Y-54290494D01*
X173524502Y-54180180D01*
X173545393Y-54111313D01*
X173569866Y-54141134D01*
X173795986Y-54326706D01*
X174053966Y-54464599D01*
X174333889Y-54549513D01*
X174552050Y-54571000D01*
X174697950Y-54571000D01*
X174916111Y-54549513D01*
X175196034Y-54464599D01*
X175454014Y-54326706D01*
X175680134Y-54141134D01*
X175865706Y-53915014D01*
X175895000Y-53860209D01*
X175924294Y-53915014D01*
X176109866Y-54141134D01*
X176335986Y-54326706D01*
X176593966Y-54464599D01*
X176873889Y-54549513D01*
X177092050Y-54571000D01*
X177237950Y-54571000D01*
X177456111Y-54549513D01*
X177736034Y-54464599D01*
X177994014Y-54326706D01*
X178220134Y-54141134D01*
X178405706Y-53915014D01*
X178435000Y-53860209D01*
X178464294Y-53915014D01*
X178649866Y-54141134D01*
X178875986Y-54326706D01*
X179133966Y-54464599D01*
X179413889Y-54549513D01*
X179632050Y-54571000D01*
X179777950Y-54571000D01*
X179996111Y-54549513D01*
X180276034Y-54464599D01*
X180534014Y-54326706D01*
X180760134Y-54141134D01*
X180945706Y-53915014D01*
X180980201Y-53850477D01*
X181049822Y-53967355D01*
X181244731Y-54183588D01*
X181478080Y-54357641D01*
X181740901Y-54482825D01*
X181888110Y-54527476D01*
X182118000Y-54406155D01*
X182118000Y-53213000D01*
X182372000Y-53213000D01*
X182372000Y-54406155D01*
X182601890Y-54527476D01*
X182749099Y-54482825D01*
X183011920Y-54357641D01*
X183245269Y-54183588D01*
X183440178Y-53967355D01*
X183589157Y-53717252D01*
X183609333Y-53660374D01*
X195707000Y-53660374D01*
X195707000Y-54035626D01*
X195780209Y-54403668D01*
X195923811Y-54750356D01*
X196132290Y-55062366D01*
X196397634Y-55327710D01*
X196709644Y-55536189D01*
X197056332Y-55679791D01*
X197424374Y-55753000D01*
X197799626Y-55753000D01*
X198167668Y-55679791D01*
X198514356Y-55536189D01*
X198826366Y-55327710D01*
X199091710Y-55062366D01*
X199300189Y-54750356D01*
X199443791Y-54403668D01*
X199517000Y-54035626D01*
X199517000Y-53660374D01*
X199443791Y-53292332D01*
X199300189Y-52945644D01*
X199091710Y-52633634D01*
X198826366Y-52368290D01*
X198514356Y-52159811D01*
X198167668Y-52016209D01*
X197799626Y-51943000D01*
X197424374Y-51943000D01*
X197056332Y-52016209D01*
X196709644Y-52159811D01*
X196397634Y-52368290D01*
X196132290Y-52633634D01*
X195923811Y-52945644D01*
X195780209Y-53292332D01*
X195707000Y-53660374D01*
X183609333Y-53660374D01*
X183686481Y-53442891D01*
X183565814Y-53213000D01*
X182372000Y-53213000D01*
X182118000Y-53213000D01*
X182098000Y-53213000D01*
X182098000Y-52959000D01*
X182118000Y-52959000D01*
X182118000Y-51765845D01*
X182372000Y-51765845D01*
X182372000Y-52959000D01*
X183565814Y-52959000D01*
X183686481Y-52729109D01*
X183589157Y-52454748D01*
X183440178Y-52204645D01*
X183245269Y-51988412D01*
X183011920Y-51814359D01*
X182749099Y-51689175D01*
X182601890Y-51644524D01*
X182372000Y-51765845D01*
X182118000Y-51765845D01*
X181888110Y-51644524D01*
X181740901Y-51689175D01*
X181478080Y-51814359D01*
X181244731Y-51988412D01*
X181049822Y-52204645D01*
X180980201Y-52321523D01*
X180945706Y-52256986D01*
X180760134Y-52030866D01*
X180534014Y-51845294D01*
X180276034Y-51707401D01*
X179996111Y-51622487D01*
X179777950Y-51601000D01*
X179632050Y-51601000D01*
X179413889Y-51622487D01*
X179133966Y-51707401D01*
X178875986Y-51845294D01*
X178649866Y-52030866D01*
X178464294Y-52256986D01*
X178435000Y-52311791D01*
X178405706Y-52256986D01*
X178220134Y-52030866D01*
X177994014Y-51845294D01*
X177736034Y-51707401D01*
X177456111Y-51622487D01*
X177237950Y-51601000D01*
X177092050Y-51601000D01*
X176873889Y-51622487D01*
X176593966Y-51707401D01*
X176335986Y-51845294D01*
X176109866Y-52030866D01*
X175924294Y-52256986D01*
X175895000Y-52311791D01*
X175865706Y-52256986D01*
X175680134Y-52030866D01*
X175454014Y-51845294D01*
X175196034Y-51707401D01*
X174916111Y-51622487D01*
X174697950Y-51601000D01*
X174552050Y-51601000D01*
X174333889Y-51622487D01*
X174053966Y-51707401D01*
X173795986Y-51845294D01*
X173569866Y-52030866D01*
X173545393Y-52060687D01*
X173524502Y-51991820D01*
X173465537Y-51881506D01*
X173386185Y-51784815D01*
X173289494Y-51705463D01*
X173179180Y-51646498D01*
X173059482Y-51610188D01*
X172935000Y-51597928D01*
X171235000Y-51597928D01*
X171110518Y-51610188D01*
X170990820Y-51646498D01*
X170880506Y-51705463D01*
X170783815Y-51784815D01*
X170704463Y-51881506D01*
X170645498Y-51991820D01*
X170609188Y-52111518D01*
X170596928Y-52236000D01*
X119507000Y-52236000D01*
X119507000Y-49149000D01*
X209931000Y-49149000D01*
X209931000Y-91313000D01*
X209931000Y-91313000D01*
G37*
X209931000Y-91313000D02*
X119507000Y-91313000D01*
X119507000Y-83493750D01*
X195222000Y-83493750D01*
X195222000Y-84540542D01*
X195246403Y-84663223D01*
X195294270Y-84778785D01*
X195363763Y-84882789D01*
X195452211Y-84971237D01*
X195556215Y-85040730D01*
X195671777Y-85088597D01*
X195794458Y-85113000D01*
X197326250Y-85113000D01*
X197485000Y-84954250D01*
X197485000Y-83335000D01*
X197739000Y-83335000D01*
X197739000Y-84954250D01*
X197897750Y-85113000D01*
X199429542Y-85113000D01*
X199552223Y-85088597D01*
X199667785Y-85040730D01*
X199771789Y-84971237D01*
X199860237Y-84882789D01*
X199929730Y-84778785D01*
X199977597Y-84663223D01*
X200002000Y-84540542D01*
X200002000Y-83493750D01*
X199843250Y-83335000D01*
X197739000Y-83335000D01*
X197485000Y-83335000D01*
X195380750Y-83335000D01*
X195222000Y-83493750D01*
X119507000Y-83493750D01*
X119507000Y-81875458D01*
X195222000Y-81875458D01*
X195222000Y-82922250D01*
X195380750Y-83081000D01*
X197485000Y-83081000D01*
X197485000Y-81461750D01*
X197739000Y-81461750D01*
X197739000Y-83081000D01*
X199843250Y-83081000D01*
X200002000Y-82922250D01*
X200002000Y-81875458D01*
X199977597Y-81752777D01*
X199929730Y-81637215D01*
X199860237Y-81533211D01*
X199771789Y-81444763D01*
X199667785Y-81375270D01*
X199552223Y-81327403D01*
X199429542Y-81303000D01*
X197897750Y-81303000D01*
X197739000Y-81461750D01*
X197485000Y-81461750D01*
X197326250Y-81303000D01*
X195794458Y-81303000D01*
X195671777Y-81327403D01*
X195556215Y-81375270D01*
X195452211Y-81444763D01*
X195363763Y-81533211D01*
X195294270Y-81637215D01*
X195246403Y-81752777D01*
X195222000Y-81875458D01*
X119507000Y-81875458D01*
X119507000Y-75315750D01*
X122579483Y-75315750D01*
X122579483Y-77042542D01*
X122603886Y-77165223D01*
X122651753Y-77280785D01*
X122721246Y-77384789D01*
X122809694Y-77473237D01*
X122913698Y-77542730D01*
X123029260Y-77590597D01*
X123151941Y-77615000D01*
X126028733Y-77615000D01*
X126187483Y-77456250D01*
X126187483Y-75157000D01*
X126441483Y-75157000D01*
X126441483Y-77456250D01*
X126600233Y-77615000D01*
X129477025Y-77615000D01*
X129599706Y-77590597D01*
X129715268Y-77542730D01*
X129819272Y-77473237D01*
X129907720Y-77384789D01*
X129977213Y-77280785D01*
X130025080Y-77165223D01*
X130049483Y-77042542D01*
X130049483Y-75315750D01*
X129890733Y-75157000D01*
X126441483Y-75157000D01*
X126187483Y-75157000D01*
X122738233Y-75157000D01*
X122579483Y-75315750D01*
X119507000Y-75315750D01*
X119507000Y-73017458D01*
X122579483Y-73017458D01*
X122579483Y-74744250D01*
X122738233Y-74903000D01*
X126187483Y-74903000D01*
X126187483Y-72603750D01*
X126441483Y-72603750D01*
X126441483Y-74903000D01*
X129890733Y-74903000D01*
X130049483Y-74744250D01*
X130049483Y-73017458D01*
X130025080Y-72894777D01*
X129977213Y-72779215D01*
X129907720Y-72675211D01*
X129819272Y-72586763D01*
X129715268Y-72517270D01*
X129599706Y-72469403D01*
X129477025Y-72445000D01*
X126600233Y-72445000D01*
X126441483Y-72603750D01*
X126187483Y-72603750D01*
X126028733Y-72445000D01*
X123151941Y-72445000D01*
X123029260Y-72469403D01*
X122913698Y-72517270D01*
X122809694Y-72586763D01*
X122721246Y-72675211D01*
X122651753Y-72779215D01*
X122603886Y-72894777D01*
X122579483Y-73017458D01*
X119507000Y-73017458D01*
X119507000Y-72046682D01*
X138901483Y-72046682D01*
X138901483Y-73073474D01*
X138925886Y-73196155D01*
X138973753Y-73311717D01*
X139043246Y-73415721D01*
X139131694Y-73504169D01*
X139235698Y-73573662D01*
X139351260Y-73621529D01*
X139473941Y-73645932D01*
X140150733Y-73645932D01*
X140309483Y-73487182D01*
X140309483Y-71887932D01*
X140563483Y-71887932D01*
X140563483Y-73487182D01*
X140722233Y-73645932D01*
X141399025Y-73645932D01*
X141521706Y-73621529D01*
X141637268Y-73573662D01*
X141741272Y-73504169D01*
X141829720Y-73415721D01*
X141899213Y-73311717D01*
X141947080Y-73196155D01*
X141971483Y-73073474D01*
X141971483Y-72494682D01*
X144189483Y-72494682D01*
X144189483Y-73301474D01*
X144213886Y-73424155D01*
X144261753Y-73539717D01*
X144331246Y-73643721D01*
X144419694Y-73732169D01*
X144523698Y-73801662D01*
X144639260Y-73849529D01*
X144761941Y-73873932D01*
X145738733Y-73873932D01*
X145897483Y-73715182D01*
X145897483Y-72335932D01*
X146151483Y-72335932D01*
X146151483Y-73715182D01*
X146310233Y-73873932D01*
X147287025Y-73873932D01*
X147409706Y-73849529D01*
X147525268Y-73801662D01*
X147629272Y-73732169D01*
X147717720Y-73643721D01*
X147787213Y-73539717D01*
X147835080Y-73424155D01*
X147859483Y-73301474D01*
X147859483Y-72494682D01*
X147700733Y-72335932D01*
X146151483Y-72335932D01*
X145897483Y-72335932D01*
X144348233Y-72335932D01*
X144189483Y-72494682D01*
X141971483Y-72494682D01*
X141971483Y-72046682D01*
X141812733Y-71887932D01*
X140563483Y-71887932D01*
X140309483Y-71887932D01*
X139060233Y-71887932D01*
X138901483Y-72046682D01*
X119507000Y-72046682D01*
X119507000Y-70448390D01*
X138901483Y-70448390D01*
X138901483Y-71475182D01*
X139060233Y-71633932D01*
X140309483Y-71633932D01*
X140309483Y-70034682D01*
X140563483Y-70034682D01*
X140563483Y-71633932D01*
X141812733Y-71633932D01*
X141971483Y-71475182D01*
X141971483Y-71116390D01*
X144189483Y-71116390D01*
X144189483Y-71923182D01*
X144348233Y-72081932D01*
X145897483Y-72081932D01*
X145897483Y-70702682D01*
X146151483Y-70702682D01*
X146151483Y-72081932D01*
X147700733Y-72081932D01*
X147859483Y-71923182D01*
X147859483Y-71500682D01*
X148045483Y-71500682D01*
X148045483Y-71812474D01*
X148069886Y-71935155D01*
X148117753Y-72050717D01*
X148187246Y-72154721D01*
X148275694Y-72243169D01*
X148379698Y-72312662D01*
X148495260Y-72360529D01*
X148617941Y-72384932D01*
X149294733Y-72384932D01*
X149453483Y-72226182D01*
X149453483Y-71341932D01*
X149707483Y-71341932D01*
X149707483Y-72226182D01*
X149866233Y-72384932D01*
X150543025Y-72384932D01*
X150665706Y-72360529D01*
X150781268Y-72312662D01*
X150885272Y-72243169D01*
X150973720Y-72154721D01*
X151043213Y-72050717D01*
X151091080Y-71935155D01*
X151115483Y-71812474D01*
X151115483Y-71500682D01*
X150956733Y-71341932D01*
X149707483Y-71341932D01*
X149453483Y-71341932D01*
X148204233Y-71341932D01*
X148045483Y-71500682D01*
X147859483Y-71500682D01*
X147859483Y-71116390D01*
X147835080Y-70993709D01*
X147787213Y-70878147D01*
X147717720Y-70774143D01*
X147629272Y-70685695D01*
X147527046Y-70617390D01*
X148045483Y-70617390D01*
X148045483Y-70929182D01*
X148204233Y-71087932D01*
X149453483Y-71087932D01*
X149453483Y-70203682D01*
X149707483Y-70203682D01*
X149707483Y-71087932D01*
X150956733Y-71087932D01*
X151115483Y-70929182D01*
X151115483Y-70617390D01*
X151091080Y-70494709D01*
X151043213Y-70379147D01*
X150973720Y-70275143D01*
X150885272Y-70186695D01*
X150781268Y-70117202D01*
X150665706Y-70069335D01*
X150543025Y-70044932D01*
X149866233Y-70044932D01*
X149707483Y-70203682D01*
X149453483Y-70203682D01*
X149294733Y-70044932D01*
X148617941Y-70044932D01*
X148495260Y-70069335D01*
X148379698Y-70117202D01*
X148275694Y-70186695D01*
X148187246Y-70275143D01*
X148117753Y-70379147D01*
X148069886Y-70494709D01*
X148045483Y-70617390D01*
X147527046Y-70617390D01*
X147525268Y-70616202D01*
X147409706Y-70568335D01*
X147287025Y-70543932D01*
X146310233Y-70543932D01*
X146151483Y-70702682D01*
X145897483Y-70702682D01*
X145738733Y-70543932D01*
X144761941Y-70543932D01*
X144639260Y-70568335D01*
X144523698Y-70616202D01*
X144419694Y-70685695D01*
X144331246Y-70774143D01*
X144261753Y-70878147D01*
X144213886Y-70993709D01*
X144189483Y-71116390D01*
X141971483Y-71116390D01*
X141971483Y-70448390D01*
X141947080Y-70325709D01*
X141899213Y-70210147D01*
X141829720Y-70106143D01*
X141741272Y-70017695D01*
X141637268Y-69948202D01*
X141521706Y-69900335D01*
X141399025Y-69875932D01*
X140722233Y-69875932D01*
X140563483Y-70034682D01*
X140309483Y-70034682D01*
X140150733Y-69875932D01*
X139473941Y-69875932D01*
X139351260Y-69900335D01*
X139235698Y-69948202D01*
X139131694Y-70017695D01*
X139043246Y-70106143D01*
X138973753Y-70210147D01*
X138925886Y-70325709D01*
X138901483Y-70448390D01*
X119507000Y-70448390D01*
X119507000Y-68418967D01*
X120879483Y-68418967D01*
X120879483Y-68741033D01*
X120942315Y-69056912D01*
X121065565Y-69354463D01*
X121244496Y-69622252D01*
X121472231Y-69849987D01*
X121740020Y-70028918D01*
X122037571Y-70152168D01*
X122353450Y-70215000D01*
X122675516Y-70215000D01*
X122991395Y-70152168D01*
X123288946Y-70028918D01*
X123556735Y-69849987D01*
X123784470Y-69622252D01*
X123963401Y-69354463D01*
X124086651Y-69056912D01*
X124149483Y-68741033D01*
X124149483Y-68418967D01*
X124086651Y-68103088D01*
X123963401Y-67805537D01*
X123784470Y-67537748D01*
X123556735Y-67310013D01*
X123288946Y-67131082D01*
X122991395Y-67007832D01*
X122675516Y-66945000D01*
X122353450Y-66945000D01*
X122037571Y-67007832D01*
X121740020Y-67131082D01*
X121472231Y-67310013D01*
X121244496Y-67537748D01*
X121065565Y-67805537D01*
X120942315Y-68103088D01*
X120879483Y-68418967D01*
X119507000Y-68418967D01*
X119507000Y-66230000D01*
X132476411Y-66230000D01*
X132476411Y-69530000D01*
X132488671Y-69654482D01*
X132524981Y-69774180D01*
X132583946Y-69884494D01*
X132663298Y-69981185D01*
X132759989Y-70060537D01*
X132870303Y-70119502D01*
X132990001Y-70155812D01*
X133114483Y-70168072D01*
X137514483Y-70168072D01*
X137638965Y-70155812D01*
X137758663Y-70119502D01*
X137868977Y-70060537D01*
X137965668Y-69981185D01*
X138045020Y-69884494D01*
X138103985Y-69774180D01*
X138140295Y-69654482D01*
X138152555Y-69530000D01*
X138152555Y-68668932D01*
X138898411Y-68668932D01*
X138898411Y-69010932D01*
X138910671Y-69135414D01*
X138946981Y-69255112D01*
X139005946Y-69365426D01*
X139085298Y-69462117D01*
X139181989Y-69541469D01*
X139292303Y-69600434D01*
X139412001Y-69636744D01*
X139536483Y-69649004D01*
X141336483Y-69649004D01*
X141460965Y-69636744D01*
X141580663Y-69600434D01*
X141690977Y-69541469D01*
X141787668Y-69462117D01*
X141867020Y-69365426D01*
X141925985Y-69255112D01*
X141962295Y-69135414D01*
X141974555Y-69010932D01*
X141974555Y-66510932D01*
X141962295Y-66386450D01*
X141925985Y-66266752D01*
X141867020Y-66156438D01*
X141787668Y-66059747D01*
X141690977Y-65980395D01*
X141580663Y-65921430D01*
X141460965Y-65885120D01*
X141336483Y-65872860D01*
X140838483Y-65872860D01*
X140838483Y-62885004D01*
X141178483Y-62885004D01*
X141302965Y-62872744D01*
X141422663Y-62836434D01*
X141532977Y-62777469D01*
X141629668Y-62698117D01*
X141709020Y-62601426D01*
X141767985Y-62491112D01*
X141804295Y-62371414D01*
X141816555Y-62246932D01*
X141816555Y-60446932D01*
X141804295Y-60322450D01*
X141767985Y-60202752D01*
X141709020Y-60092438D01*
X141629668Y-59995747D01*
X141532977Y-59916395D01*
X141422663Y-59857430D01*
X141302965Y-59821120D01*
X141178483Y-59808860D01*
X138678483Y-59808860D01*
X138554001Y-59821120D01*
X138434303Y-59857430D01*
X138323989Y-59916395D01*
X138227298Y-59995747D01*
X138147946Y-60092438D01*
X138088981Y-60202752D01*
X138052671Y-60322450D01*
X138040411Y-60446932D01*
X138040411Y-62246932D01*
X138052671Y-62371414D01*
X138088981Y-62491112D01*
X138147946Y-62601426D01*
X138227298Y-62698117D01*
X138323989Y-62777469D01*
X138434303Y-62836434D01*
X138554001Y-62872744D01*
X138678483Y-62885004D01*
X139018483Y-62885004D01*
X139018484Y-66141161D01*
X139005946Y-66156438D01*
X138946981Y-66266752D01*
X138910671Y-66386450D01*
X138898411Y-66510932D01*
X138898411Y-66848932D01*
X138152555Y-66848932D01*
X138152555Y-66230000D01*
X138140295Y-66105518D01*
X138103985Y-65985820D01*
X138045020Y-65875506D01*
X137965668Y-65778815D01*
X137868977Y-65699463D01*
X137758663Y-65640498D01*
X137638965Y-65604188D01*
X137514483Y-65591928D01*
X133114483Y-65591928D01*
X132990001Y-65604188D01*
X132870303Y-65640498D01*
X132759989Y-65699463D01*
X132663298Y-65778815D01*
X132583946Y-65875506D01*
X132524981Y-65985820D01*
X132488671Y-66105518D01*
X132476411Y-66230000D01*
X119507000Y-66230000D01*
X119507000Y-62415750D01*
X122579483Y-62415750D01*
X122579483Y-64142542D01*
X122603886Y-64265223D01*
X122651753Y-64380785D01*
X122721246Y-64484789D01*
X122809694Y-64573237D01*
X122913698Y-64642730D01*
X123029260Y-64690597D01*
X123151941Y-64715000D01*
X126028733Y-64715000D01*
X126187483Y-64556250D01*
X126187483Y-62257000D01*
X126441483Y-62257000D01*
X126441483Y-64556250D01*
X126600233Y-64715000D01*
X129477025Y-64715000D01*
X129599706Y-64690597D01*
X129715268Y-64642730D01*
X129819272Y-64573237D01*
X129907720Y-64484789D01*
X129977213Y-64380785D01*
X130025080Y-64265223D01*
X130049483Y-64142542D01*
X130049483Y-62415750D01*
X129890733Y-62257000D01*
X126441483Y-62257000D01*
X126187483Y-62257000D01*
X122738233Y-62257000D01*
X122579483Y-62415750D01*
X119507000Y-62415750D01*
X119507000Y-60117458D01*
X122579483Y-60117458D01*
X122579483Y-61844250D01*
X122738233Y-62003000D01*
X126187483Y-62003000D01*
X126187483Y-59703750D01*
X126441483Y-59703750D01*
X126441483Y-62003000D01*
X129890733Y-62003000D01*
X130049483Y-61844250D01*
X130049483Y-60117458D01*
X130025080Y-59994777D01*
X129977213Y-59879215D01*
X129907720Y-59775211D01*
X129819272Y-59686763D01*
X129715268Y-59617270D01*
X129599706Y-59569403D01*
X129477025Y-59545000D01*
X126600233Y-59545000D01*
X126441483Y-59703750D01*
X126187483Y-59703750D01*
X126028733Y-59545000D01*
X123151941Y-59545000D01*
X123029260Y-59569403D01*
X122913698Y-59617270D01*
X122809694Y-59686763D01*
X122721246Y-59775211D01*
X122651753Y-59879215D01*
X122603886Y-59994777D01*
X122579483Y-60117458D01*
X119507000Y-60117458D01*
X119507000Y-58699061D01*
X134982000Y-58699061D01*
X134982000Y-58902939D01*
X135021774Y-59102898D01*
X135099795Y-59291256D01*
X135213063Y-59460774D01*
X135357226Y-59604937D01*
X135526744Y-59718205D01*
X135715102Y-59796226D01*
X135915061Y-59836000D01*
X136118939Y-59836000D01*
X136318898Y-59796226D01*
X136507256Y-59718205D01*
X136676774Y-59604937D01*
X136820937Y-59460774D01*
X136934205Y-59291256D01*
X137012226Y-59102898D01*
X137052000Y-58902939D01*
X137052000Y-58699061D01*
X137026429Y-58570505D01*
X137028934Y-58568000D01*
X149250618Y-58568000D01*
X150502685Y-59820068D01*
X150492001Y-59821120D01*
X150372303Y-59857430D01*
X150261989Y-59916395D01*
X150165298Y-59995747D01*
X150085946Y-60092438D01*
X150026981Y-60202752D01*
X149990671Y-60322450D01*
X149978411Y-60446932D01*
X149978411Y-62246932D01*
X149990671Y-62371414D01*
X150026981Y-62491112D01*
X150085946Y-62601426D01*
X150165298Y-62698117D01*
X150261989Y-62777469D01*
X150372303Y-62836434D01*
X150492001Y-62872744D01*
X150616483Y-62885004D01*
X153116483Y-62885004D01*
X153132085Y-62883467D01*
X154766483Y-64517866D01*
X154766483Y-64940860D01*
X153776483Y-64940860D01*
X153652001Y-64953120D01*
X153532303Y-64989430D01*
X153421989Y-65048395D01*
X153325298Y-65127747D01*
X153245946Y-65224438D01*
X153186981Y-65334752D01*
X153150671Y-65454450D01*
X153138411Y-65578932D01*
X153138411Y-67578932D01*
X153150671Y-67703414D01*
X153186981Y-67823112D01*
X153245946Y-67933426D01*
X153325298Y-68030117D01*
X153421989Y-68109469D01*
X153532303Y-68168434D01*
X153652001Y-68204744D01*
X153776483Y-68217004D01*
X154766484Y-68217004D01*
X154766483Y-71263894D01*
X154682303Y-71289430D01*
X154571989Y-71348395D01*
X154526483Y-71385741D01*
X154480977Y-71348395D01*
X154370663Y-71289430D01*
X154286483Y-71263894D01*
X154286483Y-70595633D01*
X154290886Y-70550931D01*
X154280786Y-70448390D01*
X154273316Y-70372541D01*
X154221281Y-70201005D01*
X154177717Y-70119502D01*
X154136781Y-70042916D01*
X154086119Y-69981185D01*
X154023064Y-69904351D01*
X153988336Y-69875851D01*
X151705570Y-67593086D01*
X151677064Y-67558351D01*
X151538498Y-67444634D01*
X151380410Y-67360134D01*
X151208874Y-67308099D01*
X151075187Y-67294932D01*
X151075185Y-67294932D01*
X151030483Y-67290529D01*
X150993562Y-67294166D01*
X150931668Y-67218747D01*
X150834977Y-67139395D01*
X150724663Y-67080430D01*
X150604965Y-67044120D01*
X150480483Y-67031860D01*
X149694344Y-67031860D01*
X149299570Y-66637086D01*
X149271064Y-66602351D01*
X149132498Y-66488634D01*
X148974410Y-66404134D01*
X148802874Y-66352099D01*
X148669187Y-66338932D01*
X148669185Y-66338932D01*
X148624483Y-66334529D01*
X148579781Y-66338932D01*
X147862555Y-66338932D01*
X147862555Y-66218932D01*
X147850295Y-66094450D01*
X147813985Y-65974752D01*
X147755020Y-65864438D01*
X147675668Y-65767747D01*
X147578977Y-65688395D01*
X147468663Y-65629430D01*
X147348965Y-65593120D01*
X147224483Y-65580860D01*
X146934483Y-65580860D01*
X146934483Y-65137549D01*
X146946832Y-65096839D01*
X146952651Y-65037764D01*
X146964403Y-64918450D01*
X146951506Y-64787512D01*
X146946832Y-64740057D01*
X146894798Y-64568522D01*
X146810298Y-64410433D01*
X146725077Y-64306592D01*
X146725072Y-64306587D01*
X146696580Y-64271869D01*
X146661862Y-64243377D01*
X145292281Y-62873796D01*
X145302965Y-62872744D01*
X145422663Y-62836434D01*
X145532977Y-62777469D01*
X145629668Y-62698117D01*
X145709020Y-62601426D01*
X145767985Y-62491112D01*
X145804295Y-62371414D01*
X145815570Y-62256932D01*
X145979396Y-62256932D01*
X145990671Y-62371414D01*
X146026981Y-62491112D01*
X146085946Y-62601426D01*
X146165298Y-62698117D01*
X146261989Y-62777469D01*
X146372303Y-62836434D01*
X146492001Y-62872744D01*
X146616483Y-62885004D01*
X149116483Y-62885004D01*
X149240965Y-62872744D01*
X149360663Y-62836434D01*
X149470977Y-62777469D01*
X149567668Y-62698117D01*
X149647020Y-62601426D01*
X149705985Y-62491112D01*
X149742295Y-62371414D01*
X149754555Y-62246932D01*
X149754555Y-60446932D01*
X149742295Y-60322450D01*
X149705985Y-60202752D01*
X149647020Y-60092438D01*
X149567668Y-59995747D01*
X149470977Y-59916395D01*
X149360663Y-59857430D01*
X149240965Y-59821120D01*
X149116483Y-59808860D01*
X146616483Y-59808860D01*
X146492001Y-59821120D01*
X146372303Y-59857430D01*
X146261989Y-59916395D01*
X146165298Y-59995747D01*
X146085946Y-60092438D01*
X146026981Y-60202752D01*
X145990671Y-60322450D01*
X145979396Y-60436932D01*
X145815570Y-60436932D01*
X145804295Y-60322450D01*
X145767985Y-60202752D01*
X145709020Y-60092438D01*
X145629668Y-59995747D01*
X145532977Y-59916395D01*
X145422663Y-59857430D01*
X145302965Y-59821120D01*
X145178483Y-59808860D01*
X142678483Y-59808860D01*
X142554001Y-59821120D01*
X142434303Y-59857430D01*
X142323989Y-59916395D01*
X142227298Y-59995747D01*
X142147946Y-60092438D01*
X142088981Y-60202752D01*
X142052671Y-60322450D01*
X142040411Y-60446932D01*
X142040411Y-62246932D01*
X142052671Y-62371414D01*
X142088981Y-62491112D01*
X142147946Y-62601426D01*
X142227298Y-62698117D01*
X142323989Y-62777469D01*
X142434303Y-62836434D01*
X142554001Y-62872744D01*
X142678483Y-62885004D01*
X143022755Y-62885004D01*
X143031651Y-62975323D01*
X143083685Y-63146858D01*
X143168185Y-63304947D01*
X143216171Y-63363417D01*
X143281903Y-63443513D01*
X143316632Y-63472014D01*
X145114483Y-65269866D01*
X145114483Y-65580860D01*
X144824483Y-65580860D01*
X144700001Y-65593120D01*
X144580303Y-65629430D01*
X144469989Y-65688395D01*
X144373298Y-65767747D01*
X144293946Y-65864438D01*
X144234981Y-65974752D01*
X144198671Y-66094450D01*
X144186411Y-66218932D01*
X144186411Y-68278932D01*
X144198671Y-68403414D01*
X144234981Y-68523112D01*
X144293946Y-68633426D01*
X144373298Y-68730117D01*
X144469989Y-68809469D01*
X144580303Y-68868434D01*
X144700001Y-68904744D01*
X144824483Y-68917004D01*
X147224483Y-68917004D01*
X147348965Y-68904744D01*
X147468663Y-68868434D01*
X147578977Y-68809469D01*
X147675668Y-68730117D01*
X147755020Y-68633426D01*
X147813985Y-68523112D01*
X147850295Y-68403414D01*
X147862555Y-68278932D01*
X147862555Y-68158932D01*
X148042411Y-68158932D01*
X148042411Y-68739932D01*
X148054671Y-68864414D01*
X148090981Y-68984112D01*
X148149946Y-69094426D01*
X148229298Y-69191117D01*
X148325989Y-69270469D01*
X148436303Y-69329434D01*
X148556001Y-69365744D01*
X148680483Y-69378004D01*
X150480483Y-69378004D01*
X150604965Y-69365744D01*
X150724663Y-69329434D01*
X150818105Y-69279487D01*
X152466483Y-70927866D01*
X152466483Y-71263894D01*
X152382303Y-71289430D01*
X152271989Y-71348395D01*
X152175298Y-71427747D01*
X152095946Y-71524438D01*
X152036981Y-71634752D01*
X152000671Y-71754450D01*
X151988411Y-71878932D01*
X151988411Y-73878932D01*
X152000671Y-74003414D01*
X152036981Y-74123112D01*
X152095946Y-74233426D01*
X152175298Y-74330117D01*
X152271989Y-74409469D01*
X152382303Y-74468434D01*
X152502001Y-74504744D01*
X152626483Y-74517004D01*
X154126483Y-74517004D01*
X154250965Y-74504744D01*
X154370663Y-74468434D01*
X154480977Y-74409469D01*
X154526483Y-74372123D01*
X154571989Y-74409469D01*
X154666484Y-74459978D01*
X154666484Y-74579315D01*
X154661597Y-74628932D01*
X154681098Y-74826926D01*
X154738851Y-75017311D01*
X154832637Y-75192772D01*
X154906517Y-75282795D01*
X154958851Y-75346565D01*
X154997384Y-75378188D01*
X158022290Y-78403094D01*
X158053918Y-78441633D01*
X158207711Y-78567847D01*
X158383171Y-78661632D01*
X158573557Y-78719385D01*
X158721943Y-78734000D01*
X158721945Y-78734000D01*
X158771550Y-78738886D01*
X158821155Y-78734000D01*
X166066392Y-78734000D01*
X166116000Y-78738886D01*
X166165607Y-78734000D01*
X172670392Y-78734000D01*
X172720000Y-78738886D01*
X172917994Y-78719385D01*
X172917997Y-78719384D01*
X173108380Y-78661632D01*
X173283840Y-78567847D01*
X173437633Y-78441633D01*
X173469261Y-78403094D01*
X174923099Y-76949256D01*
X174961633Y-76917633D01*
X175087847Y-76763840D01*
X175181632Y-76588380D01*
X175239385Y-76397994D01*
X175254000Y-76249608D01*
X175254000Y-76249599D01*
X175258885Y-76200001D01*
X175254000Y-76150403D01*
X175254000Y-75686000D01*
X188926392Y-75686000D01*
X188976000Y-75690886D01*
X189173994Y-75671385D01*
X189290115Y-75636160D01*
X189364380Y-75613632D01*
X189539840Y-75519847D01*
X189693633Y-75393633D01*
X189725261Y-75355094D01*
X191561226Y-73519130D01*
X191667774Y-73447937D01*
X191811937Y-73303774D01*
X191925205Y-73134256D01*
X192003226Y-72945898D01*
X192043000Y-72745939D01*
X192043000Y-72542061D01*
X192003226Y-72342102D01*
X191925205Y-72153744D01*
X191811937Y-71984226D01*
X191667774Y-71840063D01*
X191498256Y-71726795D01*
X191309898Y-71648774D01*
X191109939Y-71609000D01*
X190906061Y-71609000D01*
X190706102Y-71648774D01*
X190517744Y-71726795D01*
X190348226Y-71840063D01*
X190204063Y-71984226D01*
X190132870Y-72090774D01*
X188557645Y-73666000D01*
X175279000Y-73666000D01*
X175279000Y-73558061D01*
X175239226Y-73358102D01*
X175161205Y-73169744D01*
X175047937Y-73000226D01*
X174903774Y-72856063D01*
X174734256Y-72742795D01*
X174545898Y-72664774D01*
X174345939Y-72625000D01*
X174142061Y-72625000D01*
X173942102Y-72664774D01*
X173753744Y-72742795D01*
X173584226Y-72856063D01*
X173440063Y-73000226D01*
X173326795Y-73169744D01*
X173248774Y-73358102D01*
X173209000Y-73558061D01*
X173209000Y-73761939D01*
X173234001Y-73887627D01*
X173234000Y-74626391D01*
X173229114Y-74676000D01*
X173234001Y-74725617D01*
X173234000Y-75781644D01*
X172301645Y-76714000D01*
X167126000Y-76714000D01*
X167126000Y-76427623D01*
X167151000Y-76301939D01*
X167151000Y-76098061D01*
X167111226Y-75898102D01*
X167033205Y-75709744D01*
X166919937Y-75540226D01*
X166775774Y-75396063D01*
X166606256Y-75282795D01*
X166417898Y-75204774D01*
X166217939Y-75165000D01*
X166014061Y-75165000D01*
X165814102Y-75204774D01*
X165625744Y-75282795D01*
X165456226Y-75396063D01*
X165312063Y-75540226D01*
X165198795Y-75709744D01*
X165120774Y-75898102D01*
X165081000Y-76098061D01*
X165081000Y-76301939D01*
X165106001Y-76427628D01*
X165106001Y-76714000D01*
X159189906Y-76714000D01*
X156901197Y-74425291D01*
X156925698Y-74441662D01*
X157041260Y-74489529D01*
X157163941Y-74513932D01*
X157690733Y-74513932D01*
X157849483Y-74355182D01*
X157849483Y-73005932D01*
X158103483Y-73005932D01*
X158103483Y-74355182D01*
X158262233Y-74513932D01*
X158789025Y-74513932D01*
X158911706Y-74489529D01*
X159027268Y-74441662D01*
X159131272Y-74372169D01*
X159219720Y-74283721D01*
X159289213Y-74179717D01*
X159337080Y-74064155D01*
X159361483Y-73941474D01*
X159361483Y-73164682D01*
X159202733Y-73005932D01*
X158103483Y-73005932D01*
X157849483Y-73005932D01*
X157829483Y-73005932D01*
X157829483Y-72751932D01*
X157849483Y-72751932D01*
X157849483Y-71402682D01*
X158103483Y-71402682D01*
X158103483Y-72751932D01*
X159202733Y-72751932D01*
X159205983Y-72748682D01*
X160191483Y-72748682D01*
X160191483Y-73555474D01*
X160215886Y-73678155D01*
X160263753Y-73793717D01*
X160333246Y-73897721D01*
X160421694Y-73986169D01*
X160525698Y-74055662D01*
X160641260Y-74103529D01*
X160763941Y-74127932D01*
X161740733Y-74127932D01*
X161899483Y-73969182D01*
X161899483Y-72589932D01*
X162153483Y-72589932D01*
X162153483Y-73969182D01*
X162312233Y-74127932D01*
X163289025Y-74127932D01*
X163411706Y-74103529D01*
X163527268Y-74055662D01*
X163631272Y-73986169D01*
X163719720Y-73897721D01*
X163789213Y-73793717D01*
X163837080Y-73678155D01*
X163861483Y-73555474D01*
X163861483Y-72748682D01*
X163702733Y-72589932D01*
X162153483Y-72589932D01*
X161899483Y-72589932D01*
X160350233Y-72589932D01*
X160191483Y-72748682D01*
X159205983Y-72748682D01*
X159361483Y-72593182D01*
X159361483Y-71816390D01*
X159337080Y-71693709D01*
X159289213Y-71578147D01*
X159219720Y-71474143D01*
X159131272Y-71385695D01*
X159108367Y-71370390D01*
X160191483Y-71370390D01*
X160191483Y-72177182D01*
X160350233Y-72335932D01*
X161899483Y-72335932D01*
X161899483Y-70956682D01*
X162153483Y-70956682D01*
X162153483Y-72335932D01*
X163702733Y-72335932D01*
X163861483Y-72177182D01*
X163861483Y-71370390D01*
X163837080Y-71247709D01*
X163789213Y-71132147D01*
X163719720Y-71028143D01*
X163631272Y-70939695D01*
X163527268Y-70870202D01*
X163411706Y-70822335D01*
X163289025Y-70797932D01*
X162312233Y-70797932D01*
X162153483Y-70956682D01*
X161899483Y-70956682D01*
X161740733Y-70797932D01*
X160763941Y-70797932D01*
X160641260Y-70822335D01*
X160525698Y-70870202D01*
X160421694Y-70939695D01*
X160333246Y-71028143D01*
X160263753Y-71132147D01*
X160215886Y-71247709D01*
X160191483Y-71370390D01*
X159108367Y-71370390D01*
X159027268Y-71316202D01*
X158911706Y-71268335D01*
X158789025Y-71243932D01*
X158262233Y-71243932D01*
X158103483Y-71402682D01*
X157849483Y-71402682D01*
X157690733Y-71243932D01*
X157163941Y-71243932D01*
X157041260Y-71268335D01*
X156925698Y-71316202D01*
X156824303Y-71383952D01*
X156780977Y-71348395D01*
X156670663Y-71289430D01*
X156586483Y-71263894D01*
X156586483Y-70757682D01*
X163793483Y-70757682D01*
X163793483Y-71069474D01*
X163817886Y-71192155D01*
X163865753Y-71307717D01*
X163935246Y-71411721D01*
X164023694Y-71500169D01*
X164127698Y-71569662D01*
X164243260Y-71617529D01*
X164365941Y-71641932D01*
X165042733Y-71641932D01*
X165201483Y-71483182D01*
X165201483Y-70598932D01*
X165455483Y-70598932D01*
X165455483Y-71483182D01*
X165614233Y-71641932D01*
X166291025Y-71641932D01*
X166413706Y-71617529D01*
X166529268Y-71569662D01*
X166633272Y-71500169D01*
X166721720Y-71411721D01*
X166791213Y-71307717D01*
X166839080Y-71192155D01*
X166863483Y-71069474D01*
X166863483Y-70757682D01*
X166704733Y-70598932D01*
X165455483Y-70598932D01*
X165201483Y-70598932D01*
X163952233Y-70598932D01*
X163793483Y-70757682D01*
X156586483Y-70757682D01*
X156586483Y-69874390D01*
X163793483Y-69874390D01*
X163793483Y-70186182D01*
X163952233Y-70344932D01*
X165201483Y-70344932D01*
X165201483Y-69460682D01*
X165455483Y-69460682D01*
X165455483Y-70344932D01*
X166704733Y-70344932D01*
X166863483Y-70186182D01*
X166863483Y-69874390D01*
X166839080Y-69751709D01*
X166791213Y-69636147D01*
X166721720Y-69532143D01*
X166633272Y-69443695D01*
X166529268Y-69374202D01*
X166413706Y-69326335D01*
X166291025Y-69301932D01*
X165614233Y-69301932D01*
X165455483Y-69460682D01*
X165201483Y-69460682D01*
X165042733Y-69301932D01*
X164365941Y-69301932D01*
X164243260Y-69326335D01*
X164127698Y-69374202D01*
X164023694Y-69443695D01*
X163935246Y-69532143D01*
X163865753Y-69636147D01*
X163817886Y-69751709D01*
X163793483Y-69874390D01*
X156586483Y-69874390D01*
X156586483Y-68217004D01*
X157576483Y-68217004D01*
X157700965Y-68204744D01*
X157820663Y-68168434D01*
X157930977Y-68109469D01*
X158027668Y-68030117D01*
X158107020Y-67933426D01*
X158165985Y-67823112D01*
X158202295Y-67703414D01*
X158214555Y-67578932D01*
X158214555Y-67488932D01*
X160188411Y-67488932D01*
X160188411Y-68532932D01*
X160200671Y-68657414D01*
X160236981Y-68777112D01*
X160295946Y-68887426D01*
X160375298Y-68984117D01*
X160471989Y-69063469D01*
X160582303Y-69122434D01*
X160702001Y-69158744D01*
X160826483Y-69171004D01*
X163226483Y-69171004D01*
X163350965Y-69158744D01*
X163470663Y-69122434D01*
X163580977Y-69063469D01*
X163677668Y-68984117D01*
X163757020Y-68887426D01*
X163815985Y-68777112D01*
X163852295Y-68657414D01*
X163864555Y-68532932D01*
X163864555Y-68412932D01*
X163948423Y-68412932D01*
X163977298Y-68448117D01*
X164073989Y-68527469D01*
X164184303Y-68586434D01*
X164304001Y-68622744D01*
X164428483Y-68635004D01*
X166228483Y-68635004D01*
X166352965Y-68622744D01*
X166472663Y-68586434D01*
X166582977Y-68527469D01*
X166679668Y-68448117D01*
X166759020Y-68351426D01*
X166817985Y-68241112D01*
X166854295Y-68121414D01*
X166866555Y-67996932D01*
X166866555Y-66926932D01*
X166854295Y-66802450D01*
X166817985Y-66682752D01*
X166759020Y-66572438D01*
X166679668Y-66475747D01*
X166582977Y-66396395D01*
X166472663Y-66337430D01*
X166352965Y-66301120D01*
X166228483Y-66288860D01*
X164428483Y-66288860D01*
X164304001Y-66301120D01*
X164184303Y-66337430D01*
X164073989Y-66396395D01*
X163977298Y-66475747D01*
X163897946Y-66572438D01*
X163886992Y-66592932D01*
X163864555Y-66592932D01*
X163864555Y-66472932D01*
X163852295Y-66348450D01*
X163815985Y-66228752D01*
X163757020Y-66118438D01*
X163677668Y-66021747D01*
X163580977Y-65942395D01*
X163470663Y-65883430D01*
X163350965Y-65847120D01*
X163226483Y-65834860D01*
X161630270Y-65834860D01*
X161610498Y-65818634D01*
X161452410Y-65734134D01*
X161280874Y-65682099D01*
X161147187Y-65668932D01*
X161147185Y-65668932D01*
X161102483Y-65664529D01*
X161057781Y-65668932D01*
X158214555Y-65668932D01*
X158214555Y-65578932D01*
X158202295Y-65454450D01*
X158165985Y-65334752D01*
X158107020Y-65224438D01*
X158027668Y-65127747D01*
X157930977Y-65048395D01*
X157820663Y-64989430D01*
X157700965Y-64953120D01*
X157576483Y-64940860D01*
X156586483Y-64940860D01*
X156586483Y-64185634D01*
X156590886Y-64140932D01*
X156584259Y-64073652D01*
X156573316Y-63962541D01*
X156521281Y-63791005D01*
X156436781Y-63632917D01*
X156323064Y-63494351D01*
X156288336Y-63465851D01*
X153754555Y-60932071D01*
X153754555Y-60446932D01*
X153742295Y-60322450D01*
X153705985Y-60202752D01*
X153647020Y-60092438D01*
X153567668Y-59995747D01*
X153470977Y-59916395D01*
X153360663Y-59857430D01*
X153240965Y-59821120D01*
X153116483Y-59808860D01*
X152772212Y-59808860D01*
X152763316Y-59718541D01*
X152711281Y-59547005D01*
X152684991Y-59497820D01*
X152626781Y-59388916D01*
X152587401Y-59340931D01*
X152513064Y-59250351D01*
X152478335Y-59221850D01*
X151168924Y-57912439D01*
X165974000Y-57912439D01*
X165974000Y-58165561D01*
X166023381Y-58413821D01*
X166120247Y-58647676D01*
X166260875Y-58858140D01*
X166439860Y-59037125D01*
X166650324Y-59177753D01*
X166884179Y-59274619D01*
X167132439Y-59324000D01*
X167244000Y-59324000D01*
X167244000Y-59435561D01*
X167293381Y-59683821D01*
X167390247Y-59917676D01*
X167530875Y-60128140D01*
X167709860Y-60307125D01*
X167920324Y-60447753D01*
X168154179Y-60544619D01*
X168402439Y-60594000D01*
X168655561Y-60594000D01*
X168903821Y-60544619D01*
X169137676Y-60447753D01*
X169348140Y-60307125D01*
X169527125Y-60128140D01*
X169667753Y-59917676D01*
X169764619Y-59683821D01*
X169814000Y-59435561D01*
X169814000Y-59327072D01*
X170449000Y-59327072D01*
X170573482Y-59314812D01*
X170693180Y-59278502D01*
X170803494Y-59219537D01*
X170900185Y-59140185D01*
X170979537Y-59043494D01*
X171038502Y-58933180D01*
X171074812Y-58813482D01*
X171087072Y-58689000D01*
X171087072Y-58087500D01*
X171558928Y-58087500D01*
X171558928Y-59387500D01*
X171571188Y-59511982D01*
X171607498Y-59631680D01*
X171666463Y-59741994D01*
X171745815Y-59838685D01*
X171842506Y-59918037D01*
X171952820Y-59977002D01*
X172072518Y-60013312D01*
X172197000Y-60025572D01*
X173497000Y-60025572D01*
X173621482Y-60013312D01*
X173741180Y-59977002D01*
X173851494Y-59918037D01*
X173948185Y-59838685D01*
X174027537Y-59741994D01*
X174086502Y-59631680D01*
X174122812Y-59511982D01*
X174135072Y-59387500D01*
X174135072Y-59030328D01*
X174151381Y-59112321D01*
X174248247Y-59346176D01*
X174388875Y-59556640D01*
X174567860Y-59735625D01*
X174778324Y-59876253D01*
X175012179Y-59973119D01*
X175260439Y-60022500D01*
X175513561Y-60022500D01*
X175761821Y-59973119D01*
X175995676Y-59876253D01*
X176196599Y-59742000D01*
X183173928Y-59742000D01*
X183173928Y-66242000D01*
X183186188Y-66366482D01*
X183222498Y-66486180D01*
X183281463Y-66596494D01*
X183360815Y-66693185D01*
X183457506Y-66772537D01*
X183567820Y-66831502D01*
X183687518Y-66867812D01*
X183812000Y-66880072D01*
X186012000Y-66880072D01*
X186136482Y-66867812D01*
X186256180Y-66831502D01*
X186366494Y-66772537D01*
X186463185Y-66693185D01*
X186542537Y-66596494D01*
X186601502Y-66486180D01*
X186637812Y-66366482D01*
X186650072Y-66242000D01*
X186650072Y-59742000D01*
X186637812Y-59617518D01*
X186601502Y-59497820D01*
X186542537Y-59387506D01*
X186463185Y-59290815D01*
X186366494Y-59211463D01*
X186256180Y-59152498D01*
X186136482Y-59116188D01*
X186012000Y-59103928D01*
X183812000Y-59103928D01*
X183687518Y-59116188D01*
X183567820Y-59152498D01*
X183457506Y-59211463D01*
X183360815Y-59290815D01*
X183281463Y-59387506D01*
X183222498Y-59497820D01*
X183186188Y-59617518D01*
X183173928Y-59742000D01*
X176196599Y-59742000D01*
X176206140Y-59735625D01*
X176385125Y-59556640D01*
X176525753Y-59346176D01*
X176622619Y-59112321D01*
X176672000Y-58864061D01*
X176672000Y-58610939D01*
X176622619Y-58362679D01*
X176525753Y-58128824D01*
X176385125Y-57918360D01*
X176206140Y-57739375D01*
X175995676Y-57598747D01*
X175761821Y-57501881D01*
X175513561Y-57452500D01*
X175402000Y-57452500D01*
X175402000Y-57340939D01*
X175360085Y-57130212D01*
X182827000Y-57130212D01*
X182827000Y-57353788D01*
X182870617Y-57573067D01*
X182956176Y-57779624D01*
X183080388Y-57965520D01*
X183238480Y-58123612D01*
X183424376Y-58247824D01*
X183630933Y-58333383D01*
X183850212Y-58377000D01*
X184073788Y-58377000D01*
X184293067Y-58333383D01*
X184499624Y-58247824D01*
X184685520Y-58123612D01*
X184843612Y-57965520D01*
X184912000Y-57863170D01*
X184980388Y-57965520D01*
X185138480Y-58123612D01*
X185324376Y-58247824D01*
X185530933Y-58333383D01*
X185750212Y-58377000D01*
X185973788Y-58377000D01*
X186193067Y-58333383D01*
X186399624Y-58247824D01*
X186585520Y-58123612D01*
X186743612Y-57965520D01*
X186867824Y-57779624D01*
X186953383Y-57573067D01*
X186997000Y-57353788D01*
X186997000Y-57130212D01*
X186953383Y-56910933D01*
X186867824Y-56704376D01*
X186743612Y-56518480D01*
X186585520Y-56360388D01*
X186399624Y-56236176D01*
X186193067Y-56150617D01*
X185973788Y-56107000D01*
X185750212Y-56107000D01*
X185530933Y-56150617D01*
X185324376Y-56236176D01*
X185138480Y-56360388D01*
X184980388Y-56518480D01*
X184912000Y-56620830D01*
X184843612Y-56518480D01*
X184685520Y-56360388D01*
X184499624Y-56236176D01*
X184293067Y-56150617D01*
X184073788Y-56107000D01*
X183850212Y-56107000D01*
X183630933Y-56150617D01*
X183424376Y-56236176D01*
X183238480Y-56360388D01*
X183080388Y-56518480D01*
X182956176Y-56704376D01*
X182870617Y-56910933D01*
X182827000Y-57130212D01*
X175360085Y-57130212D01*
X175352619Y-57092679D01*
X175255753Y-56858824D01*
X175115125Y-56648360D01*
X174936140Y-56469375D01*
X174725676Y-56328747D01*
X174491821Y-56231881D01*
X174243561Y-56182500D01*
X173990439Y-56182500D01*
X173742179Y-56231881D01*
X173508324Y-56328747D01*
X173297860Y-56469375D01*
X173118875Y-56648360D01*
X172978247Y-56858824D01*
X172881381Y-57092679D01*
X172832000Y-57340939D01*
X172832000Y-57449428D01*
X172197000Y-57449428D01*
X172072518Y-57461688D01*
X171952820Y-57497998D01*
X171842506Y-57556963D01*
X171745815Y-57636315D01*
X171666463Y-57733006D01*
X171607498Y-57843320D01*
X171571188Y-57963018D01*
X171558928Y-58087500D01*
X171087072Y-58087500D01*
X171087072Y-57389000D01*
X171074812Y-57264518D01*
X171038502Y-57144820D01*
X170979537Y-57034506D01*
X170900185Y-56937815D01*
X170803494Y-56858463D01*
X170693180Y-56799498D01*
X170573482Y-56763188D01*
X170449000Y-56750928D01*
X169149000Y-56750928D01*
X169024518Y-56763188D01*
X168904820Y-56799498D01*
X168794506Y-56858463D01*
X168697815Y-56937815D01*
X168618463Y-57034506D01*
X168559498Y-57144820D01*
X168523188Y-57264518D01*
X168510928Y-57389000D01*
X168510928Y-57746172D01*
X168494619Y-57664179D01*
X168397753Y-57430324D01*
X168257125Y-57219860D01*
X168078140Y-57040875D01*
X167867676Y-56900247D01*
X167633821Y-56803381D01*
X167385561Y-56754000D01*
X167132439Y-56754000D01*
X166884179Y-56803381D01*
X166650324Y-56900247D01*
X166439860Y-57040875D01*
X166260875Y-57219860D01*
X166120247Y-57430324D01*
X166023381Y-57664179D01*
X165974000Y-57912439D01*
X151168924Y-57912439D01*
X150302638Y-57046154D01*
X150274132Y-57011419D01*
X150135566Y-56897702D01*
X149977478Y-56813202D01*
X149805942Y-56761167D01*
X149672255Y-56748000D01*
X149672253Y-56748000D01*
X149627551Y-56743597D01*
X149582849Y-56748000D01*
X136696702Y-56748000D01*
X136652000Y-56743597D01*
X136607298Y-56748000D01*
X136607296Y-56748000D01*
X136473609Y-56761167D01*
X136302073Y-56813202D01*
X136143985Y-56897702D01*
X136005419Y-57011419D01*
X135976917Y-57046149D01*
X135405153Y-57617914D01*
X135370419Y-57646419D01*
X135285953Y-57749343D01*
X135256702Y-57784985D01*
X135203887Y-57883795D01*
X135172202Y-57943074D01*
X135120167Y-58114610D01*
X135107047Y-58247824D01*
X135102597Y-58293000D01*
X135103760Y-58304810D01*
X135099795Y-58310744D01*
X135021774Y-58499102D01*
X134982000Y-58699061D01*
X119507000Y-58699061D01*
X119507000Y-52236000D01*
X170596928Y-52236000D01*
X170596928Y-53936000D01*
X170609188Y-54060482D01*
X170645498Y-54180180D01*
X170704463Y-54290494D01*
X170783815Y-54387185D01*
X170880506Y-54466537D01*
X170990820Y-54525502D01*
X171110518Y-54561812D01*
X171235000Y-54574072D01*
X172935000Y-54574072D01*
X173059482Y-54561812D01*
X173179180Y-54525502D01*
X173289494Y-54466537D01*
X173386185Y-54387185D01*
X173465537Y-54290494D01*
X173524502Y-54180180D01*
X173545393Y-54111313D01*
X173569866Y-54141134D01*
X173795986Y-54326706D01*
X174053966Y-54464599D01*
X174333889Y-54549513D01*
X174552050Y-54571000D01*
X174697950Y-54571000D01*
X174916111Y-54549513D01*
X175196034Y-54464599D01*
X175454014Y-54326706D01*
X175680134Y-54141134D01*
X175865706Y-53915014D01*
X175895000Y-53860209D01*
X175924294Y-53915014D01*
X176109866Y-54141134D01*
X176335986Y-54326706D01*
X176593966Y-54464599D01*
X176873889Y-54549513D01*
X177092050Y-54571000D01*
X177237950Y-54571000D01*
X177456111Y-54549513D01*
X177736034Y-54464599D01*
X177994014Y-54326706D01*
X178220134Y-54141134D01*
X178405706Y-53915014D01*
X178435000Y-53860209D01*
X178464294Y-53915014D01*
X178649866Y-54141134D01*
X178875986Y-54326706D01*
X179133966Y-54464599D01*
X179413889Y-54549513D01*
X179632050Y-54571000D01*
X179777950Y-54571000D01*
X179996111Y-54549513D01*
X180276034Y-54464599D01*
X180534014Y-54326706D01*
X180760134Y-54141134D01*
X180945706Y-53915014D01*
X180980201Y-53850477D01*
X181049822Y-53967355D01*
X181244731Y-54183588D01*
X181478080Y-54357641D01*
X181740901Y-54482825D01*
X181888110Y-54527476D01*
X182118000Y-54406155D01*
X182118000Y-53213000D01*
X182372000Y-53213000D01*
X182372000Y-54406155D01*
X182601890Y-54527476D01*
X182749099Y-54482825D01*
X183011920Y-54357641D01*
X183245269Y-54183588D01*
X183440178Y-53967355D01*
X183589157Y-53717252D01*
X183609333Y-53660374D01*
X195707000Y-53660374D01*
X195707000Y-54035626D01*
X195780209Y-54403668D01*
X195923811Y-54750356D01*
X196132290Y-55062366D01*
X196397634Y-55327710D01*
X196709644Y-55536189D01*
X197056332Y-55679791D01*
X197424374Y-55753000D01*
X197799626Y-55753000D01*
X198167668Y-55679791D01*
X198514356Y-55536189D01*
X198826366Y-55327710D01*
X199091710Y-55062366D01*
X199300189Y-54750356D01*
X199443791Y-54403668D01*
X199517000Y-54035626D01*
X199517000Y-53660374D01*
X199443791Y-53292332D01*
X199300189Y-52945644D01*
X199091710Y-52633634D01*
X198826366Y-52368290D01*
X198514356Y-52159811D01*
X198167668Y-52016209D01*
X197799626Y-51943000D01*
X197424374Y-51943000D01*
X197056332Y-52016209D01*
X196709644Y-52159811D01*
X196397634Y-52368290D01*
X196132290Y-52633634D01*
X195923811Y-52945644D01*
X195780209Y-53292332D01*
X195707000Y-53660374D01*
X183609333Y-53660374D01*
X183686481Y-53442891D01*
X183565814Y-53213000D01*
X182372000Y-53213000D01*
X182118000Y-53213000D01*
X182098000Y-53213000D01*
X182098000Y-52959000D01*
X182118000Y-52959000D01*
X182118000Y-51765845D01*
X182372000Y-51765845D01*
X182372000Y-52959000D01*
X183565814Y-52959000D01*
X183686481Y-52729109D01*
X183589157Y-52454748D01*
X183440178Y-52204645D01*
X183245269Y-51988412D01*
X183011920Y-51814359D01*
X182749099Y-51689175D01*
X182601890Y-51644524D01*
X182372000Y-51765845D01*
X182118000Y-51765845D01*
X181888110Y-51644524D01*
X181740901Y-51689175D01*
X181478080Y-51814359D01*
X181244731Y-51988412D01*
X181049822Y-52204645D01*
X180980201Y-52321523D01*
X180945706Y-52256986D01*
X180760134Y-52030866D01*
X180534014Y-51845294D01*
X180276034Y-51707401D01*
X179996111Y-51622487D01*
X179777950Y-51601000D01*
X179632050Y-51601000D01*
X179413889Y-51622487D01*
X179133966Y-51707401D01*
X178875986Y-51845294D01*
X178649866Y-52030866D01*
X178464294Y-52256986D01*
X178435000Y-52311791D01*
X178405706Y-52256986D01*
X178220134Y-52030866D01*
X177994014Y-51845294D01*
X177736034Y-51707401D01*
X177456111Y-51622487D01*
X177237950Y-51601000D01*
X177092050Y-51601000D01*
X176873889Y-51622487D01*
X176593966Y-51707401D01*
X176335986Y-51845294D01*
X176109866Y-52030866D01*
X175924294Y-52256986D01*
X175895000Y-52311791D01*
X175865706Y-52256986D01*
X175680134Y-52030866D01*
X175454014Y-51845294D01*
X175196034Y-51707401D01*
X174916111Y-51622487D01*
X174697950Y-51601000D01*
X174552050Y-51601000D01*
X174333889Y-51622487D01*
X174053966Y-51707401D01*
X173795986Y-51845294D01*
X173569866Y-52030866D01*
X173545393Y-52060687D01*
X173524502Y-51991820D01*
X173465537Y-51881506D01*
X173386185Y-51784815D01*
X173289494Y-51705463D01*
X173179180Y-51646498D01*
X173059482Y-51610188D01*
X172935000Y-51597928D01*
X171235000Y-51597928D01*
X171110518Y-51610188D01*
X170990820Y-51646498D01*
X170880506Y-51705463D01*
X170783815Y-51784815D01*
X170704463Y-51881506D01*
X170645498Y-51991820D01*
X170609188Y-52111518D01*
X170596928Y-52236000D01*
X119507000Y-52236000D01*
X119507000Y-49149000D01*
X209931000Y-49149000D01*
X209931000Y-91313000D01*
G04 #@! TD*
M02*
