G04 #@! TF.GenerationSoftware,KiCad,Pcbnew,(6.0.0-rc1-dev-313-g8db361882)*
G04 #@! TF.CreationDate,2018-09-01T22:17:23+02:00*
G04 #@! TF.ProjectId,Muxtemp,4D757874656D702E6B696361645F7063,rev?*
G04 #@! TF.SameCoordinates,Original*
G04 #@! TF.FileFunction,Legend,Bot*
G04 #@! TF.FilePolarity,Positive*
%FSLAX46Y46*%
G04 Gerber Fmt 4.6, Leading zero omitted, Abs format (unit mm)*
G04 Created by KiCad (PCBNEW (6.0.0-rc1-dev-313-g8db361882)) date 09/01/18 22:17:23*
%MOMM*%
%LPD*%
G01*
G04 APERTURE LIST*
%ADD10C,0.300000*%
%ADD11C,0.150000*%
%ADD12C,0.120000*%
G04 APERTURE END LIST*
D10*
X179681857Y-70968571D02*
X178824714Y-70968571D01*
X179253285Y-70968571D02*
X179253285Y-69468571D01*
X179110428Y-69682857D01*
X178967571Y-69825714D01*
X178824714Y-69897142D01*
X180396142Y-70968571D02*
X180681857Y-70968571D01*
X180824714Y-70897142D01*
X180896142Y-70825714D01*
X181039000Y-70611428D01*
X181110428Y-70325714D01*
X181110428Y-69754285D01*
X181039000Y-69611428D01*
X180967571Y-69540000D01*
X180824714Y-69468571D01*
X180539000Y-69468571D01*
X180396142Y-69540000D01*
X180324714Y-69611428D01*
X180253285Y-69754285D01*
X180253285Y-70111428D01*
X180324714Y-70254285D01*
X180396142Y-70325714D01*
X180539000Y-70397142D01*
X180824714Y-70397142D01*
X180967571Y-70325714D01*
X181039000Y-70254285D01*
X181110428Y-70111428D01*
X181824714Y-70897142D02*
X181824714Y-70968571D01*
X181753285Y-71111428D01*
X181681857Y-71182857D01*
X182681857Y-70111428D02*
X182539000Y-70040000D01*
X182467571Y-69968571D01*
X182396142Y-69825714D01*
X182396142Y-69754285D01*
X182467571Y-69611428D01*
X182539000Y-69540000D01*
X182681857Y-69468571D01*
X182967571Y-69468571D01*
X183110428Y-69540000D01*
X183181857Y-69611428D01*
X183253285Y-69754285D01*
X183253285Y-69825714D01*
X183181857Y-69968571D01*
X183110428Y-70040000D01*
X182967571Y-70111428D01*
X182681857Y-70111428D01*
X182539000Y-70182857D01*
X182467571Y-70254285D01*
X182396142Y-70397142D01*
X182396142Y-70682857D01*
X182467571Y-70825714D01*
X182539000Y-70897142D01*
X182681857Y-70968571D01*
X182967571Y-70968571D01*
X183110428Y-70897142D01*
X183181857Y-70825714D01*
X183253285Y-70682857D01*
X183253285Y-70397142D01*
X183181857Y-70254285D01*
X183110428Y-70182857D01*
X182967571Y-70111428D01*
X184681857Y-70968571D02*
X183824714Y-70968571D01*
X184253285Y-70968571D02*
X184253285Y-69468571D01*
X184110428Y-69682857D01*
X183967571Y-69825714D01*
X183824714Y-69897142D01*
X185253285Y-69611428D02*
X185324714Y-69540000D01*
X185467571Y-69468571D01*
X185824714Y-69468571D01*
X185967571Y-69540000D01*
X186039000Y-69611428D01*
X186110428Y-69754285D01*
X186110428Y-69897142D01*
X186039000Y-70111428D01*
X185181857Y-70968571D01*
X186110428Y-70968571D01*
X187896142Y-70968571D02*
X187896142Y-69968571D01*
X187896142Y-70111428D02*
X187967571Y-70040000D01*
X188110428Y-69968571D01*
X188324714Y-69968571D01*
X188467571Y-70040000D01*
X188539000Y-70182857D01*
X188539000Y-70968571D01*
X188539000Y-70182857D02*
X188610428Y-70040000D01*
X188753285Y-69968571D01*
X188967571Y-69968571D01*
X189110428Y-70040000D01*
X189181857Y-70182857D01*
X189181857Y-70968571D01*
X189896142Y-70968571D02*
X189896142Y-69968571D01*
X189896142Y-70111428D02*
X189967571Y-70040000D01*
X190110428Y-69968571D01*
X190324714Y-69968571D01*
X190467571Y-70040000D01*
X190539000Y-70182857D01*
X190539000Y-70968571D01*
X190539000Y-70182857D02*
X190610428Y-70040000D01*
X190753285Y-69968571D01*
X190967571Y-69968571D01*
X191110428Y-70040000D01*
X191181857Y-70182857D01*
X191181857Y-70968571D01*
X175133000Y-72390000D02*
X194945000Y-72390000D01*
X175133000Y-74168000D02*
X175133000Y-71803579D01*
X194945000Y-74168000D02*
X194945000Y-71803579D01*
X194945000Y-72390000D02*
X193818496Y-72976421D01*
X194945000Y-72390000D02*
X193818496Y-71803579D01*
X175133000Y-72390000D02*
X176259504Y-72976421D01*
X175133000Y-72390000D02*
X176259504Y-71803579D01*
D11*
G04 #@! TO.C,U1*
X144595000Y-82735000D02*
X144595000Y-82960000D01*
X137345000Y-82735000D02*
X137345000Y-83060000D01*
X137345000Y-89985000D02*
X137345000Y-89660000D01*
X144595000Y-89985000D02*
X144595000Y-89660000D01*
X144595000Y-82735000D02*
X144270000Y-82735000D01*
X144595000Y-89985000D02*
X144270000Y-89985000D01*
X137345000Y-89985000D02*
X137670000Y-89985000D01*
X137345000Y-82735000D02*
X137670000Y-82735000D01*
X144595000Y-82960000D02*
X146020000Y-82960000D01*
D12*
G04 #@! TO.C,R17*
X167284000Y-81640000D02*
X166284000Y-81640000D01*
X167284000Y-83460000D02*
X166284000Y-83460000D01*
G04 #@! TO.C,R18*
X184806000Y-85242000D02*
X184806000Y-84242000D01*
X182986000Y-85242000D02*
X182986000Y-84242000D01*
G04 #@! TO.C,F1*
X185572000Y-77322000D02*
X184572000Y-77322000D01*
X185572000Y-79142000D02*
X184572000Y-79142000D01*
G04 #@! TO.C,R7*
X182270000Y-101240000D02*
X181270000Y-101240000D01*
X182270000Y-99420000D02*
X181270000Y-99420000D01*
G04 #@! TO.C,R3*
X122326000Y-99420000D02*
X121326000Y-99420000D01*
X122326000Y-101240000D02*
X121326000Y-101240000D01*
G04 #@! TO.C,R15*
X176870000Y-101240000D02*
X175870000Y-101240000D01*
X176870000Y-99420000D02*
X175870000Y-99420000D01*
G04 #@! TO.C,R14*
X161884000Y-99420000D02*
X160884000Y-99420000D01*
X161884000Y-101240000D02*
X160884000Y-101240000D01*
G04 #@! TO.C,R13*
X146898000Y-101240000D02*
X145898000Y-101240000D01*
X146898000Y-99420000D02*
X145898000Y-99420000D01*
G04 #@! TO.C,R12*
X131912000Y-99420000D02*
X130912000Y-99420000D01*
X131912000Y-101240000D02*
X130912000Y-101240000D01*
G04 #@! TO.C,R11*
X116926000Y-101240000D02*
X115926000Y-101240000D01*
X116926000Y-99420000D02*
X115926000Y-99420000D01*
G04 #@! TO.C,R10*
X101940000Y-99420000D02*
X100940000Y-99420000D01*
X101940000Y-101240000D02*
X100940000Y-101240000D01*
G04 #@! TO.C,R6*
X167284000Y-101240000D02*
X166284000Y-101240000D01*
X167284000Y-99420000D02*
X166284000Y-99420000D01*
G04 #@! TO.C,R5*
X152298000Y-99420000D02*
X151298000Y-99420000D01*
X152298000Y-101240000D02*
X151298000Y-101240000D01*
G04 #@! TO.C,R4*
X137312000Y-101240000D02*
X136312000Y-101240000D01*
X137312000Y-99420000D02*
X136312000Y-99420000D01*
G04 #@! TO.C,R1*
X92354000Y-99420000D02*
X91354000Y-99420000D01*
X92354000Y-101240000D02*
X91354000Y-101240000D01*
G04 #@! TO.C,R2*
X107340000Y-101240000D02*
X106340000Y-101240000D01*
X107340000Y-99420000D02*
X106340000Y-99420000D01*
G04 #@! TO.C,R9*
X86954000Y-99420000D02*
X85954000Y-99420000D01*
X86954000Y-101240000D02*
X85954000Y-101240000D01*
G04 #@! TO.C,R8*
X197256000Y-101240000D02*
X196256000Y-101240000D01*
X197256000Y-99420000D02*
X196256000Y-99420000D01*
G04 #@! TO.C,R16*
X191856000Y-99420000D02*
X190856000Y-99420000D01*
X191856000Y-101240000D02*
X190856000Y-101240000D01*
G04 #@! TO.C,U1*
D11*
X141731904Y-79762380D02*
X141731904Y-80571904D01*
X141684285Y-80667142D01*
X141636666Y-80714761D01*
X141541428Y-80762380D01*
X141350952Y-80762380D01*
X141255714Y-80714761D01*
X141208095Y-80667142D01*
X141160476Y-80571904D01*
X141160476Y-79762380D01*
X140160476Y-80762380D02*
X140731904Y-80762380D01*
X140446190Y-80762380D02*
X140446190Y-79762380D01*
X140541428Y-79905238D01*
X140636666Y-80000476D01*
X140731904Y-80048095D01*
G04 #@! TO.C,R17*
X167426857Y-81152380D02*
X167760190Y-80676190D01*
X167998285Y-81152380D02*
X167998285Y-80152380D01*
X167617333Y-80152380D01*
X167522095Y-80200000D01*
X167474476Y-80247619D01*
X167426857Y-80342857D01*
X167426857Y-80485714D01*
X167474476Y-80580952D01*
X167522095Y-80628571D01*
X167617333Y-80676190D01*
X167998285Y-80676190D01*
X166474476Y-81152380D02*
X167045904Y-81152380D01*
X166760190Y-81152380D02*
X166760190Y-80152380D01*
X166855428Y-80295238D01*
X166950666Y-80390476D01*
X167045904Y-80438095D01*
X166141142Y-80152380D02*
X165474476Y-80152380D01*
X165903047Y-81152380D01*
G04 #@! TO.C,JP9*
X133458333Y-80368380D02*
X133458333Y-81082666D01*
X133505952Y-81225523D01*
X133601190Y-81320761D01*
X133744047Y-81368380D01*
X133839285Y-81368380D01*
X132982142Y-81368380D02*
X132982142Y-80368380D01*
X132601190Y-80368380D01*
X132505952Y-80416000D01*
X132458333Y-80463619D01*
X132410714Y-80558857D01*
X132410714Y-80701714D01*
X132458333Y-80796952D01*
X132505952Y-80844571D01*
X132601190Y-80892190D01*
X132982142Y-80892190D01*
X131934523Y-81368380D02*
X131744047Y-81368380D01*
X131648809Y-81320761D01*
X131601190Y-81273142D01*
X131505952Y-81130285D01*
X131458333Y-80939809D01*
X131458333Y-80558857D01*
X131505952Y-80463619D01*
X131553571Y-80416000D01*
X131648809Y-80368380D01*
X131839285Y-80368380D01*
X131934523Y-80416000D01*
X131982142Y-80463619D01*
X132029761Y-80558857D01*
X132029761Y-80796952D01*
X131982142Y-80892190D01*
X131934523Y-80939809D01*
X131839285Y-80987428D01*
X131648809Y-80987428D01*
X131553571Y-80939809D01*
X131505952Y-80892190D01*
X131458333Y-80796952D01*
G04 #@! TO.C,JP7*
X175872380Y-109111666D02*
X176586666Y-109111666D01*
X176729523Y-109064047D01*
X176824761Y-108968809D01*
X176872380Y-108825952D01*
X176872380Y-108730714D01*
X176872380Y-109587857D02*
X175872380Y-109587857D01*
X175872380Y-109968809D01*
X175920000Y-110064047D01*
X175967619Y-110111666D01*
X176062857Y-110159285D01*
X176205714Y-110159285D01*
X176300952Y-110111666D01*
X176348571Y-110064047D01*
X176396190Y-109968809D01*
X176396190Y-109587857D01*
X175872380Y-110492619D02*
X175872380Y-111159285D01*
X176872380Y-110730714D01*
G04 #@! TO.C,JP6*
X160886380Y-109111666D02*
X161600666Y-109111666D01*
X161743523Y-109064047D01*
X161838761Y-108968809D01*
X161886380Y-108825952D01*
X161886380Y-108730714D01*
X161886380Y-109587857D02*
X160886380Y-109587857D01*
X160886380Y-109968809D01*
X160934000Y-110064047D01*
X160981619Y-110111666D01*
X161076857Y-110159285D01*
X161219714Y-110159285D01*
X161314952Y-110111666D01*
X161362571Y-110064047D01*
X161410190Y-109968809D01*
X161410190Y-109587857D01*
X160886380Y-111016428D02*
X160886380Y-110825952D01*
X160934000Y-110730714D01*
X160981619Y-110683095D01*
X161124476Y-110587857D01*
X161314952Y-110540238D01*
X161695904Y-110540238D01*
X161791142Y-110587857D01*
X161838761Y-110635476D01*
X161886380Y-110730714D01*
X161886380Y-110921190D01*
X161838761Y-111016428D01*
X161791142Y-111064047D01*
X161695904Y-111111666D01*
X161457809Y-111111666D01*
X161362571Y-111064047D01*
X161314952Y-111016428D01*
X161267333Y-110921190D01*
X161267333Y-110730714D01*
X161314952Y-110635476D01*
X161362571Y-110587857D01*
X161457809Y-110540238D01*
G04 #@! TO.C,JP1*
X85956380Y-109111666D02*
X86670666Y-109111666D01*
X86813523Y-109064047D01*
X86908761Y-108968809D01*
X86956380Y-108825952D01*
X86956380Y-108730714D01*
X86956380Y-109587857D02*
X85956380Y-109587857D01*
X85956380Y-109968809D01*
X86004000Y-110064047D01*
X86051619Y-110111666D01*
X86146857Y-110159285D01*
X86289714Y-110159285D01*
X86384952Y-110111666D01*
X86432571Y-110064047D01*
X86480190Y-109968809D01*
X86480190Y-109587857D01*
X86956380Y-111111666D02*
X86956380Y-110540238D01*
X86956380Y-110825952D02*
X85956380Y-110825952D01*
X86099238Y-110730714D01*
X86194476Y-110635476D01*
X86242095Y-110540238D01*
G04 #@! TO.C,JP2*
X100942380Y-109111666D02*
X101656666Y-109111666D01*
X101799523Y-109064047D01*
X101894761Y-108968809D01*
X101942380Y-108825952D01*
X101942380Y-108730714D01*
X101942380Y-109587857D02*
X100942380Y-109587857D01*
X100942380Y-109968809D01*
X100990000Y-110064047D01*
X101037619Y-110111666D01*
X101132857Y-110159285D01*
X101275714Y-110159285D01*
X101370952Y-110111666D01*
X101418571Y-110064047D01*
X101466190Y-109968809D01*
X101466190Y-109587857D01*
X101037619Y-110540238D02*
X100990000Y-110587857D01*
X100942380Y-110683095D01*
X100942380Y-110921190D01*
X100990000Y-111016428D01*
X101037619Y-111064047D01*
X101132857Y-111111666D01*
X101228095Y-111111666D01*
X101370952Y-111064047D01*
X101942380Y-110492619D01*
X101942380Y-111111666D01*
G04 #@! TO.C,JP8*
X190858380Y-109111666D02*
X191572666Y-109111666D01*
X191715523Y-109064047D01*
X191810761Y-108968809D01*
X191858380Y-108825952D01*
X191858380Y-108730714D01*
X191858380Y-109587857D02*
X190858380Y-109587857D01*
X190858380Y-109968809D01*
X190906000Y-110064047D01*
X190953619Y-110111666D01*
X191048857Y-110159285D01*
X191191714Y-110159285D01*
X191286952Y-110111666D01*
X191334571Y-110064047D01*
X191382190Y-109968809D01*
X191382190Y-109587857D01*
X191286952Y-110730714D02*
X191239333Y-110635476D01*
X191191714Y-110587857D01*
X191096476Y-110540238D01*
X191048857Y-110540238D01*
X190953619Y-110587857D01*
X190906000Y-110635476D01*
X190858380Y-110730714D01*
X190858380Y-110921190D01*
X190906000Y-111016428D01*
X190953619Y-111064047D01*
X191048857Y-111111666D01*
X191096476Y-111111666D01*
X191191714Y-111064047D01*
X191239333Y-111016428D01*
X191286952Y-110921190D01*
X191286952Y-110730714D01*
X191334571Y-110635476D01*
X191382190Y-110587857D01*
X191477428Y-110540238D01*
X191667904Y-110540238D01*
X191763142Y-110587857D01*
X191810761Y-110635476D01*
X191858380Y-110730714D01*
X191858380Y-110921190D01*
X191810761Y-111016428D01*
X191763142Y-111064047D01*
X191667904Y-111111666D01*
X191477428Y-111111666D01*
X191382190Y-111064047D01*
X191334571Y-111016428D01*
X191286952Y-110921190D01*
G04 #@! TO.C,JP5*
X145900380Y-109111666D02*
X146614666Y-109111666D01*
X146757523Y-109064047D01*
X146852761Y-108968809D01*
X146900380Y-108825952D01*
X146900380Y-108730714D01*
X146900380Y-109587857D02*
X145900380Y-109587857D01*
X145900380Y-109968809D01*
X145948000Y-110064047D01*
X145995619Y-110111666D01*
X146090857Y-110159285D01*
X146233714Y-110159285D01*
X146328952Y-110111666D01*
X146376571Y-110064047D01*
X146424190Y-109968809D01*
X146424190Y-109587857D01*
X145900380Y-111064047D02*
X145900380Y-110587857D01*
X146376571Y-110540238D01*
X146328952Y-110587857D01*
X146281333Y-110683095D01*
X146281333Y-110921190D01*
X146328952Y-111016428D01*
X146376571Y-111064047D01*
X146471809Y-111111666D01*
X146709904Y-111111666D01*
X146805142Y-111064047D01*
X146852761Y-111016428D01*
X146900380Y-110921190D01*
X146900380Y-110683095D01*
X146852761Y-110587857D01*
X146805142Y-110540238D01*
G04 #@! TO.C,JP4*
X130914380Y-109111666D02*
X131628666Y-109111666D01*
X131771523Y-109064047D01*
X131866761Y-108968809D01*
X131914380Y-108825952D01*
X131914380Y-108730714D01*
X131914380Y-109587857D02*
X130914380Y-109587857D01*
X130914380Y-109968809D01*
X130962000Y-110064047D01*
X131009619Y-110111666D01*
X131104857Y-110159285D01*
X131247714Y-110159285D01*
X131342952Y-110111666D01*
X131390571Y-110064047D01*
X131438190Y-109968809D01*
X131438190Y-109587857D01*
X131247714Y-111016428D02*
X131914380Y-111016428D01*
X130866761Y-110778333D02*
X131581047Y-110540238D01*
X131581047Y-111159285D01*
G04 #@! TO.C,JP3*
X115928380Y-109111666D02*
X116642666Y-109111666D01*
X116785523Y-109064047D01*
X116880761Y-108968809D01*
X116928380Y-108825952D01*
X116928380Y-108730714D01*
X116928380Y-109587857D02*
X115928380Y-109587857D01*
X115928380Y-109968809D01*
X115976000Y-110064047D01*
X116023619Y-110111666D01*
X116118857Y-110159285D01*
X116261714Y-110159285D01*
X116356952Y-110111666D01*
X116404571Y-110064047D01*
X116452190Y-109968809D01*
X116452190Y-109587857D01*
X115928380Y-110492619D02*
X115928380Y-111111666D01*
X116309333Y-110778333D01*
X116309333Y-110921190D01*
X116356952Y-111016428D01*
X116404571Y-111064047D01*
X116499809Y-111111666D01*
X116737904Y-111111666D01*
X116833142Y-111064047D01*
X116880761Y-111016428D01*
X116928380Y-110921190D01*
X116928380Y-110635476D01*
X116880761Y-110540238D01*
X116833142Y-110492619D01*
G04 #@! TO.C,R18*
X186198380Y-84099142D02*
X185722190Y-83765809D01*
X186198380Y-83527714D02*
X185198380Y-83527714D01*
X185198380Y-83908666D01*
X185246000Y-84003904D01*
X185293619Y-84051523D01*
X185388857Y-84099142D01*
X185531714Y-84099142D01*
X185626952Y-84051523D01*
X185674571Y-84003904D01*
X185722190Y-83908666D01*
X185722190Y-83527714D01*
X186198380Y-85051523D02*
X186198380Y-84480095D01*
X186198380Y-84765809D02*
X185198380Y-84765809D01*
X185341238Y-84670571D01*
X185436476Y-84575333D01*
X185484095Y-84480095D01*
X185626952Y-85622952D02*
X185579333Y-85527714D01*
X185531714Y-85480095D01*
X185436476Y-85432476D01*
X185388857Y-85432476D01*
X185293619Y-85480095D01*
X185246000Y-85527714D01*
X185198380Y-85622952D01*
X185198380Y-85813428D01*
X185246000Y-85908666D01*
X185293619Y-85956285D01*
X185388857Y-86003904D01*
X185436476Y-86003904D01*
X185531714Y-85956285D01*
X185579333Y-85908666D01*
X185626952Y-85813428D01*
X185626952Y-85622952D01*
X185674571Y-85527714D01*
X185722190Y-85480095D01*
X185817428Y-85432476D01*
X186007904Y-85432476D01*
X186103142Y-85480095D01*
X186150761Y-85527714D01*
X186198380Y-85622952D01*
X186198380Y-85813428D01*
X186150761Y-85908666D01*
X186103142Y-85956285D01*
X186007904Y-86003904D01*
X185817428Y-86003904D01*
X185722190Y-85956285D01*
X185674571Y-85908666D01*
X185626952Y-85813428D01*
G04 #@! TO.C,F1*
X189375333Y-78795571D02*
X189708666Y-78795571D01*
X189708666Y-79319380D02*
X189708666Y-78319380D01*
X189232476Y-78319380D01*
X188327714Y-79319380D02*
X188899142Y-79319380D01*
X188613428Y-79319380D02*
X188613428Y-78319380D01*
X188708666Y-78462238D01*
X188803904Y-78557476D01*
X188899142Y-78605095D01*
G04 #@! TO.C,R7*
X181936666Y-98932380D02*
X182270000Y-98456190D01*
X182508095Y-98932380D02*
X182508095Y-97932380D01*
X182127142Y-97932380D01*
X182031904Y-97980000D01*
X181984285Y-98027619D01*
X181936666Y-98122857D01*
X181936666Y-98265714D01*
X181984285Y-98360952D01*
X182031904Y-98408571D01*
X182127142Y-98456190D01*
X182508095Y-98456190D01*
X181603333Y-97932380D02*
X180936666Y-97932380D01*
X181365238Y-98932380D01*
G04 #@! TO.C,R3*
X121992666Y-98932380D02*
X122326000Y-98456190D01*
X122564095Y-98932380D02*
X122564095Y-97932380D01*
X122183142Y-97932380D01*
X122087904Y-97980000D01*
X122040285Y-98027619D01*
X121992666Y-98122857D01*
X121992666Y-98265714D01*
X122040285Y-98360952D01*
X122087904Y-98408571D01*
X122183142Y-98456190D01*
X122564095Y-98456190D01*
X121659333Y-97932380D02*
X121040285Y-97932380D01*
X121373619Y-98313333D01*
X121230761Y-98313333D01*
X121135523Y-98360952D01*
X121087904Y-98408571D01*
X121040285Y-98503809D01*
X121040285Y-98741904D01*
X121087904Y-98837142D01*
X121135523Y-98884761D01*
X121230761Y-98932380D01*
X121516476Y-98932380D01*
X121611714Y-98884761D01*
X121659333Y-98837142D01*
G04 #@! TO.C,R15*
X177012857Y-98932380D02*
X177346190Y-98456190D01*
X177584285Y-98932380D02*
X177584285Y-97932380D01*
X177203333Y-97932380D01*
X177108095Y-97980000D01*
X177060476Y-98027619D01*
X177012857Y-98122857D01*
X177012857Y-98265714D01*
X177060476Y-98360952D01*
X177108095Y-98408571D01*
X177203333Y-98456190D01*
X177584285Y-98456190D01*
X176060476Y-98932380D02*
X176631904Y-98932380D01*
X176346190Y-98932380D02*
X176346190Y-97932380D01*
X176441428Y-98075238D01*
X176536666Y-98170476D01*
X176631904Y-98218095D01*
X175155714Y-97932380D02*
X175631904Y-97932380D01*
X175679523Y-98408571D01*
X175631904Y-98360952D01*
X175536666Y-98313333D01*
X175298571Y-98313333D01*
X175203333Y-98360952D01*
X175155714Y-98408571D01*
X175108095Y-98503809D01*
X175108095Y-98741904D01*
X175155714Y-98837142D01*
X175203333Y-98884761D01*
X175298571Y-98932380D01*
X175536666Y-98932380D01*
X175631904Y-98884761D01*
X175679523Y-98837142D01*
G04 #@! TO.C,R14*
X162026857Y-98932380D02*
X162360190Y-98456190D01*
X162598285Y-98932380D02*
X162598285Y-97932380D01*
X162217333Y-97932380D01*
X162122095Y-97980000D01*
X162074476Y-98027619D01*
X162026857Y-98122857D01*
X162026857Y-98265714D01*
X162074476Y-98360952D01*
X162122095Y-98408571D01*
X162217333Y-98456190D01*
X162598285Y-98456190D01*
X161074476Y-98932380D02*
X161645904Y-98932380D01*
X161360190Y-98932380D02*
X161360190Y-97932380D01*
X161455428Y-98075238D01*
X161550666Y-98170476D01*
X161645904Y-98218095D01*
X160217333Y-98265714D02*
X160217333Y-98932380D01*
X160455428Y-97884761D02*
X160693523Y-98599047D01*
X160074476Y-98599047D01*
G04 #@! TO.C,R13*
X147040857Y-98932380D02*
X147374190Y-98456190D01*
X147612285Y-98932380D02*
X147612285Y-97932380D01*
X147231333Y-97932380D01*
X147136095Y-97980000D01*
X147088476Y-98027619D01*
X147040857Y-98122857D01*
X147040857Y-98265714D01*
X147088476Y-98360952D01*
X147136095Y-98408571D01*
X147231333Y-98456190D01*
X147612285Y-98456190D01*
X146088476Y-98932380D02*
X146659904Y-98932380D01*
X146374190Y-98932380D02*
X146374190Y-97932380D01*
X146469428Y-98075238D01*
X146564666Y-98170476D01*
X146659904Y-98218095D01*
X145755142Y-97932380D02*
X145136095Y-97932380D01*
X145469428Y-98313333D01*
X145326571Y-98313333D01*
X145231333Y-98360952D01*
X145183714Y-98408571D01*
X145136095Y-98503809D01*
X145136095Y-98741904D01*
X145183714Y-98837142D01*
X145231333Y-98884761D01*
X145326571Y-98932380D01*
X145612285Y-98932380D01*
X145707523Y-98884761D01*
X145755142Y-98837142D01*
G04 #@! TO.C,R12*
X132054857Y-98932380D02*
X132388190Y-98456190D01*
X132626285Y-98932380D02*
X132626285Y-97932380D01*
X132245333Y-97932380D01*
X132150095Y-97980000D01*
X132102476Y-98027619D01*
X132054857Y-98122857D01*
X132054857Y-98265714D01*
X132102476Y-98360952D01*
X132150095Y-98408571D01*
X132245333Y-98456190D01*
X132626285Y-98456190D01*
X131102476Y-98932380D02*
X131673904Y-98932380D01*
X131388190Y-98932380D02*
X131388190Y-97932380D01*
X131483428Y-98075238D01*
X131578666Y-98170476D01*
X131673904Y-98218095D01*
X130721523Y-98027619D02*
X130673904Y-97980000D01*
X130578666Y-97932380D01*
X130340571Y-97932380D01*
X130245333Y-97980000D01*
X130197714Y-98027619D01*
X130150095Y-98122857D01*
X130150095Y-98218095D01*
X130197714Y-98360952D01*
X130769142Y-98932380D01*
X130150095Y-98932380D01*
G04 #@! TO.C,R11*
X117068857Y-98932380D02*
X117402190Y-98456190D01*
X117640285Y-98932380D02*
X117640285Y-97932380D01*
X117259333Y-97932380D01*
X117164095Y-97980000D01*
X117116476Y-98027619D01*
X117068857Y-98122857D01*
X117068857Y-98265714D01*
X117116476Y-98360952D01*
X117164095Y-98408571D01*
X117259333Y-98456190D01*
X117640285Y-98456190D01*
X116116476Y-98932380D02*
X116687904Y-98932380D01*
X116402190Y-98932380D02*
X116402190Y-97932380D01*
X116497428Y-98075238D01*
X116592666Y-98170476D01*
X116687904Y-98218095D01*
X115164095Y-98932380D02*
X115735523Y-98932380D01*
X115449809Y-98932380D02*
X115449809Y-97932380D01*
X115545047Y-98075238D01*
X115640285Y-98170476D01*
X115735523Y-98218095D01*
G04 #@! TO.C,R10*
X102082857Y-98932380D02*
X102416190Y-98456190D01*
X102654285Y-98932380D02*
X102654285Y-97932380D01*
X102273333Y-97932380D01*
X102178095Y-97980000D01*
X102130476Y-98027619D01*
X102082857Y-98122857D01*
X102082857Y-98265714D01*
X102130476Y-98360952D01*
X102178095Y-98408571D01*
X102273333Y-98456190D01*
X102654285Y-98456190D01*
X101130476Y-98932380D02*
X101701904Y-98932380D01*
X101416190Y-98932380D02*
X101416190Y-97932380D01*
X101511428Y-98075238D01*
X101606666Y-98170476D01*
X101701904Y-98218095D01*
X100511428Y-97932380D02*
X100416190Y-97932380D01*
X100320952Y-97980000D01*
X100273333Y-98027619D01*
X100225714Y-98122857D01*
X100178095Y-98313333D01*
X100178095Y-98551428D01*
X100225714Y-98741904D01*
X100273333Y-98837142D01*
X100320952Y-98884761D01*
X100416190Y-98932380D01*
X100511428Y-98932380D01*
X100606666Y-98884761D01*
X100654285Y-98837142D01*
X100701904Y-98741904D01*
X100749523Y-98551428D01*
X100749523Y-98313333D01*
X100701904Y-98122857D01*
X100654285Y-98027619D01*
X100606666Y-97980000D01*
X100511428Y-97932380D01*
G04 #@! TO.C,R6*
X166950666Y-98932380D02*
X167284000Y-98456190D01*
X167522095Y-98932380D02*
X167522095Y-97932380D01*
X167141142Y-97932380D01*
X167045904Y-97980000D01*
X166998285Y-98027619D01*
X166950666Y-98122857D01*
X166950666Y-98265714D01*
X166998285Y-98360952D01*
X167045904Y-98408571D01*
X167141142Y-98456190D01*
X167522095Y-98456190D01*
X166093523Y-97932380D02*
X166284000Y-97932380D01*
X166379238Y-97980000D01*
X166426857Y-98027619D01*
X166522095Y-98170476D01*
X166569714Y-98360952D01*
X166569714Y-98741904D01*
X166522095Y-98837142D01*
X166474476Y-98884761D01*
X166379238Y-98932380D01*
X166188761Y-98932380D01*
X166093523Y-98884761D01*
X166045904Y-98837142D01*
X165998285Y-98741904D01*
X165998285Y-98503809D01*
X166045904Y-98408571D01*
X166093523Y-98360952D01*
X166188761Y-98313333D01*
X166379238Y-98313333D01*
X166474476Y-98360952D01*
X166522095Y-98408571D01*
X166569714Y-98503809D01*
G04 #@! TO.C,R5*
X151964666Y-98932380D02*
X152298000Y-98456190D01*
X152536095Y-98932380D02*
X152536095Y-97932380D01*
X152155142Y-97932380D01*
X152059904Y-97980000D01*
X152012285Y-98027619D01*
X151964666Y-98122857D01*
X151964666Y-98265714D01*
X152012285Y-98360952D01*
X152059904Y-98408571D01*
X152155142Y-98456190D01*
X152536095Y-98456190D01*
X151059904Y-97932380D02*
X151536095Y-97932380D01*
X151583714Y-98408571D01*
X151536095Y-98360952D01*
X151440857Y-98313333D01*
X151202761Y-98313333D01*
X151107523Y-98360952D01*
X151059904Y-98408571D01*
X151012285Y-98503809D01*
X151012285Y-98741904D01*
X151059904Y-98837142D01*
X151107523Y-98884761D01*
X151202761Y-98932380D01*
X151440857Y-98932380D01*
X151536095Y-98884761D01*
X151583714Y-98837142D01*
G04 #@! TO.C,R4*
X136978666Y-98932380D02*
X137312000Y-98456190D01*
X137550095Y-98932380D02*
X137550095Y-97932380D01*
X137169142Y-97932380D01*
X137073904Y-97980000D01*
X137026285Y-98027619D01*
X136978666Y-98122857D01*
X136978666Y-98265714D01*
X137026285Y-98360952D01*
X137073904Y-98408571D01*
X137169142Y-98456190D01*
X137550095Y-98456190D01*
X136121523Y-98265714D02*
X136121523Y-98932380D01*
X136359619Y-97884761D02*
X136597714Y-98599047D01*
X135978666Y-98599047D01*
G04 #@! TO.C,R1*
X92020666Y-98932380D02*
X92354000Y-98456190D01*
X92592095Y-98932380D02*
X92592095Y-97932380D01*
X92211142Y-97932380D01*
X92115904Y-97980000D01*
X92068285Y-98027619D01*
X92020666Y-98122857D01*
X92020666Y-98265714D01*
X92068285Y-98360952D01*
X92115904Y-98408571D01*
X92211142Y-98456190D01*
X92592095Y-98456190D01*
X91068285Y-98932380D02*
X91639714Y-98932380D01*
X91354000Y-98932380D02*
X91354000Y-97932380D01*
X91449238Y-98075238D01*
X91544476Y-98170476D01*
X91639714Y-98218095D01*
G04 #@! TO.C,R2*
X107006666Y-98932380D02*
X107340000Y-98456190D01*
X107578095Y-98932380D02*
X107578095Y-97932380D01*
X107197142Y-97932380D01*
X107101904Y-97980000D01*
X107054285Y-98027619D01*
X107006666Y-98122857D01*
X107006666Y-98265714D01*
X107054285Y-98360952D01*
X107101904Y-98408571D01*
X107197142Y-98456190D01*
X107578095Y-98456190D01*
X106625714Y-98027619D02*
X106578095Y-97980000D01*
X106482857Y-97932380D01*
X106244761Y-97932380D01*
X106149523Y-97980000D01*
X106101904Y-98027619D01*
X106054285Y-98122857D01*
X106054285Y-98218095D01*
X106101904Y-98360952D01*
X106673333Y-98932380D01*
X106054285Y-98932380D01*
G04 #@! TO.C,R9*
X86620666Y-98932380D02*
X86954000Y-98456190D01*
X87192095Y-98932380D02*
X87192095Y-97932380D01*
X86811142Y-97932380D01*
X86715904Y-97980000D01*
X86668285Y-98027619D01*
X86620666Y-98122857D01*
X86620666Y-98265714D01*
X86668285Y-98360952D01*
X86715904Y-98408571D01*
X86811142Y-98456190D01*
X87192095Y-98456190D01*
X86144476Y-98932380D02*
X85954000Y-98932380D01*
X85858761Y-98884761D01*
X85811142Y-98837142D01*
X85715904Y-98694285D01*
X85668285Y-98503809D01*
X85668285Y-98122857D01*
X85715904Y-98027619D01*
X85763523Y-97980000D01*
X85858761Y-97932380D01*
X86049238Y-97932380D01*
X86144476Y-97980000D01*
X86192095Y-98027619D01*
X86239714Y-98122857D01*
X86239714Y-98360952D01*
X86192095Y-98456190D01*
X86144476Y-98503809D01*
X86049238Y-98551428D01*
X85858761Y-98551428D01*
X85763523Y-98503809D01*
X85715904Y-98456190D01*
X85668285Y-98360952D01*
G04 #@! TO.C,R8*
X196922666Y-98932380D02*
X197256000Y-98456190D01*
X197494095Y-98932380D02*
X197494095Y-97932380D01*
X197113142Y-97932380D01*
X197017904Y-97980000D01*
X196970285Y-98027619D01*
X196922666Y-98122857D01*
X196922666Y-98265714D01*
X196970285Y-98360952D01*
X197017904Y-98408571D01*
X197113142Y-98456190D01*
X197494095Y-98456190D01*
X196351238Y-98360952D02*
X196446476Y-98313333D01*
X196494095Y-98265714D01*
X196541714Y-98170476D01*
X196541714Y-98122857D01*
X196494095Y-98027619D01*
X196446476Y-97980000D01*
X196351238Y-97932380D01*
X196160761Y-97932380D01*
X196065523Y-97980000D01*
X196017904Y-98027619D01*
X195970285Y-98122857D01*
X195970285Y-98170476D01*
X196017904Y-98265714D01*
X196065523Y-98313333D01*
X196160761Y-98360952D01*
X196351238Y-98360952D01*
X196446476Y-98408571D01*
X196494095Y-98456190D01*
X196541714Y-98551428D01*
X196541714Y-98741904D01*
X196494095Y-98837142D01*
X196446476Y-98884761D01*
X196351238Y-98932380D01*
X196160761Y-98932380D01*
X196065523Y-98884761D01*
X196017904Y-98837142D01*
X195970285Y-98741904D01*
X195970285Y-98551428D01*
X196017904Y-98456190D01*
X196065523Y-98408571D01*
X196160761Y-98360952D01*
G04 #@! TO.C,R16*
X191998857Y-98932380D02*
X192332190Y-98456190D01*
X192570285Y-98932380D02*
X192570285Y-97932380D01*
X192189333Y-97932380D01*
X192094095Y-97980000D01*
X192046476Y-98027619D01*
X191998857Y-98122857D01*
X191998857Y-98265714D01*
X192046476Y-98360952D01*
X192094095Y-98408571D01*
X192189333Y-98456190D01*
X192570285Y-98456190D01*
X191046476Y-98932380D02*
X191617904Y-98932380D01*
X191332190Y-98932380D02*
X191332190Y-97932380D01*
X191427428Y-98075238D01*
X191522666Y-98170476D01*
X191617904Y-98218095D01*
X190189333Y-97932380D02*
X190379809Y-97932380D01*
X190475047Y-97980000D01*
X190522666Y-98027619D01*
X190617904Y-98170476D01*
X190665523Y-98360952D01*
X190665523Y-98741904D01*
X190617904Y-98837142D01*
X190570285Y-98884761D01*
X190475047Y-98932380D01*
X190284571Y-98932380D01*
X190189333Y-98884761D01*
X190141714Y-98837142D01*
X190094095Y-98741904D01*
X190094095Y-98503809D01*
X190141714Y-98408571D01*
X190189333Y-98360952D01*
X190284571Y-98313333D01*
X190475047Y-98313333D01*
X190570285Y-98360952D01*
X190617904Y-98408571D01*
X190665523Y-98503809D01*
G04 #@! TD*
M02*
