G04 #@! TF.GenerationSoftware,KiCad,Pcbnew,(6.0.0-rc1-dev-313-g8db361882)*
G04 #@! TF.CreationDate,2018-09-01T22:17:23+02:00*
G04 #@! TF.ProjectId,Muxtemp,4D757874656D702E6B696361645F7063,rev?*
G04 #@! TF.SameCoordinates,Original*
G04 #@! TF.FileFunction,Soldermask,Bot*
G04 #@! TF.FilePolarity,Negative*
%FSLAX46Y46*%
G04 Gerber Fmt 4.6, Leading zero omitted, Abs format (unit mm)*
G04 Created by KiCad (PCBNEW (6.0.0-rc1-dev-313-g8db361882)) date 09/01/18 22:17:23*
%MOMM*%
%LPD*%
G01*
G04 APERTURE LIST*
%ADD10R,1.700000X1.700000*%
%ADD11O,1.700000X1.700000*%
%ADD12C,3.250000*%
%ADD13C,1.450000*%
%ADD14R,1.600000X0.550000*%
%ADD15R,0.550000X1.600000*%
%ADD16R,1.220000X1.800000*%
%ADD17C,1.600000*%
%ADD18O,1.600000X1.600000*%
%ADD19R,1.070000X3.400000*%
%ADD20R,3.400000X1.070000*%
%ADD21R,1.800000X1.220000*%
G04 APERTURE END LIST*
D10*
G04 #@! TO.C,J10*
X157734000Y-85852000D03*
D11*
X160274000Y-85852000D03*
X162814000Y-85852000D03*
X165354000Y-85852000D03*
X167894000Y-85852000D03*
X170434000Y-85852000D03*
X172974000Y-85852000D03*
G04 #@! TD*
D12*
G04 #@! TO.C,J3*
X123571000Y-113030000D03*
X113411000Y-113030000D03*
D13*
X121666000Y-106680000D03*
X120396000Y-104140000D03*
X119126000Y-106680000D03*
X117856000Y-104140000D03*
X116586000Y-106680000D03*
X115316000Y-104140000D03*
G04 #@! TD*
D12*
G04 #@! TO.C,J8*
X198501000Y-113030000D03*
X188341000Y-113030000D03*
D13*
X196596000Y-106680000D03*
X195326000Y-104140000D03*
X194056000Y-106680000D03*
X192786000Y-104140000D03*
X191516000Y-106680000D03*
X190246000Y-104140000D03*
G04 #@! TD*
D11*
G04 #@! TO.C,J9*
X99060000Y-93726000D03*
X101600000Y-93726000D03*
X104140000Y-93726000D03*
D10*
X106680000Y-93726000D03*
G04 #@! TD*
G04 #@! TO.C,J11*
X179832000Y-78232000D03*
D11*
X179832000Y-80772000D03*
X179832000Y-83312000D03*
X179832000Y-85852000D03*
G04 #@! TD*
D14*
G04 #@! TO.C,U1*
X145220000Y-83560000D03*
X145220000Y-84360000D03*
X145220000Y-85160000D03*
X145220000Y-85960000D03*
X145220000Y-86760000D03*
X145220000Y-87560000D03*
X145220000Y-88360000D03*
X145220000Y-89160000D03*
D15*
X143770000Y-90610000D03*
X142970000Y-90610000D03*
X142170000Y-90610000D03*
X141370000Y-90610000D03*
X140570000Y-90610000D03*
X139770000Y-90610000D03*
X138970000Y-90610000D03*
X138170000Y-90610000D03*
D14*
X136720000Y-89160000D03*
X136720000Y-88360000D03*
X136720000Y-87560000D03*
X136720000Y-86760000D03*
X136720000Y-85960000D03*
X136720000Y-85160000D03*
X136720000Y-84360000D03*
X136720000Y-83560000D03*
D15*
X138170000Y-82110000D03*
X138970000Y-82110000D03*
X139770000Y-82110000D03*
X140570000Y-82110000D03*
X141370000Y-82110000D03*
X142170000Y-82110000D03*
X142970000Y-82110000D03*
X143770000Y-82110000D03*
G04 #@! TD*
D16*
G04 #@! TO.C,R17*
X168214000Y-82550000D03*
X165354000Y-82550000D03*
G04 #@! TD*
D17*
G04 #@! TO.C,R19*
X149098000Y-90424000D03*
D18*
X149098000Y-80264000D03*
G04 #@! TD*
D19*
G04 #@! TO.C,JP9*
X133350000Y-83566000D03*
X131900000Y-83566000D03*
G04 #@! TD*
D20*
G04 #@! TO.C,JP7*
X179070000Y-110670000D03*
X179070000Y-109220000D03*
G04 #@! TD*
G04 #@! TO.C,JP6*
X164084000Y-109220000D03*
X164084000Y-110670000D03*
G04 #@! TD*
G04 #@! TO.C,JP1*
X89154000Y-110670000D03*
X89154000Y-109220000D03*
G04 #@! TD*
G04 #@! TO.C,JP2*
X104140000Y-109220000D03*
X104140000Y-110670000D03*
G04 #@! TD*
G04 #@! TO.C,JP8*
X194056000Y-110670000D03*
X194056000Y-109220000D03*
G04 #@! TD*
G04 #@! TO.C,JP5*
X149098000Y-109220000D03*
X149098000Y-110670000D03*
G04 #@! TD*
G04 #@! TO.C,JP4*
X134112000Y-110670000D03*
X134112000Y-109220000D03*
G04 #@! TD*
G04 #@! TO.C,JP3*
X119126000Y-109220000D03*
X119126000Y-110670000D03*
G04 #@! TD*
D21*
G04 #@! TO.C,R18*
X183896000Y-86172000D03*
X183896000Y-83312000D03*
G04 #@! TD*
D16*
G04 #@! TO.C,F1*
X186502000Y-78232000D03*
X183642000Y-78232000D03*
G04 #@! TD*
D12*
G04 #@! TO.C,J6*
X168529000Y-113030000D03*
X158369000Y-113030000D03*
D13*
X166624000Y-106680000D03*
X165354000Y-104140000D03*
X164084000Y-106680000D03*
X162814000Y-104140000D03*
X161544000Y-106680000D03*
X160274000Y-104140000D03*
G04 #@! TD*
G04 #@! TO.C,J1*
X85344000Y-104140000D03*
X86614000Y-106680000D03*
X87884000Y-104140000D03*
X89154000Y-106680000D03*
X90424000Y-104140000D03*
X91694000Y-106680000D03*
D12*
X83439000Y-113030000D03*
X93599000Y-113030000D03*
G04 #@! TD*
D13*
G04 #@! TO.C,J4*
X130302000Y-104140000D03*
X131572000Y-106680000D03*
X132842000Y-104140000D03*
X134112000Y-106680000D03*
X135382000Y-104140000D03*
X136652000Y-106680000D03*
D12*
X128397000Y-113030000D03*
X138557000Y-113030000D03*
G04 #@! TD*
G04 #@! TO.C,J5*
X153543000Y-113030000D03*
X143383000Y-113030000D03*
D13*
X151638000Y-106680000D03*
X150368000Y-104140000D03*
X149098000Y-106680000D03*
X147828000Y-104140000D03*
X146558000Y-106680000D03*
X145288000Y-104140000D03*
G04 #@! TD*
G04 #@! TO.C,J7*
X175260000Y-104140000D03*
X176530000Y-106680000D03*
X177800000Y-104140000D03*
X179070000Y-106680000D03*
X180340000Y-104140000D03*
X181610000Y-106680000D03*
D12*
X173355000Y-113030000D03*
X183515000Y-113030000D03*
G04 #@! TD*
D13*
G04 #@! TO.C,J2*
X100330000Y-104140000D03*
X101600000Y-106680000D03*
X102870000Y-104140000D03*
X104140000Y-106680000D03*
X105410000Y-104140000D03*
X106680000Y-106680000D03*
D12*
X98425000Y-113030000D03*
X108585000Y-113030000D03*
G04 #@! TD*
D16*
G04 #@! TO.C,R7*
X180340000Y-100330000D03*
X183200000Y-100330000D03*
G04 #@! TD*
G04 #@! TO.C,R3*
X123256000Y-100330000D03*
X120396000Y-100330000D03*
G04 #@! TD*
G04 #@! TO.C,R15*
X174940000Y-100330000D03*
X177800000Y-100330000D03*
G04 #@! TD*
G04 #@! TO.C,R14*
X162814000Y-100330000D03*
X159954000Y-100330000D03*
G04 #@! TD*
G04 #@! TO.C,R13*
X144968000Y-100330000D03*
X147828000Y-100330000D03*
G04 #@! TD*
G04 #@! TO.C,R12*
X132842000Y-100330000D03*
X129982000Y-100330000D03*
G04 #@! TD*
G04 #@! TO.C,R11*
X114996000Y-100330000D03*
X117856000Y-100330000D03*
G04 #@! TD*
G04 #@! TO.C,R10*
X102870000Y-100330000D03*
X100010000Y-100330000D03*
G04 #@! TD*
G04 #@! TO.C,R6*
X165354000Y-100330000D03*
X168214000Y-100330000D03*
G04 #@! TD*
G04 #@! TO.C,R5*
X153228000Y-100330000D03*
X150368000Y-100330000D03*
G04 #@! TD*
G04 #@! TO.C,R4*
X135382000Y-100330000D03*
X138242000Y-100330000D03*
G04 #@! TD*
G04 #@! TO.C,R1*
X93284000Y-100330000D03*
X90424000Y-100330000D03*
G04 #@! TD*
G04 #@! TO.C,R2*
X105410000Y-100330000D03*
X108270000Y-100330000D03*
G04 #@! TD*
G04 #@! TO.C,R9*
X87884000Y-100330000D03*
X85024000Y-100330000D03*
G04 #@! TD*
G04 #@! TO.C,R8*
X195326000Y-100330000D03*
X198186000Y-100330000D03*
G04 #@! TD*
G04 #@! TO.C,R16*
X192786000Y-100330000D03*
X189926000Y-100330000D03*
G04 #@! TD*
M02*
