G04 #@! TF.GenerationSoftware,KiCad,Pcbnew,(6.0.0-rc1-dev-313-g8db361882)*
G04 #@! TF.CreationDate,2018-09-01T22:17:23+02:00*
G04 #@! TF.ProjectId,Muxtemp,4D757874656D702E6B696361645F7063,rev?*
G04 #@! TF.SameCoordinates,Original*
G04 #@! TF.FileFunction,Copper,L2,Bot,Signal*
G04 #@! TF.FilePolarity,Positive*
%FSLAX46Y46*%
G04 Gerber Fmt 4.6, Leading zero omitted, Abs format (unit mm)*
G04 Created by KiCad (PCBNEW (6.0.0-rc1-dev-313-g8db361882)) date 09/01/18 22:17:23*
%MOMM*%
%LPD*%
G01*
G04 APERTURE LIST*
G04 #@! TA.AperFunction,ComponentPad*
%ADD10R,1.700000X1.700000*%
G04 #@! TD*
G04 #@! TA.AperFunction,ComponentPad*
%ADD11O,1.700000X1.700000*%
G04 #@! TD*
G04 #@! TA.AperFunction,ComponentPad*
%ADD12C,3.250000*%
G04 #@! TD*
G04 #@! TA.AperFunction,ComponentPad*
%ADD13C,1.450000*%
G04 #@! TD*
G04 #@! TA.AperFunction,SMDPad,CuDef*
%ADD14R,1.600000X0.550000*%
G04 #@! TD*
G04 #@! TA.AperFunction,SMDPad,CuDef*
%ADD15R,0.550000X1.600000*%
G04 #@! TD*
G04 #@! TA.AperFunction,SMDPad,CuDef*
%ADD16R,1.220000X1.800000*%
G04 #@! TD*
G04 #@! TA.AperFunction,ComponentPad*
%ADD17C,1.600000*%
G04 #@! TD*
G04 #@! TA.AperFunction,ComponentPad*
%ADD18O,1.600000X1.600000*%
G04 #@! TD*
G04 #@! TA.AperFunction,SMDPad,CuDef*
%ADD19R,1.070000X3.400000*%
G04 #@! TD*
G04 #@! TA.AperFunction,SMDPad,CuDef*
%ADD20R,3.400000X1.070000*%
G04 #@! TD*
G04 #@! TA.AperFunction,SMDPad,CuDef*
%ADD21R,1.800000X1.220000*%
G04 #@! TD*
G04 #@! TA.AperFunction,ViaPad*
%ADD22C,0.800000*%
G04 #@! TD*
G04 #@! TA.AperFunction,Conductor*
%ADD23C,0.550000*%
G04 #@! TD*
G04 #@! TA.AperFunction,Conductor*
%ADD24C,0.900000*%
G04 #@! TD*
G04 #@! TA.AperFunction,Conductor*
%ADD25C,0.254000*%
G04 #@! TD*
G04 APERTURE END LIST*
D10*
G04 #@! TO.P,J10,1*
G04 #@! TO.N,SCL*
X157734000Y-85852000D03*
D11*
G04 #@! TO.P,J10,2*
G04 #@! TO.N,SDA*
X160274000Y-85852000D03*
G04 #@! TO.P,J10,3*
G04 #@! TO.N,Lock*
X162814000Y-85852000D03*
G04 #@! TO.P,J10,4*
G04 #@! TO.N,1wire*
X165354000Y-85852000D03*
G04 #@! TO.P,J10,5*
G04 #@! TO.N,GND*
X167894000Y-85852000D03*
G04 #@! TO.P,J10,6*
G04 #@! TO.N,3V3_L*
X170434000Y-85852000D03*
G04 #@! TO.P,J10,7*
G04 #@! TO.N,Vin*
X172974000Y-85852000D03*
G04 #@! TD*
D12*
G04 #@! TO.P,J3,8*
G04 #@! TO.N,N/C*
X123571000Y-113030000D03*
G04 #@! TO.P,J3,7*
X113411000Y-113030000D03*
D13*
G04 #@! TO.P,J3,6*
G04 #@! TO.N,3V3*
X121666000Y-106680000D03*
G04 #@! TO.P,J3,5*
G04 #@! TO.N,Net-(J3-Pad5)*
X120396000Y-104140000D03*
G04 #@! TO.P,J3,4*
G04 #@! TO.N,Net-(J3-Pad4)*
X119126000Y-106680000D03*
G04 #@! TO.P,J3,3*
G04 #@! TO.N,GND*
X117856000Y-104140000D03*
G04 #@! TO.P,J3,2*
X116586000Y-106680000D03*
G04 #@! TO.P,J3,1*
G04 #@! TO.N,dht_2*
X115316000Y-104140000D03*
G04 #@! TD*
D12*
G04 #@! TO.P,J8,8*
G04 #@! TO.N,N/C*
X198501000Y-113030000D03*
G04 #@! TO.P,J8,7*
X188341000Y-113030000D03*
D13*
G04 #@! TO.P,J8,6*
G04 #@! TO.N,3V3*
X196596000Y-106680000D03*
G04 #@! TO.P,J8,5*
G04 #@! TO.N,Net-(J8-Pad5)*
X195326000Y-104140000D03*
G04 #@! TO.P,J8,4*
G04 #@! TO.N,Net-(J8-Pad4)*
X194056000Y-106680000D03*
G04 #@! TO.P,J8,3*
G04 #@! TO.N,GND*
X192786000Y-104140000D03*
G04 #@! TO.P,J8,2*
X191516000Y-106680000D03*
G04 #@! TO.P,J8,1*
G04 #@! TO.N,dht_7*
X190246000Y-104140000D03*
G04 #@! TD*
D11*
G04 #@! TO.P,J9,4*
G04 #@! TO.N,dht_0*
X99060000Y-93726000D03*
G04 #@! TO.P,J9,3*
G04 #@! TO.N,dht_1*
X101600000Y-93726000D03*
G04 #@! TO.P,J9,2*
G04 #@! TO.N,dht_2*
X104140000Y-93726000D03*
D10*
G04 #@! TO.P,J9,1*
G04 #@! TO.N,GND*
X106680000Y-93726000D03*
G04 #@! TD*
G04 #@! TO.P,J11,1*
G04 #@! TO.N,3V3_L*
X179832000Y-78232000D03*
D11*
G04 #@! TO.P,J11,2*
G04 #@! TO.N,GND*
X179832000Y-80772000D03*
G04 #@! TO.P,J11,3*
G04 #@! TO.N,Vin*
X179832000Y-83312000D03*
G04 #@! TO.P,J11,4*
G04 #@! TO.N,Net-(J11-Pad4)*
X179832000Y-85852000D03*
G04 #@! TD*
D14*
G04 #@! TO.P,U1,1*
G04 #@! TO.N,Net-(U1-Pad1)*
X145220000Y-83560000D03*
G04 #@! TO.P,U1,2*
G04 #@! TO.N,Net-(U1-Pad2)*
X145220000Y-84360000D03*
G04 #@! TO.P,U1,3*
G04 #@! TO.N,GND*
X145220000Y-85160000D03*
G04 #@! TO.P,U1,4*
G04 #@! TO.N,3V3_L*
X145220000Y-85960000D03*
G04 #@! TO.P,U1,5*
G04 #@! TO.N,GND*
X145220000Y-86760000D03*
G04 #@! TO.P,U1,6*
G04 #@! TO.N,3V3_L*
X145220000Y-87560000D03*
G04 #@! TO.P,U1,7*
G04 #@! TO.N,Net-(U1-Pad7)*
X145220000Y-88360000D03*
G04 #@! TO.P,U1,8*
G04 #@! TO.N,Net-(U1-Pad8)*
X145220000Y-89160000D03*
D15*
G04 #@! TO.P,U1,9*
G04 #@! TO.N,dht_7*
X143770000Y-90610000D03*
G04 #@! TO.P,U1,10*
G04 #@! TO.N,dht_6*
X142970000Y-90610000D03*
G04 #@! TO.P,U1,11*
G04 #@! TO.N,dht_5*
X142170000Y-90610000D03*
G04 #@! TO.P,U1,12*
G04 #@! TO.N,dht_4*
X141370000Y-90610000D03*
G04 #@! TO.P,U1,13*
G04 #@! TO.N,dht_3*
X140570000Y-90610000D03*
G04 #@! TO.P,U1,14*
G04 #@! TO.N,dht_2*
X139770000Y-90610000D03*
G04 #@! TO.P,U1,15*
G04 #@! TO.N,dht_1*
X138970000Y-90610000D03*
G04 #@! TO.P,U1,16*
G04 #@! TO.N,dht_0*
X138170000Y-90610000D03*
D14*
G04 #@! TO.P,U1,17*
G04 #@! TO.N,Net-(U1-Pad17)*
X136720000Y-89160000D03*
G04 #@! TO.P,U1,18*
G04 #@! TO.N,3V3_L*
X136720000Y-88360000D03*
G04 #@! TO.P,U1,19*
G04 #@! TO.N,Net-(U1-Pad19)*
X136720000Y-87560000D03*
G04 #@! TO.P,U1,20*
G04 #@! TO.N,Net-(U1-Pad20)*
X136720000Y-86760000D03*
G04 #@! TO.P,U1,21*
G04 #@! TO.N,GND*
X136720000Y-85960000D03*
G04 #@! TO.P,U1,22*
G04 #@! TO.N,Net-(U1-Pad22)*
X136720000Y-85160000D03*
G04 #@! TO.P,U1,23*
G04 #@! TO.N,Net-(U1-Pad23)*
X136720000Y-84360000D03*
G04 #@! TO.P,U1,24*
G04 #@! TO.N,Net-(JP9-Pad1)*
X136720000Y-83560000D03*
D15*
G04 #@! TO.P,U1,25*
G04 #@! TO.N,1wire*
X138170000Y-82110000D03*
G04 #@! TO.P,U1,26*
G04 #@! TO.N,Lock*
X138970000Y-82110000D03*
G04 #@! TO.P,U1,27*
G04 #@! TO.N,SDA*
X139770000Y-82110000D03*
G04 #@! TO.P,U1,28*
G04 #@! TO.N,SCL*
X140570000Y-82110000D03*
G04 #@! TO.P,U1,29*
G04 #@! TO.N,Net-(R19-Pad2)*
X141370000Y-82110000D03*
G04 #@! TO.P,U1,30*
G04 #@! TO.N,Net-(U1-Pad30)*
X142170000Y-82110000D03*
G04 #@! TO.P,U1,31*
G04 #@! TO.N,Net-(U1-Pad31)*
X142970000Y-82110000D03*
G04 #@! TO.P,U1,32*
G04 #@! TO.N,Net-(U1-Pad32)*
X143770000Y-82110000D03*
G04 #@! TD*
D16*
G04 #@! TO.P,R17,1*
G04 #@! TO.N,GND*
X168214000Y-82550000D03*
G04 #@! TO.P,R17,2*
G04 #@! TO.N,1wire*
X165354000Y-82550000D03*
G04 #@! TD*
D17*
G04 #@! TO.P,R19,1*
G04 #@! TO.N,3V3_L*
X149098000Y-90424000D03*
D18*
G04 #@! TO.P,R19,2*
G04 #@! TO.N,Net-(R19-Pad2)*
X149098000Y-80264000D03*
G04 #@! TD*
D19*
G04 #@! TO.P,JP9,1*
G04 #@! TO.N,Net-(JP9-Pad1)*
X133350000Y-83566000D03*
G04 #@! TO.P,JP9,2*
G04 #@! TO.N,GND*
X131900000Y-83566000D03*
G04 #@! TD*
D20*
G04 #@! TO.P,JP7,2*
G04 #@! TO.N,1wire*
X179070000Y-110670000D03*
G04 #@! TO.P,JP7,1*
G04 #@! TO.N,Net-(J7-Pad4)*
X179070000Y-109220000D03*
G04 #@! TD*
G04 #@! TO.P,JP6,1*
G04 #@! TO.N,Net-(J6-Pad4)*
X164084000Y-109220000D03*
G04 #@! TO.P,JP6,2*
G04 #@! TO.N,1wire*
X164084000Y-110670000D03*
G04 #@! TD*
G04 #@! TO.P,JP1,2*
G04 #@! TO.N,1wire*
X89154000Y-110670000D03*
G04 #@! TO.P,JP1,1*
G04 #@! TO.N,Net-(J1-Pad4)*
X89154000Y-109220000D03*
G04 #@! TD*
G04 #@! TO.P,JP2,1*
G04 #@! TO.N,Net-(J2-Pad4)*
X104140000Y-109220000D03*
G04 #@! TO.P,JP2,2*
G04 #@! TO.N,1wire*
X104140000Y-110670000D03*
G04 #@! TD*
G04 #@! TO.P,JP8,2*
G04 #@! TO.N,1wire*
X194056000Y-110670000D03*
G04 #@! TO.P,JP8,1*
G04 #@! TO.N,Net-(J8-Pad4)*
X194056000Y-109220000D03*
G04 #@! TD*
G04 #@! TO.P,JP5,1*
G04 #@! TO.N,Net-(J5-Pad4)*
X149098000Y-109220000D03*
G04 #@! TO.P,JP5,2*
G04 #@! TO.N,1wire*
X149098000Y-110670000D03*
G04 #@! TD*
G04 #@! TO.P,JP4,2*
G04 #@! TO.N,1wire*
X134112000Y-110670000D03*
G04 #@! TO.P,JP4,1*
G04 #@! TO.N,Net-(J4-Pad4)*
X134112000Y-109220000D03*
G04 #@! TD*
G04 #@! TO.P,JP3,1*
G04 #@! TO.N,Net-(J3-Pad4)*
X119126000Y-109220000D03*
G04 #@! TO.P,JP3,2*
G04 #@! TO.N,1wire*
X119126000Y-110670000D03*
G04 #@! TD*
D21*
G04 #@! TO.P,R18,1*
G04 #@! TO.N,Net-(J11-Pad4)*
X183896000Y-86172000D03*
G04 #@! TO.P,R18,2*
G04 #@! TO.N,Vin*
X183896000Y-83312000D03*
G04 #@! TD*
D16*
G04 #@! TO.P,F1,1*
G04 #@! TO.N,3V3*
X186502000Y-78232000D03*
G04 #@! TO.P,F1,2*
G04 #@! TO.N,3V3_L*
X183642000Y-78232000D03*
G04 #@! TD*
D12*
G04 #@! TO.P,J6,8*
G04 #@! TO.N,N/C*
X168529000Y-113030000D03*
G04 #@! TO.P,J6,7*
X158369000Y-113030000D03*
D13*
G04 #@! TO.P,J6,6*
G04 #@! TO.N,3V3*
X166624000Y-106680000D03*
G04 #@! TO.P,J6,5*
G04 #@! TO.N,Net-(J6-Pad5)*
X165354000Y-104140000D03*
G04 #@! TO.P,J6,4*
G04 #@! TO.N,Net-(J6-Pad4)*
X164084000Y-106680000D03*
G04 #@! TO.P,J6,3*
G04 #@! TO.N,GND*
X162814000Y-104140000D03*
G04 #@! TO.P,J6,2*
X161544000Y-106680000D03*
G04 #@! TO.P,J6,1*
G04 #@! TO.N,dht_5*
X160274000Y-104140000D03*
G04 #@! TD*
G04 #@! TO.P,J1,1*
G04 #@! TO.N,dht_0*
X85344000Y-104140000D03*
G04 #@! TO.P,J1,2*
G04 #@! TO.N,GND*
X86614000Y-106680000D03*
G04 #@! TO.P,J1,3*
X87884000Y-104140000D03*
G04 #@! TO.P,J1,4*
G04 #@! TO.N,Net-(J1-Pad4)*
X89154000Y-106680000D03*
G04 #@! TO.P,J1,5*
G04 #@! TO.N,Net-(J1-Pad5)*
X90424000Y-104140000D03*
G04 #@! TO.P,J1,6*
G04 #@! TO.N,3V3*
X91694000Y-106680000D03*
D12*
G04 #@! TO.P,J1,7*
G04 #@! TO.N,N/C*
X83439000Y-113030000D03*
G04 #@! TO.P,J1,8*
X93599000Y-113030000D03*
G04 #@! TD*
D13*
G04 #@! TO.P,J4,1*
G04 #@! TO.N,dht_3*
X130302000Y-104140000D03*
G04 #@! TO.P,J4,2*
G04 #@! TO.N,GND*
X131572000Y-106680000D03*
G04 #@! TO.P,J4,3*
X132842000Y-104140000D03*
G04 #@! TO.P,J4,4*
G04 #@! TO.N,Net-(J4-Pad4)*
X134112000Y-106680000D03*
G04 #@! TO.P,J4,5*
G04 #@! TO.N,Net-(J4-Pad5)*
X135382000Y-104140000D03*
G04 #@! TO.P,J4,6*
G04 #@! TO.N,3V3*
X136652000Y-106680000D03*
D12*
G04 #@! TO.P,J4,7*
G04 #@! TO.N,N/C*
X128397000Y-113030000D03*
G04 #@! TO.P,J4,8*
X138557000Y-113030000D03*
G04 #@! TD*
G04 #@! TO.P,J5,8*
G04 #@! TO.N,N/C*
X153543000Y-113030000D03*
G04 #@! TO.P,J5,7*
X143383000Y-113030000D03*
D13*
G04 #@! TO.P,J5,6*
G04 #@! TO.N,3V3*
X151638000Y-106680000D03*
G04 #@! TO.P,J5,5*
G04 #@! TO.N,Net-(J5-Pad5)*
X150368000Y-104140000D03*
G04 #@! TO.P,J5,4*
G04 #@! TO.N,Net-(J5-Pad4)*
X149098000Y-106680000D03*
G04 #@! TO.P,J5,3*
G04 #@! TO.N,GND*
X147828000Y-104140000D03*
G04 #@! TO.P,J5,2*
X146558000Y-106680000D03*
G04 #@! TO.P,J5,1*
G04 #@! TO.N,dht_4*
X145288000Y-104140000D03*
G04 #@! TD*
G04 #@! TO.P,J7,1*
G04 #@! TO.N,dht_6*
X175260000Y-104140000D03*
G04 #@! TO.P,J7,2*
G04 #@! TO.N,GND*
X176530000Y-106680000D03*
G04 #@! TO.P,J7,3*
X177800000Y-104140000D03*
G04 #@! TO.P,J7,4*
G04 #@! TO.N,Net-(J7-Pad4)*
X179070000Y-106680000D03*
G04 #@! TO.P,J7,5*
G04 #@! TO.N,Net-(J7-Pad5)*
X180340000Y-104140000D03*
G04 #@! TO.P,J7,6*
G04 #@! TO.N,3V3*
X181610000Y-106680000D03*
D12*
G04 #@! TO.P,J7,7*
G04 #@! TO.N,N/C*
X173355000Y-113030000D03*
G04 #@! TO.P,J7,8*
X183515000Y-113030000D03*
G04 #@! TD*
D13*
G04 #@! TO.P,J2,1*
G04 #@! TO.N,dht_1*
X100330000Y-104140000D03*
G04 #@! TO.P,J2,2*
G04 #@! TO.N,GND*
X101600000Y-106680000D03*
G04 #@! TO.P,J2,3*
X102870000Y-104140000D03*
G04 #@! TO.P,J2,4*
G04 #@! TO.N,Net-(J2-Pad4)*
X104140000Y-106680000D03*
G04 #@! TO.P,J2,5*
G04 #@! TO.N,Net-(J2-Pad5)*
X105410000Y-104140000D03*
G04 #@! TO.P,J2,6*
G04 #@! TO.N,3V3*
X106680000Y-106680000D03*
D12*
G04 #@! TO.P,J2,7*
G04 #@! TO.N,N/C*
X98425000Y-113030000D03*
G04 #@! TO.P,J2,8*
X108585000Y-113030000D03*
G04 #@! TD*
D16*
G04 #@! TO.P,R7,2*
G04 #@! TO.N,Net-(J7-Pad5)*
X180340000Y-100330000D03*
G04 #@! TO.P,R7,1*
G04 #@! TO.N,3V3*
X183200000Y-100330000D03*
G04 #@! TD*
G04 #@! TO.P,R3,1*
G04 #@! TO.N,3V3*
X123256000Y-100330000D03*
G04 #@! TO.P,R3,2*
G04 #@! TO.N,Net-(J3-Pad5)*
X120396000Y-100330000D03*
G04 #@! TD*
G04 #@! TO.P,R15,2*
G04 #@! TO.N,dht_6*
X174940000Y-100330000D03*
G04 #@! TO.P,R15,1*
G04 #@! TO.N,GND*
X177800000Y-100330000D03*
G04 #@! TD*
G04 #@! TO.P,R14,1*
G04 #@! TO.N,GND*
X162814000Y-100330000D03*
G04 #@! TO.P,R14,2*
G04 #@! TO.N,dht_5*
X159954000Y-100330000D03*
G04 #@! TD*
G04 #@! TO.P,R13,2*
G04 #@! TO.N,dht_4*
X144968000Y-100330000D03*
G04 #@! TO.P,R13,1*
G04 #@! TO.N,GND*
X147828000Y-100330000D03*
G04 #@! TD*
G04 #@! TO.P,R12,1*
G04 #@! TO.N,GND*
X132842000Y-100330000D03*
G04 #@! TO.P,R12,2*
G04 #@! TO.N,dht_3*
X129982000Y-100330000D03*
G04 #@! TD*
G04 #@! TO.P,R11,2*
G04 #@! TO.N,dht_2*
X114996000Y-100330000D03*
G04 #@! TO.P,R11,1*
G04 #@! TO.N,GND*
X117856000Y-100330000D03*
G04 #@! TD*
G04 #@! TO.P,R10,1*
G04 #@! TO.N,GND*
X102870000Y-100330000D03*
G04 #@! TO.P,R10,2*
G04 #@! TO.N,dht_1*
X100010000Y-100330000D03*
G04 #@! TD*
G04 #@! TO.P,R6,2*
G04 #@! TO.N,Net-(J6-Pad5)*
X165354000Y-100330000D03*
G04 #@! TO.P,R6,1*
G04 #@! TO.N,3V3*
X168214000Y-100330000D03*
G04 #@! TD*
G04 #@! TO.P,R5,1*
G04 #@! TO.N,3V3*
X153228000Y-100330000D03*
G04 #@! TO.P,R5,2*
G04 #@! TO.N,Net-(J5-Pad5)*
X150368000Y-100330000D03*
G04 #@! TD*
G04 #@! TO.P,R4,2*
G04 #@! TO.N,Net-(J4-Pad5)*
X135382000Y-100330000D03*
G04 #@! TO.P,R4,1*
G04 #@! TO.N,3V3*
X138242000Y-100330000D03*
G04 #@! TD*
G04 #@! TO.P,R1,1*
G04 #@! TO.N,3V3*
X93284000Y-100330000D03*
G04 #@! TO.P,R1,2*
G04 #@! TO.N,Net-(J1-Pad5)*
X90424000Y-100330000D03*
G04 #@! TD*
G04 #@! TO.P,R2,2*
G04 #@! TO.N,Net-(J2-Pad5)*
X105410000Y-100330000D03*
G04 #@! TO.P,R2,1*
G04 #@! TO.N,3V3*
X108270000Y-100330000D03*
G04 #@! TD*
G04 #@! TO.P,R9,1*
G04 #@! TO.N,GND*
X87884000Y-100330000D03*
G04 #@! TO.P,R9,2*
G04 #@! TO.N,dht_0*
X85024000Y-100330000D03*
G04 #@! TD*
G04 #@! TO.P,R8,2*
G04 #@! TO.N,Net-(J8-Pad5)*
X195326000Y-100330000D03*
G04 #@! TO.P,R8,1*
G04 #@! TO.N,3V3*
X198186000Y-100330000D03*
G04 #@! TD*
G04 #@! TO.P,R16,1*
G04 #@! TO.N,GND*
X192786000Y-100330000D03*
G04 #@! TO.P,R16,2*
G04 #@! TO.N,dht_7*
X189926000Y-100330000D03*
G04 #@! TD*
D22*
G04 #@! TO.N,3V3*
X185420000Y-98425000D03*
X170180000Y-100330000D03*
X170180000Y-98425000D03*
X154940000Y-98425000D03*
X154940000Y-100330000D03*
X140335000Y-100330000D03*
X140335000Y-98425000D03*
X125730000Y-98425000D03*
X125730000Y-100330000D03*
X110490000Y-100330000D03*
X95885000Y-100330000D03*
X185420000Y-100330000D03*
X198120000Y-98425000D03*
X110490000Y-98552000D03*
X188468000Y-78232000D03*
X185420000Y-96520000D03*
G04 #@! TD*
D23*
G04 #@! TO.N,dht_0*
X99060000Y-96012000D02*
X99060000Y-93726000D01*
X98298000Y-96774000D02*
X99060000Y-96012000D01*
X85344000Y-100650000D02*
X85024000Y-100330000D01*
X85344000Y-104140000D02*
X85344000Y-100650000D01*
X87180000Y-96774000D02*
X98298000Y-96774000D01*
X85024000Y-98930000D02*
X87180000Y-96774000D01*
X85024000Y-100330000D02*
X85024000Y-98930000D01*
X138170000Y-92208000D02*
X138170000Y-90610000D01*
X138040999Y-92337001D02*
X138170000Y-92208000D01*
X116936840Y-92337001D02*
X138040999Y-92337001D01*
X114769839Y-90170000D02*
X116936840Y-92337001D01*
X101413919Y-90170000D02*
X114769839Y-90170000D01*
X99060000Y-92523919D02*
X101413919Y-90170000D01*
X99060000Y-93726000D02*
X99060000Y-92523919D01*
G04 #@! TO.N,GND*
X140608000Y-85960000D02*
X136720000Y-85960000D01*
X141408000Y-85160000D02*
X140608000Y-85960000D01*
X136720000Y-85960000D02*
X133585000Y-85960000D01*
X145220000Y-85160000D02*
X148279000Y-85160000D01*
X145220000Y-86760000D02*
X143656000Y-86760000D01*
X143510000Y-86614000D02*
X143510000Y-85160000D01*
X143656000Y-86760000D02*
X143510000Y-86614000D01*
X145220000Y-85160000D02*
X143510000Y-85160000D01*
X143510000Y-85160000D02*
X141408000Y-85160000D01*
D24*
G04 #@! TO.N,Net-(J8-Pad5)*
X195326000Y-100330000D02*
X195326000Y-104140000D01*
G04 #@! TO.N,3V3*
X93284000Y-105090000D02*
X91694000Y-106680000D01*
X108270000Y-105090000D02*
X106680000Y-106680000D01*
X108270000Y-100330000D02*
X108270000Y-105090000D01*
X123256000Y-105090000D02*
X121666000Y-106680000D01*
X123256000Y-100330000D02*
X123256000Y-105090000D01*
X138242000Y-105090000D02*
X136652000Y-106680000D01*
X138242000Y-100330000D02*
X138242000Y-105090000D01*
X153228000Y-105090000D02*
X151638000Y-106680000D01*
X153228000Y-100330000D02*
X153228000Y-105090000D01*
X168214000Y-105090000D02*
X166624000Y-106680000D01*
X168214000Y-100330000D02*
X168214000Y-105090000D01*
X183200000Y-105090000D02*
X181610000Y-106680000D01*
X183200000Y-100330000D02*
X183200000Y-105090000D01*
X198186000Y-105090000D02*
X196596000Y-106680000D01*
X198186000Y-100330000D02*
X198186000Y-105090000D01*
X183200000Y-98530000D02*
X183305000Y-98425000D01*
X183305000Y-98425000D02*
X185420000Y-98425000D01*
X168214000Y-100330000D02*
X170180000Y-100330000D01*
X168214000Y-98530000D02*
X168319000Y-98425000D01*
X168214000Y-100330000D02*
X168214000Y-98530000D01*
X153228000Y-98530000D02*
X153333000Y-98425000D01*
X153228000Y-100330000D02*
X153228000Y-98530000D01*
X153333000Y-98425000D02*
X154940000Y-98425000D01*
X153228000Y-100330000D02*
X154940000Y-100330000D01*
X140335000Y-100330000D02*
X138242000Y-100330000D01*
X138242000Y-98530000D02*
X138347000Y-98425000D01*
X138242000Y-100330000D02*
X138242000Y-98530000D01*
X138347000Y-98425000D02*
X140335000Y-98425000D01*
X123256000Y-98530000D02*
X123361000Y-98425000D01*
X123256000Y-100330000D02*
X123256000Y-98530000D01*
X123361000Y-98425000D02*
X125730000Y-98425000D01*
X123256000Y-100330000D02*
X125730000Y-100330000D01*
X110490000Y-100330000D02*
X108270000Y-100330000D01*
X168319000Y-98425000D02*
X170180000Y-98425000D01*
X93284000Y-100330000D02*
X93284000Y-105090000D01*
X95885000Y-100330000D02*
X93284000Y-100330000D01*
X183200000Y-100330000D02*
X185420000Y-100330000D01*
X198120000Y-100264000D02*
X198186000Y-100330000D01*
X198120000Y-98425000D02*
X198120000Y-100264000D01*
X108270000Y-100330000D02*
X108270000Y-98618000D01*
X108336000Y-98552000D02*
X108270000Y-98618000D01*
X110490000Y-98552000D02*
X108336000Y-98552000D01*
X186502000Y-78232000D02*
X188468000Y-78232000D01*
X183200000Y-99060000D02*
X183200000Y-96708000D01*
X183200000Y-99060000D02*
X183200000Y-98530000D01*
X183200000Y-100330000D02*
X183200000Y-99060000D01*
X183388000Y-96520000D02*
X185420000Y-96520000D01*
X183200000Y-96708000D02*
X183388000Y-96520000D01*
D23*
G04 #@! TO.N,dht_7*
X189926000Y-103820000D02*
X190246000Y-104140000D01*
X189926000Y-100330000D02*
X189926000Y-103820000D01*
X161024010Y-92467990D02*
X161036000Y-92456000D01*
X143770000Y-90610000D02*
X143770000Y-92467990D01*
X143770000Y-92467990D02*
X161024010Y-92467990D01*
X161024010Y-92467990D02*
X189726010Y-92467990D01*
X189926000Y-92667980D02*
X189926000Y-100330000D01*
X189726010Y-92467990D02*
X189926000Y-92667980D01*
D24*
G04 #@! TO.N,Net-(J2-Pad5)*
X105410000Y-100330000D02*
X105410000Y-104140000D01*
G04 #@! TO.N,Net-(J1-Pad5)*
X90424000Y-100330000D02*
X90424000Y-104140000D01*
G04 #@! TO.N,Net-(J4-Pad5)*
X135382000Y-100330000D02*
X135382000Y-104140000D01*
G04 #@! TO.N,Net-(J5-Pad5)*
X150368000Y-100330000D02*
X150368000Y-104140000D01*
G04 #@! TO.N,Net-(J6-Pad5)*
X165354000Y-100330000D02*
X165354000Y-104140000D01*
D23*
G04 #@! TO.N,dht_6*
X174940000Y-103820000D02*
X175260000Y-104140000D01*
X174940000Y-100330000D02*
X174940000Y-103820000D01*
X174940000Y-100330000D02*
X174940000Y-93558000D01*
X174940000Y-93533000D02*
X174940000Y-100330000D01*
X142970000Y-91726000D02*
X143002000Y-91758000D01*
X142970000Y-90610000D02*
X142970000Y-91726000D01*
X143002000Y-92874652D02*
X143345348Y-93218000D01*
X143345348Y-93218000D02*
X174625000Y-93218000D01*
X143002000Y-91758000D02*
X143002000Y-92874652D01*
X174625000Y-93218000D02*
X174940000Y-93533000D01*
G04 #@! TO.N,dht_5*
X159954000Y-103820000D02*
X160274000Y-104140000D01*
X159954000Y-100330000D02*
X159954000Y-103820000D01*
X142170000Y-90610000D02*
X142170000Y-93103326D01*
X142170000Y-93103326D02*
X143058664Y-93991990D01*
X143058664Y-93991990D02*
X159737980Y-93991990D01*
X159954000Y-94208010D02*
X159737980Y-93991990D01*
X159954000Y-100330000D02*
X159954000Y-94208010D01*
G04 #@! TO.N,dht_4*
X144968000Y-103820000D02*
X145288000Y-104140000D01*
X144968000Y-100330000D02*
X144968000Y-103820000D01*
X144968000Y-100330000D02*
X144968000Y-94803000D01*
X141370000Y-90610000D02*
X141370000Y-93364000D01*
X141370000Y-93364000D02*
X142748000Y-94742000D01*
X144907000Y-94742000D02*
X144968000Y-94803000D01*
X142748000Y-94742000D02*
X144907000Y-94742000D01*
G04 #@! TO.N,dht_3*
X129982000Y-103820000D02*
X130302000Y-104140000D01*
X129982000Y-100330000D02*
X129982000Y-103820000D01*
X140570000Y-90610000D02*
X140570000Y-93453348D01*
X139293338Y-94730010D02*
X130059990Y-94730010D01*
X129982000Y-94808000D02*
X130059990Y-94730010D01*
X129982000Y-100330000D02*
X129982000Y-94808000D01*
X140570000Y-93453348D02*
X139293338Y-94730010D01*
G04 #@! TO.N,dht_2*
X114996000Y-100330000D02*
X114996000Y-103820000D01*
X114996000Y-103820000D02*
X115316000Y-104140000D01*
X104140000Y-92523919D02*
X104140000Y-93726000D01*
X139770000Y-93192674D02*
X138982674Y-93980000D01*
X139770000Y-90610000D02*
X139770000Y-93192674D01*
X138982674Y-93980000D02*
X115062000Y-93980000D01*
X114022020Y-91670020D02*
X104993899Y-91670020D01*
X104993899Y-91670020D02*
X104140000Y-92523919D01*
X114996000Y-100330000D02*
X114996000Y-94046000D01*
X114996000Y-94046000D02*
X115062000Y-93980000D01*
X114996000Y-92644000D02*
X114022020Y-91670020D01*
X114996000Y-94046000D02*
X114996000Y-92644000D01*
G04 #@! TO.N,dht_1*
X100010000Y-100330000D02*
X100010000Y-100040000D01*
X100010000Y-100040000D02*
X100076000Y-99974000D01*
X100010000Y-97602000D02*
X100010000Y-100330000D01*
X101600000Y-93726000D02*
X101600000Y-96012000D01*
X101600000Y-96012000D02*
X100010000Y-97602000D01*
X100010000Y-100330000D02*
X100010000Y-103820000D01*
X100010000Y-103820000D02*
X100330000Y-104140000D01*
X138970000Y-92932000D02*
X138970000Y-90610000D01*
X101600000Y-91948000D02*
X102627990Y-90920010D01*
X101600000Y-93726000D02*
X101600000Y-91948000D01*
X102627990Y-90920010D02*
X114459175Y-90920010D01*
X114459175Y-90920010D02*
X116757165Y-93218000D01*
X116757165Y-93218000D02*
X138684000Y-93218000D01*
X138684000Y-93218000D02*
X138970000Y-92932000D01*
D24*
G04 #@! TO.N,Net-(J3-Pad5)*
X120396000Y-100330000D02*
X120396000Y-104140000D01*
G04 #@! TO.N,Net-(J7-Pad5)*
X180340000Y-100330000D02*
X180340000Y-104140000D01*
G04 #@! TO.N,Vin*
X172974000Y-85852000D02*
X174244000Y-85852000D01*
X176784000Y-83312000D02*
X179832000Y-83312000D01*
X174244000Y-85852000D02*
X176784000Y-83312000D01*
X183896000Y-83312000D02*
X179832000Y-83312000D01*
G04 #@! TO.N,1wire*
X179070000Y-110670000D02*
X194056000Y-110670000D01*
X179070000Y-110670000D02*
X164084000Y-110670000D01*
X149098000Y-110670000D02*
X164084000Y-110670000D01*
X134112000Y-110670000D02*
X149098000Y-110670000D01*
X119126000Y-110670000D02*
X134112000Y-110670000D01*
X104140000Y-110670000D02*
X119126000Y-110670000D01*
X89154000Y-110670000D02*
X104140000Y-110670000D01*
D23*
X138170000Y-79373978D02*
X141343978Y-76200000D01*
X141343978Y-76200000D02*
X165354000Y-76200000D01*
D24*
X86554000Y-110670000D02*
X82804000Y-106920000D01*
X89154000Y-110670000D02*
X86554000Y-110670000D01*
X82804000Y-106920000D02*
X82804000Y-86360000D01*
X89790022Y-79373978D02*
X138044990Y-79373978D01*
X82804000Y-86360000D02*
X89790022Y-79373978D01*
D23*
X138044990Y-79373978D02*
X138170000Y-79373978D01*
X138170000Y-79498988D02*
X138044990Y-79373978D01*
X138170000Y-82110000D02*
X138170000Y-79498988D01*
D24*
X165354000Y-76200000D02*
X165354000Y-82550000D01*
X165354000Y-85852000D02*
X165354000Y-82550000D01*
D23*
G04 #@! TO.N,SDA*
X139770000Y-79895326D02*
X141941326Y-77724000D01*
X139770000Y-82110000D02*
X139770000Y-79895326D01*
X141941326Y-77724000D02*
X160274000Y-77724000D01*
X160274000Y-77724000D02*
X160274000Y-85852000D01*
G04 #@! TO.N,SCL*
X140570000Y-80156000D02*
X140570000Y-82110000D01*
X142240000Y-78486000D02*
X140570000Y-80156000D01*
X157734000Y-85852000D02*
X157734000Y-78486000D01*
X157734000Y-78486000D02*
X142240000Y-78486000D01*
D24*
G04 #@! TO.N,Net-(J3-Pad4)*
X119126000Y-109220000D02*
X119126000Y-106680000D01*
G04 #@! TO.N,Net-(J4-Pad4)*
X134112000Y-109220000D02*
X134112000Y-106680000D01*
G04 #@! TO.N,Net-(J5-Pad4)*
X149098000Y-106680000D02*
X149098000Y-109220000D01*
G04 #@! TO.N,Net-(J2-Pad4)*
X104140000Y-109220000D02*
X104140000Y-106680000D01*
G04 #@! TO.N,Net-(J1-Pad4)*
X89154000Y-109220000D02*
X89154000Y-106680000D01*
G04 #@! TO.N,Net-(J7-Pad4)*
X179070000Y-106680000D02*
X179070000Y-109220000D01*
G04 #@! TO.N,Net-(J8-Pad4)*
X194056000Y-109220000D02*
X194056000Y-106680000D01*
G04 #@! TO.N,Net-(J6-Pad4)*
X164084000Y-106680000D02*
X164084000Y-109220000D01*
D23*
G04 #@! TO.N,3V3_L*
X145220000Y-87560000D02*
X142297000Y-87560000D01*
X136720000Y-88360000D02*
X142145000Y-88360000D01*
X136688000Y-88392000D02*
X136720000Y-88360000D01*
X170434000Y-84074000D02*
X170434000Y-85852000D01*
X179832000Y-78232000D02*
X176276000Y-78232000D01*
X176276000Y-78232000D02*
X170434000Y-84074000D01*
X179832000Y-78232000D02*
X183642000Y-78232000D01*
X142145000Y-87712000D02*
X142297000Y-87560000D01*
X142145000Y-88360000D02*
X142145000Y-87712000D01*
X149098000Y-90424000D02*
X149098000Y-87630000D01*
X149028000Y-87560000D02*
X145220000Y-87560000D01*
X149098000Y-87630000D02*
X149028000Y-87560000D01*
X149098000Y-87630000D02*
X149098000Y-86106000D01*
X148952000Y-85960000D02*
X145220000Y-85960000D01*
X149098000Y-86106000D02*
X148952000Y-85960000D01*
X170434000Y-85852000D02*
X170434000Y-90170000D01*
X170180000Y-90424000D02*
X149098000Y-90424000D01*
X170434000Y-90170000D02*
X170180000Y-90424000D01*
G04 #@! TO.N,Net-(R19-Pad2)*
X141866000Y-80264000D02*
X149098000Y-80264000D01*
X141370000Y-80760000D02*
X141866000Y-80264000D01*
X141370000Y-82110000D02*
X141370000Y-80760000D01*
D24*
G04 #@! TO.N,Net-(J11-Pad4)*
X180152000Y-86172000D02*
X179832000Y-85852000D01*
X183896000Y-86172000D02*
X180152000Y-86172000D01*
D23*
G04 #@! TO.N,Net-(JP9-Pad1)*
X136714000Y-83566000D02*
X136720000Y-83560000D01*
X133350000Y-83566000D02*
X136714000Y-83566000D01*
G04 #@! TO.N,Lock*
X141630662Y-76973990D02*
X162571990Y-76973990D01*
X138970000Y-82110000D02*
X138970000Y-79634652D01*
X138970000Y-79634652D02*
X141630662Y-76973990D01*
X162814000Y-77216000D02*
X162814000Y-85852000D01*
X162571990Y-76973990D02*
X162814000Y-77216000D01*
G04 #@! TD*
D25*
G04 #@! TO.N,GND*
G36*
X202438000Y-116078000D02*
X79502000Y-116078000D01*
X79502000Y-112560567D01*
X81079000Y-112560567D01*
X81079000Y-113499433D01*
X81438289Y-114366833D01*
X82102167Y-115030711D01*
X82969567Y-115390000D01*
X83908433Y-115390000D01*
X84775833Y-115030711D01*
X85439711Y-114366833D01*
X85799000Y-113499433D01*
X85799000Y-112560567D01*
X85439711Y-111693167D01*
X84775833Y-111029289D01*
X83908433Y-110670000D01*
X82969567Y-110670000D01*
X82102167Y-111029289D01*
X81438289Y-111693167D01*
X81079000Y-112560567D01*
X79502000Y-112560567D01*
X79502000Y-86360000D01*
X81595786Y-86360000D01*
X81619001Y-86476711D01*
X81619000Y-106803294D01*
X81595786Y-106920000D01*
X81619000Y-107036706D01*
X81619000Y-107036709D01*
X81687755Y-107382363D01*
X81949663Y-107774337D01*
X82048608Y-107840450D01*
X85633554Y-111425398D01*
X85699663Y-111524337D01*
X85798602Y-111590446D01*
X85798604Y-111590448D01*
X86091636Y-111786245D01*
X86554000Y-111878215D01*
X86670709Y-111855000D01*
X87103830Y-111855000D01*
X87167217Y-111897354D01*
X87454000Y-111954399D01*
X90854000Y-111954399D01*
X91140783Y-111897354D01*
X91204170Y-111855000D01*
X91531256Y-111855000D01*
X91239000Y-112560567D01*
X91239000Y-113499433D01*
X91598289Y-114366833D01*
X92262167Y-115030711D01*
X93129567Y-115390000D01*
X94068433Y-115390000D01*
X94935833Y-115030711D01*
X95599711Y-114366833D01*
X95959000Y-113499433D01*
X95959000Y-112560567D01*
X95666744Y-111855000D01*
X96357256Y-111855000D01*
X96065000Y-112560567D01*
X96065000Y-113499433D01*
X96424289Y-114366833D01*
X97088167Y-115030711D01*
X97955567Y-115390000D01*
X98894433Y-115390000D01*
X99761833Y-115030711D01*
X100425711Y-114366833D01*
X100785000Y-113499433D01*
X100785000Y-112560567D01*
X100492744Y-111855000D01*
X102089830Y-111855000D01*
X102153217Y-111897354D01*
X102440000Y-111954399D01*
X105840000Y-111954399D01*
X106126783Y-111897354D01*
X106190170Y-111855000D01*
X106517256Y-111855000D01*
X106225000Y-112560567D01*
X106225000Y-113499433D01*
X106584289Y-114366833D01*
X107248167Y-115030711D01*
X108115567Y-115390000D01*
X109054433Y-115390000D01*
X109921833Y-115030711D01*
X110585711Y-114366833D01*
X110945000Y-113499433D01*
X110945000Y-112560567D01*
X110652744Y-111855000D01*
X111343256Y-111855000D01*
X111051000Y-112560567D01*
X111051000Y-113499433D01*
X111410289Y-114366833D01*
X112074167Y-115030711D01*
X112941567Y-115390000D01*
X113880433Y-115390000D01*
X114747833Y-115030711D01*
X115411711Y-114366833D01*
X115771000Y-113499433D01*
X115771000Y-112560567D01*
X115478744Y-111855000D01*
X117075830Y-111855000D01*
X117139217Y-111897354D01*
X117426000Y-111954399D01*
X120826000Y-111954399D01*
X121112783Y-111897354D01*
X121176170Y-111855000D01*
X121503256Y-111855000D01*
X121211000Y-112560567D01*
X121211000Y-113499433D01*
X121570289Y-114366833D01*
X122234167Y-115030711D01*
X123101567Y-115390000D01*
X124040433Y-115390000D01*
X124907833Y-115030711D01*
X125571711Y-114366833D01*
X125931000Y-113499433D01*
X125931000Y-112560567D01*
X125638744Y-111855000D01*
X126329256Y-111855000D01*
X126037000Y-112560567D01*
X126037000Y-113499433D01*
X126396289Y-114366833D01*
X127060167Y-115030711D01*
X127927567Y-115390000D01*
X128866433Y-115390000D01*
X129733833Y-115030711D01*
X130397711Y-114366833D01*
X130757000Y-113499433D01*
X130757000Y-112560567D01*
X130464744Y-111855000D01*
X132061830Y-111855000D01*
X132125217Y-111897354D01*
X132412000Y-111954399D01*
X135812000Y-111954399D01*
X136098783Y-111897354D01*
X136162170Y-111855000D01*
X136489256Y-111855000D01*
X136197000Y-112560567D01*
X136197000Y-113499433D01*
X136556289Y-114366833D01*
X137220167Y-115030711D01*
X138087567Y-115390000D01*
X139026433Y-115390000D01*
X139893833Y-115030711D01*
X140557711Y-114366833D01*
X140917000Y-113499433D01*
X140917000Y-112560567D01*
X140624744Y-111855000D01*
X141315256Y-111855000D01*
X141023000Y-112560567D01*
X141023000Y-113499433D01*
X141382289Y-114366833D01*
X142046167Y-115030711D01*
X142913567Y-115390000D01*
X143852433Y-115390000D01*
X144719833Y-115030711D01*
X145383711Y-114366833D01*
X145743000Y-113499433D01*
X145743000Y-112560567D01*
X145450744Y-111855000D01*
X147047830Y-111855000D01*
X147111217Y-111897354D01*
X147398000Y-111954399D01*
X150798000Y-111954399D01*
X151084783Y-111897354D01*
X151148170Y-111855000D01*
X151475256Y-111855000D01*
X151183000Y-112560567D01*
X151183000Y-113499433D01*
X151542289Y-114366833D01*
X152206167Y-115030711D01*
X153073567Y-115390000D01*
X154012433Y-115390000D01*
X154879833Y-115030711D01*
X155543711Y-114366833D01*
X155903000Y-113499433D01*
X155903000Y-112560567D01*
X155610744Y-111855000D01*
X156301256Y-111855000D01*
X156009000Y-112560567D01*
X156009000Y-113499433D01*
X156368289Y-114366833D01*
X157032167Y-115030711D01*
X157899567Y-115390000D01*
X158838433Y-115390000D01*
X159705833Y-115030711D01*
X160369711Y-114366833D01*
X160729000Y-113499433D01*
X160729000Y-112560567D01*
X160436744Y-111855000D01*
X162033830Y-111855000D01*
X162097217Y-111897354D01*
X162384000Y-111954399D01*
X165784000Y-111954399D01*
X166070783Y-111897354D01*
X166134170Y-111855000D01*
X166461256Y-111855000D01*
X166169000Y-112560567D01*
X166169000Y-113499433D01*
X166528289Y-114366833D01*
X167192167Y-115030711D01*
X168059567Y-115390000D01*
X168998433Y-115390000D01*
X169865833Y-115030711D01*
X170529711Y-114366833D01*
X170889000Y-113499433D01*
X170889000Y-112560567D01*
X170596744Y-111855000D01*
X171287256Y-111855000D01*
X170995000Y-112560567D01*
X170995000Y-113499433D01*
X171354289Y-114366833D01*
X172018167Y-115030711D01*
X172885567Y-115390000D01*
X173824433Y-115390000D01*
X174691833Y-115030711D01*
X175355711Y-114366833D01*
X175715000Y-113499433D01*
X175715000Y-112560567D01*
X175422744Y-111855000D01*
X177019830Y-111855000D01*
X177083217Y-111897354D01*
X177370000Y-111954399D01*
X180770000Y-111954399D01*
X181056783Y-111897354D01*
X181120170Y-111855000D01*
X181447256Y-111855000D01*
X181155000Y-112560567D01*
X181155000Y-113499433D01*
X181514289Y-114366833D01*
X182178167Y-115030711D01*
X183045567Y-115390000D01*
X183984433Y-115390000D01*
X184851833Y-115030711D01*
X185515711Y-114366833D01*
X185875000Y-113499433D01*
X185875000Y-112560567D01*
X185582744Y-111855000D01*
X186273256Y-111855000D01*
X185981000Y-112560567D01*
X185981000Y-113499433D01*
X186340289Y-114366833D01*
X187004167Y-115030711D01*
X187871567Y-115390000D01*
X188810433Y-115390000D01*
X189677833Y-115030711D01*
X190341711Y-114366833D01*
X190701000Y-113499433D01*
X190701000Y-112560567D01*
X196141000Y-112560567D01*
X196141000Y-113499433D01*
X196500289Y-114366833D01*
X197164167Y-115030711D01*
X198031567Y-115390000D01*
X198970433Y-115390000D01*
X199837833Y-115030711D01*
X200501711Y-114366833D01*
X200861000Y-113499433D01*
X200861000Y-112560567D01*
X200501711Y-111693167D01*
X199837833Y-111029289D01*
X198970433Y-110670000D01*
X198031567Y-110670000D01*
X197164167Y-111029289D01*
X196500289Y-111693167D01*
X196141000Y-112560567D01*
X190701000Y-112560567D01*
X190408744Y-111855000D01*
X192005830Y-111855000D01*
X192069217Y-111897354D01*
X192356000Y-111954399D01*
X195756000Y-111954399D01*
X196042783Y-111897354D01*
X196285905Y-111734905D01*
X196448354Y-111491783D01*
X196505399Y-111205000D01*
X196505399Y-110135000D01*
X196467605Y-109945000D01*
X196505399Y-109755000D01*
X196505399Y-108685000D01*
X196448354Y-108398217D01*
X196285905Y-108155095D01*
X196194365Y-108093930D01*
X196305588Y-108140000D01*
X196886412Y-108140000D01*
X197423024Y-107917728D01*
X197833728Y-107507024D01*
X198056000Y-106970412D01*
X198056000Y-106895842D01*
X198941395Y-106010448D01*
X199040337Y-105944337D01*
X199302245Y-105552364D01*
X199371000Y-105206710D01*
X199394215Y-105090000D01*
X199371000Y-104973291D01*
X199371000Y-101692416D01*
X199488354Y-101516783D01*
X199545399Y-101230000D01*
X199545399Y-99430000D01*
X199488354Y-99143217D01*
X199325905Y-98900095D01*
X199305000Y-98886127D01*
X199305000Y-98308290D01*
X199236245Y-97962636D01*
X198974337Y-97570663D01*
X198582363Y-97308755D01*
X198120000Y-97216785D01*
X197657636Y-97308755D01*
X197265663Y-97570663D01*
X197003755Y-97962637D01*
X196935000Y-98308291D01*
X196935000Y-99066360D01*
X196883646Y-99143217D01*
X196826601Y-99430000D01*
X196826601Y-101230000D01*
X196883646Y-101516783D01*
X197001000Y-101692416D01*
X197001001Y-104599156D01*
X196380158Y-105220000D01*
X196310752Y-105220000D01*
X196563728Y-104967024D01*
X196786000Y-104430412D01*
X196786000Y-103849588D01*
X196563728Y-103312976D01*
X196511000Y-103260248D01*
X196511000Y-101692416D01*
X196628354Y-101516783D01*
X196685399Y-101230000D01*
X196685399Y-99430000D01*
X196628354Y-99143217D01*
X196465905Y-98900095D01*
X196222783Y-98737646D01*
X195936000Y-98680601D01*
X194716000Y-98680601D01*
X194429217Y-98737646D01*
X194186095Y-98900095D01*
X194023646Y-99143217D01*
X194004467Y-99239634D01*
X193934327Y-99070301D01*
X193755698Y-98891673D01*
X193522309Y-98795000D01*
X193071750Y-98795000D01*
X192913000Y-98953750D01*
X192913000Y-100203000D01*
X192933000Y-100203000D01*
X192933000Y-100457000D01*
X192913000Y-100457000D01*
X192913000Y-101706250D01*
X193071750Y-101865000D01*
X193522309Y-101865000D01*
X193755698Y-101768327D01*
X193934327Y-101589699D01*
X194004467Y-101420366D01*
X194023646Y-101516783D01*
X194141000Y-101692416D01*
X194141001Y-103260247D01*
X194088272Y-103312976D01*
X194008544Y-103505457D01*
X193977753Y-103431122D01*
X193739398Y-103366207D01*
X192965605Y-104140000D01*
X193739398Y-104913793D01*
X193977753Y-104848878D01*
X194006131Y-104768718D01*
X194088272Y-104967024D01*
X194341248Y-105220000D01*
X193765588Y-105220000D01*
X193228976Y-105442272D01*
X192818272Y-105852976D01*
X192738544Y-106045457D01*
X192707753Y-105971122D01*
X192469398Y-105906207D01*
X191695605Y-106680000D01*
X192469398Y-107453793D01*
X192707753Y-107388878D01*
X192736131Y-107308718D01*
X192818272Y-107507024D01*
X192871001Y-107559753D01*
X192871001Y-107935601D01*
X192356000Y-107935601D01*
X192069217Y-107992646D01*
X191826095Y-108155095D01*
X191663646Y-108398217D01*
X191606601Y-108685000D01*
X191606601Y-109485000D01*
X181519399Y-109485000D01*
X181519399Y-108685000D01*
X181462354Y-108398217D01*
X181299905Y-108155095D01*
X181208365Y-108093930D01*
X181319588Y-108140000D01*
X181900412Y-108140000D01*
X182437024Y-107917728D01*
X182721354Y-107633398D01*
X190742207Y-107633398D01*
X190807122Y-107871753D01*
X191317146Y-108052312D01*
X191857444Y-108023949D01*
X192224878Y-107871753D01*
X192289793Y-107633398D01*
X191516000Y-106859605D01*
X190742207Y-107633398D01*
X182721354Y-107633398D01*
X182847728Y-107507024D01*
X183070000Y-106970412D01*
X183070000Y-106895842D01*
X183484696Y-106481146D01*
X190143688Y-106481146D01*
X190172051Y-107021444D01*
X190324247Y-107388878D01*
X190562602Y-107453793D01*
X191336395Y-106680000D01*
X190562602Y-105906207D01*
X190324247Y-105971122D01*
X190143688Y-106481146D01*
X183484696Y-106481146D01*
X183955395Y-106010448D01*
X184054337Y-105944337D01*
X184199822Y-105726602D01*
X190742207Y-105726602D01*
X191516000Y-106500395D01*
X192289793Y-105726602D01*
X192224878Y-105488247D01*
X191714854Y-105307688D01*
X191174556Y-105336051D01*
X190807122Y-105488247D01*
X190742207Y-105726602D01*
X184199822Y-105726602D01*
X184316245Y-105552364D01*
X184385000Y-105206710D01*
X184408215Y-105090000D01*
X184385000Y-104973291D01*
X184385000Y-101692416D01*
X184502354Y-101516783D01*
X184502709Y-101515000D01*
X185536710Y-101515000D01*
X185882364Y-101446245D01*
X186274337Y-101184337D01*
X186536245Y-100792364D01*
X186628215Y-100330000D01*
X186536245Y-99867636D01*
X186274337Y-99475663D01*
X186127426Y-99377500D01*
X186274337Y-99279337D01*
X186536245Y-98887364D01*
X186628215Y-98425000D01*
X186536245Y-97962636D01*
X186274337Y-97570663D01*
X186127426Y-97472500D01*
X186274337Y-97374337D01*
X186536245Y-96982364D01*
X186628215Y-96520000D01*
X186536245Y-96057636D01*
X186274337Y-95665663D01*
X185882364Y-95403755D01*
X185536710Y-95335000D01*
X183504705Y-95335000D01*
X183387999Y-95311786D01*
X183271294Y-95335000D01*
X183271290Y-95335000D01*
X182925636Y-95403755D01*
X182533663Y-95665663D01*
X182467550Y-95764608D01*
X182444606Y-95787552D01*
X182345664Y-95853663D01*
X182279553Y-95952605D01*
X182083755Y-96245637D01*
X181991786Y-96708000D01*
X182015001Y-96824710D01*
X182015000Y-98413289D01*
X182015000Y-98413294D01*
X181991786Y-98530000D01*
X182015000Y-98646706D01*
X182015000Y-98967584D01*
X181897646Y-99143217D01*
X181840601Y-99430000D01*
X181840601Y-101230000D01*
X181897646Y-101516783D01*
X182015000Y-101692416D01*
X182015001Y-104599156D01*
X181394158Y-105220000D01*
X181324752Y-105220000D01*
X181577728Y-104967024D01*
X181800000Y-104430412D01*
X181800000Y-103849588D01*
X181577728Y-103312976D01*
X181525000Y-103260248D01*
X181525000Y-101692416D01*
X181642354Y-101516783D01*
X181699399Y-101230000D01*
X181699399Y-99430000D01*
X181642354Y-99143217D01*
X181479905Y-98900095D01*
X181236783Y-98737646D01*
X180950000Y-98680601D01*
X179730000Y-98680601D01*
X179443217Y-98737646D01*
X179200095Y-98900095D01*
X179037646Y-99143217D01*
X179018467Y-99239634D01*
X178948327Y-99070301D01*
X178769698Y-98891673D01*
X178536309Y-98795000D01*
X178085750Y-98795000D01*
X177927000Y-98953750D01*
X177927000Y-100203000D01*
X177947000Y-100203000D01*
X177947000Y-100457000D01*
X177927000Y-100457000D01*
X177927000Y-101706250D01*
X178085750Y-101865000D01*
X178536309Y-101865000D01*
X178769698Y-101768327D01*
X178948327Y-101589699D01*
X179018467Y-101420366D01*
X179037646Y-101516783D01*
X179155000Y-101692416D01*
X179155001Y-103260247D01*
X179102272Y-103312976D01*
X179022544Y-103505457D01*
X178991753Y-103431122D01*
X178753398Y-103366207D01*
X177979605Y-104140000D01*
X178753398Y-104913793D01*
X178991753Y-104848878D01*
X179020131Y-104768718D01*
X179102272Y-104967024D01*
X179355248Y-105220000D01*
X178779588Y-105220000D01*
X178242976Y-105442272D01*
X177832272Y-105852976D01*
X177752544Y-106045457D01*
X177721753Y-105971122D01*
X177483398Y-105906207D01*
X176709605Y-106680000D01*
X177483398Y-107453793D01*
X177721753Y-107388878D01*
X177750131Y-107308718D01*
X177832272Y-107507024D01*
X177885000Y-107559752D01*
X177885000Y-107935601D01*
X177370000Y-107935601D01*
X177083217Y-107992646D01*
X176840095Y-108155095D01*
X176677646Y-108398217D01*
X176620601Y-108685000D01*
X176620601Y-109485000D01*
X166533399Y-109485000D01*
X166533399Y-108685000D01*
X166476354Y-108398217D01*
X166313905Y-108155095D01*
X166222365Y-108093930D01*
X166333588Y-108140000D01*
X166914412Y-108140000D01*
X167451024Y-107917728D01*
X167735354Y-107633398D01*
X175756207Y-107633398D01*
X175821122Y-107871753D01*
X176331146Y-108052312D01*
X176871444Y-108023949D01*
X177238878Y-107871753D01*
X177303793Y-107633398D01*
X176530000Y-106859605D01*
X175756207Y-107633398D01*
X167735354Y-107633398D01*
X167861728Y-107507024D01*
X168084000Y-106970412D01*
X168084000Y-106895842D01*
X168498696Y-106481146D01*
X175157688Y-106481146D01*
X175186051Y-107021444D01*
X175338247Y-107388878D01*
X175576602Y-107453793D01*
X176350395Y-106680000D01*
X175576602Y-105906207D01*
X175338247Y-105971122D01*
X175157688Y-106481146D01*
X168498696Y-106481146D01*
X168969395Y-106010448D01*
X169068337Y-105944337D01*
X169213822Y-105726602D01*
X175756207Y-105726602D01*
X176530000Y-106500395D01*
X177303793Y-105726602D01*
X177238878Y-105488247D01*
X176728854Y-105307688D01*
X176188556Y-105336051D01*
X175821122Y-105488247D01*
X175756207Y-105726602D01*
X169213822Y-105726602D01*
X169330245Y-105552364D01*
X169399000Y-105206710D01*
X169422215Y-105090000D01*
X169399000Y-104973291D01*
X169399000Y-101692416D01*
X169516354Y-101516783D01*
X169516709Y-101515000D01*
X170296710Y-101515000D01*
X170642364Y-101446245D01*
X171034337Y-101184337D01*
X171296245Y-100792364D01*
X171388215Y-100330000D01*
X171296245Y-99867636D01*
X171034337Y-99475663D01*
X170887426Y-99377500D01*
X171034337Y-99279337D01*
X171296245Y-98887364D01*
X171388215Y-98425000D01*
X171296245Y-97962636D01*
X171034337Y-97570663D01*
X170642364Y-97308755D01*
X170296710Y-97240000D01*
X168435704Y-97240000D01*
X168318999Y-97216786D01*
X168202295Y-97240000D01*
X168202290Y-97240000D01*
X167856636Y-97308755D01*
X167464663Y-97570663D01*
X167422605Y-97633607D01*
X167359664Y-97675663D01*
X167293553Y-97774605D01*
X167097755Y-98067637D01*
X167005786Y-98530000D01*
X167029001Y-98646710D01*
X167029001Y-98967583D01*
X166911646Y-99143217D01*
X166854601Y-99430000D01*
X166854601Y-101230000D01*
X166911646Y-101516783D01*
X167029000Y-101692416D01*
X167029001Y-104599156D01*
X166408158Y-105220000D01*
X166338752Y-105220000D01*
X166591728Y-104967024D01*
X166814000Y-104430412D01*
X166814000Y-103849588D01*
X166591728Y-103312976D01*
X166539000Y-103260248D01*
X166539000Y-101692416D01*
X166656354Y-101516783D01*
X166713399Y-101230000D01*
X166713399Y-99430000D01*
X166656354Y-99143217D01*
X166493905Y-98900095D01*
X166250783Y-98737646D01*
X165964000Y-98680601D01*
X164744000Y-98680601D01*
X164457217Y-98737646D01*
X164214095Y-98900095D01*
X164051646Y-99143217D01*
X164032467Y-99239634D01*
X163962327Y-99070301D01*
X163783698Y-98891673D01*
X163550309Y-98795000D01*
X163099750Y-98795000D01*
X162941000Y-98953750D01*
X162941000Y-100203000D01*
X162961000Y-100203000D01*
X162961000Y-100457000D01*
X162941000Y-100457000D01*
X162941000Y-101706250D01*
X163099750Y-101865000D01*
X163550309Y-101865000D01*
X163783698Y-101768327D01*
X163962327Y-101589699D01*
X164032467Y-101420366D01*
X164051646Y-101516783D01*
X164169000Y-101692416D01*
X164169001Y-103260247D01*
X164116272Y-103312976D01*
X164036544Y-103505457D01*
X164005753Y-103431122D01*
X163767398Y-103366207D01*
X162993605Y-104140000D01*
X163767398Y-104913793D01*
X164005753Y-104848878D01*
X164034131Y-104768718D01*
X164116272Y-104967024D01*
X164369248Y-105220000D01*
X163793588Y-105220000D01*
X163256976Y-105442272D01*
X162846272Y-105852976D01*
X162766544Y-106045457D01*
X162735753Y-105971122D01*
X162497398Y-105906207D01*
X161723605Y-106680000D01*
X162497398Y-107453793D01*
X162735753Y-107388878D01*
X162764131Y-107308718D01*
X162846272Y-107507024D01*
X162899000Y-107559752D01*
X162899000Y-107935601D01*
X162384000Y-107935601D01*
X162097217Y-107992646D01*
X161854095Y-108155095D01*
X161691646Y-108398217D01*
X161634601Y-108685000D01*
X161634601Y-109485000D01*
X151547399Y-109485000D01*
X151547399Y-108685000D01*
X151490354Y-108398217D01*
X151327905Y-108155095D01*
X151236365Y-108093930D01*
X151347588Y-108140000D01*
X151928412Y-108140000D01*
X152465024Y-107917728D01*
X152749354Y-107633398D01*
X160770207Y-107633398D01*
X160835122Y-107871753D01*
X161345146Y-108052312D01*
X161885444Y-108023949D01*
X162252878Y-107871753D01*
X162317793Y-107633398D01*
X161544000Y-106859605D01*
X160770207Y-107633398D01*
X152749354Y-107633398D01*
X152875728Y-107507024D01*
X153098000Y-106970412D01*
X153098000Y-106895842D01*
X153512696Y-106481146D01*
X160171688Y-106481146D01*
X160200051Y-107021444D01*
X160352247Y-107388878D01*
X160590602Y-107453793D01*
X161364395Y-106680000D01*
X160590602Y-105906207D01*
X160352247Y-105971122D01*
X160171688Y-106481146D01*
X153512696Y-106481146D01*
X153983395Y-106010448D01*
X154082337Y-105944337D01*
X154227822Y-105726602D01*
X160770207Y-105726602D01*
X161544000Y-106500395D01*
X162317793Y-105726602D01*
X162252878Y-105488247D01*
X161742854Y-105307688D01*
X161202556Y-105336051D01*
X160835122Y-105488247D01*
X160770207Y-105726602D01*
X154227822Y-105726602D01*
X154344245Y-105552364D01*
X154413000Y-105206710D01*
X154436215Y-105090000D01*
X154413000Y-104973291D01*
X154413000Y-101692416D01*
X154530354Y-101516783D01*
X154530709Y-101515000D01*
X155056710Y-101515000D01*
X155402364Y-101446245D01*
X155794337Y-101184337D01*
X156056245Y-100792364D01*
X156148215Y-100330000D01*
X156056245Y-99867636D01*
X155794337Y-99475663D01*
X155647426Y-99377500D01*
X155794337Y-99279337D01*
X156056245Y-98887364D01*
X156148215Y-98425000D01*
X156056245Y-97962636D01*
X155794337Y-97570663D01*
X155402364Y-97308755D01*
X155056710Y-97240000D01*
X153449704Y-97240000D01*
X153332999Y-97216786D01*
X153216295Y-97240000D01*
X153216290Y-97240000D01*
X152870636Y-97308755D01*
X152478663Y-97570663D01*
X152436605Y-97633607D01*
X152373664Y-97675663D01*
X152307553Y-97774605D01*
X152111755Y-98067637D01*
X152019786Y-98530000D01*
X152043001Y-98646710D01*
X152043001Y-98967583D01*
X151925646Y-99143217D01*
X151868601Y-99430000D01*
X151868601Y-101230000D01*
X151925646Y-101516783D01*
X152043000Y-101692416D01*
X152043001Y-104599156D01*
X151422158Y-105220000D01*
X151352752Y-105220000D01*
X151605728Y-104967024D01*
X151828000Y-104430412D01*
X151828000Y-103849588D01*
X151605728Y-103312976D01*
X151553000Y-103260248D01*
X151553000Y-101692416D01*
X151670354Y-101516783D01*
X151727399Y-101230000D01*
X151727399Y-99430000D01*
X151670354Y-99143217D01*
X151507905Y-98900095D01*
X151264783Y-98737646D01*
X150978000Y-98680601D01*
X149758000Y-98680601D01*
X149471217Y-98737646D01*
X149228095Y-98900095D01*
X149065646Y-99143217D01*
X149046467Y-99239634D01*
X148976327Y-99070301D01*
X148797698Y-98891673D01*
X148564309Y-98795000D01*
X148113750Y-98795000D01*
X147955000Y-98953750D01*
X147955000Y-100203000D01*
X147975000Y-100203000D01*
X147975000Y-100457000D01*
X147955000Y-100457000D01*
X147955000Y-101706250D01*
X148113750Y-101865000D01*
X148564309Y-101865000D01*
X148797698Y-101768327D01*
X148976327Y-101589699D01*
X149046467Y-101420366D01*
X149065646Y-101516783D01*
X149183000Y-101692416D01*
X149183001Y-103260247D01*
X149130272Y-103312976D01*
X149050544Y-103505457D01*
X149019753Y-103431122D01*
X148781398Y-103366207D01*
X148007605Y-104140000D01*
X148781398Y-104913793D01*
X149019753Y-104848878D01*
X149048131Y-104768718D01*
X149130272Y-104967024D01*
X149383248Y-105220000D01*
X148807588Y-105220000D01*
X148270976Y-105442272D01*
X147860272Y-105852976D01*
X147780544Y-106045457D01*
X147749753Y-105971122D01*
X147511398Y-105906207D01*
X146737605Y-106680000D01*
X147511398Y-107453793D01*
X147749753Y-107388878D01*
X147778131Y-107308718D01*
X147860272Y-107507024D01*
X147913000Y-107559752D01*
X147913000Y-107935601D01*
X147398000Y-107935601D01*
X147111217Y-107992646D01*
X146868095Y-108155095D01*
X146705646Y-108398217D01*
X146648601Y-108685000D01*
X146648601Y-109485000D01*
X136561399Y-109485000D01*
X136561399Y-108685000D01*
X136504354Y-108398217D01*
X136341905Y-108155095D01*
X136250365Y-108093930D01*
X136361588Y-108140000D01*
X136942412Y-108140000D01*
X137479024Y-107917728D01*
X137763354Y-107633398D01*
X145784207Y-107633398D01*
X145849122Y-107871753D01*
X146359146Y-108052312D01*
X146899444Y-108023949D01*
X147266878Y-107871753D01*
X147331793Y-107633398D01*
X146558000Y-106859605D01*
X145784207Y-107633398D01*
X137763354Y-107633398D01*
X137889728Y-107507024D01*
X138112000Y-106970412D01*
X138112000Y-106895842D01*
X138526696Y-106481146D01*
X145185688Y-106481146D01*
X145214051Y-107021444D01*
X145366247Y-107388878D01*
X145604602Y-107453793D01*
X146378395Y-106680000D01*
X145604602Y-105906207D01*
X145366247Y-105971122D01*
X145185688Y-106481146D01*
X138526696Y-106481146D01*
X138997395Y-106010448D01*
X139096337Y-105944337D01*
X139241822Y-105726602D01*
X145784207Y-105726602D01*
X146558000Y-106500395D01*
X147331793Y-105726602D01*
X147266878Y-105488247D01*
X146756854Y-105307688D01*
X146216556Y-105336051D01*
X145849122Y-105488247D01*
X145784207Y-105726602D01*
X139241822Y-105726602D01*
X139358245Y-105552364D01*
X139427000Y-105206710D01*
X139450215Y-105090000D01*
X139427000Y-104973291D01*
X139427000Y-101692416D01*
X139544354Y-101516783D01*
X139544709Y-101515000D01*
X140451710Y-101515000D01*
X140797364Y-101446245D01*
X141189337Y-101184337D01*
X141451245Y-100792364D01*
X141543215Y-100330000D01*
X141451245Y-99867636D01*
X141189337Y-99475663D01*
X141042426Y-99377500D01*
X141189337Y-99279337D01*
X141451245Y-98887364D01*
X141543215Y-98425000D01*
X141451245Y-97962636D01*
X141189337Y-97570663D01*
X140797364Y-97308755D01*
X140451710Y-97240000D01*
X138463704Y-97240000D01*
X138346999Y-97216786D01*
X138230295Y-97240000D01*
X138230290Y-97240000D01*
X137884636Y-97308755D01*
X137492663Y-97570663D01*
X137450605Y-97633607D01*
X137387664Y-97675663D01*
X137321553Y-97774605D01*
X137125755Y-98067637D01*
X137033786Y-98530000D01*
X137057001Y-98646710D01*
X137057001Y-98967583D01*
X136939646Y-99143217D01*
X136882601Y-99430000D01*
X136882601Y-101230000D01*
X136939646Y-101516783D01*
X137057000Y-101692416D01*
X137057001Y-104599156D01*
X136436158Y-105220000D01*
X136366752Y-105220000D01*
X136619728Y-104967024D01*
X136842000Y-104430412D01*
X136842000Y-103849588D01*
X136619728Y-103312976D01*
X136567000Y-103260248D01*
X136567000Y-101692416D01*
X136684354Y-101516783D01*
X136741399Y-101230000D01*
X136741399Y-99430000D01*
X136684354Y-99143217D01*
X136521905Y-98900095D01*
X136278783Y-98737646D01*
X135992000Y-98680601D01*
X134772000Y-98680601D01*
X134485217Y-98737646D01*
X134242095Y-98900095D01*
X134079646Y-99143217D01*
X134060467Y-99239634D01*
X133990327Y-99070301D01*
X133811698Y-98891673D01*
X133578309Y-98795000D01*
X133127750Y-98795000D01*
X132969000Y-98953750D01*
X132969000Y-100203000D01*
X132989000Y-100203000D01*
X132989000Y-100457000D01*
X132969000Y-100457000D01*
X132969000Y-101706250D01*
X133127750Y-101865000D01*
X133578309Y-101865000D01*
X133811698Y-101768327D01*
X133990327Y-101589699D01*
X134060467Y-101420366D01*
X134079646Y-101516783D01*
X134197000Y-101692416D01*
X134197001Y-103260247D01*
X134144272Y-103312976D01*
X134064544Y-103505457D01*
X134033753Y-103431122D01*
X133795398Y-103366207D01*
X133021605Y-104140000D01*
X133795398Y-104913793D01*
X134033753Y-104848878D01*
X134062131Y-104768718D01*
X134144272Y-104967024D01*
X134397248Y-105220000D01*
X133821588Y-105220000D01*
X133284976Y-105442272D01*
X132874272Y-105852976D01*
X132794544Y-106045457D01*
X132763753Y-105971122D01*
X132525398Y-105906207D01*
X131751605Y-106680000D01*
X132525398Y-107453793D01*
X132763753Y-107388878D01*
X132792131Y-107308718D01*
X132874272Y-107507024D01*
X132927001Y-107559753D01*
X132927001Y-107935601D01*
X132412000Y-107935601D01*
X132125217Y-107992646D01*
X131882095Y-108155095D01*
X131719646Y-108398217D01*
X131662601Y-108685000D01*
X131662601Y-109485000D01*
X121575399Y-109485000D01*
X121575399Y-108685000D01*
X121518354Y-108398217D01*
X121355905Y-108155095D01*
X121264365Y-108093930D01*
X121375588Y-108140000D01*
X121956412Y-108140000D01*
X122493024Y-107917728D01*
X122777354Y-107633398D01*
X130798207Y-107633398D01*
X130863122Y-107871753D01*
X131373146Y-108052312D01*
X131913444Y-108023949D01*
X132280878Y-107871753D01*
X132345793Y-107633398D01*
X131572000Y-106859605D01*
X130798207Y-107633398D01*
X122777354Y-107633398D01*
X122903728Y-107507024D01*
X123126000Y-106970412D01*
X123126000Y-106895842D01*
X123540696Y-106481146D01*
X130199688Y-106481146D01*
X130228051Y-107021444D01*
X130380247Y-107388878D01*
X130618602Y-107453793D01*
X131392395Y-106680000D01*
X130618602Y-105906207D01*
X130380247Y-105971122D01*
X130199688Y-106481146D01*
X123540696Y-106481146D01*
X124011395Y-106010448D01*
X124110337Y-105944337D01*
X124255822Y-105726602D01*
X130798207Y-105726602D01*
X131572000Y-106500395D01*
X132345793Y-105726602D01*
X132280878Y-105488247D01*
X131770854Y-105307688D01*
X131230556Y-105336051D01*
X130863122Y-105488247D01*
X130798207Y-105726602D01*
X124255822Y-105726602D01*
X124372245Y-105552364D01*
X124441000Y-105206710D01*
X124464215Y-105090000D01*
X124441000Y-104973291D01*
X124441000Y-101692416D01*
X124558354Y-101516783D01*
X124558709Y-101515000D01*
X125846710Y-101515000D01*
X126192364Y-101446245D01*
X126584337Y-101184337D01*
X126846245Y-100792364D01*
X126938215Y-100330000D01*
X126846245Y-99867636D01*
X126584337Y-99475663D01*
X126437426Y-99377500D01*
X126584337Y-99279337D01*
X126846245Y-98887364D01*
X126938215Y-98425000D01*
X126846245Y-97962636D01*
X126584337Y-97570663D01*
X126192364Y-97308755D01*
X125846710Y-97240000D01*
X123477704Y-97240000D01*
X123360999Y-97216786D01*
X123244295Y-97240000D01*
X123244290Y-97240000D01*
X122898636Y-97308755D01*
X122506663Y-97570663D01*
X122464605Y-97633607D01*
X122401664Y-97675663D01*
X122335553Y-97774605D01*
X122139755Y-98067637D01*
X122047786Y-98530000D01*
X122071001Y-98646710D01*
X122071001Y-98967583D01*
X121953646Y-99143217D01*
X121896601Y-99430000D01*
X121896601Y-101230000D01*
X121953646Y-101516783D01*
X122071000Y-101692416D01*
X122071001Y-104599156D01*
X121450158Y-105220000D01*
X121380752Y-105220000D01*
X121633728Y-104967024D01*
X121856000Y-104430412D01*
X121856000Y-103849588D01*
X121633728Y-103312976D01*
X121581000Y-103260248D01*
X121581000Y-101692416D01*
X121698354Y-101516783D01*
X121755399Y-101230000D01*
X121755399Y-99430000D01*
X121698354Y-99143217D01*
X121535905Y-98900095D01*
X121292783Y-98737646D01*
X121006000Y-98680601D01*
X119786000Y-98680601D01*
X119499217Y-98737646D01*
X119256095Y-98900095D01*
X119093646Y-99143217D01*
X119074467Y-99239634D01*
X119004327Y-99070301D01*
X118825698Y-98891673D01*
X118592309Y-98795000D01*
X118141750Y-98795000D01*
X117983000Y-98953750D01*
X117983000Y-100203000D01*
X118003000Y-100203000D01*
X118003000Y-100457000D01*
X117983000Y-100457000D01*
X117983000Y-101706250D01*
X118141750Y-101865000D01*
X118592309Y-101865000D01*
X118825698Y-101768327D01*
X119004327Y-101589699D01*
X119074467Y-101420366D01*
X119093646Y-101516783D01*
X119211000Y-101692416D01*
X119211001Y-103260247D01*
X119158272Y-103312976D01*
X119078544Y-103505457D01*
X119047753Y-103431122D01*
X118809398Y-103366207D01*
X118035605Y-104140000D01*
X118809398Y-104913793D01*
X119047753Y-104848878D01*
X119076131Y-104768718D01*
X119158272Y-104967024D01*
X119411248Y-105220000D01*
X118835588Y-105220000D01*
X118298976Y-105442272D01*
X117888272Y-105852976D01*
X117808544Y-106045457D01*
X117777753Y-105971122D01*
X117539398Y-105906207D01*
X116765605Y-106680000D01*
X117539398Y-107453793D01*
X117777753Y-107388878D01*
X117806131Y-107308718D01*
X117888272Y-107507024D01*
X117941001Y-107559753D01*
X117941001Y-107935601D01*
X117426000Y-107935601D01*
X117139217Y-107992646D01*
X116896095Y-108155095D01*
X116733646Y-108398217D01*
X116676601Y-108685000D01*
X116676601Y-109485000D01*
X106589399Y-109485000D01*
X106589399Y-108685000D01*
X106532354Y-108398217D01*
X106369905Y-108155095D01*
X106278365Y-108093930D01*
X106389588Y-108140000D01*
X106970412Y-108140000D01*
X107507024Y-107917728D01*
X107791354Y-107633398D01*
X115812207Y-107633398D01*
X115877122Y-107871753D01*
X116387146Y-108052312D01*
X116927444Y-108023949D01*
X117294878Y-107871753D01*
X117359793Y-107633398D01*
X116586000Y-106859605D01*
X115812207Y-107633398D01*
X107791354Y-107633398D01*
X107917728Y-107507024D01*
X108140000Y-106970412D01*
X108140000Y-106895842D01*
X108554696Y-106481146D01*
X115213688Y-106481146D01*
X115242051Y-107021444D01*
X115394247Y-107388878D01*
X115632602Y-107453793D01*
X116406395Y-106680000D01*
X115632602Y-105906207D01*
X115394247Y-105971122D01*
X115213688Y-106481146D01*
X108554696Y-106481146D01*
X109025395Y-106010448D01*
X109124337Y-105944337D01*
X109269822Y-105726602D01*
X115812207Y-105726602D01*
X116586000Y-106500395D01*
X117359793Y-105726602D01*
X117294878Y-105488247D01*
X116784854Y-105307688D01*
X116244556Y-105336051D01*
X115877122Y-105488247D01*
X115812207Y-105726602D01*
X109269822Y-105726602D01*
X109386245Y-105552364D01*
X109455000Y-105206710D01*
X109478215Y-105090000D01*
X109455000Y-104973291D01*
X109455000Y-101692416D01*
X109572354Y-101516783D01*
X109572709Y-101515000D01*
X110606710Y-101515000D01*
X110952364Y-101446245D01*
X111344337Y-101184337D01*
X111606245Y-100792364D01*
X111698215Y-100330000D01*
X111606245Y-99867636D01*
X111344337Y-99475663D01*
X111292460Y-99441000D01*
X111344337Y-99406337D01*
X111606245Y-99014364D01*
X111698215Y-98552000D01*
X111606245Y-98089636D01*
X111344337Y-97697663D01*
X110952364Y-97435755D01*
X110606710Y-97367000D01*
X108452705Y-97367000D01*
X108335999Y-97343786D01*
X108219294Y-97367000D01*
X108219290Y-97367000D01*
X107873636Y-97435755D01*
X107481663Y-97697663D01*
X107455226Y-97737228D01*
X107415664Y-97763663D01*
X107349553Y-97862605D01*
X107153755Y-98155637D01*
X107121010Y-98320260D01*
X107085000Y-98501290D01*
X107085000Y-98501294D01*
X107061786Y-98618000D01*
X107085000Y-98734706D01*
X107085000Y-98967584D01*
X106967646Y-99143217D01*
X106910601Y-99430000D01*
X106910601Y-101230000D01*
X106967646Y-101516783D01*
X107085000Y-101692416D01*
X107085001Y-104599156D01*
X106464158Y-105220000D01*
X106394752Y-105220000D01*
X106647728Y-104967024D01*
X106870000Y-104430412D01*
X106870000Y-103849588D01*
X106647728Y-103312976D01*
X106595000Y-103260248D01*
X106595000Y-101692416D01*
X106712354Y-101516783D01*
X106769399Y-101230000D01*
X106769399Y-99430000D01*
X106712354Y-99143217D01*
X106549905Y-98900095D01*
X106306783Y-98737646D01*
X106020000Y-98680601D01*
X104800000Y-98680601D01*
X104513217Y-98737646D01*
X104270095Y-98900095D01*
X104107646Y-99143217D01*
X104088467Y-99239634D01*
X104018327Y-99070301D01*
X103839698Y-98891673D01*
X103606309Y-98795000D01*
X103155750Y-98795000D01*
X102997000Y-98953750D01*
X102997000Y-100203000D01*
X103017000Y-100203000D01*
X103017000Y-100457000D01*
X102997000Y-100457000D01*
X102997000Y-101706250D01*
X103155750Y-101865000D01*
X103606309Y-101865000D01*
X103839698Y-101768327D01*
X104018327Y-101589699D01*
X104088467Y-101420366D01*
X104107646Y-101516783D01*
X104225000Y-101692416D01*
X104225001Y-103260247D01*
X104172272Y-103312976D01*
X104092544Y-103505457D01*
X104061753Y-103431122D01*
X103823398Y-103366207D01*
X103049605Y-104140000D01*
X103823398Y-104913793D01*
X104061753Y-104848878D01*
X104090131Y-104768718D01*
X104172272Y-104967024D01*
X104425248Y-105220000D01*
X103849588Y-105220000D01*
X103312976Y-105442272D01*
X102902272Y-105852976D01*
X102822544Y-106045457D01*
X102791753Y-105971122D01*
X102553398Y-105906207D01*
X101779605Y-106680000D01*
X102553398Y-107453793D01*
X102791753Y-107388878D01*
X102820131Y-107308718D01*
X102902272Y-107507024D01*
X102955001Y-107559753D01*
X102955001Y-107935601D01*
X102440000Y-107935601D01*
X102153217Y-107992646D01*
X101910095Y-108155095D01*
X101747646Y-108398217D01*
X101690601Y-108685000D01*
X101690601Y-109485000D01*
X91603399Y-109485000D01*
X91603399Y-108685000D01*
X91546354Y-108398217D01*
X91383905Y-108155095D01*
X91292365Y-108093930D01*
X91403588Y-108140000D01*
X91984412Y-108140000D01*
X92521024Y-107917728D01*
X92805354Y-107633398D01*
X100826207Y-107633398D01*
X100891122Y-107871753D01*
X101401146Y-108052312D01*
X101941444Y-108023949D01*
X102308878Y-107871753D01*
X102373793Y-107633398D01*
X101600000Y-106859605D01*
X100826207Y-107633398D01*
X92805354Y-107633398D01*
X92931728Y-107507024D01*
X93154000Y-106970412D01*
X93154000Y-106895842D01*
X93568696Y-106481146D01*
X100227688Y-106481146D01*
X100256051Y-107021444D01*
X100408247Y-107388878D01*
X100646602Y-107453793D01*
X101420395Y-106680000D01*
X100646602Y-105906207D01*
X100408247Y-105971122D01*
X100227688Y-106481146D01*
X93568696Y-106481146D01*
X94039395Y-106010448D01*
X94138337Y-105944337D01*
X94283822Y-105726602D01*
X100826207Y-105726602D01*
X101600000Y-106500395D01*
X102373793Y-105726602D01*
X102308878Y-105488247D01*
X101798854Y-105307688D01*
X101258556Y-105336051D01*
X100891122Y-105488247D01*
X100826207Y-105726602D01*
X94283822Y-105726602D01*
X94400245Y-105552364D01*
X94469000Y-105206710D01*
X94492215Y-105090000D01*
X94469000Y-104973291D01*
X94469000Y-101692416D01*
X94586354Y-101516783D01*
X94586709Y-101515000D01*
X96001710Y-101515000D01*
X96347364Y-101446245D01*
X96739337Y-101184337D01*
X97001245Y-100792364D01*
X97093215Y-100330000D01*
X97001245Y-99867636D01*
X96739337Y-99475663D01*
X96347364Y-99213755D01*
X96001710Y-99145000D01*
X94586709Y-99145000D01*
X94586354Y-99143217D01*
X94423905Y-98900095D01*
X94180783Y-98737646D01*
X93894000Y-98680601D01*
X92674000Y-98680601D01*
X92387217Y-98737646D01*
X92144095Y-98900095D01*
X91981646Y-99143217D01*
X91924601Y-99430000D01*
X91924601Y-101230000D01*
X91981646Y-101516783D01*
X92099000Y-101692416D01*
X92099001Y-104599156D01*
X91478158Y-105220000D01*
X91408752Y-105220000D01*
X91661728Y-104967024D01*
X91884000Y-104430412D01*
X91884000Y-103849588D01*
X91661728Y-103312976D01*
X91609000Y-103260248D01*
X91609000Y-101692416D01*
X91726354Y-101516783D01*
X91783399Y-101230000D01*
X91783399Y-99430000D01*
X91726354Y-99143217D01*
X91563905Y-98900095D01*
X91320783Y-98737646D01*
X91034000Y-98680601D01*
X89814000Y-98680601D01*
X89527217Y-98737646D01*
X89284095Y-98900095D01*
X89121646Y-99143217D01*
X89102467Y-99239634D01*
X89032327Y-99070301D01*
X88853698Y-98891673D01*
X88620309Y-98795000D01*
X88169750Y-98795000D01*
X88011000Y-98953750D01*
X88011000Y-100203000D01*
X88031000Y-100203000D01*
X88031000Y-100457000D01*
X88011000Y-100457000D01*
X88011000Y-101706250D01*
X88169750Y-101865000D01*
X88620309Y-101865000D01*
X88853698Y-101768327D01*
X89032327Y-101589699D01*
X89102467Y-101420366D01*
X89121646Y-101516783D01*
X89239000Y-101692416D01*
X89239001Y-103260247D01*
X89186272Y-103312976D01*
X89106544Y-103505457D01*
X89075753Y-103431122D01*
X88837398Y-103366207D01*
X88063605Y-104140000D01*
X88837398Y-104913793D01*
X89075753Y-104848878D01*
X89104131Y-104768718D01*
X89186272Y-104967024D01*
X89439248Y-105220000D01*
X88863588Y-105220000D01*
X88326976Y-105442272D01*
X87916272Y-105852976D01*
X87836544Y-106045457D01*
X87805753Y-105971122D01*
X87567398Y-105906207D01*
X86793605Y-106680000D01*
X87567398Y-107453793D01*
X87805753Y-107388878D01*
X87834131Y-107308718D01*
X87916272Y-107507024D01*
X87969001Y-107559753D01*
X87969001Y-107935601D01*
X87454000Y-107935601D01*
X87167217Y-107992646D01*
X86924095Y-108155095D01*
X86761646Y-108398217D01*
X86704601Y-108685000D01*
X86704601Y-109144757D01*
X85193242Y-107633398D01*
X85840207Y-107633398D01*
X85905122Y-107871753D01*
X86415146Y-108052312D01*
X86955444Y-108023949D01*
X87322878Y-107871753D01*
X87387793Y-107633398D01*
X86614000Y-106859605D01*
X85840207Y-107633398D01*
X85193242Y-107633398D01*
X84040989Y-106481146D01*
X85241688Y-106481146D01*
X85270051Y-107021444D01*
X85422247Y-107388878D01*
X85660602Y-107453793D01*
X86434395Y-106680000D01*
X85660602Y-105906207D01*
X85422247Y-105971122D01*
X85241688Y-106481146D01*
X84040989Y-106481146D01*
X83989000Y-106429158D01*
X83989000Y-105726602D01*
X85840207Y-105726602D01*
X86614000Y-106500395D01*
X87387793Y-105726602D01*
X87322878Y-105488247D01*
X86812854Y-105307688D01*
X86272556Y-105336051D01*
X85905122Y-105488247D01*
X85840207Y-105726602D01*
X83989000Y-105726602D01*
X83989000Y-104683904D01*
X84106272Y-104967024D01*
X84516976Y-105377728D01*
X85053588Y-105600000D01*
X85634412Y-105600000D01*
X86171024Y-105377728D01*
X86455354Y-105093398D01*
X87110207Y-105093398D01*
X87175122Y-105331753D01*
X87685146Y-105512312D01*
X88225444Y-105483949D01*
X88592878Y-105331753D01*
X88657793Y-105093398D01*
X87884000Y-104319605D01*
X87110207Y-105093398D01*
X86455354Y-105093398D01*
X86581728Y-104967024D01*
X86661456Y-104774543D01*
X86692247Y-104848878D01*
X86930602Y-104913793D01*
X87704395Y-104140000D01*
X86930602Y-103366207D01*
X86692247Y-103431122D01*
X86663869Y-103511282D01*
X86581728Y-103312976D01*
X86455354Y-103186602D01*
X87110207Y-103186602D01*
X87884000Y-103960395D01*
X88657793Y-103186602D01*
X88592878Y-102948247D01*
X88082854Y-102767688D01*
X87542556Y-102796051D01*
X87175122Y-102948247D01*
X87110207Y-103186602D01*
X86455354Y-103186602D01*
X86354000Y-103085248D01*
X86354000Y-101377798D01*
X86383399Y-101230000D01*
X86383399Y-100615750D01*
X86639000Y-100615750D01*
X86639000Y-101356310D01*
X86735673Y-101589699D01*
X86914302Y-101768327D01*
X87147691Y-101865000D01*
X87598250Y-101865000D01*
X87757000Y-101706250D01*
X87757000Y-100457000D01*
X86797750Y-100457000D01*
X86639000Y-100615750D01*
X86383399Y-100615750D01*
X86383399Y-99430000D01*
X86358275Y-99303690D01*
X86639000Y-99303690D01*
X86639000Y-100044250D01*
X86797750Y-100203000D01*
X87757000Y-100203000D01*
X87757000Y-98953750D01*
X87598250Y-98795000D01*
X87147691Y-98795000D01*
X86914302Y-98891673D01*
X86735673Y-99070301D01*
X86639000Y-99303690D01*
X86358275Y-99303690D01*
X86326354Y-99143217D01*
X86291420Y-99090935D01*
X87598356Y-97784000D01*
X98198529Y-97784000D01*
X98298000Y-97803786D01*
X98397471Y-97784000D01*
X98397476Y-97784000D01*
X98692082Y-97725399D01*
X98996071Y-97522280D01*
X98980214Y-97602000D01*
X99000000Y-97701471D01*
X99000000Y-98813295D01*
X98870095Y-98900095D01*
X98707646Y-99143217D01*
X98650601Y-99430000D01*
X98650601Y-101230000D01*
X98707646Y-101516783D01*
X98870095Y-101759905D01*
X99000000Y-101846705D01*
X99000001Y-103535738D01*
X98870000Y-103849588D01*
X98870000Y-104430412D01*
X99092272Y-104967024D01*
X99502976Y-105377728D01*
X100039588Y-105600000D01*
X100620412Y-105600000D01*
X101157024Y-105377728D01*
X101441354Y-105093398D01*
X102096207Y-105093398D01*
X102161122Y-105331753D01*
X102671146Y-105512312D01*
X103211444Y-105483949D01*
X103578878Y-105331753D01*
X103643793Y-105093398D01*
X102870000Y-104319605D01*
X102096207Y-105093398D01*
X101441354Y-105093398D01*
X101567728Y-104967024D01*
X101647456Y-104774543D01*
X101678247Y-104848878D01*
X101916602Y-104913793D01*
X102690395Y-104140000D01*
X101916602Y-103366207D01*
X101678247Y-103431122D01*
X101649869Y-103511282D01*
X101567728Y-103312976D01*
X101441354Y-103186602D01*
X102096207Y-103186602D01*
X102870000Y-103960395D01*
X103643793Y-103186602D01*
X103578878Y-102948247D01*
X103068854Y-102767688D01*
X102528556Y-102796051D01*
X102161122Y-102948247D01*
X102096207Y-103186602D01*
X101441354Y-103186602D01*
X101157024Y-102902272D01*
X101020000Y-102845515D01*
X101020000Y-101846705D01*
X101149905Y-101759905D01*
X101312354Y-101516783D01*
X101369399Y-101230000D01*
X101369399Y-100615750D01*
X101625000Y-100615750D01*
X101625000Y-101356310D01*
X101721673Y-101589699D01*
X101900302Y-101768327D01*
X102133691Y-101865000D01*
X102584250Y-101865000D01*
X102743000Y-101706250D01*
X102743000Y-100457000D01*
X101783750Y-100457000D01*
X101625000Y-100615750D01*
X101369399Y-100615750D01*
X101369399Y-99430000D01*
X101344275Y-99303690D01*
X101625000Y-99303690D01*
X101625000Y-100044250D01*
X101783750Y-100203000D01*
X102743000Y-100203000D01*
X102743000Y-98953750D01*
X102584250Y-98795000D01*
X102133691Y-98795000D01*
X101900302Y-98891673D01*
X101721673Y-99070301D01*
X101625000Y-99303690D01*
X101344275Y-99303690D01*
X101312354Y-99143217D01*
X101149905Y-98900095D01*
X101020000Y-98813295D01*
X101020000Y-98020355D01*
X102243840Y-96796516D01*
X102328169Y-96740169D01*
X102384516Y-96655840D01*
X102384518Y-96655838D01*
X102551399Y-96406083D01*
X102573647Y-96294234D01*
X102610000Y-96111476D01*
X102610000Y-96111472D01*
X102629786Y-96012000D01*
X102610000Y-95912528D01*
X102610000Y-94957402D01*
X102742721Y-94868721D01*
X102870000Y-94678234D01*
X102997279Y-94868721D01*
X103521564Y-95219036D01*
X103983897Y-95311000D01*
X104296103Y-95311000D01*
X104758436Y-95219036D01*
X105268004Y-94878555D01*
X105291673Y-94935698D01*
X105470301Y-95114327D01*
X105703690Y-95211000D01*
X106394250Y-95211000D01*
X106553000Y-95052250D01*
X106553000Y-93853000D01*
X106807000Y-93853000D01*
X106807000Y-95052250D01*
X106965750Y-95211000D01*
X107656310Y-95211000D01*
X107889699Y-95114327D01*
X108068327Y-94935698D01*
X108165000Y-94702309D01*
X108165000Y-94011750D01*
X108006250Y-93853000D01*
X106807000Y-93853000D01*
X106553000Y-93853000D01*
X106533000Y-93853000D01*
X106533000Y-93599000D01*
X106553000Y-93599000D01*
X106553000Y-93579000D01*
X106807000Y-93579000D01*
X106807000Y-93599000D01*
X108006250Y-93599000D01*
X108165000Y-93440250D01*
X108165000Y-92749691D01*
X108136141Y-92680020D01*
X113603665Y-92680020D01*
X113986001Y-93062356D01*
X113986000Y-93946529D01*
X113966214Y-94046000D01*
X113986000Y-94145471D01*
X113986000Y-94145475D01*
X113986001Y-94145480D01*
X113986000Y-98813295D01*
X113856095Y-98900095D01*
X113693646Y-99143217D01*
X113636601Y-99430000D01*
X113636601Y-101230000D01*
X113693646Y-101516783D01*
X113856095Y-101759905D01*
X113986000Y-101846705D01*
X113986001Y-103535738D01*
X113856000Y-103849588D01*
X113856000Y-104430412D01*
X114078272Y-104967024D01*
X114488976Y-105377728D01*
X115025588Y-105600000D01*
X115606412Y-105600000D01*
X116143024Y-105377728D01*
X116427354Y-105093398D01*
X117082207Y-105093398D01*
X117147122Y-105331753D01*
X117657146Y-105512312D01*
X118197444Y-105483949D01*
X118564878Y-105331753D01*
X118629793Y-105093398D01*
X117856000Y-104319605D01*
X117082207Y-105093398D01*
X116427354Y-105093398D01*
X116553728Y-104967024D01*
X116633456Y-104774543D01*
X116664247Y-104848878D01*
X116902602Y-104913793D01*
X117676395Y-104140000D01*
X116902602Y-103366207D01*
X116664247Y-103431122D01*
X116635869Y-103511282D01*
X116553728Y-103312976D01*
X116427354Y-103186602D01*
X117082207Y-103186602D01*
X117856000Y-103960395D01*
X118629793Y-103186602D01*
X118564878Y-102948247D01*
X118054854Y-102767688D01*
X117514556Y-102796051D01*
X117147122Y-102948247D01*
X117082207Y-103186602D01*
X116427354Y-103186602D01*
X116143024Y-102902272D01*
X116006000Y-102845515D01*
X116006000Y-101846705D01*
X116135905Y-101759905D01*
X116298354Y-101516783D01*
X116355399Y-101230000D01*
X116355399Y-100615750D01*
X116611000Y-100615750D01*
X116611000Y-101356310D01*
X116707673Y-101589699D01*
X116886302Y-101768327D01*
X117119691Y-101865000D01*
X117570250Y-101865000D01*
X117729000Y-101706250D01*
X117729000Y-100457000D01*
X116769750Y-100457000D01*
X116611000Y-100615750D01*
X116355399Y-100615750D01*
X116355399Y-99430000D01*
X116330275Y-99303690D01*
X116611000Y-99303690D01*
X116611000Y-100044250D01*
X116769750Y-100203000D01*
X117729000Y-100203000D01*
X117729000Y-98953750D01*
X117570250Y-98795000D01*
X117119691Y-98795000D01*
X116886302Y-98891673D01*
X116707673Y-99070301D01*
X116611000Y-99303690D01*
X116330275Y-99303690D01*
X116298354Y-99143217D01*
X116135905Y-98900095D01*
X116006000Y-98813295D01*
X116006000Y-94990000D01*
X128972001Y-94990000D01*
X128972000Y-98813295D01*
X128842095Y-98900095D01*
X128679646Y-99143217D01*
X128622601Y-99430000D01*
X128622601Y-101230000D01*
X128679646Y-101516783D01*
X128842095Y-101759905D01*
X128972000Y-101846705D01*
X128972001Y-103535738D01*
X128842000Y-103849588D01*
X128842000Y-104430412D01*
X129064272Y-104967024D01*
X129474976Y-105377728D01*
X130011588Y-105600000D01*
X130592412Y-105600000D01*
X131129024Y-105377728D01*
X131413354Y-105093398D01*
X132068207Y-105093398D01*
X132133122Y-105331753D01*
X132643146Y-105512312D01*
X133183444Y-105483949D01*
X133550878Y-105331753D01*
X133615793Y-105093398D01*
X132842000Y-104319605D01*
X132068207Y-105093398D01*
X131413354Y-105093398D01*
X131539728Y-104967024D01*
X131619456Y-104774543D01*
X131650247Y-104848878D01*
X131888602Y-104913793D01*
X132662395Y-104140000D01*
X131888602Y-103366207D01*
X131650247Y-103431122D01*
X131621869Y-103511282D01*
X131539728Y-103312976D01*
X131413354Y-103186602D01*
X132068207Y-103186602D01*
X132842000Y-103960395D01*
X133615793Y-103186602D01*
X133550878Y-102948247D01*
X133040854Y-102767688D01*
X132500556Y-102796051D01*
X132133122Y-102948247D01*
X132068207Y-103186602D01*
X131413354Y-103186602D01*
X131129024Y-102902272D01*
X130992000Y-102845515D01*
X130992000Y-101846705D01*
X131121905Y-101759905D01*
X131284354Y-101516783D01*
X131341399Y-101230000D01*
X131341399Y-100615750D01*
X131597000Y-100615750D01*
X131597000Y-101356310D01*
X131693673Y-101589699D01*
X131872302Y-101768327D01*
X132105691Y-101865000D01*
X132556250Y-101865000D01*
X132715000Y-101706250D01*
X132715000Y-100457000D01*
X131755750Y-100457000D01*
X131597000Y-100615750D01*
X131341399Y-100615750D01*
X131341399Y-99430000D01*
X131316275Y-99303690D01*
X131597000Y-99303690D01*
X131597000Y-100044250D01*
X131755750Y-100203000D01*
X132715000Y-100203000D01*
X132715000Y-98953750D01*
X132556250Y-98795000D01*
X132105691Y-98795000D01*
X131872302Y-98891673D01*
X131693673Y-99070301D01*
X131597000Y-99303690D01*
X131316275Y-99303690D01*
X131284354Y-99143217D01*
X131121905Y-98900095D01*
X130992000Y-98813295D01*
X130992000Y-95740010D01*
X139193867Y-95740010D01*
X139293338Y-95759796D01*
X139392809Y-95740010D01*
X139392814Y-95740010D01*
X139687420Y-95681409D01*
X140021507Y-95458179D01*
X140077856Y-95373847D01*
X141014674Y-94437029D01*
X141963482Y-95385837D01*
X142019831Y-95470169D01*
X142353918Y-95693399D01*
X142648524Y-95752000D01*
X142648528Y-95752000D01*
X142747999Y-95771786D01*
X142847470Y-95752000D01*
X143958001Y-95752000D01*
X143958000Y-98813295D01*
X143828095Y-98900095D01*
X143665646Y-99143217D01*
X143608601Y-99430000D01*
X143608601Y-101230000D01*
X143665646Y-101516783D01*
X143828095Y-101759905D01*
X143958000Y-101846705D01*
X143958001Y-103535738D01*
X143828000Y-103849588D01*
X143828000Y-104430412D01*
X144050272Y-104967024D01*
X144460976Y-105377728D01*
X144997588Y-105600000D01*
X145578412Y-105600000D01*
X146115024Y-105377728D01*
X146399354Y-105093398D01*
X147054207Y-105093398D01*
X147119122Y-105331753D01*
X147629146Y-105512312D01*
X148169444Y-105483949D01*
X148536878Y-105331753D01*
X148601793Y-105093398D01*
X147828000Y-104319605D01*
X147054207Y-105093398D01*
X146399354Y-105093398D01*
X146525728Y-104967024D01*
X146605456Y-104774543D01*
X146636247Y-104848878D01*
X146874602Y-104913793D01*
X147648395Y-104140000D01*
X146874602Y-103366207D01*
X146636247Y-103431122D01*
X146607869Y-103511282D01*
X146525728Y-103312976D01*
X146399354Y-103186602D01*
X147054207Y-103186602D01*
X147828000Y-103960395D01*
X148601793Y-103186602D01*
X148536878Y-102948247D01*
X148026854Y-102767688D01*
X147486556Y-102796051D01*
X147119122Y-102948247D01*
X147054207Y-103186602D01*
X146399354Y-103186602D01*
X146115024Y-102902272D01*
X145978000Y-102845515D01*
X145978000Y-101846705D01*
X146107905Y-101759905D01*
X146270354Y-101516783D01*
X146327399Y-101230000D01*
X146327399Y-100615750D01*
X146583000Y-100615750D01*
X146583000Y-101356310D01*
X146679673Y-101589699D01*
X146858302Y-101768327D01*
X147091691Y-101865000D01*
X147542250Y-101865000D01*
X147701000Y-101706250D01*
X147701000Y-100457000D01*
X146741750Y-100457000D01*
X146583000Y-100615750D01*
X146327399Y-100615750D01*
X146327399Y-99430000D01*
X146302275Y-99303690D01*
X146583000Y-99303690D01*
X146583000Y-100044250D01*
X146741750Y-100203000D01*
X147701000Y-100203000D01*
X147701000Y-98953750D01*
X147542250Y-98795000D01*
X147091691Y-98795000D01*
X146858302Y-98891673D01*
X146679673Y-99070301D01*
X146583000Y-99303690D01*
X146302275Y-99303690D01*
X146270354Y-99143217D01*
X146107905Y-98900095D01*
X145978000Y-98813295D01*
X145978000Y-95001990D01*
X158944001Y-95001990D01*
X158944000Y-98813295D01*
X158814095Y-98900095D01*
X158651646Y-99143217D01*
X158594601Y-99430000D01*
X158594601Y-101230000D01*
X158651646Y-101516783D01*
X158814095Y-101759905D01*
X158944000Y-101846705D01*
X158944001Y-103535738D01*
X158814000Y-103849588D01*
X158814000Y-104430412D01*
X159036272Y-104967024D01*
X159446976Y-105377728D01*
X159983588Y-105600000D01*
X160564412Y-105600000D01*
X161101024Y-105377728D01*
X161385354Y-105093398D01*
X162040207Y-105093398D01*
X162105122Y-105331753D01*
X162615146Y-105512312D01*
X163155444Y-105483949D01*
X163522878Y-105331753D01*
X163587793Y-105093398D01*
X162814000Y-104319605D01*
X162040207Y-105093398D01*
X161385354Y-105093398D01*
X161511728Y-104967024D01*
X161591456Y-104774543D01*
X161622247Y-104848878D01*
X161860602Y-104913793D01*
X162634395Y-104140000D01*
X161860602Y-103366207D01*
X161622247Y-103431122D01*
X161593869Y-103511282D01*
X161511728Y-103312976D01*
X161385354Y-103186602D01*
X162040207Y-103186602D01*
X162814000Y-103960395D01*
X163587793Y-103186602D01*
X163522878Y-102948247D01*
X163012854Y-102767688D01*
X162472556Y-102796051D01*
X162105122Y-102948247D01*
X162040207Y-103186602D01*
X161385354Y-103186602D01*
X161101024Y-102902272D01*
X160964000Y-102845515D01*
X160964000Y-101846705D01*
X161093905Y-101759905D01*
X161256354Y-101516783D01*
X161313399Y-101230000D01*
X161313399Y-100615750D01*
X161569000Y-100615750D01*
X161569000Y-101356310D01*
X161665673Y-101589699D01*
X161844302Y-101768327D01*
X162077691Y-101865000D01*
X162528250Y-101865000D01*
X162687000Y-101706250D01*
X162687000Y-100457000D01*
X161727750Y-100457000D01*
X161569000Y-100615750D01*
X161313399Y-100615750D01*
X161313399Y-99430000D01*
X161288275Y-99303690D01*
X161569000Y-99303690D01*
X161569000Y-100044250D01*
X161727750Y-100203000D01*
X162687000Y-100203000D01*
X162687000Y-98953750D01*
X162528250Y-98795000D01*
X162077691Y-98795000D01*
X161844302Y-98891673D01*
X161665673Y-99070301D01*
X161569000Y-99303690D01*
X161288275Y-99303690D01*
X161256354Y-99143217D01*
X161093905Y-98900095D01*
X160964000Y-98813295D01*
X160964000Y-94307480D01*
X160979810Y-94228000D01*
X173930000Y-94228000D01*
X173930001Y-96937761D01*
X173930000Y-98813295D01*
X173800095Y-98900095D01*
X173637646Y-99143217D01*
X173580601Y-99430000D01*
X173580601Y-101230000D01*
X173637646Y-101516783D01*
X173800095Y-101759905D01*
X173930000Y-101846705D01*
X173930001Y-103535738D01*
X173800000Y-103849588D01*
X173800000Y-104430412D01*
X174022272Y-104967024D01*
X174432976Y-105377728D01*
X174969588Y-105600000D01*
X175550412Y-105600000D01*
X176087024Y-105377728D01*
X176371354Y-105093398D01*
X177026207Y-105093398D01*
X177091122Y-105331753D01*
X177601146Y-105512312D01*
X178141444Y-105483949D01*
X178508878Y-105331753D01*
X178573793Y-105093398D01*
X177800000Y-104319605D01*
X177026207Y-105093398D01*
X176371354Y-105093398D01*
X176497728Y-104967024D01*
X176577456Y-104774543D01*
X176608247Y-104848878D01*
X176846602Y-104913793D01*
X177620395Y-104140000D01*
X176846602Y-103366207D01*
X176608247Y-103431122D01*
X176579869Y-103511282D01*
X176497728Y-103312976D01*
X176371354Y-103186602D01*
X177026207Y-103186602D01*
X177800000Y-103960395D01*
X178573793Y-103186602D01*
X178508878Y-102948247D01*
X177998854Y-102767688D01*
X177458556Y-102796051D01*
X177091122Y-102948247D01*
X177026207Y-103186602D01*
X176371354Y-103186602D01*
X176087024Y-102902272D01*
X175950000Y-102845515D01*
X175950000Y-101846705D01*
X176079905Y-101759905D01*
X176242354Y-101516783D01*
X176299399Y-101230000D01*
X176299399Y-100615750D01*
X176555000Y-100615750D01*
X176555000Y-101356310D01*
X176651673Y-101589699D01*
X176830302Y-101768327D01*
X177063691Y-101865000D01*
X177514250Y-101865000D01*
X177673000Y-101706250D01*
X177673000Y-100457000D01*
X176713750Y-100457000D01*
X176555000Y-100615750D01*
X176299399Y-100615750D01*
X176299399Y-99430000D01*
X176274275Y-99303690D01*
X176555000Y-99303690D01*
X176555000Y-100044250D01*
X176713750Y-100203000D01*
X177673000Y-100203000D01*
X177673000Y-98953750D01*
X177514250Y-98795000D01*
X177063691Y-98795000D01*
X176830302Y-98891673D01*
X176651673Y-99070301D01*
X176555000Y-99303690D01*
X176274275Y-99303690D01*
X176242354Y-99143217D01*
X176079905Y-98900095D01*
X175950000Y-98813295D01*
X175950000Y-93632470D01*
X175969786Y-93532999D01*
X175958844Y-93477990D01*
X188916000Y-93477990D01*
X188916001Y-98813295D01*
X188786095Y-98900095D01*
X188623646Y-99143217D01*
X188566601Y-99430000D01*
X188566601Y-101230000D01*
X188623646Y-101516783D01*
X188786095Y-101759905D01*
X188916000Y-101846705D01*
X188916001Y-103535738D01*
X188786000Y-103849588D01*
X188786000Y-104430412D01*
X189008272Y-104967024D01*
X189418976Y-105377728D01*
X189955588Y-105600000D01*
X190536412Y-105600000D01*
X191073024Y-105377728D01*
X191357354Y-105093398D01*
X192012207Y-105093398D01*
X192077122Y-105331753D01*
X192587146Y-105512312D01*
X193127444Y-105483949D01*
X193494878Y-105331753D01*
X193559793Y-105093398D01*
X192786000Y-104319605D01*
X192012207Y-105093398D01*
X191357354Y-105093398D01*
X191483728Y-104967024D01*
X191563456Y-104774543D01*
X191594247Y-104848878D01*
X191832602Y-104913793D01*
X192606395Y-104140000D01*
X191832602Y-103366207D01*
X191594247Y-103431122D01*
X191565869Y-103511282D01*
X191483728Y-103312976D01*
X191357354Y-103186602D01*
X192012207Y-103186602D01*
X192786000Y-103960395D01*
X193559793Y-103186602D01*
X193494878Y-102948247D01*
X192984854Y-102767688D01*
X192444556Y-102796051D01*
X192077122Y-102948247D01*
X192012207Y-103186602D01*
X191357354Y-103186602D01*
X191073024Y-102902272D01*
X190936000Y-102845515D01*
X190936000Y-101846705D01*
X191065905Y-101759905D01*
X191228354Y-101516783D01*
X191285399Y-101230000D01*
X191285399Y-100615750D01*
X191541000Y-100615750D01*
X191541000Y-101356310D01*
X191637673Y-101589699D01*
X191816302Y-101768327D01*
X192049691Y-101865000D01*
X192500250Y-101865000D01*
X192659000Y-101706250D01*
X192659000Y-100457000D01*
X191699750Y-100457000D01*
X191541000Y-100615750D01*
X191285399Y-100615750D01*
X191285399Y-99430000D01*
X191260275Y-99303690D01*
X191541000Y-99303690D01*
X191541000Y-100044250D01*
X191699750Y-100203000D01*
X192659000Y-100203000D01*
X192659000Y-98953750D01*
X192500250Y-98795000D01*
X192049691Y-98795000D01*
X191816302Y-98891673D01*
X191637673Y-99070301D01*
X191541000Y-99303690D01*
X191260275Y-99303690D01*
X191228354Y-99143217D01*
X191065905Y-98900095D01*
X190936000Y-98813295D01*
X190936000Y-92767452D01*
X190955786Y-92667980D01*
X190936000Y-92568508D01*
X190936000Y-92568504D01*
X190877399Y-92273898D01*
X190654169Y-91939811D01*
X190569838Y-91883463D01*
X190510528Y-91824153D01*
X190454179Y-91739821D01*
X190120092Y-91516591D01*
X189825486Y-91457990D01*
X189825481Y-91457990D01*
X189726010Y-91438204D01*
X189626539Y-91457990D01*
X161195748Y-91457990D01*
X161075142Y-91434000D01*
X170080529Y-91434000D01*
X170180000Y-91453786D01*
X170279471Y-91434000D01*
X170279476Y-91434000D01*
X170574082Y-91375399D01*
X170908169Y-91152169D01*
X170964518Y-91067836D01*
X171077835Y-90954519D01*
X171162169Y-90898169D01*
X171385399Y-90564082D01*
X171444000Y-90269476D01*
X171444000Y-90269471D01*
X171463786Y-90170001D01*
X171444000Y-90070530D01*
X171444000Y-87083402D01*
X171576721Y-86994721D01*
X171704000Y-86804234D01*
X171831279Y-86994721D01*
X172355564Y-87345036D01*
X172817897Y-87437000D01*
X173130103Y-87437000D01*
X173592436Y-87345036D01*
X174053446Y-87037000D01*
X174127294Y-87037000D01*
X174244000Y-87060214D01*
X174360706Y-87037000D01*
X174360710Y-87037000D01*
X174706364Y-86968245D01*
X175098337Y-86706337D01*
X175164450Y-86607392D01*
X177274843Y-84497000D01*
X178752554Y-84497000D01*
X178879766Y-84582000D01*
X178689279Y-84709279D01*
X178338964Y-85233564D01*
X178215949Y-85852000D01*
X178338964Y-86470436D01*
X178689279Y-86994721D01*
X179213564Y-87345036D01*
X179675897Y-87437000D01*
X179988103Y-87437000D01*
X180390289Y-87357000D01*
X182533584Y-87357000D01*
X182709217Y-87474354D01*
X182996000Y-87531399D01*
X184796000Y-87531399D01*
X185082783Y-87474354D01*
X185325905Y-87311905D01*
X185488354Y-87068783D01*
X185545399Y-86782000D01*
X185545399Y-85562000D01*
X185488354Y-85275217D01*
X185325905Y-85032095D01*
X185082783Y-84869646D01*
X184796000Y-84812601D01*
X182996000Y-84812601D01*
X182709217Y-84869646D01*
X182533584Y-84987000D01*
X181160288Y-84987000D01*
X180974721Y-84709279D01*
X180784234Y-84582000D01*
X180911446Y-84497000D01*
X182533584Y-84497000D01*
X182709217Y-84614354D01*
X182996000Y-84671399D01*
X184796000Y-84671399D01*
X185082783Y-84614354D01*
X185325905Y-84451905D01*
X185488354Y-84208783D01*
X185545399Y-83922000D01*
X185545399Y-82702000D01*
X185488354Y-82415217D01*
X185325905Y-82172095D01*
X185082783Y-82009646D01*
X184796000Y-81952601D01*
X182996000Y-81952601D01*
X182709217Y-82009646D01*
X182533584Y-82127000D01*
X180911446Y-82127000D01*
X180689224Y-81978517D01*
X180713358Y-81967183D01*
X181103645Y-81538924D01*
X181273476Y-81128890D01*
X181152155Y-80899000D01*
X179959000Y-80899000D01*
X179959000Y-80919000D01*
X179705000Y-80919000D01*
X179705000Y-80899000D01*
X178511845Y-80899000D01*
X178390524Y-81128890D01*
X178560355Y-81538924D01*
X178950642Y-81967183D01*
X178974776Y-81978517D01*
X178752554Y-82127000D01*
X176900704Y-82127000D01*
X176783999Y-82103786D01*
X176667294Y-82127000D01*
X176667290Y-82127000D01*
X176321636Y-82195755D01*
X175929663Y-82457663D01*
X175863552Y-82556605D01*
X173873436Y-84546722D01*
X173592436Y-84358964D01*
X173130103Y-84267000D01*
X172817897Y-84267000D01*
X172355564Y-84358964D01*
X171831279Y-84709279D01*
X171704000Y-84899766D01*
X171576721Y-84709279D01*
X171444000Y-84620598D01*
X171444000Y-84492355D01*
X176694356Y-79242000D01*
X178264427Y-79242000D01*
X178289646Y-79368783D01*
X178452095Y-79611905D01*
X178695217Y-79774354D01*
X178759049Y-79787051D01*
X178560355Y-80005076D01*
X178390524Y-80415110D01*
X178511845Y-80645000D01*
X179705000Y-80645000D01*
X179705000Y-80625000D01*
X179959000Y-80625000D01*
X179959000Y-80645000D01*
X181152155Y-80645000D01*
X181273476Y-80415110D01*
X181103645Y-80005076D01*
X180904951Y-79787051D01*
X180968783Y-79774354D01*
X181211905Y-79611905D01*
X181374354Y-79368783D01*
X181399573Y-79242000D01*
X182304481Y-79242000D01*
X182339646Y-79418783D01*
X182502095Y-79661905D01*
X182745217Y-79824354D01*
X183032000Y-79881399D01*
X184252000Y-79881399D01*
X184538783Y-79824354D01*
X184781905Y-79661905D01*
X184944354Y-79418783D01*
X185001399Y-79132000D01*
X185001399Y-77332000D01*
X185142601Y-77332000D01*
X185142601Y-79132000D01*
X185199646Y-79418783D01*
X185362095Y-79661905D01*
X185605217Y-79824354D01*
X185892000Y-79881399D01*
X187112000Y-79881399D01*
X187398783Y-79824354D01*
X187641905Y-79661905D01*
X187804354Y-79418783D01*
X187804709Y-79417000D01*
X188584710Y-79417000D01*
X188930364Y-79348245D01*
X189322337Y-79086337D01*
X189584245Y-78694364D01*
X189676215Y-78232000D01*
X189584245Y-77769636D01*
X189322337Y-77377663D01*
X188930364Y-77115755D01*
X188584710Y-77047000D01*
X187804709Y-77047000D01*
X187804354Y-77045217D01*
X187641905Y-76802095D01*
X187398783Y-76639646D01*
X187112000Y-76582601D01*
X185892000Y-76582601D01*
X185605217Y-76639646D01*
X185362095Y-76802095D01*
X185199646Y-77045217D01*
X185142601Y-77332000D01*
X185001399Y-77332000D01*
X184944354Y-77045217D01*
X184781905Y-76802095D01*
X184538783Y-76639646D01*
X184252000Y-76582601D01*
X183032000Y-76582601D01*
X182745217Y-76639646D01*
X182502095Y-76802095D01*
X182339646Y-77045217D01*
X182304481Y-77222000D01*
X181399573Y-77222000D01*
X181374354Y-77095217D01*
X181211905Y-76852095D01*
X180968783Y-76689646D01*
X180682000Y-76632601D01*
X178982000Y-76632601D01*
X178695217Y-76689646D01*
X178452095Y-76852095D01*
X178289646Y-77095217D01*
X178264427Y-77222000D01*
X176375471Y-77222000D01*
X176276000Y-77202214D01*
X176176529Y-77222000D01*
X176176524Y-77222000D01*
X175881918Y-77280601D01*
X175881916Y-77280602D01*
X175881917Y-77280602D01*
X175632162Y-77447482D01*
X175632160Y-77447484D01*
X175547831Y-77503831D01*
X175491484Y-77588160D01*
X169790163Y-83289482D01*
X169705831Y-83345831D01*
X169649483Y-83430162D01*
X169649482Y-83430163D01*
X169573641Y-83543668D01*
X169482601Y-83679919D01*
X169424000Y-83974525D01*
X169424000Y-83974529D01*
X169404214Y-84074000D01*
X169424000Y-84173471D01*
X169424000Y-84620598D01*
X169291279Y-84709279D01*
X169100517Y-84994776D01*
X169089183Y-84970642D01*
X168660924Y-84580355D01*
X168250890Y-84410524D01*
X168021000Y-84531845D01*
X168021000Y-85725000D01*
X168041000Y-85725000D01*
X168041000Y-85979000D01*
X168021000Y-85979000D01*
X168021000Y-87172155D01*
X168250890Y-87293476D01*
X168660924Y-87123645D01*
X169089183Y-86733358D01*
X169100517Y-86709224D01*
X169291279Y-86994721D01*
X169424000Y-87083402D01*
X169424001Y-89414000D01*
X150258817Y-89414000D01*
X150108000Y-89263183D01*
X150108000Y-87729471D01*
X150127786Y-87630000D01*
X150108000Y-87530529D01*
X150108000Y-86205470D01*
X150127786Y-86105999D01*
X150108000Y-86006529D01*
X150108000Y-86006524D01*
X150049399Y-85711918D01*
X149826169Y-85377831D01*
X149741836Y-85321481D01*
X149736519Y-85316164D01*
X149680169Y-85231831D01*
X149346082Y-85008601D01*
X149051476Y-84950000D01*
X149051471Y-84950000D01*
X148952000Y-84930214D01*
X148852529Y-84950000D01*
X146693500Y-84950000D01*
X146712354Y-84921783D01*
X146769399Y-84635000D01*
X146769399Y-84085000D01*
X146744535Y-83960000D01*
X146769399Y-83835000D01*
X146769399Y-83285000D01*
X146712354Y-82998217D01*
X146549905Y-82755095D01*
X146306783Y-82592646D01*
X146020000Y-82535601D01*
X144794399Y-82535601D01*
X144794399Y-81310000D01*
X144787238Y-81274000D01*
X147926732Y-81274000D01*
X147991327Y-81370673D01*
X148499073Y-81709938D01*
X148946818Y-81799000D01*
X149249182Y-81799000D01*
X149696927Y-81709938D01*
X150204673Y-81370673D01*
X150543938Y-80862927D01*
X150663072Y-80264000D01*
X150543938Y-79665073D01*
X150430967Y-79496000D01*
X156724001Y-79496000D01*
X156724000Y-84284427D01*
X156597217Y-84309646D01*
X156354095Y-84472095D01*
X156191646Y-84715217D01*
X156134601Y-85002000D01*
X156134601Y-86702000D01*
X156191646Y-86988783D01*
X156354095Y-87231905D01*
X156597217Y-87394354D01*
X156884000Y-87451399D01*
X158584000Y-87451399D01*
X158870783Y-87394354D01*
X159113905Y-87231905D01*
X159228832Y-87059904D01*
X159655564Y-87345036D01*
X160117897Y-87437000D01*
X160430103Y-87437000D01*
X160892436Y-87345036D01*
X161416721Y-86994721D01*
X161544000Y-86804234D01*
X161671279Y-86994721D01*
X162195564Y-87345036D01*
X162657897Y-87437000D01*
X162970103Y-87437000D01*
X163432436Y-87345036D01*
X163956721Y-86994721D01*
X164084000Y-86804234D01*
X164211279Y-86994721D01*
X164735564Y-87345036D01*
X165197897Y-87437000D01*
X165510103Y-87437000D01*
X165972436Y-87345036D01*
X166496721Y-86994721D01*
X166687483Y-86709224D01*
X166698817Y-86733358D01*
X167127076Y-87123645D01*
X167537110Y-87293476D01*
X167767000Y-87172155D01*
X167767000Y-85979000D01*
X167747000Y-85979000D01*
X167747000Y-85725000D01*
X167767000Y-85725000D01*
X167767000Y-84531845D01*
X167537110Y-84410524D01*
X167127076Y-84580355D01*
X166698817Y-84970642D01*
X166687483Y-84994776D01*
X166539000Y-84772554D01*
X166539000Y-83912416D01*
X166656354Y-83736783D01*
X166713399Y-83450000D01*
X166713399Y-82835750D01*
X166969000Y-82835750D01*
X166969000Y-83576310D01*
X167065673Y-83809699D01*
X167244302Y-83988327D01*
X167477691Y-84085000D01*
X167928250Y-84085000D01*
X168087000Y-83926250D01*
X168087000Y-82677000D01*
X168341000Y-82677000D01*
X168341000Y-83926250D01*
X168499750Y-84085000D01*
X168950309Y-84085000D01*
X169183698Y-83988327D01*
X169362327Y-83809699D01*
X169459000Y-83576310D01*
X169459000Y-82835750D01*
X169300250Y-82677000D01*
X168341000Y-82677000D01*
X168087000Y-82677000D01*
X167127750Y-82677000D01*
X166969000Y-82835750D01*
X166713399Y-82835750D01*
X166713399Y-81650000D01*
X166688275Y-81523690D01*
X166969000Y-81523690D01*
X166969000Y-82264250D01*
X167127750Y-82423000D01*
X168087000Y-82423000D01*
X168087000Y-81173750D01*
X168341000Y-81173750D01*
X168341000Y-82423000D01*
X169300250Y-82423000D01*
X169459000Y-82264250D01*
X169459000Y-81523690D01*
X169362327Y-81290301D01*
X169183698Y-81111673D01*
X168950309Y-81015000D01*
X168499750Y-81015000D01*
X168341000Y-81173750D01*
X168087000Y-81173750D01*
X167928250Y-81015000D01*
X167477691Y-81015000D01*
X167244302Y-81111673D01*
X167065673Y-81290301D01*
X166969000Y-81523690D01*
X166688275Y-81523690D01*
X166656354Y-81363217D01*
X166539000Y-81187584D01*
X166539000Y-76083290D01*
X166470245Y-75737636D01*
X166208337Y-75345663D01*
X165816363Y-75083755D01*
X165354000Y-74991785D01*
X164891636Y-75083755D01*
X164732629Y-75190000D01*
X141443449Y-75190000D01*
X141343978Y-75170214D01*
X141244507Y-75190000D01*
X141244502Y-75190000D01*
X140949896Y-75248601D01*
X140949894Y-75248602D01*
X140949895Y-75248602D01*
X140700140Y-75415482D01*
X140700138Y-75415484D01*
X140615809Y-75471831D01*
X140559462Y-75556160D01*
X137926645Y-78188978D01*
X89906727Y-78188978D01*
X89790021Y-78165764D01*
X89673315Y-78188978D01*
X89673312Y-78188978D01*
X89327658Y-78257733D01*
X88935685Y-78519641D01*
X88869574Y-78618583D01*
X82048606Y-85439552D01*
X81949664Y-85505663D01*
X81883553Y-85604605D01*
X81687755Y-85897637D01*
X81595786Y-86360000D01*
X79502000Y-86360000D01*
X79502000Y-74422000D01*
X202438000Y-74422000D01*
X202438000Y-116078000D01*
X202438000Y-116078000D01*
G37*
X202438000Y-116078000D02*
X79502000Y-116078000D01*
X79502000Y-112560567D01*
X81079000Y-112560567D01*
X81079000Y-113499433D01*
X81438289Y-114366833D01*
X82102167Y-115030711D01*
X82969567Y-115390000D01*
X83908433Y-115390000D01*
X84775833Y-115030711D01*
X85439711Y-114366833D01*
X85799000Y-113499433D01*
X85799000Y-112560567D01*
X85439711Y-111693167D01*
X84775833Y-111029289D01*
X83908433Y-110670000D01*
X82969567Y-110670000D01*
X82102167Y-111029289D01*
X81438289Y-111693167D01*
X81079000Y-112560567D01*
X79502000Y-112560567D01*
X79502000Y-86360000D01*
X81595786Y-86360000D01*
X81619001Y-86476711D01*
X81619000Y-106803294D01*
X81595786Y-106920000D01*
X81619000Y-107036706D01*
X81619000Y-107036709D01*
X81687755Y-107382363D01*
X81949663Y-107774337D01*
X82048608Y-107840450D01*
X85633554Y-111425398D01*
X85699663Y-111524337D01*
X85798602Y-111590446D01*
X85798604Y-111590448D01*
X86091636Y-111786245D01*
X86554000Y-111878215D01*
X86670709Y-111855000D01*
X87103830Y-111855000D01*
X87167217Y-111897354D01*
X87454000Y-111954399D01*
X90854000Y-111954399D01*
X91140783Y-111897354D01*
X91204170Y-111855000D01*
X91531256Y-111855000D01*
X91239000Y-112560567D01*
X91239000Y-113499433D01*
X91598289Y-114366833D01*
X92262167Y-115030711D01*
X93129567Y-115390000D01*
X94068433Y-115390000D01*
X94935833Y-115030711D01*
X95599711Y-114366833D01*
X95959000Y-113499433D01*
X95959000Y-112560567D01*
X95666744Y-111855000D01*
X96357256Y-111855000D01*
X96065000Y-112560567D01*
X96065000Y-113499433D01*
X96424289Y-114366833D01*
X97088167Y-115030711D01*
X97955567Y-115390000D01*
X98894433Y-115390000D01*
X99761833Y-115030711D01*
X100425711Y-114366833D01*
X100785000Y-113499433D01*
X100785000Y-112560567D01*
X100492744Y-111855000D01*
X102089830Y-111855000D01*
X102153217Y-111897354D01*
X102440000Y-111954399D01*
X105840000Y-111954399D01*
X106126783Y-111897354D01*
X106190170Y-111855000D01*
X106517256Y-111855000D01*
X106225000Y-112560567D01*
X106225000Y-113499433D01*
X106584289Y-114366833D01*
X107248167Y-115030711D01*
X108115567Y-115390000D01*
X109054433Y-115390000D01*
X109921833Y-115030711D01*
X110585711Y-114366833D01*
X110945000Y-113499433D01*
X110945000Y-112560567D01*
X110652744Y-111855000D01*
X111343256Y-111855000D01*
X111051000Y-112560567D01*
X111051000Y-113499433D01*
X111410289Y-114366833D01*
X112074167Y-115030711D01*
X112941567Y-115390000D01*
X113880433Y-115390000D01*
X114747833Y-115030711D01*
X115411711Y-114366833D01*
X115771000Y-113499433D01*
X115771000Y-112560567D01*
X115478744Y-111855000D01*
X117075830Y-111855000D01*
X117139217Y-111897354D01*
X117426000Y-111954399D01*
X120826000Y-111954399D01*
X121112783Y-111897354D01*
X121176170Y-111855000D01*
X121503256Y-111855000D01*
X121211000Y-112560567D01*
X121211000Y-113499433D01*
X121570289Y-114366833D01*
X122234167Y-115030711D01*
X123101567Y-115390000D01*
X124040433Y-115390000D01*
X124907833Y-115030711D01*
X125571711Y-114366833D01*
X125931000Y-113499433D01*
X125931000Y-112560567D01*
X125638744Y-111855000D01*
X126329256Y-111855000D01*
X126037000Y-112560567D01*
X126037000Y-113499433D01*
X126396289Y-114366833D01*
X127060167Y-115030711D01*
X127927567Y-115390000D01*
X128866433Y-115390000D01*
X129733833Y-115030711D01*
X130397711Y-114366833D01*
X130757000Y-113499433D01*
X130757000Y-112560567D01*
X130464744Y-111855000D01*
X132061830Y-111855000D01*
X132125217Y-111897354D01*
X132412000Y-111954399D01*
X135812000Y-111954399D01*
X136098783Y-111897354D01*
X136162170Y-111855000D01*
X136489256Y-111855000D01*
X136197000Y-112560567D01*
X136197000Y-113499433D01*
X136556289Y-114366833D01*
X137220167Y-115030711D01*
X138087567Y-115390000D01*
X139026433Y-115390000D01*
X139893833Y-115030711D01*
X140557711Y-114366833D01*
X140917000Y-113499433D01*
X140917000Y-112560567D01*
X140624744Y-111855000D01*
X141315256Y-111855000D01*
X141023000Y-112560567D01*
X141023000Y-113499433D01*
X141382289Y-114366833D01*
X142046167Y-115030711D01*
X142913567Y-115390000D01*
X143852433Y-115390000D01*
X144719833Y-115030711D01*
X145383711Y-114366833D01*
X145743000Y-113499433D01*
X145743000Y-112560567D01*
X145450744Y-111855000D01*
X147047830Y-111855000D01*
X147111217Y-111897354D01*
X147398000Y-111954399D01*
X150798000Y-111954399D01*
X151084783Y-111897354D01*
X151148170Y-111855000D01*
X151475256Y-111855000D01*
X151183000Y-112560567D01*
X151183000Y-113499433D01*
X151542289Y-114366833D01*
X152206167Y-115030711D01*
X153073567Y-115390000D01*
X154012433Y-115390000D01*
X154879833Y-115030711D01*
X155543711Y-114366833D01*
X155903000Y-113499433D01*
X155903000Y-112560567D01*
X155610744Y-111855000D01*
X156301256Y-111855000D01*
X156009000Y-112560567D01*
X156009000Y-113499433D01*
X156368289Y-114366833D01*
X157032167Y-115030711D01*
X157899567Y-115390000D01*
X158838433Y-115390000D01*
X159705833Y-115030711D01*
X160369711Y-114366833D01*
X160729000Y-113499433D01*
X160729000Y-112560567D01*
X160436744Y-111855000D01*
X162033830Y-111855000D01*
X162097217Y-111897354D01*
X162384000Y-111954399D01*
X165784000Y-111954399D01*
X166070783Y-111897354D01*
X166134170Y-111855000D01*
X166461256Y-111855000D01*
X166169000Y-112560567D01*
X166169000Y-113499433D01*
X166528289Y-114366833D01*
X167192167Y-115030711D01*
X168059567Y-115390000D01*
X168998433Y-115390000D01*
X169865833Y-115030711D01*
X170529711Y-114366833D01*
X170889000Y-113499433D01*
X170889000Y-112560567D01*
X170596744Y-111855000D01*
X171287256Y-111855000D01*
X170995000Y-112560567D01*
X170995000Y-113499433D01*
X171354289Y-114366833D01*
X172018167Y-115030711D01*
X172885567Y-115390000D01*
X173824433Y-115390000D01*
X174691833Y-115030711D01*
X175355711Y-114366833D01*
X175715000Y-113499433D01*
X175715000Y-112560567D01*
X175422744Y-111855000D01*
X177019830Y-111855000D01*
X177083217Y-111897354D01*
X177370000Y-111954399D01*
X180770000Y-111954399D01*
X181056783Y-111897354D01*
X181120170Y-111855000D01*
X181447256Y-111855000D01*
X181155000Y-112560567D01*
X181155000Y-113499433D01*
X181514289Y-114366833D01*
X182178167Y-115030711D01*
X183045567Y-115390000D01*
X183984433Y-115390000D01*
X184851833Y-115030711D01*
X185515711Y-114366833D01*
X185875000Y-113499433D01*
X185875000Y-112560567D01*
X185582744Y-111855000D01*
X186273256Y-111855000D01*
X185981000Y-112560567D01*
X185981000Y-113499433D01*
X186340289Y-114366833D01*
X187004167Y-115030711D01*
X187871567Y-115390000D01*
X188810433Y-115390000D01*
X189677833Y-115030711D01*
X190341711Y-114366833D01*
X190701000Y-113499433D01*
X190701000Y-112560567D01*
X196141000Y-112560567D01*
X196141000Y-113499433D01*
X196500289Y-114366833D01*
X197164167Y-115030711D01*
X198031567Y-115390000D01*
X198970433Y-115390000D01*
X199837833Y-115030711D01*
X200501711Y-114366833D01*
X200861000Y-113499433D01*
X200861000Y-112560567D01*
X200501711Y-111693167D01*
X199837833Y-111029289D01*
X198970433Y-110670000D01*
X198031567Y-110670000D01*
X197164167Y-111029289D01*
X196500289Y-111693167D01*
X196141000Y-112560567D01*
X190701000Y-112560567D01*
X190408744Y-111855000D01*
X192005830Y-111855000D01*
X192069217Y-111897354D01*
X192356000Y-111954399D01*
X195756000Y-111954399D01*
X196042783Y-111897354D01*
X196285905Y-111734905D01*
X196448354Y-111491783D01*
X196505399Y-111205000D01*
X196505399Y-110135000D01*
X196467605Y-109945000D01*
X196505399Y-109755000D01*
X196505399Y-108685000D01*
X196448354Y-108398217D01*
X196285905Y-108155095D01*
X196194365Y-108093930D01*
X196305588Y-108140000D01*
X196886412Y-108140000D01*
X197423024Y-107917728D01*
X197833728Y-107507024D01*
X198056000Y-106970412D01*
X198056000Y-106895842D01*
X198941395Y-106010448D01*
X199040337Y-105944337D01*
X199302245Y-105552364D01*
X199371000Y-105206710D01*
X199394215Y-105090000D01*
X199371000Y-104973291D01*
X199371000Y-101692416D01*
X199488354Y-101516783D01*
X199545399Y-101230000D01*
X199545399Y-99430000D01*
X199488354Y-99143217D01*
X199325905Y-98900095D01*
X199305000Y-98886127D01*
X199305000Y-98308290D01*
X199236245Y-97962636D01*
X198974337Y-97570663D01*
X198582363Y-97308755D01*
X198120000Y-97216785D01*
X197657636Y-97308755D01*
X197265663Y-97570663D01*
X197003755Y-97962637D01*
X196935000Y-98308291D01*
X196935000Y-99066360D01*
X196883646Y-99143217D01*
X196826601Y-99430000D01*
X196826601Y-101230000D01*
X196883646Y-101516783D01*
X197001000Y-101692416D01*
X197001001Y-104599156D01*
X196380158Y-105220000D01*
X196310752Y-105220000D01*
X196563728Y-104967024D01*
X196786000Y-104430412D01*
X196786000Y-103849588D01*
X196563728Y-103312976D01*
X196511000Y-103260248D01*
X196511000Y-101692416D01*
X196628354Y-101516783D01*
X196685399Y-101230000D01*
X196685399Y-99430000D01*
X196628354Y-99143217D01*
X196465905Y-98900095D01*
X196222783Y-98737646D01*
X195936000Y-98680601D01*
X194716000Y-98680601D01*
X194429217Y-98737646D01*
X194186095Y-98900095D01*
X194023646Y-99143217D01*
X194004467Y-99239634D01*
X193934327Y-99070301D01*
X193755698Y-98891673D01*
X193522309Y-98795000D01*
X193071750Y-98795000D01*
X192913000Y-98953750D01*
X192913000Y-100203000D01*
X192933000Y-100203000D01*
X192933000Y-100457000D01*
X192913000Y-100457000D01*
X192913000Y-101706250D01*
X193071750Y-101865000D01*
X193522309Y-101865000D01*
X193755698Y-101768327D01*
X193934327Y-101589699D01*
X194004467Y-101420366D01*
X194023646Y-101516783D01*
X194141000Y-101692416D01*
X194141001Y-103260247D01*
X194088272Y-103312976D01*
X194008544Y-103505457D01*
X193977753Y-103431122D01*
X193739398Y-103366207D01*
X192965605Y-104140000D01*
X193739398Y-104913793D01*
X193977753Y-104848878D01*
X194006131Y-104768718D01*
X194088272Y-104967024D01*
X194341248Y-105220000D01*
X193765588Y-105220000D01*
X193228976Y-105442272D01*
X192818272Y-105852976D01*
X192738544Y-106045457D01*
X192707753Y-105971122D01*
X192469398Y-105906207D01*
X191695605Y-106680000D01*
X192469398Y-107453793D01*
X192707753Y-107388878D01*
X192736131Y-107308718D01*
X192818272Y-107507024D01*
X192871001Y-107559753D01*
X192871001Y-107935601D01*
X192356000Y-107935601D01*
X192069217Y-107992646D01*
X191826095Y-108155095D01*
X191663646Y-108398217D01*
X191606601Y-108685000D01*
X191606601Y-109485000D01*
X181519399Y-109485000D01*
X181519399Y-108685000D01*
X181462354Y-108398217D01*
X181299905Y-108155095D01*
X181208365Y-108093930D01*
X181319588Y-108140000D01*
X181900412Y-108140000D01*
X182437024Y-107917728D01*
X182721354Y-107633398D01*
X190742207Y-107633398D01*
X190807122Y-107871753D01*
X191317146Y-108052312D01*
X191857444Y-108023949D01*
X192224878Y-107871753D01*
X192289793Y-107633398D01*
X191516000Y-106859605D01*
X190742207Y-107633398D01*
X182721354Y-107633398D01*
X182847728Y-107507024D01*
X183070000Y-106970412D01*
X183070000Y-106895842D01*
X183484696Y-106481146D01*
X190143688Y-106481146D01*
X190172051Y-107021444D01*
X190324247Y-107388878D01*
X190562602Y-107453793D01*
X191336395Y-106680000D01*
X190562602Y-105906207D01*
X190324247Y-105971122D01*
X190143688Y-106481146D01*
X183484696Y-106481146D01*
X183955395Y-106010448D01*
X184054337Y-105944337D01*
X184199822Y-105726602D01*
X190742207Y-105726602D01*
X191516000Y-106500395D01*
X192289793Y-105726602D01*
X192224878Y-105488247D01*
X191714854Y-105307688D01*
X191174556Y-105336051D01*
X190807122Y-105488247D01*
X190742207Y-105726602D01*
X184199822Y-105726602D01*
X184316245Y-105552364D01*
X184385000Y-105206710D01*
X184408215Y-105090000D01*
X184385000Y-104973291D01*
X184385000Y-101692416D01*
X184502354Y-101516783D01*
X184502709Y-101515000D01*
X185536710Y-101515000D01*
X185882364Y-101446245D01*
X186274337Y-101184337D01*
X186536245Y-100792364D01*
X186628215Y-100330000D01*
X186536245Y-99867636D01*
X186274337Y-99475663D01*
X186127426Y-99377500D01*
X186274337Y-99279337D01*
X186536245Y-98887364D01*
X186628215Y-98425000D01*
X186536245Y-97962636D01*
X186274337Y-97570663D01*
X186127426Y-97472500D01*
X186274337Y-97374337D01*
X186536245Y-96982364D01*
X186628215Y-96520000D01*
X186536245Y-96057636D01*
X186274337Y-95665663D01*
X185882364Y-95403755D01*
X185536710Y-95335000D01*
X183504705Y-95335000D01*
X183387999Y-95311786D01*
X183271294Y-95335000D01*
X183271290Y-95335000D01*
X182925636Y-95403755D01*
X182533663Y-95665663D01*
X182467550Y-95764608D01*
X182444606Y-95787552D01*
X182345664Y-95853663D01*
X182279553Y-95952605D01*
X182083755Y-96245637D01*
X181991786Y-96708000D01*
X182015001Y-96824710D01*
X182015000Y-98413289D01*
X182015000Y-98413294D01*
X181991786Y-98530000D01*
X182015000Y-98646706D01*
X182015000Y-98967584D01*
X181897646Y-99143217D01*
X181840601Y-99430000D01*
X181840601Y-101230000D01*
X181897646Y-101516783D01*
X182015000Y-101692416D01*
X182015001Y-104599156D01*
X181394158Y-105220000D01*
X181324752Y-105220000D01*
X181577728Y-104967024D01*
X181800000Y-104430412D01*
X181800000Y-103849588D01*
X181577728Y-103312976D01*
X181525000Y-103260248D01*
X181525000Y-101692416D01*
X181642354Y-101516783D01*
X181699399Y-101230000D01*
X181699399Y-99430000D01*
X181642354Y-99143217D01*
X181479905Y-98900095D01*
X181236783Y-98737646D01*
X180950000Y-98680601D01*
X179730000Y-98680601D01*
X179443217Y-98737646D01*
X179200095Y-98900095D01*
X179037646Y-99143217D01*
X179018467Y-99239634D01*
X178948327Y-99070301D01*
X178769698Y-98891673D01*
X178536309Y-98795000D01*
X178085750Y-98795000D01*
X177927000Y-98953750D01*
X177927000Y-100203000D01*
X177947000Y-100203000D01*
X177947000Y-100457000D01*
X177927000Y-100457000D01*
X177927000Y-101706250D01*
X178085750Y-101865000D01*
X178536309Y-101865000D01*
X178769698Y-101768327D01*
X178948327Y-101589699D01*
X179018467Y-101420366D01*
X179037646Y-101516783D01*
X179155000Y-101692416D01*
X179155001Y-103260247D01*
X179102272Y-103312976D01*
X179022544Y-103505457D01*
X178991753Y-103431122D01*
X178753398Y-103366207D01*
X177979605Y-104140000D01*
X178753398Y-104913793D01*
X178991753Y-104848878D01*
X179020131Y-104768718D01*
X179102272Y-104967024D01*
X179355248Y-105220000D01*
X178779588Y-105220000D01*
X178242976Y-105442272D01*
X177832272Y-105852976D01*
X177752544Y-106045457D01*
X177721753Y-105971122D01*
X177483398Y-105906207D01*
X176709605Y-106680000D01*
X177483398Y-107453793D01*
X177721753Y-107388878D01*
X177750131Y-107308718D01*
X177832272Y-107507024D01*
X177885000Y-107559752D01*
X177885000Y-107935601D01*
X177370000Y-107935601D01*
X177083217Y-107992646D01*
X176840095Y-108155095D01*
X176677646Y-108398217D01*
X176620601Y-108685000D01*
X176620601Y-109485000D01*
X166533399Y-109485000D01*
X166533399Y-108685000D01*
X166476354Y-108398217D01*
X166313905Y-108155095D01*
X166222365Y-108093930D01*
X166333588Y-108140000D01*
X166914412Y-108140000D01*
X167451024Y-107917728D01*
X167735354Y-107633398D01*
X175756207Y-107633398D01*
X175821122Y-107871753D01*
X176331146Y-108052312D01*
X176871444Y-108023949D01*
X177238878Y-107871753D01*
X177303793Y-107633398D01*
X176530000Y-106859605D01*
X175756207Y-107633398D01*
X167735354Y-107633398D01*
X167861728Y-107507024D01*
X168084000Y-106970412D01*
X168084000Y-106895842D01*
X168498696Y-106481146D01*
X175157688Y-106481146D01*
X175186051Y-107021444D01*
X175338247Y-107388878D01*
X175576602Y-107453793D01*
X176350395Y-106680000D01*
X175576602Y-105906207D01*
X175338247Y-105971122D01*
X175157688Y-106481146D01*
X168498696Y-106481146D01*
X168969395Y-106010448D01*
X169068337Y-105944337D01*
X169213822Y-105726602D01*
X175756207Y-105726602D01*
X176530000Y-106500395D01*
X177303793Y-105726602D01*
X177238878Y-105488247D01*
X176728854Y-105307688D01*
X176188556Y-105336051D01*
X175821122Y-105488247D01*
X175756207Y-105726602D01*
X169213822Y-105726602D01*
X169330245Y-105552364D01*
X169399000Y-105206710D01*
X169422215Y-105090000D01*
X169399000Y-104973291D01*
X169399000Y-101692416D01*
X169516354Y-101516783D01*
X169516709Y-101515000D01*
X170296710Y-101515000D01*
X170642364Y-101446245D01*
X171034337Y-101184337D01*
X171296245Y-100792364D01*
X171388215Y-100330000D01*
X171296245Y-99867636D01*
X171034337Y-99475663D01*
X170887426Y-99377500D01*
X171034337Y-99279337D01*
X171296245Y-98887364D01*
X171388215Y-98425000D01*
X171296245Y-97962636D01*
X171034337Y-97570663D01*
X170642364Y-97308755D01*
X170296710Y-97240000D01*
X168435704Y-97240000D01*
X168318999Y-97216786D01*
X168202295Y-97240000D01*
X168202290Y-97240000D01*
X167856636Y-97308755D01*
X167464663Y-97570663D01*
X167422605Y-97633607D01*
X167359664Y-97675663D01*
X167293553Y-97774605D01*
X167097755Y-98067637D01*
X167005786Y-98530000D01*
X167029001Y-98646710D01*
X167029001Y-98967583D01*
X166911646Y-99143217D01*
X166854601Y-99430000D01*
X166854601Y-101230000D01*
X166911646Y-101516783D01*
X167029000Y-101692416D01*
X167029001Y-104599156D01*
X166408158Y-105220000D01*
X166338752Y-105220000D01*
X166591728Y-104967024D01*
X166814000Y-104430412D01*
X166814000Y-103849588D01*
X166591728Y-103312976D01*
X166539000Y-103260248D01*
X166539000Y-101692416D01*
X166656354Y-101516783D01*
X166713399Y-101230000D01*
X166713399Y-99430000D01*
X166656354Y-99143217D01*
X166493905Y-98900095D01*
X166250783Y-98737646D01*
X165964000Y-98680601D01*
X164744000Y-98680601D01*
X164457217Y-98737646D01*
X164214095Y-98900095D01*
X164051646Y-99143217D01*
X164032467Y-99239634D01*
X163962327Y-99070301D01*
X163783698Y-98891673D01*
X163550309Y-98795000D01*
X163099750Y-98795000D01*
X162941000Y-98953750D01*
X162941000Y-100203000D01*
X162961000Y-100203000D01*
X162961000Y-100457000D01*
X162941000Y-100457000D01*
X162941000Y-101706250D01*
X163099750Y-101865000D01*
X163550309Y-101865000D01*
X163783698Y-101768327D01*
X163962327Y-101589699D01*
X164032467Y-101420366D01*
X164051646Y-101516783D01*
X164169000Y-101692416D01*
X164169001Y-103260247D01*
X164116272Y-103312976D01*
X164036544Y-103505457D01*
X164005753Y-103431122D01*
X163767398Y-103366207D01*
X162993605Y-104140000D01*
X163767398Y-104913793D01*
X164005753Y-104848878D01*
X164034131Y-104768718D01*
X164116272Y-104967024D01*
X164369248Y-105220000D01*
X163793588Y-105220000D01*
X163256976Y-105442272D01*
X162846272Y-105852976D01*
X162766544Y-106045457D01*
X162735753Y-105971122D01*
X162497398Y-105906207D01*
X161723605Y-106680000D01*
X162497398Y-107453793D01*
X162735753Y-107388878D01*
X162764131Y-107308718D01*
X162846272Y-107507024D01*
X162899000Y-107559752D01*
X162899000Y-107935601D01*
X162384000Y-107935601D01*
X162097217Y-107992646D01*
X161854095Y-108155095D01*
X161691646Y-108398217D01*
X161634601Y-108685000D01*
X161634601Y-109485000D01*
X151547399Y-109485000D01*
X151547399Y-108685000D01*
X151490354Y-108398217D01*
X151327905Y-108155095D01*
X151236365Y-108093930D01*
X151347588Y-108140000D01*
X151928412Y-108140000D01*
X152465024Y-107917728D01*
X152749354Y-107633398D01*
X160770207Y-107633398D01*
X160835122Y-107871753D01*
X161345146Y-108052312D01*
X161885444Y-108023949D01*
X162252878Y-107871753D01*
X162317793Y-107633398D01*
X161544000Y-106859605D01*
X160770207Y-107633398D01*
X152749354Y-107633398D01*
X152875728Y-107507024D01*
X153098000Y-106970412D01*
X153098000Y-106895842D01*
X153512696Y-106481146D01*
X160171688Y-106481146D01*
X160200051Y-107021444D01*
X160352247Y-107388878D01*
X160590602Y-107453793D01*
X161364395Y-106680000D01*
X160590602Y-105906207D01*
X160352247Y-105971122D01*
X160171688Y-106481146D01*
X153512696Y-106481146D01*
X153983395Y-106010448D01*
X154082337Y-105944337D01*
X154227822Y-105726602D01*
X160770207Y-105726602D01*
X161544000Y-106500395D01*
X162317793Y-105726602D01*
X162252878Y-105488247D01*
X161742854Y-105307688D01*
X161202556Y-105336051D01*
X160835122Y-105488247D01*
X160770207Y-105726602D01*
X154227822Y-105726602D01*
X154344245Y-105552364D01*
X154413000Y-105206710D01*
X154436215Y-105090000D01*
X154413000Y-104973291D01*
X154413000Y-101692416D01*
X154530354Y-101516783D01*
X154530709Y-101515000D01*
X155056710Y-101515000D01*
X155402364Y-101446245D01*
X155794337Y-101184337D01*
X156056245Y-100792364D01*
X156148215Y-100330000D01*
X156056245Y-99867636D01*
X155794337Y-99475663D01*
X155647426Y-99377500D01*
X155794337Y-99279337D01*
X156056245Y-98887364D01*
X156148215Y-98425000D01*
X156056245Y-97962636D01*
X155794337Y-97570663D01*
X155402364Y-97308755D01*
X155056710Y-97240000D01*
X153449704Y-97240000D01*
X153332999Y-97216786D01*
X153216295Y-97240000D01*
X153216290Y-97240000D01*
X152870636Y-97308755D01*
X152478663Y-97570663D01*
X152436605Y-97633607D01*
X152373664Y-97675663D01*
X152307553Y-97774605D01*
X152111755Y-98067637D01*
X152019786Y-98530000D01*
X152043001Y-98646710D01*
X152043001Y-98967583D01*
X151925646Y-99143217D01*
X151868601Y-99430000D01*
X151868601Y-101230000D01*
X151925646Y-101516783D01*
X152043000Y-101692416D01*
X152043001Y-104599156D01*
X151422158Y-105220000D01*
X151352752Y-105220000D01*
X151605728Y-104967024D01*
X151828000Y-104430412D01*
X151828000Y-103849588D01*
X151605728Y-103312976D01*
X151553000Y-103260248D01*
X151553000Y-101692416D01*
X151670354Y-101516783D01*
X151727399Y-101230000D01*
X151727399Y-99430000D01*
X151670354Y-99143217D01*
X151507905Y-98900095D01*
X151264783Y-98737646D01*
X150978000Y-98680601D01*
X149758000Y-98680601D01*
X149471217Y-98737646D01*
X149228095Y-98900095D01*
X149065646Y-99143217D01*
X149046467Y-99239634D01*
X148976327Y-99070301D01*
X148797698Y-98891673D01*
X148564309Y-98795000D01*
X148113750Y-98795000D01*
X147955000Y-98953750D01*
X147955000Y-100203000D01*
X147975000Y-100203000D01*
X147975000Y-100457000D01*
X147955000Y-100457000D01*
X147955000Y-101706250D01*
X148113750Y-101865000D01*
X148564309Y-101865000D01*
X148797698Y-101768327D01*
X148976327Y-101589699D01*
X149046467Y-101420366D01*
X149065646Y-101516783D01*
X149183000Y-101692416D01*
X149183001Y-103260247D01*
X149130272Y-103312976D01*
X149050544Y-103505457D01*
X149019753Y-103431122D01*
X148781398Y-103366207D01*
X148007605Y-104140000D01*
X148781398Y-104913793D01*
X149019753Y-104848878D01*
X149048131Y-104768718D01*
X149130272Y-104967024D01*
X149383248Y-105220000D01*
X148807588Y-105220000D01*
X148270976Y-105442272D01*
X147860272Y-105852976D01*
X147780544Y-106045457D01*
X147749753Y-105971122D01*
X147511398Y-105906207D01*
X146737605Y-106680000D01*
X147511398Y-107453793D01*
X147749753Y-107388878D01*
X147778131Y-107308718D01*
X147860272Y-107507024D01*
X147913000Y-107559752D01*
X147913000Y-107935601D01*
X147398000Y-107935601D01*
X147111217Y-107992646D01*
X146868095Y-108155095D01*
X146705646Y-108398217D01*
X146648601Y-108685000D01*
X146648601Y-109485000D01*
X136561399Y-109485000D01*
X136561399Y-108685000D01*
X136504354Y-108398217D01*
X136341905Y-108155095D01*
X136250365Y-108093930D01*
X136361588Y-108140000D01*
X136942412Y-108140000D01*
X137479024Y-107917728D01*
X137763354Y-107633398D01*
X145784207Y-107633398D01*
X145849122Y-107871753D01*
X146359146Y-108052312D01*
X146899444Y-108023949D01*
X147266878Y-107871753D01*
X147331793Y-107633398D01*
X146558000Y-106859605D01*
X145784207Y-107633398D01*
X137763354Y-107633398D01*
X137889728Y-107507024D01*
X138112000Y-106970412D01*
X138112000Y-106895842D01*
X138526696Y-106481146D01*
X145185688Y-106481146D01*
X145214051Y-107021444D01*
X145366247Y-107388878D01*
X145604602Y-107453793D01*
X146378395Y-106680000D01*
X145604602Y-105906207D01*
X145366247Y-105971122D01*
X145185688Y-106481146D01*
X138526696Y-106481146D01*
X138997395Y-106010448D01*
X139096337Y-105944337D01*
X139241822Y-105726602D01*
X145784207Y-105726602D01*
X146558000Y-106500395D01*
X147331793Y-105726602D01*
X147266878Y-105488247D01*
X146756854Y-105307688D01*
X146216556Y-105336051D01*
X145849122Y-105488247D01*
X145784207Y-105726602D01*
X139241822Y-105726602D01*
X139358245Y-105552364D01*
X139427000Y-105206710D01*
X139450215Y-105090000D01*
X139427000Y-104973291D01*
X139427000Y-101692416D01*
X139544354Y-101516783D01*
X139544709Y-101515000D01*
X140451710Y-101515000D01*
X140797364Y-101446245D01*
X141189337Y-101184337D01*
X141451245Y-100792364D01*
X141543215Y-100330000D01*
X141451245Y-99867636D01*
X141189337Y-99475663D01*
X141042426Y-99377500D01*
X141189337Y-99279337D01*
X141451245Y-98887364D01*
X141543215Y-98425000D01*
X141451245Y-97962636D01*
X141189337Y-97570663D01*
X140797364Y-97308755D01*
X140451710Y-97240000D01*
X138463704Y-97240000D01*
X138346999Y-97216786D01*
X138230295Y-97240000D01*
X138230290Y-97240000D01*
X137884636Y-97308755D01*
X137492663Y-97570663D01*
X137450605Y-97633607D01*
X137387664Y-97675663D01*
X137321553Y-97774605D01*
X137125755Y-98067637D01*
X137033786Y-98530000D01*
X137057001Y-98646710D01*
X137057001Y-98967583D01*
X136939646Y-99143217D01*
X136882601Y-99430000D01*
X136882601Y-101230000D01*
X136939646Y-101516783D01*
X137057000Y-101692416D01*
X137057001Y-104599156D01*
X136436158Y-105220000D01*
X136366752Y-105220000D01*
X136619728Y-104967024D01*
X136842000Y-104430412D01*
X136842000Y-103849588D01*
X136619728Y-103312976D01*
X136567000Y-103260248D01*
X136567000Y-101692416D01*
X136684354Y-101516783D01*
X136741399Y-101230000D01*
X136741399Y-99430000D01*
X136684354Y-99143217D01*
X136521905Y-98900095D01*
X136278783Y-98737646D01*
X135992000Y-98680601D01*
X134772000Y-98680601D01*
X134485217Y-98737646D01*
X134242095Y-98900095D01*
X134079646Y-99143217D01*
X134060467Y-99239634D01*
X133990327Y-99070301D01*
X133811698Y-98891673D01*
X133578309Y-98795000D01*
X133127750Y-98795000D01*
X132969000Y-98953750D01*
X132969000Y-100203000D01*
X132989000Y-100203000D01*
X132989000Y-100457000D01*
X132969000Y-100457000D01*
X132969000Y-101706250D01*
X133127750Y-101865000D01*
X133578309Y-101865000D01*
X133811698Y-101768327D01*
X133990327Y-101589699D01*
X134060467Y-101420366D01*
X134079646Y-101516783D01*
X134197000Y-101692416D01*
X134197001Y-103260247D01*
X134144272Y-103312976D01*
X134064544Y-103505457D01*
X134033753Y-103431122D01*
X133795398Y-103366207D01*
X133021605Y-104140000D01*
X133795398Y-104913793D01*
X134033753Y-104848878D01*
X134062131Y-104768718D01*
X134144272Y-104967024D01*
X134397248Y-105220000D01*
X133821588Y-105220000D01*
X133284976Y-105442272D01*
X132874272Y-105852976D01*
X132794544Y-106045457D01*
X132763753Y-105971122D01*
X132525398Y-105906207D01*
X131751605Y-106680000D01*
X132525398Y-107453793D01*
X132763753Y-107388878D01*
X132792131Y-107308718D01*
X132874272Y-107507024D01*
X132927001Y-107559753D01*
X132927001Y-107935601D01*
X132412000Y-107935601D01*
X132125217Y-107992646D01*
X131882095Y-108155095D01*
X131719646Y-108398217D01*
X131662601Y-108685000D01*
X131662601Y-109485000D01*
X121575399Y-109485000D01*
X121575399Y-108685000D01*
X121518354Y-108398217D01*
X121355905Y-108155095D01*
X121264365Y-108093930D01*
X121375588Y-108140000D01*
X121956412Y-108140000D01*
X122493024Y-107917728D01*
X122777354Y-107633398D01*
X130798207Y-107633398D01*
X130863122Y-107871753D01*
X131373146Y-108052312D01*
X131913444Y-108023949D01*
X132280878Y-107871753D01*
X132345793Y-107633398D01*
X131572000Y-106859605D01*
X130798207Y-107633398D01*
X122777354Y-107633398D01*
X122903728Y-107507024D01*
X123126000Y-106970412D01*
X123126000Y-106895842D01*
X123540696Y-106481146D01*
X130199688Y-106481146D01*
X130228051Y-107021444D01*
X130380247Y-107388878D01*
X130618602Y-107453793D01*
X131392395Y-106680000D01*
X130618602Y-105906207D01*
X130380247Y-105971122D01*
X130199688Y-106481146D01*
X123540696Y-106481146D01*
X124011395Y-106010448D01*
X124110337Y-105944337D01*
X124255822Y-105726602D01*
X130798207Y-105726602D01*
X131572000Y-106500395D01*
X132345793Y-105726602D01*
X132280878Y-105488247D01*
X131770854Y-105307688D01*
X131230556Y-105336051D01*
X130863122Y-105488247D01*
X130798207Y-105726602D01*
X124255822Y-105726602D01*
X124372245Y-105552364D01*
X124441000Y-105206710D01*
X124464215Y-105090000D01*
X124441000Y-104973291D01*
X124441000Y-101692416D01*
X124558354Y-101516783D01*
X124558709Y-101515000D01*
X125846710Y-101515000D01*
X126192364Y-101446245D01*
X126584337Y-101184337D01*
X126846245Y-100792364D01*
X126938215Y-100330000D01*
X126846245Y-99867636D01*
X126584337Y-99475663D01*
X126437426Y-99377500D01*
X126584337Y-99279337D01*
X126846245Y-98887364D01*
X126938215Y-98425000D01*
X126846245Y-97962636D01*
X126584337Y-97570663D01*
X126192364Y-97308755D01*
X125846710Y-97240000D01*
X123477704Y-97240000D01*
X123360999Y-97216786D01*
X123244295Y-97240000D01*
X123244290Y-97240000D01*
X122898636Y-97308755D01*
X122506663Y-97570663D01*
X122464605Y-97633607D01*
X122401664Y-97675663D01*
X122335553Y-97774605D01*
X122139755Y-98067637D01*
X122047786Y-98530000D01*
X122071001Y-98646710D01*
X122071001Y-98967583D01*
X121953646Y-99143217D01*
X121896601Y-99430000D01*
X121896601Y-101230000D01*
X121953646Y-101516783D01*
X122071000Y-101692416D01*
X122071001Y-104599156D01*
X121450158Y-105220000D01*
X121380752Y-105220000D01*
X121633728Y-104967024D01*
X121856000Y-104430412D01*
X121856000Y-103849588D01*
X121633728Y-103312976D01*
X121581000Y-103260248D01*
X121581000Y-101692416D01*
X121698354Y-101516783D01*
X121755399Y-101230000D01*
X121755399Y-99430000D01*
X121698354Y-99143217D01*
X121535905Y-98900095D01*
X121292783Y-98737646D01*
X121006000Y-98680601D01*
X119786000Y-98680601D01*
X119499217Y-98737646D01*
X119256095Y-98900095D01*
X119093646Y-99143217D01*
X119074467Y-99239634D01*
X119004327Y-99070301D01*
X118825698Y-98891673D01*
X118592309Y-98795000D01*
X118141750Y-98795000D01*
X117983000Y-98953750D01*
X117983000Y-100203000D01*
X118003000Y-100203000D01*
X118003000Y-100457000D01*
X117983000Y-100457000D01*
X117983000Y-101706250D01*
X118141750Y-101865000D01*
X118592309Y-101865000D01*
X118825698Y-101768327D01*
X119004327Y-101589699D01*
X119074467Y-101420366D01*
X119093646Y-101516783D01*
X119211000Y-101692416D01*
X119211001Y-103260247D01*
X119158272Y-103312976D01*
X119078544Y-103505457D01*
X119047753Y-103431122D01*
X118809398Y-103366207D01*
X118035605Y-104140000D01*
X118809398Y-104913793D01*
X119047753Y-104848878D01*
X119076131Y-104768718D01*
X119158272Y-104967024D01*
X119411248Y-105220000D01*
X118835588Y-105220000D01*
X118298976Y-105442272D01*
X117888272Y-105852976D01*
X117808544Y-106045457D01*
X117777753Y-105971122D01*
X117539398Y-105906207D01*
X116765605Y-106680000D01*
X117539398Y-107453793D01*
X117777753Y-107388878D01*
X117806131Y-107308718D01*
X117888272Y-107507024D01*
X117941001Y-107559753D01*
X117941001Y-107935601D01*
X117426000Y-107935601D01*
X117139217Y-107992646D01*
X116896095Y-108155095D01*
X116733646Y-108398217D01*
X116676601Y-108685000D01*
X116676601Y-109485000D01*
X106589399Y-109485000D01*
X106589399Y-108685000D01*
X106532354Y-108398217D01*
X106369905Y-108155095D01*
X106278365Y-108093930D01*
X106389588Y-108140000D01*
X106970412Y-108140000D01*
X107507024Y-107917728D01*
X107791354Y-107633398D01*
X115812207Y-107633398D01*
X115877122Y-107871753D01*
X116387146Y-108052312D01*
X116927444Y-108023949D01*
X117294878Y-107871753D01*
X117359793Y-107633398D01*
X116586000Y-106859605D01*
X115812207Y-107633398D01*
X107791354Y-107633398D01*
X107917728Y-107507024D01*
X108140000Y-106970412D01*
X108140000Y-106895842D01*
X108554696Y-106481146D01*
X115213688Y-106481146D01*
X115242051Y-107021444D01*
X115394247Y-107388878D01*
X115632602Y-107453793D01*
X116406395Y-106680000D01*
X115632602Y-105906207D01*
X115394247Y-105971122D01*
X115213688Y-106481146D01*
X108554696Y-106481146D01*
X109025395Y-106010448D01*
X109124337Y-105944337D01*
X109269822Y-105726602D01*
X115812207Y-105726602D01*
X116586000Y-106500395D01*
X117359793Y-105726602D01*
X117294878Y-105488247D01*
X116784854Y-105307688D01*
X116244556Y-105336051D01*
X115877122Y-105488247D01*
X115812207Y-105726602D01*
X109269822Y-105726602D01*
X109386245Y-105552364D01*
X109455000Y-105206710D01*
X109478215Y-105090000D01*
X109455000Y-104973291D01*
X109455000Y-101692416D01*
X109572354Y-101516783D01*
X109572709Y-101515000D01*
X110606710Y-101515000D01*
X110952364Y-101446245D01*
X111344337Y-101184337D01*
X111606245Y-100792364D01*
X111698215Y-100330000D01*
X111606245Y-99867636D01*
X111344337Y-99475663D01*
X111292460Y-99441000D01*
X111344337Y-99406337D01*
X111606245Y-99014364D01*
X111698215Y-98552000D01*
X111606245Y-98089636D01*
X111344337Y-97697663D01*
X110952364Y-97435755D01*
X110606710Y-97367000D01*
X108452705Y-97367000D01*
X108335999Y-97343786D01*
X108219294Y-97367000D01*
X108219290Y-97367000D01*
X107873636Y-97435755D01*
X107481663Y-97697663D01*
X107455226Y-97737228D01*
X107415664Y-97763663D01*
X107349553Y-97862605D01*
X107153755Y-98155637D01*
X107121010Y-98320260D01*
X107085000Y-98501290D01*
X107085000Y-98501294D01*
X107061786Y-98618000D01*
X107085000Y-98734706D01*
X107085000Y-98967584D01*
X106967646Y-99143217D01*
X106910601Y-99430000D01*
X106910601Y-101230000D01*
X106967646Y-101516783D01*
X107085000Y-101692416D01*
X107085001Y-104599156D01*
X106464158Y-105220000D01*
X106394752Y-105220000D01*
X106647728Y-104967024D01*
X106870000Y-104430412D01*
X106870000Y-103849588D01*
X106647728Y-103312976D01*
X106595000Y-103260248D01*
X106595000Y-101692416D01*
X106712354Y-101516783D01*
X106769399Y-101230000D01*
X106769399Y-99430000D01*
X106712354Y-99143217D01*
X106549905Y-98900095D01*
X106306783Y-98737646D01*
X106020000Y-98680601D01*
X104800000Y-98680601D01*
X104513217Y-98737646D01*
X104270095Y-98900095D01*
X104107646Y-99143217D01*
X104088467Y-99239634D01*
X104018327Y-99070301D01*
X103839698Y-98891673D01*
X103606309Y-98795000D01*
X103155750Y-98795000D01*
X102997000Y-98953750D01*
X102997000Y-100203000D01*
X103017000Y-100203000D01*
X103017000Y-100457000D01*
X102997000Y-100457000D01*
X102997000Y-101706250D01*
X103155750Y-101865000D01*
X103606309Y-101865000D01*
X103839698Y-101768327D01*
X104018327Y-101589699D01*
X104088467Y-101420366D01*
X104107646Y-101516783D01*
X104225000Y-101692416D01*
X104225001Y-103260247D01*
X104172272Y-103312976D01*
X104092544Y-103505457D01*
X104061753Y-103431122D01*
X103823398Y-103366207D01*
X103049605Y-104140000D01*
X103823398Y-104913793D01*
X104061753Y-104848878D01*
X104090131Y-104768718D01*
X104172272Y-104967024D01*
X104425248Y-105220000D01*
X103849588Y-105220000D01*
X103312976Y-105442272D01*
X102902272Y-105852976D01*
X102822544Y-106045457D01*
X102791753Y-105971122D01*
X102553398Y-105906207D01*
X101779605Y-106680000D01*
X102553398Y-107453793D01*
X102791753Y-107388878D01*
X102820131Y-107308718D01*
X102902272Y-107507024D01*
X102955001Y-107559753D01*
X102955001Y-107935601D01*
X102440000Y-107935601D01*
X102153217Y-107992646D01*
X101910095Y-108155095D01*
X101747646Y-108398217D01*
X101690601Y-108685000D01*
X101690601Y-109485000D01*
X91603399Y-109485000D01*
X91603399Y-108685000D01*
X91546354Y-108398217D01*
X91383905Y-108155095D01*
X91292365Y-108093930D01*
X91403588Y-108140000D01*
X91984412Y-108140000D01*
X92521024Y-107917728D01*
X92805354Y-107633398D01*
X100826207Y-107633398D01*
X100891122Y-107871753D01*
X101401146Y-108052312D01*
X101941444Y-108023949D01*
X102308878Y-107871753D01*
X102373793Y-107633398D01*
X101600000Y-106859605D01*
X100826207Y-107633398D01*
X92805354Y-107633398D01*
X92931728Y-107507024D01*
X93154000Y-106970412D01*
X93154000Y-106895842D01*
X93568696Y-106481146D01*
X100227688Y-106481146D01*
X100256051Y-107021444D01*
X100408247Y-107388878D01*
X100646602Y-107453793D01*
X101420395Y-106680000D01*
X100646602Y-105906207D01*
X100408247Y-105971122D01*
X100227688Y-106481146D01*
X93568696Y-106481146D01*
X94039395Y-106010448D01*
X94138337Y-105944337D01*
X94283822Y-105726602D01*
X100826207Y-105726602D01*
X101600000Y-106500395D01*
X102373793Y-105726602D01*
X102308878Y-105488247D01*
X101798854Y-105307688D01*
X101258556Y-105336051D01*
X100891122Y-105488247D01*
X100826207Y-105726602D01*
X94283822Y-105726602D01*
X94400245Y-105552364D01*
X94469000Y-105206710D01*
X94492215Y-105090000D01*
X94469000Y-104973291D01*
X94469000Y-101692416D01*
X94586354Y-101516783D01*
X94586709Y-101515000D01*
X96001710Y-101515000D01*
X96347364Y-101446245D01*
X96739337Y-101184337D01*
X97001245Y-100792364D01*
X97093215Y-100330000D01*
X97001245Y-99867636D01*
X96739337Y-99475663D01*
X96347364Y-99213755D01*
X96001710Y-99145000D01*
X94586709Y-99145000D01*
X94586354Y-99143217D01*
X94423905Y-98900095D01*
X94180783Y-98737646D01*
X93894000Y-98680601D01*
X92674000Y-98680601D01*
X92387217Y-98737646D01*
X92144095Y-98900095D01*
X91981646Y-99143217D01*
X91924601Y-99430000D01*
X91924601Y-101230000D01*
X91981646Y-101516783D01*
X92099000Y-101692416D01*
X92099001Y-104599156D01*
X91478158Y-105220000D01*
X91408752Y-105220000D01*
X91661728Y-104967024D01*
X91884000Y-104430412D01*
X91884000Y-103849588D01*
X91661728Y-103312976D01*
X91609000Y-103260248D01*
X91609000Y-101692416D01*
X91726354Y-101516783D01*
X91783399Y-101230000D01*
X91783399Y-99430000D01*
X91726354Y-99143217D01*
X91563905Y-98900095D01*
X91320783Y-98737646D01*
X91034000Y-98680601D01*
X89814000Y-98680601D01*
X89527217Y-98737646D01*
X89284095Y-98900095D01*
X89121646Y-99143217D01*
X89102467Y-99239634D01*
X89032327Y-99070301D01*
X88853698Y-98891673D01*
X88620309Y-98795000D01*
X88169750Y-98795000D01*
X88011000Y-98953750D01*
X88011000Y-100203000D01*
X88031000Y-100203000D01*
X88031000Y-100457000D01*
X88011000Y-100457000D01*
X88011000Y-101706250D01*
X88169750Y-101865000D01*
X88620309Y-101865000D01*
X88853698Y-101768327D01*
X89032327Y-101589699D01*
X89102467Y-101420366D01*
X89121646Y-101516783D01*
X89239000Y-101692416D01*
X89239001Y-103260247D01*
X89186272Y-103312976D01*
X89106544Y-103505457D01*
X89075753Y-103431122D01*
X88837398Y-103366207D01*
X88063605Y-104140000D01*
X88837398Y-104913793D01*
X89075753Y-104848878D01*
X89104131Y-104768718D01*
X89186272Y-104967024D01*
X89439248Y-105220000D01*
X88863588Y-105220000D01*
X88326976Y-105442272D01*
X87916272Y-105852976D01*
X87836544Y-106045457D01*
X87805753Y-105971122D01*
X87567398Y-105906207D01*
X86793605Y-106680000D01*
X87567398Y-107453793D01*
X87805753Y-107388878D01*
X87834131Y-107308718D01*
X87916272Y-107507024D01*
X87969001Y-107559753D01*
X87969001Y-107935601D01*
X87454000Y-107935601D01*
X87167217Y-107992646D01*
X86924095Y-108155095D01*
X86761646Y-108398217D01*
X86704601Y-108685000D01*
X86704601Y-109144757D01*
X85193242Y-107633398D01*
X85840207Y-107633398D01*
X85905122Y-107871753D01*
X86415146Y-108052312D01*
X86955444Y-108023949D01*
X87322878Y-107871753D01*
X87387793Y-107633398D01*
X86614000Y-106859605D01*
X85840207Y-107633398D01*
X85193242Y-107633398D01*
X84040989Y-106481146D01*
X85241688Y-106481146D01*
X85270051Y-107021444D01*
X85422247Y-107388878D01*
X85660602Y-107453793D01*
X86434395Y-106680000D01*
X85660602Y-105906207D01*
X85422247Y-105971122D01*
X85241688Y-106481146D01*
X84040989Y-106481146D01*
X83989000Y-106429158D01*
X83989000Y-105726602D01*
X85840207Y-105726602D01*
X86614000Y-106500395D01*
X87387793Y-105726602D01*
X87322878Y-105488247D01*
X86812854Y-105307688D01*
X86272556Y-105336051D01*
X85905122Y-105488247D01*
X85840207Y-105726602D01*
X83989000Y-105726602D01*
X83989000Y-104683904D01*
X84106272Y-104967024D01*
X84516976Y-105377728D01*
X85053588Y-105600000D01*
X85634412Y-105600000D01*
X86171024Y-105377728D01*
X86455354Y-105093398D01*
X87110207Y-105093398D01*
X87175122Y-105331753D01*
X87685146Y-105512312D01*
X88225444Y-105483949D01*
X88592878Y-105331753D01*
X88657793Y-105093398D01*
X87884000Y-104319605D01*
X87110207Y-105093398D01*
X86455354Y-105093398D01*
X86581728Y-104967024D01*
X86661456Y-104774543D01*
X86692247Y-104848878D01*
X86930602Y-104913793D01*
X87704395Y-104140000D01*
X86930602Y-103366207D01*
X86692247Y-103431122D01*
X86663869Y-103511282D01*
X86581728Y-103312976D01*
X86455354Y-103186602D01*
X87110207Y-103186602D01*
X87884000Y-103960395D01*
X88657793Y-103186602D01*
X88592878Y-102948247D01*
X88082854Y-102767688D01*
X87542556Y-102796051D01*
X87175122Y-102948247D01*
X87110207Y-103186602D01*
X86455354Y-103186602D01*
X86354000Y-103085248D01*
X86354000Y-101377798D01*
X86383399Y-101230000D01*
X86383399Y-100615750D01*
X86639000Y-100615750D01*
X86639000Y-101356310D01*
X86735673Y-101589699D01*
X86914302Y-101768327D01*
X87147691Y-101865000D01*
X87598250Y-101865000D01*
X87757000Y-101706250D01*
X87757000Y-100457000D01*
X86797750Y-100457000D01*
X86639000Y-100615750D01*
X86383399Y-100615750D01*
X86383399Y-99430000D01*
X86358275Y-99303690D01*
X86639000Y-99303690D01*
X86639000Y-100044250D01*
X86797750Y-100203000D01*
X87757000Y-100203000D01*
X87757000Y-98953750D01*
X87598250Y-98795000D01*
X87147691Y-98795000D01*
X86914302Y-98891673D01*
X86735673Y-99070301D01*
X86639000Y-99303690D01*
X86358275Y-99303690D01*
X86326354Y-99143217D01*
X86291420Y-99090935D01*
X87598356Y-97784000D01*
X98198529Y-97784000D01*
X98298000Y-97803786D01*
X98397471Y-97784000D01*
X98397476Y-97784000D01*
X98692082Y-97725399D01*
X98996071Y-97522280D01*
X98980214Y-97602000D01*
X99000000Y-97701471D01*
X99000000Y-98813295D01*
X98870095Y-98900095D01*
X98707646Y-99143217D01*
X98650601Y-99430000D01*
X98650601Y-101230000D01*
X98707646Y-101516783D01*
X98870095Y-101759905D01*
X99000000Y-101846705D01*
X99000001Y-103535738D01*
X98870000Y-103849588D01*
X98870000Y-104430412D01*
X99092272Y-104967024D01*
X99502976Y-105377728D01*
X100039588Y-105600000D01*
X100620412Y-105600000D01*
X101157024Y-105377728D01*
X101441354Y-105093398D01*
X102096207Y-105093398D01*
X102161122Y-105331753D01*
X102671146Y-105512312D01*
X103211444Y-105483949D01*
X103578878Y-105331753D01*
X103643793Y-105093398D01*
X102870000Y-104319605D01*
X102096207Y-105093398D01*
X101441354Y-105093398D01*
X101567728Y-104967024D01*
X101647456Y-104774543D01*
X101678247Y-104848878D01*
X101916602Y-104913793D01*
X102690395Y-104140000D01*
X101916602Y-103366207D01*
X101678247Y-103431122D01*
X101649869Y-103511282D01*
X101567728Y-103312976D01*
X101441354Y-103186602D01*
X102096207Y-103186602D01*
X102870000Y-103960395D01*
X103643793Y-103186602D01*
X103578878Y-102948247D01*
X103068854Y-102767688D01*
X102528556Y-102796051D01*
X102161122Y-102948247D01*
X102096207Y-103186602D01*
X101441354Y-103186602D01*
X101157024Y-102902272D01*
X101020000Y-102845515D01*
X101020000Y-101846705D01*
X101149905Y-101759905D01*
X101312354Y-101516783D01*
X101369399Y-101230000D01*
X101369399Y-100615750D01*
X101625000Y-100615750D01*
X101625000Y-101356310D01*
X101721673Y-101589699D01*
X101900302Y-101768327D01*
X102133691Y-101865000D01*
X102584250Y-101865000D01*
X102743000Y-101706250D01*
X102743000Y-100457000D01*
X101783750Y-100457000D01*
X101625000Y-100615750D01*
X101369399Y-100615750D01*
X101369399Y-99430000D01*
X101344275Y-99303690D01*
X101625000Y-99303690D01*
X101625000Y-100044250D01*
X101783750Y-100203000D01*
X102743000Y-100203000D01*
X102743000Y-98953750D01*
X102584250Y-98795000D01*
X102133691Y-98795000D01*
X101900302Y-98891673D01*
X101721673Y-99070301D01*
X101625000Y-99303690D01*
X101344275Y-99303690D01*
X101312354Y-99143217D01*
X101149905Y-98900095D01*
X101020000Y-98813295D01*
X101020000Y-98020355D01*
X102243840Y-96796516D01*
X102328169Y-96740169D01*
X102384516Y-96655840D01*
X102384518Y-96655838D01*
X102551399Y-96406083D01*
X102573647Y-96294234D01*
X102610000Y-96111476D01*
X102610000Y-96111472D01*
X102629786Y-96012000D01*
X102610000Y-95912528D01*
X102610000Y-94957402D01*
X102742721Y-94868721D01*
X102870000Y-94678234D01*
X102997279Y-94868721D01*
X103521564Y-95219036D01*
X103983897Y-95311000D01*
X104296103Y-95311000D01*
X104758436Y-95219036D01*
X105268004Y-94878555D01*
X105291673Y-94935698D01*
X105470301Y-95114327D01*
X105703690Y-95211000D01*
X106394250Y-95211000D01*
X106553000Y-95052250D01*
X106553000Y-93853000D01*
X106807000Y-93853000D01*
X106807000Y-95052250D01*
X106965750Y-95211000D01*
X107656310Y-95211000D01*
X107889699Y-95114327D01*
X108068327Y-94935698D01*
X108165000Y-94702309D01*
X108165000Y-94011750D01*
X108006250Y-93853000D01*
X106807000Y-93853000D01*
X106553000Y-93853000D01*
X106533000Y-93853000D01*
X106533000Y-93599000D01*
X106553000Y-93599000D01*
X106553000Y-93579000D01*
X106807000Y-93579000D01*
X106807000Y-93599000D01*
X108006250Y-93599000D01*
X108165000Y-93440250D01*
X108165000Y-92749691D01*
X108136141Y-92680020D01*
X113603665Y-92680020D01*
X113986001Y-93062356D01*
X113986000Y-93946529D01*
X113966214Y-94046000D01*
X113986000Y-94145471D01*
X113986000Y-94145475D01*
X113986001Y-94145480D01*
X113986000Y-98813295D01*
X113856095Y-98900095D01*
X113693646Y-99143217D01*
X113636601Y-99430000D01*
X113636601Y-101230000D01*
X113693646Y-101516783D01*
X113856095Y-101759905D01*
X113986000Y-101846705D01*
X113986001Y-103535738D01*
X113856000Y-103849588D01*
X113856000Y-104430412D01*
X114078272Y-104967024D01*
X114488976Y-105377728D01*
X115025588Y-105600000D01*
X115606412Y-105600000D01*
X116143024Y-105377728D01*
X116427354Y-105093398D01*
X117082207Y-105093398D01*
X117147122Y-105331753D01*
X117657146Y-105512312D01*
X118197444Y-105483949D01*
X118564878Y-105331753D01*
X118629793Y-105093398D01*
X117856000Y-104319605D01*
X117082207Y-105093398D01*
X116427354Y-105093398D01*
X116553728Y-104967024D01*
X116633456Y-104774543D01*
X116664247Y-104848878D01*
X116902602Y-104913793D01*
X117676395Y-104140000D01*
X116902602Y-103366207D01*
X116664247Y-103431122D01*
X116635869Y-103511282D01*
X116553728Y-103312976D01*
X116427354Y-103186602D01*
X117082207Y-103186602D01*
X117856000Y-103960395D01*
X118629793Y-103186602D01*
X118564878Y-102948247D01*
X118054854Y-102767688D01*
X117514556Y-102796051D01*
X117147122Y-102948247D01*
X117082207Y-103186602D01*
X116427354Y-103186602D01*
X116143024Y-102902272D01*
X116006000Y-102845515D01*
X116006000Y-101846705D01*
X116135905Y-101759905D01*
X116298354Y-101516783D01*
X116355399Y-101230000D01*
X116355399Y-100615750D01*
X116611000Y-100615750D01*
X116611000Y-101356310D01*
X116707673Y-101589699D01*
X116886302Y-101768327D01*
X117119691Y-101865000D01*
X117570250Y-101865000D01*
X117729000Y-101706250D01*
X117729000Y-100457000D01*
X116769750Y-100457000D01*
X116611000Y-100615750D01*
X116355399Y-100615750D01*
X116355399Y-99430000D01*
X116330275Y-99303690D01*
X116611000Y-99303690D01*
X116611000Y-100044250D01*
X116769750Y-100203000D01*
X117729000Y-100203000D01*
X117729000Y-98953750D01*
X117570250Y-98795000D01*
X117119691Y-98795000D01*
X116886302Y-98891673D01*
X116707673Y-99070301D01*
X116611000Y-99303690D01*
X116330275Y-99303690D01*
X116298354Y-99143217D01*
X116135905Y-98900095D01*
X116006000Y-98813295D01*
X116006000Y-94990000D01*
X128972001Y-94990000D01*
X128972000Y-98813295D01*
X128842095Y-98900095D01*
X128679646Y-99143217D01*
X128622601Y-99430000D01*
X128622601Y-101230000D01*
X128679646Y-101516783D01*
X128842095Y-101759905D01*
X128972000Y-101846705D01*
X128972001Y-103535738D01*
X128842000Y-103849588D01*
X128842000Y-104430412D01*
X129064272Y-104967024D01*
X129474976Y-105377728D01*
X130011588Y-105600000D01*
X130592412Y-105600000D01*
X131129024Y-105377728D01*
X131413354Y-105093398D01*
X132068207Y-105093398D01*
X132133122Y-105331753D01*
X132643146Y-105512312D01*
X133183444Y-105483949D01*
X133550878Y-105331753D01*
X133615793Y-105093398D01*
X132842000Y-104319605D01*
X132068207Y-105093398D01*
X131413354Y-105093398D01*
X131539728Y-104967024D01*
X131619456Y-104774543D01*
X131650247Y-104848878D01*
X131888602Y-104913793D01*
X132662395Y-104140000D01*
X131888602Y-103366207D01*
X131650247Y-103431122D01*
X131621869Y-103511282D01*
X131539728Y-103312976D01*
X131413354Y-103186602D01*
X132068207Y-103186602D01*
X132842000Y-103960395D01*
X133615793Y-103186602D01*
X133550878Y-102948247D01*
X133040854Y-102767688D01*
X132500556Y-102796051D01*
X132133122Y-102948247D01*
X132068207Y-103186602D01*
X131413354Y-103186602D01*
X131129024Y-102902272D01*
X130992000Y-102845515D01*
X130992000Y-101846705D01*
X131121905Y-101759905D01*
X131284354Y-101516783D01*
X131341399Y-101230000D01*
X131341399Y-100615750D01*
X131597000Y-100615750D01*
X131597000Y-101356310D01*
X131693673Y-101589699D01*
X131872302Y-101768327D01*
X132105691Y-101865000D01*
X132556250Y-101865000D01*
X132715000Y-101706250D01*
X132715000Y-100457000D01*
X131755750Y-100457000D01*
X131597000Y-100615750D01*
X131341399Y-100615750D01*
X131341399Y-99430000D01*
X131316275Y-99303690D01*
X131597000Y-99303690D01*
X131597000Y-100044250D01*
X131755750Y-100203000D01*
X132715000Y-100203000D01*
X132715000Y-98953750D01*
X132556250Y-98795000D01*
X132105691Y-98795000D01*
X131872302Y-98891673D01*
X131693673Y-99070301D01*
X131597000Y-99303690D01*
X131316275Y-99303690D01*
X131284354Y-99143217D01*
X131121905Y-98900095D01*
X130992000Y-98813295D01*
X130992000Y-95740010D01*
X139193867Y-95740010D01*
X139293338Y-95759796D01*
X139392809Y-95740010D01*
X139392814Y-95740010D01*
X139687420Y-95681409D01*
X140021507Y-95458179D01*
X140077856Y-95373847D01*
X141014674Y-94437029D01*
X141963482Y-95385837D01*
X142019831Y-95470169D01*
X142353918Y-95693399D01*
X142648524Y-95752000D01*
X142648528Y-95752000D01*
X142747999Y-95771786D01*
X142847470Y-95752000D01*
X143958001Y-95752000D01*
X143958000Y-98813295D01*
X143828095Y-98900095D01*
X143665646Y-99143217D01*
X143608601Y-99430000D01*
X143608601Y-101230000D01*
X143665646Y-101516783D01*
X143828095Y-101759905D01*
X143958000Y-101846705D01*
X143958001Y-103535738D01*
X143828000Y-103849588D01*
X143828000Y-104430412D01*
X144050272Y-104967024D01*
X144460976Y-105377728D01*
X144997588Y-105600000D01*
X145578412Y-105600000D01*
X146115024Y-105377728D01*
X146399354Y-105093398D01*
X147054207Y-105093398D01*
X147119122Y-105331753D01*
X147629146Y-105512312D01*
X148169444Y-105483949D01*
X148536878Y-105331753D01*
X148601793Y-105093398D01*
X147828000Y-104319605D01*
X147054207Y-105093398D01*
X146399354Y-105093398D01*
X146525728Y-104967024D01*
X146605456Y-104774543D01*
X146636247Y-104848878D01*
X146874602Y-104913793D01*
X147648395Y-104140000D01*
X146874602Y-103366207D01*
X146636247Y-103431122D01*
X146607869Y-103511282D01*
X146525728Y-103312976D01*
X146399354Y-103186602D01*
X147054207Y-103186602D01*
X147828000Y-103960395D01*
X148601793Y-103186602D01*
X148536878Y-102948247D01*
X148026854Y-102767688D01*
X147486556Y-102796051D01*
X147119122Y-102948247D01*
X147054207Y-103186602D01*
X146399354Y-103186602D01*
X146115024Y-102902272D01*
X145978000Y-102845515D01*
X145978000Y-101846705D01*
X146107905Y-101759905D01*
X146270354Y-101516783D01*
X146327399Y-101230000D01*
X146327399Y-100615750D01*
X146583000Y-100615750D01*
X146583000Y-101356310D01*
X146679673Y-101589699D01*
X146858302Y-101768327D01*
X147091691Y-101865000D01*
X147542250Y-101865000D01*
X147701000Y-101706250D01*
X147701000Y-100457000D01*
X146741750Y-100457000D01*
X146583000Y-100615750D01*
X146327399Y-100615750D01*
X146327399Y-99430000D01*
X146302275Y-99303690D01*
X146583000Y-99303690D01*
X146583000Y-100044250D01*
X146741750Y-100203000D01*
X147701000Y-100203000D01*
X147701000Y-98953750D01*
X147542250Y-98795000D01*
X147091691Y-98795000D01*
X146858302Y-98891673D01*
X146679673Y-99070301D01*
X146583000Y-99303690D01*
X146302275Y-99303690D01*
X146270354Y-99143217D01*
X146107905Y-98900095D01*
X145978000Y-98813295D01*
X145978000Y-95001990D01*
X158944001Y-95001990D01*
X158944000Y-98813295D01*
X158814095Y-98900095D01*
X158651646Y-99143217D01*
X158594601Y-99430000D01*
X158594601Y-101230000D01*
X158651646Y-101516783D01*
X158814095Y-101759905D01*
X158944000Y-101846705D01*
X158944001Y-103535738D01*
X158814000Y-103849588D01*
X158814000Y-104430412D01*
X159036272Y-104967024D01*
X159446976Y-105377728D01*
X159983588Y-105600000D01*
X160564412Y-105600000D01*
X161101024Y-105377728D01*
X161385354Y-105093398D01*
X162040207Y-105093398D01*
X162105122Y-105331753D01*
X162615146Y-105512312D01*
X163155444Y-105483949D01*
X163522878Y-105331753D01*
X163587793Y-105093398D01*
X162814000Y-104319605D01*
X162040207Y-105093398D01*
X161385354Y-105093398D01*
X161511728Y-104967024D01*
X161591456Y-104774543D01*
X161622247Y-104848878D01*
X161860602Y-104913793D01*
X162634395Y-104140000D01*
X161860602Y-103366207D01*
X161622247Y-103431122D01*
X161593869Y-103511282D01*
X161511728Y-103312976D01*
X161385354Y-103186602D01*
X162040207Y-103186602D01*
X162814000Y-103960395D01*
X163587793Y-103186602D01*
X163522878Y-102948247D01*
X163012854Y-102767688D01*
X162472556Y-102796051D01*
X162105122Y-102948247D01*
X162040207Y-103186602D01*
X161385354Y-103186602D01*
X161101024Y-102902272D01*
X160964000Y-102845515D01*
X160964000Y-101846705D01*
X161093905Y-101759905D01*
X161256354Y-101516783D01*
X161313399Y-101230000D01*
X161313399Y-100615750D01*
X161569000Y-100615750D01*
X161569000Y-101356310D01*
X161665673Y-101589699D01*
X161844302Y-101768327D01*
X162077691Y-101865000D01*
X162528250Y-101865000D01*
X162687000Y-101706250D01*
X162687000Y-100457000D01*
X161727750Y-100457000D01*
X161569000Y-100615750D01*
X161313399Y-100615750D01*
X161313399Y-99430000D01*
X161288275Y-99303690D01*
X161569000Y-99303690D01*
X161569000Y-100044250D01*
X161727750Y-100203000D01*
X162687000Y-100203000D01*
X162687000Y-98953750D01*
X162528250Y-98795000D01*
X162077691Y-98795000D01*
X161844302Y-98891673D01*
X161665673Y-99070301D01*
X161569000Y-99303690D01*
X161288275Y-99303690D01*
X161256354Y-99143217D01*
X161093905Y-98900095D01*
X160964000Y-98813295D01*
X160964000Y-94307480D01*
X160979810Y-94228000D01*
X173930000Y-94228000D01*
X173930001Y-96937761D01*
X173930000Y-98813295D01*
X173800095Y-98900095D01*
X173637646Y-99143217D01*
X173580601Y-99430000D01*
X173580601Y-101230000D01*
X173637646Y-101516783D01*
X173800095Y-101759905D01*
X173930000Y-101846705D01*
X173930001Y-103535738D01*
X173800000Y-103849588D01*
X173800000Y-104430412D01*
X174022272Y-104967024D01*
X174432976Y-105377728D01*
X174969588Y-105600000D01*
X175550412Y-105600000D01*
X176087024Y-105377728D01*
X176371354Y-105093398D01*
X177026207Y-105093398D01*
X177091122Y-105331753D01*
X177601146Y-105512312D01*
X178141444Y-105483949D01*
X178508878Y-105331753D01*
X178573793Y-105093398D01*
X177800000Y-104319605D01*
X177026207Y-105093398D01*
X176371354Y-105093398D01*
X176497728Y-104967024D01*
X176577456Y-104774543D01*
X176608247Y-104848878D01*
X176846602Y-104913793D01*
X177620395Y-104140000D01*
X176846602Y-103366207D01*
X176608247Y-103431122D01*
X176579869Y-103511282D01*
X176497728Y-103312976D01*
X176371354Y-103186602D01*
X177026207Y-103186602D01*
X177800000Y-103960395D01*
X178573793Y-103186602D01*
X178508878Y-102948247D01*
X177998854Y-102767688D01*
X177458556Y-102796051D01*
X177091122Y-102948247D01*
X177026207Y-103186602D01*
X176371354Y-103186602D01*
X176087024Y-102902272D01*
X175950000Y-102845515D01*
X175950000Y-101846705D01*
X176079905Y-101759905D01*
X176242354Y-101516783D01*
X176299399Y-101230000D01*
X176299399Y-100615750D01*
X176555000Y-100615750D01*
X176555000Y-101356310D01*
X176651673Y-101589699D01*
X176830302Y-101768327D01*
X177063691Y-101865000D01*
X177514250Y-101865000D01*
X177673000Y-101706250D01*
X177673000Y-100457000D01*
X176713750Y-100457000D01*
X176555000Y-100615750D01*
X176299399Y-100615750D01*
X176299399Y-99430000D01*
X176274275Y-99303690D01*
X176555000Y-99303690D01*
X176555000Y-100044250D01*
X176713750Y-100203000D01*
X177673000Y-100203000D01*
X177673000Y-98953750D01*
X177514250Y-98795000D01*
X177063691Y-98795000D01*
X176830302Y-98891673D01*
X176651673Y-99070301D01*
X176555000Y-99303690D01*
X176274275Y-99303690D01*
X176242354Y-99143217D01*
X176079905Y-98900095D01*
X175950000Y-98813295D01*
X175950000Y-93632470D01*
X175969786Y-93532999D01*
X175958844Y-93477990D01*
X188916000Y-93477990D01*
X188916001Y-98813295D01*
X188786095Y-98900095D01*
X188623646Y-99143217D01*
X188566601Y-99430000D01*
X188566601Y-101230000D01*
X188623646Y-101516783D01*
X188786095Y-101759905D01*
X188916000Y-101846705D01*
X188916001Y-103535738D01*
X188786000Y-103849588D01*
X188786000Y-104430412D01*
X189008272Y-104967024D01*
X189418976Y-105377728D01*
X189955588Y-105600000D01*
X190536412Y-105600000D01*
X191073024Y-105377728D01*
X191357354Y-105093398D01*
X192012207Y-105093398D01*
X192077122Y-105331753D01*
X192587146Y-105512312D01*
X193127444Y-105483949D01*
X193494878Y-105331753D01*
X193559793Y-105093398D01*
X192786000Y-104319605D01*
X192012207Y-105093398D01*
X191357354Y-105093398D01*
X191483728Y-104967024D01*
X191563456Y-104774543D01*
X191594247Y-104848878D01*
X191832602Y-104913793D01*
X192606395Y-104140000D01*
X191832602Y-103366207D01*
X191594247Y-103431122D01*
X191565869Y-103511282D01*
X191483728Y-103312976D01*
X191357354Y-103186602D01*
X192012207Y-103186602D01*
X192786000Y-103960395D01*
X193559793Y-103186602D01*
X193494878Y-102948247D01*
X192984854Y-102767688D01*
X192444556Y-102796051D01*
X192077122Y-102948247D01*
X192012207Y-103186602D01*
X191357354Y-103186602D01*
X191073024Y-102902272D01*
X190936000Y-102845515D01*
X190936000Y-101846705D01*
X191065905Y-101759905D01*
X191228354Y-101516783D01*
X191285399Y-101230000D01*
X191285399Y-100615750D01*
X191541000Y-100615750D01*
X191541000Y-101356310D01*
X191637673Y-101589699D01*
X191816302Y-101768327D01*
X192049691Y-101865000D01*
X192500250Y-101865000D01*
X192659000Y-101706250D01*
X192659000Y-100457000D01*
X191699750Y-100457000D01*
X191541000Y-100615750D01*
X191285399Y-100615750D01*
X191285399Y-99430000D01*
X191260275Y-99303690D01*
X191541000Y-99303690D01*
X191541000Y-100044250D01*
X191699750Y-100203000D01*
X192659000Y-100203000D01*
X192659000Y-98953750D01*
X192500250Y-98795000D01*
X192049691Y-98795000D01*
X191816302Y-98891673D01*
X191637673Y-99070301D01*
X191541000Y-99303690D01*
X191260275Y-99303690D01*
X191228354Y-99143217D01*
X191065905Y-98900095D01*
X190936000Y-98813295D01*
X190936000Y-92767452D01*
X190955786Y-92667980D01*
X190936000Y-92568508D01*
X190936000Y-92568504D01*
X190877399Y-92273898D01*
X190654169Y-91939811D01*
X190569838Y-91883463D01*
X190510528Y-91824153D01*
X190454179Y-91739821D01*
X190120092Y-91516591D01*
X189825486Y-91457990D01*
X189825481Y-91457990D01*
X189726010Y-91438204D01*
X189626539Y-91457990D01*
X161195748Y-91457990D01*
X161075142Y-91434000D01*
X170080529Y-91434000D01*
X170180000Y-91453786D01*
X170279471Y-91434000D01*
X170279476Y-91434000D01*
X170574082Y-91375399D01*
X170908169Y-91152169D01*
X170964518Y-91067836D01*
X171077835Y-90954519D01*
X171162169Y-90898169D01*
X171385399Y-90564082D01*
X171444000Y-90269476D01*
X171444000Y-90269471D01*
X171463786Y-90170001D01*
X171444000Y-90070530D01*
X171444000Y-87083402D01*
X171576721Y-86994721D01*
X171704000Y-86804234D01*
X171831279Y-86994721D01*
X172355564Y-87345036D01*
X172817897Y-87437000D01*
X173130103Y-87437000D01*
X173592436Y-87345036D01*
X174053446Y-87037000D01*
X174127294Y-87037000D01*
X174244000Y-87060214D01*
X174360706Y-87037000D01*
X174360710Y-87037000D01*
X174706364Y-86968245D01*
X175098337Y-86706337D01*
X175164450Y-86607392D01*
X177274843Y-84497000D01*
X178752554Y-84497000D01*
X178879766Y-84582000D01*
X178689279Y-84709279D01*
X178338964Y-85233564D01*
X178215949Y-85852000D01*
X178338964Y-86470436D01*
X178689279Y-86994721D01*
X179213564Y-87345036D01*
X179675897Y-87437000D01*
X179988103Y-87437000D01*
X180390289Y-87357000D01*
X182533584Y-87357000D01*
X182709217Y-87474354D01*
X182996000Y-87531399D01*
X184796000Y-87531399D01*
X185082783Y-87474354D01*
X185325905Y-87311905D01*
X185488354Y-87068783D01*
X185545399Y-86782000D01*
X185545399Y-85562000D01*
X185488354Y-85275217D01*
X185325905Y-85032095D01*
X185082783Y-84869646D01*
X184796000Y-84812601D01*
X182996000Y-84812601D01*
X182709217Y-84869646D01*
X182533584Y-84987000D01*
X181160288Y-84987000D01*
X180974721Y-84709279D01*
X180784234Y-84582000D01*
X180911446Y-84497000D01*
X182533584Y-84497000D01*
X182709217Y-84614354D01*
X182996000Y-84671399D01*
X184796000Y-84671399D01*
X185082783Y-84614354D01*
X185325905Y-84451905D01*
X185488354Y-84208783D01*
X185545399Y-83922000D01*
X185545399Y-82702000D01*
X185488354Y-82415217D01*
X185325905Y-82172095D01*
X185082783Y-82009646D01*
X184796000Y-81952601D01*
X182996000Y-81952601D01*
X182709217Y-82009646D01*
X182533584Y-82127000D01*
X180911446Y-82127000D01*
X180689224Y-81978517D01*
X180713358Y-81967183D01*
X181103645Y-81538924D01*
X181273476Y-81128890D01*
X181152155Y-80899000D01*
X179959000Y-80899000D01*
X179959000Y-80919000D01*
X179705000Y-80919000D01*
X179705000Y-80899000D01*
X178511845Y-80899000D01*
X178390524Y-81128890D01*
X178560355Y-81538924D01*
X178950642Y-81967183D01*
X178974776Y-81978517D01*
X178752554Y-82127000D01*
X176900704Y-82127000D01*
X176783999Y-82103786D01*
X176667294Y-82127000D01*
X176667290Y-82127000D01*
X176321636Y-82195755D01*
X175929663Y-82457663D01*
X175863552Y-82556605D01*
X173873436Y-84546722D01*
X173592436Y-84358964D01*
X173130103Y-84267000D01*
X172817897Y-84267000D01*
X172355564Y-84358964D01*
X171831279Y-84709279D01*
X171704000Y-84899766D01*
X171576721Y-84709279D01*
X171444000Y-84620598D01*
X171444000Y-84492355D01*
X176694356Y-79242000D01*
X178264427Y-79242000D01*
X178289646Y-79368783D01*
X178452095Y-79611905D01*
X178695217Y-79774354D01*
X178759049Y-79787051D01*
X178560355Y-80005076D01*
X178390524Y-80415110D01*
X178511845Y-80645000D01*
X179705000Y-80645000D01*
X179705000Y-80625000D01*
X179959000Y-80625000D01*
X179959000Y-80645000D01*
X181152155Y-80645000D01*
X181273476Y-80415110D01*
X181103645Y-80005076D01*
X180904951Y-79787051D01*
X180968783Y-79774354D01*
X181211905Y-79611905D01*
X181374354Y-79368783D01*
X181399573Y-79242000D01*
X182304481Y-79242000D01*
X182339646Y-79418783D01*
X182502095Y-79661905D01*
X182745217Y-79824354D01*
X183032000Y-79881399D01*
X184252000Y-79881399D01*
X184538783Y-79824354D01*
X184781905Y-79661905D01*
X184944354Y-79418783D01*
X185001399Y-79132000D01*
X185001399Y-77332000D01*
X185142601Y-77332000D01*
X185142601Y-79132000D01*
X185199646Y-79418783D01*
X185362095Y-79661905D01*
X185605217Y-79824354D01*
X185892000Y-79881399D01*
X187112000Y-79881399D01*
X187398783Y-79824354D01*
X187641905Y-79661905D01*
X187804354Y-79418783D01*
X187804709Y-79417000D01*
X188584710Y-79417000D01*
X188930364Y-79348245D01*
X189322337Y-79086337D01*
X189584245Y-78694364D01*
X189676215Y-78232000D01*
X189584245Y-77769636D01*
X189322337Y-77377663D01*
X188930364Y-77115755D01*
X188584710Y-77047000D01*
X187804709Y-77047000D01*
X187804354Y-77045217D01*
X187641905Y-76802095D01*
X187398783Y-76639646D01*
X187112000Y-76582601D01*
X185892000Y-76582601D01*
X185605217Y-76639646D01*
X185362095Y-76802095D01*
X185199646Y-77045217D01*
X185142601Y-77332000D01*
X185001399Y-77332000D01*
X184944354Y-77045217D01*
X184781905Y-76802095D01*
X184538783Y-76639646D01*
X184252000Y-76582601D01*
X183032000Y-76582601D01*
X182745217Y-76639646D01*
X182502095Y-76802095D01*
X182339646Y-77045217D01*
X182304481Y-77222000D01*
X181399573Y-77222000D01*
X181374354Y-77095217D01*
X181211905Y-76852095D01*
X180968783Y-76689646D01*
X180682000Y-76632601D01*
X178982000Y-76632601D01*
X178695217Y-76689646D01*
X178452095Y-76852095D01*
X178289646Y-77095217D01*
X178264427Y-77222000D01*
X176375471Y-77222000D01*
X176276000Y-77202214D01*
X176176529Y-77222000D01*
X176176524Y-77222000D01*
X175881918Y-77280601D01*
X175881916Y-77280602D01*
X175881917Y-77280602D01*
X175632162Y-77447482D01*
X175632160Y-77447484D01*
X175547831Y-77503831D01*
X175491484Y-77588160D01*
X169790163Y-83289482D01*
X169705831Y-83345831D01*
X169649483Y-83430162D01*
X169649482Y-83430163D01*
X169573641Y-83543668D01*
X169482601Y-83679919D01*
X169424000Y-83974525D01*
X169424000Y-83974529D01*
X169404214Y-84074000D01*
X169424000Y-84173471D01*
X169424000Y-84620598D01*
X169291279Y-84709279D01*
X169100517Y-84994776D01*
X169089183Y-84970642D01*
X168660924Y-84580355D01*
X168250890Y-84410524D01*
X168021000Y-84531845D01*
X168021000Y-85725000D01*
X168041000Y-85725000D01*
X168041000Y-85979000D01*
X168021000Y-85979000D01*
X168021000Y-87172155D01*
X168250890Y-87293476D01*
X168660924Y-87123645D01*
X169089183Y-86733358D01*
X169100517Y-86709224D01*
X169291279Y-86994721D01*
X169424000Y-87083402D01*
X169424001Y-89414000D01*
X150258817Y-89414000D01*
X150108000Y-89263183D01*
X150108000Y-87729471D01*
X150127786Y-87630000D01*
X150108000Y-87530529D01*
X150108000Y-86205470D01*
X150127786Y-86105999D01*
X150108000Y-86006529D01*
X150108000Y-86006524D01*
X150049399Y-85711918D01*
X149826169Y-85377831D01*
X149741836Y-85321481D01*
X149736519Y-85316164D01*
X149680169Y-85231831D01*
X149346082Y-85008601D01*
X149051476Y-84950000D01*
X149051471Y-84950000D01*
X148952000Y-84930214D01*
X148852529Y-84950000D01*
X146693500Y-84950000D01*
X146712354Y-84921783D01*
X146769399Y-84635000D01*
X146769399Y-84085000D01*
X146744535Y-83960000D01*
X146769399Y-83835000D01*
X146769399Y-83285000D01*
X146712354Y-82998217D01*
X146549905Y-82755095D01*
X146306783Y-82592646D01*
X146020000Y-82535601D01*
X144794399Y-82535601D01*
X144794399Y-81310000D01*
X144787238Y-81274000D01*
X147926732Y-81274000D01*
X147991327Y-81370673D01*
X148499073Y-81709938D01*
X148946818Y-81799000D01*
X149249182Y-81799000D01*
X149696927Y-81709938D01*
X150204673Y-81370673D01*
X150543938Y-80862927D01*
X150663072Y-80264000D01*
X150543938Y-79665073D01*
X150430967Y-79496000D01*
X156724001Y-79496000D01*
X156724000Y-84284427D01*
X156597217Y-84309646D01*
X156354095Y-84472095D01*
X156191646Y-84715217D01*
X156134601Y-85002000D01*
X156134601Y-86702000D01*
X156191646Y-86988783D01*
X156354095Y-87231905D01*
X156597217Y-87394354D01*
X156884000Y-87451399D01*
X158584000Y-87451399D01*
X158870783Y-87394354D01*
X159113905Y-87231905D01*
X159228832Y-87059904D01*
X159655564Y-87345036D01*
X160117897Y-87437000D01*
X160430103Y-87437000D01*
X160892436Y-87345036D01*
X161416721Y-86994721D01*
X161544000Y-86804234D01*
X161671279Y-86994721D01*
X162195564Y-87345036D01*
X162657897Y-87437000D01*
X162970103Y-87437000D01*
X163432436Y-87345036D01*
X163956721Y-86994721D01*
X164084000Y-86804234D01*
X164211279Y-86994721D01*
X164735564Y-87345036D01*
X165197897Y-87437000D01*
X165510103Y-87437000D01*
X165972436Y-87345036D01*
X166496721Y-86994721D01*
X166687483Y-86709224D01*
X166698817Y-86733358D01*
X167127076Y-87123645D01*
X167537110Y-87293476D01*
X167767000Y-87172155D01*
X167767000Y-85979000D01*
X167747000Y-85979000D01*
X167747000Y-85725000D01*
X167767000Y-85725000D01*
X167767000Y-84531845D01*
X167537110Y-84410524D01*
X167127076Y-84580355D01*
X166698817Y-84970642D01*
X166687483Y-84994776D01*
X166539000Y-84772554D01*
X166539000Y-83912416D01*
X166656354Y-83736783D01*
X166713399Y-83450000D01*
X166713399Y-82835750D01*
X166969000Y-82835750D01*
X166969000Y-83576310D01*
X167065673Y-83809699D01*
X167244302Y-83988327D01*
X167477691Y-84085000D01*
X167928250Y-84085000D01*
X168087000Y-83926250D01*
X168087000Y-82677000D01*
X168341000Y-82677000D01*
X168341000Y-83926250D01*
X168499750Y-84085000D01*
X168950309Y-84085000D01*
X169183698Y-83988327D01*
X169362327Y-83809699D01*
X169459000Y-83576310D01*
X169459000Y-82835750D01*
X169300250Y-82677000D01*
X168341000Y-82677000D01*
X168087000Y-82677000D01*
X167127750Y-82677000D01*
X166969000Y-82835750D01*
X166713399Y-82835750D01*
X166713399Y-81650000D01*
X166688275Y-81523690D01*
X166969000Y-81523690D01*
X166969000Y-82264250D01*
X167127750Y-82423000D01*
X168087000Y-82423000D01*
X168087000Y-81173750D01*
X168341000Y-81173750D01*
X168341000Y-82423000D01*
X169300250Y-82423000D01*
X169459000Y-82264250D01*
X169459000Y-81523690D01*
X169362327Y-81290301D01*
X169183698Y-81111673D01*
X168950309Y-81015000D01*
X168499750Y-81015000D01*
X168341000Y-81173750D01*
X168087000Y-81173750D01*
X167928250Y-81015000D01*
X167477691Y-81015000D01*
X167244302Y-81111673D01*
X167065673Y-81290301D01*
X166969000Y-81523690D01*
X166688275Y-81523690D01*
X166656354Y-81363217D01*
X166539000Y-81187584D01*
X166539000Y-76083290D01*
X166470245Y-75737636D01*
X166208337Y-75345663D01*
X165816363Y-75083755D01*
X165354000Y-74991785D01*
X164891636Y-75083755D01*
X164732629Y-75190000D01*
X141443449Y-75190000D01*
X141343978Y-75170214D01*
X141244507Y-75190000D01*
X141244502Y-75190000D01*
X140949896Y-75248601D01*
X140949894Y-75248602D01*
X140949895Y-75248602D01*
X140700140Y-75415482D01*
X140700138Y-75415484D01*
X140615809Y-75471831D01*
X140559462Y-75556160D01*
X137926645Y-78188978D01*
X89906727Y-78188978D01*
X89790021Y-78165764D01*
X89673315Y-78188978D01*
X89673312Y-78188978D01*
X89327658Y-78257733D01*
X88935685Y-78519641D01*
X88869574Y-78618583D01*
X82048606Y-85439552D01*
X81949664Y-85505663D01*
X81883553Y-85604605D01*
X81687755Y-85897637D01*
X81595786Y-86360000D01*
X79502000Y-86360000D01*
X79502000Y-74422000D01*
X202438000Y-74422000D01*
X202438000Y-116078000D01*
G36*
X137160000Y-81237610D02*
X137145601Y-81310000D01*
X137145601Y-82535601D01*
X136747081Y-82535601D01*
X136719999Y-82530214D01*
X136692917Y-82535601D01*
X135920000Y-82535601D01*
X135817448Y-82556000D01*
X134634399Y-82556000D01*
X134634399Y-81866000D01*
X134577354Y-81579217D01*
X134414905Y-81336095D01*
X134171783Y-81173646D01*
X133885000Y-81116601D01*
X132815000Y-81116601D01*
X132528217Y-81173646D01*
X132442381Y-81231000D01*
X132185750Y-81231000D01*
X132027000Y-81389750D01*
X132027000Y-83439000D01*
X132047000Y-83439000D01*
X132047000Y-83693000D01*
X132027000Y-83693000D01*
X132027000Y-85742250D01*
X132185750Y-85901000D01*
X132442381Y-85901000D01*
X132528217Y-85958354D01*
X132815000Y-86015399D01*
X133885000Y-86015399D01*
X134171783Y-85958354D01*
X134414905Y-85795905D01*
X134577354Y-85552783D01*
X134634399Y-85266000D01*
X134634399Y-84576000D01*
X135170601Y-84576000D01*
X135170601Y-84635000D01*
X135195465Y-84760000D01*
X135170601Y-84885000D01*
X135170601Y-85435000D01*
X135227646Y-85721783D01*
X135386818Y-85960000D01*
X135227646Y-86198217D01*
X135170601Y-86485000D01*
X135170601Y-87035000D01*
X135195465Y-87160000D01*
X135170601Y-87285000D01*
X135170601Y-87835000D01*
X135195465Y-87960000D01*
X135170601Y-88085000D01*
X135170601Y-88635000D01*
X135195465Y-88760000D01*
X135170601Y-88885000D01*
X135170601Y-89435000D01*
X135227646Y-89721783D01*
X135390095Y-89964905D01*
X135633217Y-90127354D01*
X135920000Y-90184399D01*
X137145601Y-90184399D01*
X137145601Y-91327001D01*
X117355195Y-91327001D01*
X115554357Y-89526163D01*
X115498008Y-89441831D01*
X115163921Y-89218601D01*
X114869315Y-89160000D01*
X114869310Y-89160000D01*
X114769839Y-89140214D01*
X114670368Y-89160000D01*
X101513389Y-89160000D01*
X101413918Y-89140214D01*
X101314447Y-89160000D01*
X101314443Y-89160000D01*
X101019837Y-89218601D01*
X100685750Y-89441831D01*
X100629401Y-89526163D01*
X98416161Y-91739403D01*
X98331832Y-91795750D01*
X98275485Y-91880079D01*
X98275482Y-91880082D01*
X98115120Y-92120082D01*
X98108602Y-92129837D01*
X98053241Y-92408157D01*
X98033908Y-92505351D01*
X97917279Y-92583279D01*
X97566964Y-93107564D01*
X97443949Y-93726000D01*
X97566964Y-94344436D01*
X97917279Y-94868721D01*
X98050000Y-94957402D01*
X98050000Y-95593644D01*
X97879645Y-95764000D01*
X87279470Y-95764000D01*
X87179999Y-95744214D01*
X87080528Y-95764000D01*
X87080524Y-95764000D01*
X86785918Y-95822601D01*
X86679113Y-95893966D01*
X86536161Y-95989483D01*
X86536160Y-95989484D01*
X86451831Y-96045831D01*
X86395484Y-96130160D01*
X84380160Y-98145484D01*
X84295832Y-98201831D01*
X84239485Y-98286160D01*
X84239482Y-98286163D01*
X84072602Y-98535918D01*
X84017954Y-98810654D01*
X83989000Y-98830000D01*
X83989000Y-86850842D01*
X86988092Y-83851750D01*
X130730000Y-83851750D01*
X130730000Y-85392310D01*
X130826673Y-85625699D01*
X131005302Y-85804327D01*
X131238691Y-85901000D01*
X131614250Y-85901000D01*
X131773000Y-85742250D01*
X131773000Y-83693000D01*
X130888750Y-83693000D01*
X130730000Y-83851750D01*
X86988092Y-83851750D01*
X89100152Y-81739690D01*
X130730000Y-81739690D01*
X130730000Y-83280250D01*
X130888750Y-83439000D01*
X131773000Y-83439000D01*
X131773000Y-81389750D01*
X131614250Y-81231000D01*
X131238691Y-81231000D01*
X131005302Y-81327673D01*
X130826673Y-81506301D01*
X130730000Y-81739690D01*
X89100152Y-81739690D01*
X90280865Y-80558978D01*
X137160001Y-80558978D01*
X137160000Y-81237610D01*
X137160000Y-81237610D01*
G37*
X137160000Y-81237610D02*
X137145601Y-81310000D01*
X137145601Y-82535601D01*
X136747081Y-82535601D01*
X136719999Y-82530214D01*
X136692917Y-82535601D01*
X135920000Y-82535601D01*
X135817448Y-82556000D01*
X134634399Y-82556000D01*
X134634399Y-81866000D01*
X134577354Y-81579217D01*
X134414905Y-81336095D01*
X134171783Y-81173646D01*
X133885000Y-81116601D01*
X132815000Y-81116601D01*
X132528217Y-81173646D01*
X132442381Y-81231000D01*
X132185750Y-81231000D01*
X132027000Y-81389750D01*
X132027000Y-83439000D01*
X132047000Y-83439000D01*
X132047000Y-83693000D01*
X132027000Y-83693000D01*
X132027000Y-85742250D01*
X132185750Y-85901000D01*
X132442381Y-85901000D01*
X132528217Y-85958354D01*
X132815000Y-86015399D01*
X133885000Y-86015399D01*
X134171783Y-85958354D01*
X134414905Y-85795905D01*
X134577354Y-85552783D01*
X134634399Y-85266000D01*
X134634399Y-84576000D01*
X135170601Y-84576000D01*
X135170601Y-84635000D01*
X135195465Y-84760000D01*
X135170601Y-84885000D01*
X135170601Y-85435000D01*
X135227646Y-85721783D01*
X135386818Y-85960000D01*
X135227646Y-86198217D01*
X135170601Y-86485000D01*
X135170601Y-87035000D01*
X135195465Y-87160000D01*
X135170601Y-87285000D01*
X135170601Y-87835000D01*
X135195465Y-87960000D01*
X135170601Y-88085000D01*
X135170601Y-88635000D01*
X135195465Y-88760000D01*
X135170601Y-88885000D01*
X135170601Y-89435000D01*
X135227646Y-89721783D01*
X135390095Y-89964905D01*
X135633217Y-90127354D01*
X135920000Y-90184399D01*
X137145601Y-90184399D01*
X137145601Y-91327001D01*
X117355195Y-91327001D01*
X115554357Y-89526163D01*
X115498008Y-89441831D01*
X115163921Y-89218601D01*
X114869315Y-89160000D01*
X114869310Y-89160000D01*
X114769839Y-89140214D01*
X114670368Y-89160000D01*
X101513389Y-89160000D01*
X101413918Y-89140214D01*
X101314447Y-89160000D01*
X101314443Y-89160000D01*
X101019837Y-89218601D01*
X100685750Y-89441831D01*
X100629401Y-89526163D01*
X98416161Y-91739403D01*
X98331832Y-91795750D01*
X98275485Y-91880079D01*
X98275482Y-91880082D01*
X98115120Y-92120082D01*
X98108602Y-92129837D01*
X98053241Y-92408157D01*
X98033908Y-92505351D01*
X97917279Y-92583279D01*
X97566964Y-93107564D01*
X97443949Y-93726000D01*
X97566964Y-94344436D01*
X97917279Y-94868721D01*
X98050000Y-94957402D01*
X98050000Y-95593644D01*
X97879645Y-95764000D01*
X87279470Y-95764000D01*
X87179999Y-95744214D01*
X87080528Y-95764000D01*
X87080524Y-95764000D01*
X86785918Y-95822601D01*
X86679113Y-95893966D01*
X86536161Y-95989483D01*
X86536160Y-95989484D01*
X86451831Y-96045831D01*
X86395484Y-96130160D01*
X84380160Y-98145484D01*
X84295832Y-98201831D01*
X84239485Y-98286160D01*
X84239482Y-98286163D01*
X84072602Y-98535918D01*
X84017954Y-98810654D01*
X83989000Y-98830000D01*
X83989000Y-86850842D01*
X86988092Y-83851750D01*
X130730000Y-83851750D01*
X130730000Y-85392310D01*
X130826673Y-85625699D01*
X131005302Y-85804327D01*
X131238691Y-85901000D01*
X131614250Y-85901000D01*
X131773000Y-85742250D01*
X131773000Y-83693000D01*
X130888750Y-83693000D01*
X130730000Y-83851750D01*
X86988092Y-83851750D01*
X89100152Y-81739690D01*
X130730000Y-81739690D01*
X130730000Y-83280250D01*
X130888750Y-83439000D01*
X131773000Y-83439000D01*
X131773000Y-81389750D01*
X131614250Y-81231000D01*
X131238691Y-81231000D01*
X131005302Y-81327673D01*
X130826673Y-81506301D01*
X130730000Y-81739690D01*
X89100152Y-81739690D01*
X90280865Y-80558978D01*
X137160001Y-80558978D01*
X137160000Y-81237610D01*
G36*
X143495000Y-83659399D02*
X143670601Y-83659399D01*
X143670601Y-83835000D01*
X143695465Y-83960000D01*
X143670601Y-84085000D01*
X143670601Y-84635000D01*
X143727646Y-84921783D01*
X143886818Y-85160000D01*
X143727646Y-85398217D01*
X143670601Y-85685000D01*
X143670601Y-86235000D01*
X143727646Y-86521783D01*
X143746500Y-86550000D01*
X142396470Y-86550000D01*
X142296999Y-86530214D01*
X142197529Y-86550000D01*
X142197524Y-86550000D01*
X141902918Y-86608601D01*
X141568831Y-86831831D01*
X141512482Y-86916163D01*
X141501161Y-86927484D01*
X141416832Y-86983831D01*
X141360485Y-87068160D01*
X141360482Y-87068163D01*
X141213429Y-87288245D01*
X141193602Y-87317918D01*
X141187220Y-87350000D01*
X138269399Y-87350000D01*
X138269399Y-87285000D01*
X138244535Y-87160000D01*
X138269399Y-87035000D01*
X138269399Y-86485000D01*
X138212354Y-86198217D01*
X138053182Y-85960000D01*
X138212354Y-85721783D01*
X138269399Y-85435000D01*
X138269399Y-84885000D01*
X138244535Y-84760000D01*
X138269399Y-84635000D01*
X138269399Y-84085000D01*
X138244535Y-83960000D01*
X138269399Y-83835000D01*
X138269399Y-83659399D01*
X138445000Y-83659399D01*
X138570000Y-83634535D01*
X138695000Y-83659399D01*
X139245000Y-83659399D01*
X139370000Y-83634535D01*
X139495000Y-83659399D01*
X140045000Y-83659399D01*
X140170000Y-83634535D01*
X140295000Y-83659399D01*
X140845000Y-83659399D01*
X140970000Y-83634535D01*
X141095000Y-83659399D01*
X141645000Y-83659399D01*
X141770000Y-83634535D01*
X141895000Y-83659399D01*
X142445000Y-83659399D01*
X142570000Y-83634535D01*
X142695000Y-83659399D01*
X143245000Y-83659399D01*
X143370000Y-83634535D01*
X143495000Y-83659399D01*
X143495000Y-83659399D01*
G37*
X143495000Y-83659399D02*
X143670601Y-83659399D01*
X143670601Y-83835000D01*
X143695465Y-83960000D01*
X143670601Y-84085000D01*
X143670601Y-84635000D01*
X143727646Y-84921783D01*
X143886818Y-85160000D01*
X143727646Y-85398217D01*
X143670601Y-85685000D01*
X143670601Y-86235000D01*
X143727646Y-86521783D01*
X143746500Y-86550000D01*
X142396470Y-86550000D01*
X142296999Y-86530214D01*
X142197529Y-86550000D01*
X142197524Y-86550000D01*
X141902918Y-86608601D01*
X141568831Y-86831831D01*
X141512482Y-86916163D01*
X141501161Y-86927484D01*
X141416832Y-86983831D01*
X141360485Y-87068160D01*
X141360482Y-87068163D01*
X141213429Y-87288245D01*
X141193602Y-87317918D01*
X141187220Y-87350000D01*
X138269399Y-87350000D01*
X138269399Y-87285000D01*
X138244535Y-87160000D01*
X138269399Y-87035000D01*
X138269399Y-86485000D01*
X138212354Y-86198217D01*
X138053182Y-85960000D01*
X138212354Y-85721783D01*
X138269399Y-85435000D01*
X138269399Y-84885000D01*
X138244535Y-84760000D01*
X138269399Y-84635000D01*
X138269399Y-84085000D01*
X138244535Y-83960000D01*
X138269399Y-83835000D01*
X138269399Y-83659399D01*
X138445000Y-83659399D01*
X138570000Y-83634535D01*
X138695000Y-83659399D01*
X139245000Y-83659399D01*
X139370000Y-83634535D01*
X139495000Y-83659399D01*
X140045000Y-83659399D01*
X140170000Y-83634535D01*
X140295000Y-83659399D01*
X140845000Y-83659399D01*
X140970000Y-83634535D01*
X141095000Y-83659399D01*
X141645000Y-83659399D01*
X141770000Y-83634535D01*
X141895000Y-83659399D01*
X142445000Y-83659399D01*
X142570000Y-83634535D01*
X142695000Y-83659399D01*
X143245000Y-83659399D01*
X143370000Y-83634535D01*
X143495000Y-83659399D01*
G04 #@! TD*
M02*
